<?xml version="1.0" encoding="UTF-8"?>
<!DOCTYPE svg PUBLIC "-//W3C//DTD SVG 1.1//EN" "http://www.w3.org/Graphics/SVG/1.1/DTD/svg11.dtd">
<!-- Creator: CorelDRAW 2021 (64-Bit) -->
<svg xmlns="http://www.w3.org/2000/svg" xml:space="preserve" width="600px" height="339px" version="1.1" style="shape-rendering:geometricPrecision; text-rendering:geometricPrecision; image-rendering:optimizeQuality; fill-rule:evenodd; clip-rule:evenodd"
viewBox="0 0 34.63 19.59"
 xmlns:xlink="http://www.w3.org/1999/xlink"
 xmlns:xodm="http://www.corel.com/coreldraw/odm/2003">
 <defs>
  <style type="text/css">
   <![CDATA[
    .fil2 {fill:none}
    .fil0 {fill:url(#id3)}
    .fil1 {fill:url(#id4)}
   ]]>
  </style>
   <clipPath id="id0">
    <path d="M32.45 0c1.19,0 2.16,0.97 2.16,2.16 0,4.85 0.04,9.72 0.01,14.56 -0.02,3.03 -1.48,2.87 -3.93,2.87 -9.13,0 -18.27,0 -27.41,0 -2.06,0 -3.2,-1.12 -3.22,-3.18 -0.09,-6.32 -0.79,-13.42 6.66,-15.83 1.3,-0.43 2.49,-0.54 3.84,-0.58 7.18,0 14.36,0 21.54,0l0.35 0z"/>
   </clipPath>
    <clipPath id="id1">
     <path d="M31.72 9.36c1.01,0 1.99,0.15 2.9,0.43 0.01,2.31 0.01,4.63 0,6.93 -0.02,3.03 -1.48,2.87 -3.93,2.87 -2.95,0 -5.91,0 -8.86,0 -0.01,-0.11 -0.01,-0.22 -0.01,-0.33 0,-5.47 4.43,-9.9 9.9,-9.9z"/>
    </clipPath>
    <clipPath id="id2">
     <path d="M32.45 0c1.19,0 2.16,0.97 2.16,2.16 0,4.85 0.04,9.72 0.01,14.56 -0.02,3.03 -1.48,2.87 -3.93,2.87 -9.13,0 -18.27,0 -27.41,0 -2.06,0 -3.2,-1.12 -3.22,-3.18 -0.09,-6.32 -0.79,-13.42 6.66,-15.83 1.3,-0.43 2.49,-0.54 3.84,-0.58 7.18,0 14.36,0 21.54,0l0.35 0z"/>
    </clipPath>
  <radialGradient id="id3" gradientUnits="userSpaceOnUse" gradientTransform="matrix(1.71465 1.58275 -1.58276 1.71465 -5 15)" cx="-6.58" cy="-5.88" r="9" fx="-6.58" fy="-5.88">
   <stop offset="0" style="stop-opacity:0.0666667; stop-color:#B4B4B4"/>
   <stop offset="0.0980392" style="stop-opacity:0.533333; stop-color:#737373"/>
   <stop offset="1" style="stop-opacity:1; stop-color:#333333"/>
  </radialGradient>
  <radialGradient id="id4" gradientUnits="userSpaceOnUse" gradientTransform="matrix(0.302759 1.61636 1.61636 -0.302759 9 -23)" cx="15.16" cy="1.13" r="33.34" fx="15.16" fy="1.13">
   <stop offset="0" style="stop-opacity:1; stop-color:#FBC93B"/>
   <stop offset="0.588235" style="stop-opacity:1; stop-color:#F99F2C"/>
   <stop offset="1" style="stop-opacity:1; stop-color:#F7751E"/>
  </radialGradient>
 </defs>
 <g id="Layer_x0020_1">
  <metadata id="CorelCorpID_0Corel-Layer"/>
  <path class="fil0" d="M32.45 0c1.19,0 2.16,0.97 2.16,2.16 0,4.85 0.04,9.72 0.01,14.56 -0.02,3.03 -1.48,2.87 -3.93,2.87 -9.13,0 -18.27,0 -27.41,0 -2.06,0 -3.2,-1.12 -3.22,-3.18 -0.09,-6.32 -0.79,-13.42 6.66,-15.83 1.3,-0.43 2.49,-0.54 3.84,-0.58 7.18,0 14.36,0 21.54,0l0.35 0z"/>
  <g style="clip-path:url(#id0)">
   <g id="_1246587113184">
    <g>
    </g>
   </g>
   <g style="clip-path:url(#id1)">
    <g id="_1246587111984">
     <path id="_1" class="fil1" d="M23.09 39.78c-17.23,-9.32 -23.65,-30.84 -14.33,-48.08l62.42 33.75c-9.33,17.24 -30.85,23.65 -48.09,14.33z"/>
    </g>
   </g>
   <g style="clip-path:url(#id2)">
    <path class="fil2" d="M31.72 9.36c5.47,0 9.9,4.43 9.9,9.9 0,5.47 -4.43,9.9 -9.9,9.9 -5.47,0 -9.9,-4.43 -9.9,-9.9 0,-5.47 4.43,-9.9 9.9,-9.9z"/>
   </g>
  </g>
  <path class="fil2" d="M32.45 0c1.19,0 2.16,0.97 2.16,2.16 0,4.85 0.04,9.72 0.01,14.56 -0.02,3.03 -1.48,2.87 -3.93,2.87 -9.13,0 -18.27,0 -27.41,0 -2.06,0 -3.2,-1.12 -3.22,-3.18 -0.09,-6.32 -0.79,-13.42 6.66,-15.83 1.3,-0.43 2.49,-0.54 3.84,-0.58 7.18,0 14.36,0 21.54,0l0.35 0z"/>
 </g>
</svg>
