<?xml version="1.0" standalone="no"?>
<!DOCTYPE svg PUBLIC "-//W3C//DTD SVG 20010904//EN"
 "http://www.w3.org/TR/2001/REC-SVG-20010904/DTD/svg10.dtd">
<svg version="1.0" xmlns="http://www.w3.org/2000/svg"
 width="2823.000000pt" height="1003.000000pt" viewBox="0 0 2823.000000 1003.000000"
 preserveAspectRatio="xMidYMid meet">
<metadata>
Created by potrace 1.16, written by Peter Selinger 2001-2019
</metadata>
 <g transform="translate(0.000000,1003.000000) scale(0.100000,-0.100000)" fill="#000000" stroke="none">

<path d="M11526 6168 c-3 -13 -71 -493 -151 -1067 -112 -801 -143 -1047 -134
-1057 10 -12 56 -14 248 -12 l236 3 35 252 c20 139 38 254 41 257 10 9 210 88
214 85 2 -3 61 -138 130 -302 l127 -297 241 0 c225 0 243 1 254 19 10 15 -12
72 -141 358 -84 188 -169 364 -190 393 l-38 53 33 26 c127 96 265 260 336 396
59 116 106 254 92 271 -9 11 -60 14 -253 14 l-241 0 -18 -58 c-32 -101 -92
-190 -206 -302 -91 -91 -254 -216 -306 -236 -14 -6 -15 -3 -1 32 37 95 59 219
122 677 52 389 63 491 54 502 -10 12 -53 15 -246 15 l-234 0 -4 -22z"></path>
<path d="M18860 6184 c0 -4 -57 -406 -126 -893 -136 -955 -138 -979 -95 -1076
45 -101 129 -169 246 -200 116 -30 387 -14 489 29 l39 16 -6 58 c-4 31 -9 112
-13 180 l-7 122 -106 0 c-130 0 -155 10 -159 63 -2 21 49 407 113 858 94 655
114 823 105 834 -10 12 -53 15 -246 15 -129 0 -234 -3 -234 -6z"></path>
<path d="M10165 5600 c-257 -27 -407 -114 -465 -267 -48 -128 -47 -285 1 -388
56 -118 135 -171 466 -306 265 -108 318 -133 328 -149 15 -24 -6 -61 -43 -78
-32 -15 -89 -17 -447 -20 l-411 -3 -22 -157 c-17 -124 -19 -159 -9 -168 14
-13 219 -39 442 -55 186 -13 466 -6 575 15 274 53 386 181 397 456 6 149 -13
208 -96 290 -70 70 -141 106 -412 213 -255 100 -315 130 -324 156 -9 28 11 59
43 68 15 5 208 8 430 8 396 0 403 0 407 20 17 81 44 300 38 305 -11 10 -201
38 -338 50 -166 14 -470 20 -560 10z"></path>
<path d="M15971 5595 c-154 -28 -316 -111 -463 -237 l-57 -49 -3 123 -3 123
-196 3 -197 2 -6 -32 c-3 -18 -51 -356 -106 -752 -77 -551 -98 -722 -89 -732
10 -12 56 -14 248 -12 l236 3 52 380 c29 209 57 417 63 462 l12 82 86 61 c152
108 314 174 385 156 57 -14 57 -13 -23 -586 -60 -437 -71 -532 -60 -544 11
-14 47 -16 245 -16 l232 0 83 587 c92 656 95 706 48 798 -51 99 -147 165 -271
185 -79 13 -124 12 -216 -5z"></path>
<path d="M17410 5599 c-110 -9 -262 -54 -330 -97 -195 -124 -319 -462 -336
-917 -16 -410 115 -584 438 -585 218 0 410 71 556 208 l42 40 0 -97 c0 -62 4
-101 12 -109 8 -8 66 -12 195 -12 181 0 183 0 188 23 16 73 203 1453 197 1458
-10 10 -197 46 -332 64 -249 33 -440 40 -630 24z m398 -646 l-38 -278 -84 -80
c-133 -127 -265 -193 -363 -182 -62 7 -76 24 -81 102 -8 117 28 388 68 516 49
162 118 195 401 198 l135 1 -38 -277z"></path>
<path d="M20320 5599 c-110 -9 -262 -54 -330 -97 -195 -124 -319 -462 -336
-917 -16 -410 115 -584 438 -585 218 0 410 71 556 208 l42 40 0 -97 c0 -62 4
-101 12 -109 8 -8 66 -12 195 -12 181 0 183 0 188 23 16 73 203 1453 197 1458
-10 10 -197 46 -332 64 -249 33 -440 40 -630 24z m398 -646 l-38 -278 -84 -80
c-133 -127 -265 -193 -363 -182 -62 7 -76 24 -81 102 -8 117 28 388 68 516 49
162 118 195 401 198 l135 1 -38 -277z"></path>
<path d="M22582 5599 c-134 -22 -273 -91 -424 -210 l-87 -69 -3 118 -3 117
-191 3 -192 2 -6 -32 c-3 -18 -51 -356 -106 -752 -77 -551 -98 -722 -89 -732
10 -12 56 -14 248 -12 l236 3 52 385 c28 212 57 423 64 469 l11 84 132 62
c181 87 245 105 367 105 l98 0 10 38 c51 194 92 387 87 407 -6 24 -10 25 -79
24 -39 -1 -96 -5 -125 -10z"></path>
<path d="M7940 5555 c0 -2 -36 -264 -81 -582 -88 -631 -92 -685 -50 -778 30
-68 91 -128 165 -161 54 -25 76 -28 187 -32 105 -4 137 -1 203 17 123 34 268
113 389 213 l47 40 0 -110 c0 -81 4 -113 14 -121 9 -8 70 -11 197 -9 l183 3
104 749 c56 412 100 756 98 763 -4 10 -56 13 -244 13 l-239 0 -32 -232 c-17
-128 -46 -336 -63 -462 l-32 -228 -95 -74 c-127 -97 -202 -135 -284 -141 -60
-5 -67 -4 -91 20 -14 14 -26 36 -26 49 -1 13 32 250 71 528 40 278 70 513 66
523 -6 15 -29 17 -247 17 -132 0 -240 -2 -240 -5z"></path>
<path d="M13200 5555 c0 -2 -36 -264 -81 -582 -88 -631 -92 -685 -50 -778 30
-68 91 -128 165 -161 54 -25 76 -28 187 -32 105 -4 137 -1 203 17 123 34 268
113 389 213 l47 40 0 -110 c0 -81 4 -113 14 -121 9 -8 70 -11 197 -9 l184 3
103 749 c56 412 100 756 98 763 -4 10 -56 13 -244 13 l-239 0 -32 -232 c-17
-128 -46 -336 -63 -462 l-32 -228 -95 -74 c-127 -97 -202 -135 -284 -141 -60
-5 -67 -4 -91 20 -14 14 -26 36 -26 49 -1 13 32 250 71 528 40 278 70 513 66
523 -6 15 -29 17 -247 17 -132 0 -240 -2 -240 -5z"></path>
<path d="M23820 5555 c0 -2 -36 -264 -81 -582 -88 -631 -92 -685 -50 -778 30
-68 91 -128 165 -161 54 -25 76 -28 187 -32 105 -4 137 -1 203 17 123 34 268
113 389 213 l47 40 0 -110 c0 -81 4 -113 14 -121 9 -8 70 -11 197 -9 l183 3
104 749 c56 412 100 756 98 763 -4 10 -56 13 -244 13 l-239 0 -32 -232 c-17
-128 -46 -336 -63 -462 l-32 -228 -95 -74 c-127 -97 -202 -135 -284 -141 -60
-5 -67 -4 -91 20 -14 14 -26 36 -26 49 -1 13 32 250 71 528 40 278 70 513 66
523 -6 15 -29 17 -247 17 -132 0 -240 -2 -240 -5z"></path>
<path d="M25630 5553 c0 -5 -9 -79 -21 -166 -12 -86 -18 -164 -15 -172 4 -13
60 -15 368 -17 l362 -3 -420 -386 c-230 -212 -426 -392 -434 -401 -22 -22 -65
-345 -49 -364 10 -12 124 -14 690 -14 374 0 679 4 679 8 0 4 9 75 21 156 11
82 19 160 17 175 l-3 26 -378 5 -379 5 412 380 c226 209 422 389 436 401 22
18 26 35 45 184 11 89 18 169 15 176 -4 12 -120 14 -676 14 -368 0 -670 -3
-670 -7z"></path>
<path d="M22945 4525 c-50 -18 -91 -62 -104 -112 -18 -69 -34 -229 -27 -266
15 -79 91 -117 234 -117 177 1 222 41 253 226 29 174 16 228 -64 265 -53 23
-230 26 -292 4z"></path>
</g>
</svg>
