<svg width="34" height="30" viewBox="0 0 34 30" fill="none" xmlns="http://www.w3.org/2000/svg">
<path d="M0.00722886 21.5929C0.00722886 26.063 3.63073 29.6865 8.10074 29.6865C12.5708 29.6865 16.1943 26.063 16.1943 21.5929C16.1943 17.1228 12.5708 13.4994 8.10074 13.4994C7.18208 13.4994 6.30271 13.6595 5.47948 13.9417C7.30087 3.49561 15.4468 -3.24096 7.89555 2.30337C-0.477698 8.45142 -0.00173887 21.3455 0.0076304 21.5818C0.0076304 21.5855 0.00722886 21.5888 0.00722886 21.5929Z" fill="white"/>
<path d="M17.8129 21.5929C17.8129 26.063 21.4364 29.6865 25.9065 29.6865C30.3766 29.6865 34.0001 26.063 34.0001 21.5929C34.0001 17.1228 30.3765 13.4994 25.9064 13.4994C24.9877 13.4994 24.1084 13.6595 23.2852 13.9417C25.1066 3.49561 33.2525 -3.24096 25.7012 2.30337C17.328 8.45142 17.8039 21.3455 17.8133 21.5818C17.8133 21.5855 17.8129 21.5888 17.8129 21.5929Z" fill="white"/>
</svg>
