<svg width="16" height="16" viewBox="0 0 16 16" fill="none" xmlns="http://www.w3.org/2000/svg">
<path d="M8.88381 8.00053L15.8168 1.06748C16.0609 0.823385 16.0609 0.427636 15.8168 0.183573C15.5727 -0.0604885 15.177 -0.0605198 14.9329 0.183573L7.99987 7.11662L1.06685 0.183573C0.822759 -0.0605198 0.42701 -0.0605198 0.182948 0.183573C-0.0611142 0.427667 -0.0611454 0.823416 0.182948 1.06748L7.11597 8.0005L0.182948 14.9335C-0.0611454 15.1776 -0.0611454 15.5734 0.182948 15.8174C0.304979 15.9395 0.464947 16.0005 0.624916 16.0005C0.784884 16.0005 0.944822 15.9395 1.06688 15.8174L7.99987 8.88443L14.9329 15.8174C15.0549 15.9395 15.2149 16.0005 15.3749 16.0005C15.5348 16.0005 15.6948 15.9395 15.8168 15.8174C16.0609 15.5734 16.0609 15.1776 15.8168 14.9335L8.88381 8.00053Z" fill="#132E6B"/>
</svg>
