<svg width="1440" height="203" viewBox="0 0 1440 203" fill="none" xmlns="http://www.w3.org/2000/svg">
<rect width="1440" height="203" fill="white"/>
<rect width="1440" height="203" fill="#FFE700"/>
<g opacity="0.3">
<g clip-path="url(#clip0_2578_1275)">
<path d="M196.951 123.66L148.22 95.5252C147.748 95.2522 147.143 95.4142 146.87 95.8869C146.597 96.3596 146.759 96.964 147.232 97.237L153.68 100.96L151.746 104.309C151.473 104.781 151.635 105.386 152.108 105.659L179.597 121.529C180.07 121.802 180.674 121.64 180.947 121.168L182.881 117.819L195.963 125.372C196.233 125.527 196.325 125.874 196.17 126.144L192.856 131.883L137.85 100.125L141.163 94.3863C141.319 94.1163 141.666 94.0233 141.936 94.1792L143.808 95.2603C144.281 95.5333 144.886 95.3713 145.159 94.8986C145.431 94.4259 145.27 93.8215 144.797 93.5485L142.924 92.4674C141.71 91.7665 140.152 92.1839 139.452 93.3979L126.041 116.626C125.517 117.534 125.829 118.698 126.737 119.223L130.851 121.598C131.759 122.122 132.924 121.81 133.448 120.902L136.376 115.832L179.991 141.013L177.064 146.084C176.54 146.992 176.852 148.156 177.76 148.681L181.874 151.056C182.782 151.58 183.947 151.268 184.471 150.36L197.882 127.132C198.582 125.918 198.165 124.361 196.951 123.66ZM179.729 119.323L153.952 104.441L155.392 101.948L181.169 116.83L179.729 119.323ZM191.868 133.594L186.675 142.59L131.668 110.832L136.862 101.837L191.868 133.594ZM131.774 119.848L127.791 117.549L130.68 112.544L134.664 114.844L131.774 119.848ZM178.813 147.007L181.703 142.002L185.686 144.302L182.797 149.306L178.813 147.007Z" fill="#132E6B"/>
<path d="M215.478 92.9717L170.905 67.237C170.432 66.964 169.827 67.126 169.555 67.5987C169.282 68.0714 169.444 68.6758 169.916 68.9488L214.372 94.6154L212.158 98.4502L157.152 66.6924L159.366 62.8576L166.493 66.9722C166.965 67.2451 167.57 67.0831 167.843 66.6104C168.116 66.1377 167.954 65.5333 167.481 65.2603L160.237 61.0777C159.358 60.5703 158.23 60.8724 157.722 61.7514L155.372 65.8219C154.865 66.7008 155.167 67.8286 156.046 68.336L164.762 73.368L164.147 74.4322C163.273 75.9467 163.794 77.8902 165.308 78.7646L174.686 84.1792L172.099 88.6607C171.45 89.784 171.837 91.2255 172.96 91.8741L173.891 92.4117L171.86 95.9295L167.742 93.5516C165.892 92.4839 163.519 93.1197 162.452 94.9689L161.437 96.7259C161.164 97.1986 161.326 97.803 161.799 98.076L182.656 110.118C183.129 110.391 183.733 110.229 184.006 109.756L185.02 107.999C186.088 106.15 185.452 103.777 183.603 102.709L179.484 100.331L181.515 96.8135L182.446 97.3511C183.57 97.9997 185.011 97.6134 185.66 96.4901L188.247 92.0086L197.625 97.4232C199.14 98.2976 201.083 97.7768 201.958 96.2623L202.572 95.1981L211.288 100.23C212.167 100.738 213.295 100.435 213.802 99.5564L216.152 95.4859C216.66 94.6069 216.357 93.4791 215.478 92.9717ZM183.308 107.011L182.788 107.912L163.643 96.8585L164.163 95.9574C164.686 95.052 165.848 94.7407 166.753 95.2635L182.614 104.421C183.52 104.944 183.831 106.105 183.308 107.011ZM177.772 99.3429L173.572 96.9178L175.603 93.4001L179.803 95.8252L177.772 99.3429ZM183.948 95.5018C183.844 95.6812 183.614 95.7429 183.434 95.6393L173.948 90.1624C173.769 90.0588 173.707 89.8285 173.811 89.6491L176.398 85.1676L186.535 91.0202L183.948 95.5017L183.948 95.5018ZM200.246 95.2739C199.917 95.8445 199.184 96.0407 198.614 95.7113L166.296 77.0528C165.726 76.7234 165.53 75.9911 165.859 75.4205L166.473 74.3563L200.86 94.2097L200.246 95.2739Z" fill="#132E6B"/>
<path d="M161.203 125.345L164.011 126.966C164.982 127.527 166.228 127.193 166.788 126.222L167.725 124.599C168.286 123.629 167.952 122.383 166.981 121.822L164.173 120.201C163.202 119.64 161.956 119.974 161.396 120.945L160.459 122.568C159.898 123.539 160.232 124.785 161.203 125.345ZM163.107 121.933C163.123 121.906 163.158 121.897 163.185 121.913L165.993 123.534C166.02 123.549 166.029 123.584 166.013 123.611L165.077 125.234C165.061 125.261 165.026 125.27 164.999 125.254L162.191 123.633C162.164 123.618 162.155 123.583 162.171 123.556L163.107 121.933Z" fill="#132E6B"/>
<path d="M169.861 130.344L172.669 131.965C173.64 132.526 174.886 132.192 175.447 131.221L176.383 129.598C176.944 128.627 176.61 127.381 175.639 126.821L172.831 125.2C171.86 124.639 170.614 124.973 170.054 125.944L169.117 127.566C168.556 128.537 168.89 129.783 169.861 130.344ZM171.766 126.932C171.781 126.905 171.816 126.896 171.843 126.911L174.651 128.533C174.678 128.548 174.687 128.583 174.672 128.61L173.735 130.232C173.719 130.26 173.685 130.269 173.657 130.253L170.849 128.632C170.822 128.616 170.813 128.582 170.829 128.555L171.766 126.932Z" fill="#132E6B"/>
<path d="M147.088 114.879L148.084 115.454C148.556 115.727 149.161 115.565 149.434 115.092C149.707 114.619 149.545 114.015 149.072 113.742L148.077 113.167C147.604 112.894 146.999 113.056 146.727 113.529C146.454 114.002 146.616 114.606 147.088 114.879Z" fill="#132E6B"/>
<path d="M151.674 117.527L152.669 118.101C153.142 118.374 153.747 118.212 154.02 117.74C154.292 117.267 154.13 116.663 153.658 116.39L152.663 115.815C152.19 115.542 151.585 115.704 151.312 116.177C151.04 116.65 151.201 117.254 151.674 117.527Z" fill="#132E6B"/>
<path d="M156.516 120.322L157.511 120.897C157.984 121.17 158.588 121.008 158.861 120.535C159.134 120.062 158.972 119.458 158.5 119.185L157.504 118.61C157.032 118.337 156.427 118.499 156.154 118.972C155.881 119.445 156.043 120.049 156.516 120.322Z" fill="#132E6B"/>
</g>
<g clip-path="url(#clip1_2578_1275)">
<path d="M416.466 58.8326C417.205 58.4984 417.533 57.6296 417.199 56.8906L415.95 54.128C415.616 53.3846 414.746 53.049 414 53.3777L412.099 54.237L401.963 31.8193C401.776 31.4145 401.298 31.2342 400.89 31.4144L398.374 32.5522C397.973 32.7379 397.799 33.2125 397.985 33.6139L397.987 33.6174L398.846 35.5178L390.945 39.0901L390.086 37.1897C389.899 36.7848 389.421 36.6045 389.013 36.7848L381.218 40.3093C380.816 40.4951 380.643 40.9697 380.829 41.3711L380.83 41.3746L381.69 43.275L373.789 46.8473L372.93 44.9469C372.742 44.542 372.264 44.3617 371.856 44.542L369.34 45.6797C368.939 45.8654 368.766 46.3401 368.951 46.7414L368.953 46.7449L379.089 69.1626L377.188 70.0218C376.441 70.36 376.108 71.2415 376.446 71.9894L377.695 74.752C378.032 75.492 378.904 75.8182 379.644 75.4815L379.655 75.4767L379.672 75.4687L384.04 85.1291C383.337 85.7758 383.133 86.8024 383.535 87.6676L383.853 88.3715C384.19 89.1115 385.062 89.4377 385.802 89.101L385.813 89.0962L391.285 86.6219C392.029 86.2879 392.364 85.4177 392.036 84.6719L391.717 83.9681C391.333 83.0948 390.428 82.5695 389.478 82.6706L385.444 73.7493L388.199 74.4532C388.614 74.5498 389.049 74.5098 389.44 74.3374L409.148 65.4266C409.532 65.2446 409.85 64.9459 410.054 64.5718L411.328 62.046L415.362 70.9673C414.681 71.6226 414.487 72.6366 414.874 73.4979L415.192 74.2017C415.526 74.9408 416.395 75.2685 417.134 74.9344L422.624 72.4521C423.363 72.1179 423.691 71.2491 423.357 70.5101L423.039 69.8063C422.648 68.9466 421.758 68.4227 420.817 68.5009L416.449 58.8405L416.466 58.8326ZM399.595 33.611L400.897 33.0223L410.762 54.8416L409.46 55.4304L399.595 33.611ZM391.55 40.4274L399.451 36.8551L400.039 38.1572L392.139 41.7295L391.55 40.4274ZM382.438 41.3682L389.019 38.3926L391.398 43.6539L384.817 46.6295L382.438 41.3682ZM392.773 51.3824L393.362 52.6846L390.3 54.0689L389.711 52.7668L392.773 51.3824ZM389.986 51.0317L389.255 49.4128L390.557 48.8241L391.289 50.4429L389.986 51.0317ZM387.33 48.6722L386.741 47.3701L390.683 45.5879L391.272 46.8901L387.33 48.6722ZM374.394 48.1846L382.294 44.6123L382.883 45.9144L374.982 49.4867L374.394 48.1846ZM375.587 50.824L383.488 47.2517L384.013 48.4131C384.055 48.502 384.161 48.539 384.25 48.4967L384.26 48.4919L385.404 47.9748L386.526 50.4558C386.568 50.5448 386.674 50.5817 386.763 50.5394L386.773 50.5346L387.917 50.0175L388.649 51.6363L387.945 51.9546C387.851 51.9907 387.803 52.0951 387.839 52.189L387.849 52.2101L389.488 55.8349C389.524 55.9288 389.628 55.977 389.722 55.9409L389.743 55.9313L391.749 55.0244L392.473 56.6256C392.644 57.0039 393.092 57.1726 393.47 57.0016C393.841 56.8233 394.007 56.3838 393.846 56.005L393.122 54.4038L395.128 53.4968C395.225 53.453 395.268 53.338 395.224 53.2413L393.585 49.6164C393.542 49.5197 393.427 49.4763 393.33 49.52L392.626 49.8383L391.894 48.2194L393.038 47.7023C393.129 47.6609 393.174 47.5581 393.142 47.4643L392.02 44.9833L393.164 44.4661C393.256 44.4248 393.3 44.3219 393.268 44.2282L392.743 43.0668L400.644 39.4946L408.123 56.0351L403.09 58.3105L402.637 57.3075C402.088 56.0934 400.657 55.5535 399.443 56.1025L388.85 60.892C387.636 61.441 387.096 62.8719 387.645 64.0861L388.098 65.0891L383.066 67.3645L375.587 50.824ZM401.263 57.9246L401.264 57.9281L401.718 58.9311L389.471 64.4685L389.017 63.4655C388.809 63.0106 389.012 62.474 389.467 62.2661L389.47 62.2645L400.063 57.475C400.518 57.2672 401.055 57.4696 401.263 57.9246ZM370.561 46.7385L371.863 46.1498L381.728 67.9692L380.426 68.5579L370.561 46.7385ZM390.655 85.2749L385.218 87.7333L384.908 87.0471C384.737 86.6748 384.896 86.2342 385.266 86.0585L389.366 84.2047C389.742 84.0431 390.178 84.2148 390.345 84.5886L390.655 85.2749ZM385.34 84.3933L381.027 74.8561L383.755 73.6229L388.067 83.1601L385.34 84.3933ZM391.308 71.8607L390.533 68.9264L404.363 62.673L406.054 65.1935L391.308 71.8607ZM421.994 71.1051L416.539 73.5715L416.229 72.8853C416.068 72.5065 416.234 72.067 416.605 71.8887L420.687 70.0429C421.066 69.8718 421.513 70.0405 421.684 70.4189L421.994 71.1051ZM416.679 70.2235L412.366 60.6863L415.076 59.4611L419.388 68.9983L416.679 70.2235ZM410.821 59.7531L408.658 64.016L407.426 64.573L405.589 61.822C405.191 61.2222 404.417 60.9975 403.76 61.2925L389.894 67.5619C389.239 67.8604 388.897 68.5895 389.084 69.2848L389.918 72.4893L388.704 73.0382L384.057 71.8543L379.06 74.1138L377.827 71.3864L414.603 54.7582L415.836 57.4856L410.821 59.7531Z" fill="#132E6B"/>
</g>
<g clip-path="url(#clip2_2578_1275)">
<path d="M944.922 148.621C945.879 148.188 946.303 147.063 945.871 146.107L944.254 142.53C943.821 141.568 942.695 141.134 941.729 141.559L939.269 142.671L926.147 113.65C925.905 113.126 925.286 112.893 924.758 113.126L921.5 114.599C920.981 114.839 920.757 115.454 920.997 115.973L920.999 115.978L922.111 118.438L911.883 123.063L910.771 120.602C910.529 120.078 909.91 119.845 909.382 120.078L899.29 124.641C898.771 124.881 898.546 125.496 898.787 126.016L898.789 126.02L899.901 128.48L889.673 133.105L888.561 130.645C888.318 130.121 887.7 129.887 887.171 130.121L883.914 131.593C883.394 131.834 883.17 132.448 883.411 132.968L883.413 132.972L896.534 161.994L894.074 163.106C893.106 163.544 892.676 164.685 893.113 165.653L894.73 169.23C895.166 170.188 896.296 170.61 897.254 170.174L897.267 170.168L897.29 170.158L902.945 182.664C902.034 183.501 901.77 184.83 902.29 185.95L902.702 186.861C903.138 187.819 904.268 188.241 905.226 187.806L905.239 187.799L912.324 184.596C913.286 184.164 913.72 183.037 913.295 182.072L912.883 181.161C912.386 180.03 911.214 179.35 909.983 179.481L904.761 167.932L908.329 168.843C908.865 168.968 909.429 168.916 909.935 168.693L935.448 157.157C935.945 156.922 936.357 156.535 936.621 156.051L938.27 152.781L943.492 164.33C942.611 165.178 942.36 166.491 942.861 167.606L943.273 168.517C943.706 169.474 944.83 169.898 945.787 169.466L952.894 166.252C953.851 165.82 954.275 164.695 953.843 163.738L953.431 162.827C952.925 161.714 951.773 161.036 950.554 161.137L944.9 148.631L944.922 148.621ZM923.081 115.97L924.766 115.207L937.538 143.454L935.852 144.216L923.081 115.97ZM912.666 124.794L922.894 120.169L923.656 121.855L913.428 126.48L912.666 124.794ZM900.87 126.012L909.39 122.16L912.47 128.971L903.95 132.823L900.87 126.012ZM914.25 138.976L915.012 140.662L911.048 142.454L910.286 140.768L914.25 138.976ZM910.642 138.522L909.695 136.426L911.38 135.664L912.328 137.76L910.642 138.522ZM907.203 135.467L906.441 133.782L911.544 131.475L912.306 133.16L907.203 135.467ZM890.456 134.836L900.684 130.212L901.446 131.897L891.218 136.522L890.456 134.836ZM892.001 138.253L902.229 133.629L902.909 135.132C902.964 135.247 903.1 135.295 903.216 135.24L903.229 135.234L904.71 134.565L906.162 137.776C906.217 137.892 906.354 137.939 906.469 137.885L906.483 137.878L907.963 137.209L908.911 139.305L908 139.717C907.878 139.763 907.816 139.899 907.863 140.02L907.875 140.048L909.997 144.74C910.043 144.862 910.179 144.924 910.3 144.877L910.328 144.865L912.924 143.691L913.862 145.764C914.083 146.253 914.662 146.472 915.152 146.25C915.632 146.02 915.847 145.451 915.639 144.96L914.701 142.887L917.298 141.713C917.423 141.657 917.48 141.508 917.423 141.382L915.301 136.69C915.245 136.565 915.096 136.508 914.97 136.565L914.059 136.977L913.112 134.881L914.592 134.212C914.711 134.158 914.769 134.025 914.727 133.904L913.275 130.692L914.756 130.022C914.874 129.969 914.932 129.836 914.891 129.714L914.211 128.211L924.439 123.586L934.121 144.999L927.606 147.945L927.019 146.646C926.308 145.075 924.456 144.376 922.884 145.086L909.171 151.287C907.599 151.998 906.9 153.85 907.611 155.422L908.198 156.72L901.683 159.666L892.001 138.253ZM925.24 147.445L925.242 147.45L925.829 148.748L909.974 155.917L909.387 154.618C909.118 154.03 909.38 153.335 909.969 153.066L909.974 153.064L923.687 146.863C924.276 146.594 924.971 146.856 925.24 147.445ZM885.494 132.964L887.18 132.202L899.951 160.449L898.266 161.211L885.494 132.964ZM911.508 182.852L904.469 186.035L904.067 185.147C903.847 184.665 904.052 184.094 904.531 183.867L909.839 181.467C910.326 181.258 910.89 181.48 911.106 181.964L911.508 182.852ZM904.626 181.711L899.044 169.364L902.575 167.768L908.157 180.115L904.626 181.711ZM912.353 165.487L911.349 161.688L929.254 153.592L931.443 156.856L912.353 165.487ZM952.078 164.509L945.017 167.701L944.615 166.813C944.407 166.323 944.622 165.754 945.102 165.523L950.387 163.133C950.876 162.912 951.455 163.13 951.677 163.62L952.078 164.509ZM945.197 163.367L939.615 151.021L943.123 149.434L948.705 161.781L945.197 163.367ZM937.614 149.812L934.814 155.331L933.22 156.052L930.841 152.491C930.325 151.714 929.324 151.423 928.474 151.805L910.523 159.922C909.674 160.308 909.231 161.252 909.474 162.152L910.554 166.3L908.982 167.011L902.966 165.478L896.497 168.404L894.9 164.873L942.51 143.346L944.106 146.877L937.614 149.812Z" fill="#132E6B"/>
</g>
<g clip-path="url(#clip3_2578_1275)">
<path d="M1292.85 100.331L1270.96 92.7904C1269.15 92.1668 1267.17 93.1325 1266.55 94.9429L1265.42 98.2264L1252.28 93.7019L1265.06 85.0431L1267.07 79.2061L1238.62 69.4031L1236.61 75.2401L1241.34 89.9315L1229.3 85.7841C1227.49 85.1605 1225.51 86.1262 1224.89 87.9365L1214.33 118.583C1213.84 120.008 1214.34 121.528 1215.46 122.419L1213.36 128.512C1212.42 129.05 1211.65 129.899 1211.28 130.999C1210.44 133.414 1211.73 136.054 1214.15 136.886C1216.56 137.717 1219.2 136.43 1220.03 134.016C1220.41 132.916 1220.33 131.776 1219.92 130.773L1221.95 124.883L1241.65 131.669L1239.62 137.56C1238.69 138.098 1237.92 138.947 1237.54 140.048C1236.71 142.463 1238 145.103 1240.41 145.935C1242.83 146.766 1245.47 145.479 1246.3 143.065C1246.68 141.965 1246.6 140.825 1246.19 139.822L1248.22 133.932L1272.3 142.226L1270.27 148.117C1269.33 148.655 1268.57 149.504 1268.19 150.605C1267.36 153.02 1268.64 155.66 1271.06 156.492C1273.47 157.323 1276.11 156.036 1276.95 153.622C1277.32 152.522 1277.25 151.382 1276.84 150.379L1278.94 144.287C1280.36 144.272 1281.7 143.384 1282.19 141.959L1295.01 104.746C1295.63 102.936 1294.66 100.955 1292.85 100.331ZM1270.21 94.9795L1292.1 102.52C1292.7 102.728 1293.03 103.389 1292.82 103.992L1292.44 105.086L1268.36 96.7914L1268.74 95.6969C1268.95 95.0939 1269.61 94.7717 1270.21 94.9795ZM1260.89 111.36L1255.97 109.665C1256.01 105.315 1253.5 101.058 1249.48 98.3016L1250.44 95.5139L1264.66 100.415L1260.89 111.36ZM1224.9 123.448L1227.91 114.692L1247.61 121.478L1244.6 130.234L1224.9 123.448ZM1217.23 120.808C1216.63 120.601 1216.31 119.941 1216.52 119.337L1221.42 105.108L1230.17 108.125L1228.67 112.503L1226.48 111.749L1222.71 122.694L1217.23 120.808ZM1248.25 94.7598L1247.44 97.101C1246.76 96.7588 1246.05 96.4508 1245.3 96.1948C1244.56 95.9391 1243.81 95.7446 1243.06 95.5928L1243.87 93.2517L1248.25 94.7598ZM1244.55 98.3838C1245.3 98.6406 1246.01 98.9515 1246.68 99.3053L1244.48 105.705L1240.1 104.197L1242.3 97.7972C1243.05 97.9343 1243.8 98.127 1244.55 98.3838ZM1246.67 106.459L1248.69 100.577C1251.55 102.715 1253.39 105.734 1253.63 108.858L1246.67 106.459ZM1235.23 114.765L1236.74 110.387L1243.31 112.649L1241.8 117.027L1235.23 114.765ZM1236.06 105.255L1235.31 107.444L1233.12 106.69L1233.87 104.501L1236.06 105.255ZM1234.55 109.633L1233.04 114.011L1230.86 113.257L1232.36 108.879L1234.55 109.633ZM1237.5 108.198L1238.25 106.009L1244.82 108.271L1244.06 110.46L1237.5 108.198ZM1237.91 103.443L1230.95 101.044C1233.06 98.7331 1236.37 97.4882 1239.94 97.5619L1237.91 103.443ZM1231.68 103.747L1230.93 105.936L1222.17 102.919L1222.93 100.73L1231.68 103.747ZM1243.99 117.781L1245.5 113.403L1247.69 114.157L1246.18 118.535L1243.99 117.781ZM1246.25 111.214L1247.01 109.025L1249.19 109.779L1248.44 111.968L1246.25 111.214ZM1251.38 110.533L1260.14 113.55L1259.39 115.739L1250.63 112.722L1251.38 110.533ZM1239.05 75.2652L1240.05 72.3462L1264.13 80.641L1263.12 83.5601L1249.55 92.7593L1244.08 90.8741L1239.05 75.2652ZM1228.55 87.9731L1241.68 92.4976L1240.72 95.2853C1235.86 94.9811 1231.25 96.7853 1228.6 100.237L1223.68 98.5412L1227.07 88.6906C1227.28 88.0875 1227.94 87.7654 1228.55 87.9731ZM1214.9 134.697C1213.69 134.281 1213.05 132.961 1213.46 131.754C1213.88 130.546 1215.2 129.903 1216.41 130.319C1217.61 130.734 1218.26 132.054 1217.84 133.262C1217.43 134.469 1216.11 135.112 1214.9 134.697ZM1218.2 128.662C1217.88 128.449 1217.54 128.26 1217.16 128.13C1216.78 127.999 1216.4 127.937 1216.01 127.908L1217.57 123.374L1219.76 124.129L1218.2 128.662ZM1241.17 143.746C1239.96 143.33 1239.32 142.01 1239.73 140.802C1240.15 139.595 1241.47 138.952 1242.68 139.367C1243.88 139.783 1244.53 141.103 1244.11 142.311C1243.69 143.518 1242.37 144.161 1241.17 143.746ZM1244.47 137.711C1244.15 137.498 1243.81 137.309 1243.43 137.178C1243.05 137.048 1242.67 136.986 1242.28 136.957L1243.84 132.423L1246.03 133.177L1244.47 137.711ZM1246.79 130.988L1250.56 120.043L1248.37 119.289L1249.88 114.911L1258.63 117.928L1253.35 133.251L1246.79 130.988ZM1276.68 143.735L1275.12 148.268C1274.8 148.055 1274.46 147.866 1274.08 147.736C1273.7 147.605 1273.31 147.543 1272.93 147.514L1274.49 142.98L1276.68 143.735ZM1271.81 154.303C1270.61 153.887 1269.96 152.567 1270.38 151.36C1270.79 150.152 1272.11 149.509 1273.32 149.925C1274.53 150.34 1275.17 151.66 1274.76 152.868C1274.34 154.075 1273.02 154.718 1271.81 154.303ZM1278.53 141.923L1255.54 134.005L1267.61 98.9805L1291.69 107.275L1280 141.205C1279.79 141.809 1279.13 142.13 1278.53 141.923Z" fill="#132E6B"/>
<path d="M1263.76 117.247L1283.47 124.033L1288.74 108.71L1269.04 101.924L1263.76 117.247ZM1266.71 115.812L1268.97 109.245L1271.58 110.143L1272.43 116.543L1276.84 113.18L1283.92 115.618L1282.03 121.09L1266.71 115.812ZM1285.8 110.145L1284.67 113.429L1276.42 110.588L1274.2 112.284L1273.68 108.42L1269.72 107.056L1270.48 104.867L1285.8 110.145Z" fill="#132E6B"/>
<path d="M1270.67 122.075C1268.86 121.451 1266.88 122.417 1266.26 124.227C1265.63 126.038 1266.6 128.018 1268.41 128.642C1270.22 129.266 1272.2 128.3 1272.82 126.49C1273.45 124.679 1272.48 122.699 1270.67 122.075ZM1269.16 126.453C1268.56 126.245 1268.24 125.586 1268.45 124.981C1268.65 124.377 1269.32 124.056 1269.92 124.264C1270.52 124.472 1270.84 125.131 1270.64 125.736C1270.43 126.34 1269.77 126.661 1269.16 126.453Z" fill="#132E6B"/>
<path d="M1279.43 125.091C1277.62 124.468 1275.64 125.433 1275.01 127.244C1274.39 129.054 1275.36 131.035 1277.17 131.658C1278.98 132.282 1280.96 131.316 1281.58 129.506C1282.2 127.696 1281.24 125.715 1279.43 125.091ZM1277.92 129.469C1277.32 129.262 1276.99 128.602 1277.2 127.998C1277.41 127.394 1278.07 127.073 1278.67 127.28C1279.28 127.488 1279.6 128.148 1279.39 128.752C1279.18 129.356 1278.52 129.677 1277.92 129.469Z" fill="#132E6B"/>
</g>
<g clip-path="url(#clip4_2578_1275)">
<path d="M322.013 142.764L313.321 139.77C312.602 139.522 311.815 139.906 311.568 140.624L311.118 141.928L305.903 140.132L310.977 136.693L311.775 134.375L300.475 130.483L299.677 132.8L301.556 138.634L296.776 136.987C296.057 136.74 295.27 137.123 295.022 137.842L290.83 150.012C290.635 150.578 290.835 151.181 291.278 151.535L290.444 153.955C290.072 154.168 289.768 154.506 289.618 154.943C289.288 155.901 289.799 156.95 290.758 157.28C291.716 157.61 292.765 157.099 293.095 156.14C293.245 155.704 293.214 155.251 293.052 154.853L293.858 152.514L301.681 155.209L300.876 157.548C300.503 157.761 300.2 158.099 300.049 158.536C299.719 159.495 300.23 160.543 301.189 160.873C302.147 161.204 303.196 160.692 303.526 159.734C303.677 159.297 303.645 158.844 303.483 158.446L304.289 156.107L313.851 159.401L313.045 161.74C312.673 161.953 312.369 162.291 312.219 162.728C311.888 163.687 312.4 164.735 313.358 165.065C314.317 165.396 315.365 164.885 315.696 163.926C315.846 163.489 315.815 163.036 315.653 162.638L316.486 160.219C317.053 160.213 317.582 159.861 317.777 159.295L322.868 144.517C323.116 143.798 322.732 143.012 322.013 142.764ZM313.021 140.639L321.714 143.633C321.953 143.716 322.081 143.978 321.999 144.218L321.849 144.652L312.287 141.359L312.437 140.924C312.519 140.684 312.782 140.556 313.021 140.639ZM309.322 147.144L307.367 146.471C307.383 144.743 306.384 143.053 304.787 141.958L305.169 140.851L310.819 142.798L309.322 147.144ZM295.027 151.944L296.225 148.467L304.048 151.162L302.85 154.639L295.027 151.944ZM291.984 150.896C291.745 150.813 291.617 150.551 291.7 150.311L293.646 144.661L297.123 145.859L296.524 147.597L295.655 147.298L294.158 151.644L291.984 150.896ZM304.299 140.552L303.979 141.481C303.708 141.346 303.426 141.223 303.131 141.122C302.836 141.02 302.538 140.943 302.241 140.883L302.561 139.953L304.299 140.552ZM302.831 141.991C303.127 142.093 303.41 142.216 303.678 142.357L302.802 144.898L301.064 144.299L301.939 141.758C302.237 141.812 302.535 141.889 302.831 141.991ZM303.671 145.197L304.476 142.862C305.61 143.711 306.341 144.91 306.437 146.15L303.671 145.197ZM299.132 148.496L299.731 146.757L302.339 147.656L301.74 149.394L299.132 148.496ZM299.46 144.719L299.161 145.589L298.292 145.289L298.591 144.42L299.46 144.719ZM298.861 146.458L298.263 148.196L297.393 147.897L297.992 146.158L298.861 146.458ZM300.03 145.888L300.33 145.019L302.937 145.917L302.638 146.786L300.03 145.888ZM300.194 144L297.429 143.047C298.269 142.13 299.583 141.635 300.999 141.664L300.194 144ZM297.722 144.12L297.422 144.99L293.945 143.792L294.245 142.923L297.722 144.12ZM302.609 149.694L303.208 147.955L304.077 148.254L303.478 149.993L302.609 149.694ZM303.507 147.086L303.807 146.216L304.676 146.516L304.376 147.385L303.507 147.086ZM305.545 146.815L309.022 148.013L308.723 148.882L305.246 147.685L305.545 146.815ZM300.645 132.81L301.045 131.651L310.607 134.945L310.207 136.104L304.816 139.757L302.643 139.009L300.645 132.81ZM296.476 137.857L301.692 139.653L301.31 140.76C299.379 140.64 297.55 141.356 296.499 142.727L294.544 142.053L295.892 138.142C295.974 137.902 296.237 137.774 296.476 137.857ZM291.057 156.411C290.578 156.246 290.322 155.721 290.487 155.242C290.652 154.763 291.176 154.507 291.656 154.672C292.135 154.837 292.391 155.361 292.226 155.841C292.061 156.32 291.536 156.576 291.057 156.411ZM292.369 154.014C292.241 153.93 292.106 153.855 291.955 153.803C291.805 153.751 291.652 153.727 291.499 153.715L292.12 151.915L292.989 152.214L292.369 154.014ZM301.488 160.004C301.009 159.839 300.753 159.315 300.918 158.835C301.083 158.356 301.608 158.1 302.087 158.265C302.566 158.431 302.822 158.955 302.657 159.434C302.492 159.914 301.968 160.169 301.488 160.004ZM302.8 157.608C302.672 157.523 302.537 157.448 302.386 157.396C302.236 157.344 302.083 157.32 301.931 157.308L302.551 155.508L303.42 155.807L302.8 157.608ZM303.719 154.938L305.217 150.592L304.347 150.292L304.946 148.554L308.423 149.752L306.327 155.837L303.719 154.938ZM315.59 160L314.97 161.8C314.842 161.715 314.707 161.64 314.556 161.588C314.405 161.536 314.253 161.512 314.1 161.5L314.72 159.7L315.59 160ZM313.658 164.196C313.178 164.031 312.923 163.507 313.088 163.028C313.253 162.548 313.777 162.293 314.257 162.458C314.736 162.623 314.992 163.147 314.827 163.626C314.661 164.106 314.137 164.361 313.658 164.196ZM316.324 159.28L307.196 156.136L311.988 142.228L321.549 145.522L316.908 158.995C316.825 159.235 316.563 159.363 316.324 159.28Z" fill="#132E6B"/>
<path d="M310.461 149.481L318.284 152.176L320.38 146.091L312.557 143.396L310.461 149.481ZM311.629 148.911L312.528 146.304L313.563 146.66L313.9 149.202L315.653 147.866L318.463 148.834L317.714 151.008L311.629 148.911ZM319.211 146.661L318.762 147.965L315.487 146.837L314.603 147.511L314.4 145.976L312.827 145.434L313.126 144.565L319.211 146.661Z" fill="#132E6B"/>
<path d="M313.204 151.399C312.485 151.151 311.699 151.534 311.451 152.253C311.204 152.972 311.587 153.759 312.306 154.006C313.025 154.254 313.811 153.871 314.059 153.152C314.307 152.433 313.923 151.646 313.204 151.399ZM312.605 153.137C312.366 153.055 312.238 152.793 312.32 152.553C312.403 152.313 312.665 152.185 312.905 152.268C313.144 152.35 313.272 152.612 313.19 152.852C313.107 153.092 312.845 153.22 312.605 153.137Z" fill="#132E6B"/>
<path d="M316.681 152.596C315.962 152.349 315.175 152.732 314.928 153.451C314.68 154.17 315.064 154.957 315.783 155.204C316.501 155.452 317.288 155.068 317.536 154.349C317.783 153.631 317.4 152.844 316.681 152.596ZM316.082 154.335C315.842 154.252 315.714 153.99 315.797 153.751C315.88 153.511 316.142 153.383 316.381 153.466C316.621 153.548 316.749 153.81 316.666 154.05C316.584 154.29 316.321 154.417 316.082 154.335Z" fill="#132E6B"/>
</g>
<g clip-path="url(#clip5_2578_1275)">
<path d="M484.61 174.898C487.652 174.898 490.119 172.432 490.119 169.39C490.119 166.347 487.652 163.881 484.61 163.881C481.568 163.881 479.102 166.347 479.102 169.39C479.106 172.43 481.57 174.893 484.61 174.898ZM484.61 165.576C486.716 165.576 488.424 167.284 488.424 169.39C488.424 171.496 486.716 173.203 484.61 173.203C482.504 173.203 480.796 171.496 480.796 169.39C480.801 167.285 482.506 165.581 484.61 165.576Z" fill="#132E6B"/>
<path d="M465.085 164.491C463.862 164.715 462.98 165.791 463 167.034V171.83C462.98 173.074 463.862 174.149 465.085 174.373L470.043 175.271C470.094 175.407 470.153 175.542 470.212 175.669L467.339 179.729C466.64 180.74 466.765 182.107 467.636 182.974L471.026 186.364C471.896 187.232 473.262 187.353 474.272 186.652L478.416 183.78L478.814 183.949L479.712 188.907C479.936 190.13 481.011 191.012 482.255 190.991H487.051C488.294 191.012 489.37 190.13 489.594 188.907L490.492 183.949L490.89 183.78L495.034 186.652C496.046 187.351 497.412 187.226 498.28 186.356L501.009 183.635C501.35 183.313 501.366 182.774 501.043 182.432C500.72 182.09 500.181 182.075 499.839 182.398L497.077 185.161C496.789 185.449 496.337 185.492 496 185.263L492.611 182.907C494.574 181.749 496.259 180.172 497.543 178.288C497.805 177.9 497.702 177.372 497.314 177.11C496.925 176.848 496.398 176.95 496.136 177.339C492.113 183.2 484.332 185.11 478.052 181.777C471.772 178.444 468.993 170.929 471.593 164.313C474.192 157.696 481.343 154.082 488.212 155.915C488.506 155.991 488.818 155.904 489.03 155.688C489.242 155.471 489.323 155.158 489.242 154.866C489.161 154.573 488.93 154.347 488.636 154.271C486.015 153.593 483.265 153.593 480.644 154.271L481.373 150.212C481.448 149.804 481.806 149.51 482.221 149.517H485.034C485.502 149.517 485.882 149.137 485.882 148.669C485.882 148.201 485.502 147.822 485.034 147.822H482.212C480.969 147.802 479.893 148.684 479.67 149.907L478.772 154.864L478.373 155.034L474.272 152.119C473.26 151.42 471.894 151.545 471.026 152.415L467.636 155.805C466.768 156.675 466.647 158.041 467.348 159.051L470.221 163.195C470.161 163.322 470.102 163.457 470.051 163.593L465.085 164.491ZM464.695 171.788V166.991C464.688 166.577 464.982 166.218 465.39 166.144L469.441 165.415C468.763 168.016 468.763 170.747 469.441 173.347L465.39 172.619C464.989 172.545 464.697 172.196 464.695 171.788ZM488.577 184.559L487.848 188.61C487.773 189.018 487.415 189.312 487 189.305H482.212C481.798 189.312 481.439 189.018 481.365 188.61L480.636 184.559C483.239 185.243 485.974 185.243 488.577 184.559ZM476.712 182.924L473.322 185.271C472.988 185.502 472.536 185.463 472.246 185.178L468.856 181.788C468.568 181.5 468.526 181.048 468.755 180.712L471.102 177.322C472.46 179.637 474.388 181.566 476.704 182.924H476.712ZM468.822 157.008L472.212 153.619C472.5 153.33 472.952 153.288 473.288 153.517L476.678 155.864C474.351 157.226 472.413 159.164 471.051 161.491L468.704 158.102C468.469 157.757 468.52 157.294 468.822 157.008Z" fill="#132E6B"/>
<path d="M511.305 141H489.271C488.335 141 487.576 141.759 487.576 142.695V150.322C487.569 150.925 487.895 151.482 488.424 151.771C488.766 151.974 489.164 152.06 489.559 152.017C491.992 158.11 491.432 156.695 492.297 158.847C491.524 159.017 490.971 159.7 490.966 160.491V163.034C490.966 163.97 491.725 164.729 492.661 164.729H493.509V167.271C493.509 168.207 494.267 168.966 495.203 168.966H496.051V174.051C496.051 174.317 496.176 174.569 496.39 174.729L499.441 177.017V179.983C499.441 180.451 499.82 180.83 500.288 180.83C500.756 180.83 501.136 180.451 501.136 179.983V177.017L504.186 174.729C504.4 174.569 504.525 174.317 504.525 174.051V168.966H505.373C506.309 168.966 507.068 168.207 507.068 167.271V164.729H507.915C508.851 164.729 509.61 163.97 509.61 163.034V160.491C509.607 159.705 509.063 159.024 508.297 158.847L511.034 152.017H511.305C512.241 152.017 513 151.258 513 150.322V142.695C513 141.759 512.241 141 511.305 141V141ZM502.831 173.627L500.288 175.534L497.746 173.627V168.966H502.831V173.627ZM507.915 163.034H500.288C499.82 163.034 499.441 163.413 499.441 163.881C499.441 164.349 499.82 164.729 500.288 164.729H505.373V167.271H495.203V164.729H496.898C497.366 164.729 497.746 164.349 497.746 163.881C497.746 163.413 497.366 163.034 496.898 163.034H492.661V160.491H507.915V163.034ZM506.492 158.796H494.085L491.373 152.017H509.17L506.492 158.796ZM511.305 150.322H489.271V142.695H511.305V150.322Z" fill="#132E6B"/>
<path d="M491.814 146.085H493.509C493.977 146.085 494.357 145.705 494.357 145.237C494.357 144.769 493.977 144.39 493.509 144.39H491.814C491.346 144.39 490.967 144.769 490.967 145.237C490.967 145.705 491.346 146.085 491.814 146.085Z" fill="#132E6B"/>
<path d="M496.898 146.085H508.763C509.231 146.085 509.61 145.705 509.61 145.237C509.61 144.769 509.231 144.39 508.763 144.39H496.898C496.43 144.39 496.051 144.769 496.051 145.237C496.051 145.705 496.43 146.085 496.898 146.085Z" fill="#132E6B"/>
<path d="M479.856 160.11C479.645 159.695 479.137 159.528 478.721 159.737C475.144 161.525 473.17 165.102 473.17 169.813C473.17 170.281 473.549 170.661 474.017 170.661C474.485 170.661 474.865 170.281 474.865 169.813C474.865 165.78 476.5 162.737 479.483 161.246C479.899 161.034 480.066 160.527 479.856 160.11Z" fill="#132E6B"/>
<path d="M481.644 159.644C482.112 159.644 482.492 159.265 482.492 158.796C482.492 158.328 482.112 157.949 481.644 157.949C481.176 157.949 480.797 158.328 480.797 158.796C480.797 159.265 481.176 159.644 481.644 159.644Z" fill="#132E6B"/>
</g>
<g clip-path="url(#clip6_2578_1275)">
<path d="M979.612 57.1395C980.972 58.2637 982.986 58.0725 984.11 56.7125C985.234 55.3525 985.043 53.3386 983.683 52.2144C982.323 51.0902 980.309 51.2814 979.185 52.6415C978.064 54.0023 978.255 56.014 979.612 57.1395ZM983.057 52.9721C983.999 53.7504 984.131 55.1446 983.353 56.0862C982.574 57.0277 981.18 57.1601 980.239 56.3818C979.297 55.6035 979.165 54.2093 979.943 53.2678C980.723 52.3288 982.115 52.1966 983.057 52.9721Z" fill="#132E6B"/>
<path d="M974.727 45.2721C974.098 44.9201 973.306 45.075 972.856 45.6383L971.083 47.7826C970.615 48.3309 970.612 49.1376 971.076 49.6895L972.96 51.9231C972.933 52.0025 972.909 52.085 972.889 52.1638L970.105 52.9169C969.418 53.1108 968.969 53.7678 969.038 54.4775L969.301 57.2455C969.369 57.955 969.935 58.5141 970.645 58.5737L973.559 58.8207L973.675 59.0437L972.244 61.5919C971.892 62.2214 972.047 63.0131 972.611 63.4634L974.755 65.2359C975.303 65.7043 976.11 65.7075 976.662 65.2433L978.895 63.359L979.136 63.4304L979.927 66.246C980.121 66.9322 980.778 67.3813 981.488 67.3128L983.713 67.1051C983.985 67.087 984.191 66.8517 984.173 66.5796C984.154 66.3075 983.919 66.1017 983.647 66.1198L981.391 66.334C981.156 66.3564 980.938 66.2085 980.872 65.9817L980.228 63.6759C981.533 63.884 982.869 63.8013 984.139 63.4337C984.4 63.3569 984.549 63.0833 984.472 62.8225C984.395 62.5618 984.122 62.4127 983.861 62.4895C979.897 63.6231 975.713 61.6015 974.137 57.7911C972.561 53.9806 974.095 49.5944 977.703 47.5969C981.31 45.5994 985.842 46.6265 988.235 49.9841C988.339 50.1265 988.51 50.2029 988.685 50.1846C988.86 50.1663 989.012 50.056 989.084 49.8954C989.155 49.7347 989.136 49.5481 989.032 49.4057C988.111 48.1343 986.882 47.118 985.46 46.4526L987.286 44.9072C987.47 44.7525 987.738 44.7536 987.921 44.9097L989.179 45.9494C989.388 46.1224 989.698 46.0929 989.871 45.8837C990.044 45.6745 990.015 45.3647 989.805 45.1917L988.544 44.1489C987.995 43.6804 987.189 43.6773 986.637 44.1414L984.403 46.0258L984.163 45.9543L983.406 43.1354C983.212 42.4493 982.555 42.0002 981.846 42.0686L979.078 42.3314C978.368 42.3997 977.809 42.9657 977.749 43.676L977.502 46.5902C977.429 46.6251 977.352 46.6638 977.279 46.7056L974.727 45.2721ZM971.857 48.39L973.629 46.2456C973.779 46.0579 974.043 46.0063 974.253 46.1236L976.333 47.2947C975.069 48.2067 974.06 49.4276 973.402 50.8407L971.861 49.018C971.708 48.8369 971.707 48.5729 971.857 48.39ZM977.814 62.924L975.991 64.4656C975.807 64.6204 975.538 64.6193 975.355 64.4631L973.215 62.6938C973.027 62.5437 972.975 62.2798 973.093 62.07L974.264 59.9898C975.175 61.2572 976.397 62.2679 977.814 62.924ZM973.114 57.8087L970.731 57.6055C970.496 57.5852 970.309 57.4008 970.285 57.1661L970.022 54.398C969.999 54.163 970.147 53.9452 970.374 53.8793L972.676 53.2313C972.427 54.7681 972.577 56.343 973.11 57.8055L973.114 57.8087ZM979.163 43.3078L981.931 43.045C982.166 43.0226 982.384 43.1705 982.45 43.3973L983.098 45.6993C981.554 45.4478 979.972 45.598 978.503 46.1356L978.706 43.7527C978.729 43.5123 978.922 43.3237 979.163 43.3078Z" fill="#132E6B"/>
<path d="M1004.07 51.8497L994.221 43.7077C993.802 43.3618 993.183 43.4206 992.837 43.8391L990.018 47.2488C989.792 47.5154 989.732 47.8852 989.862 48.2098C989.939 48.4269 990.086 48.6127 990.278 48.7393C989.114 52.362 989.387 51.5226 988.978 52.8043C988.57 52.5948 988.071 52.6958 987.776 53.0477L986.836 54.1842C986.49 54.6027 986.549 55.2223 986.968 55.5683L987.347 55.8814L986.407 57.018C986.061 57.4364 986.12 58.0561 986.538 58.402L986.917 58.7151L985.038 60.9883C984.94 61.1075 984.903 61.2662 984.939 61.4166L985.458 63.5669L984.362 64.8929C984.189 65.1021 984.218 65.4119 984.427 65.5849C984.637 65.7578 984.946 65.7284 985.119 65.5192L986.215 64.1932L988.425 64.2976C988.579 64.305 988.728 64.2391 988.827 64.1198L990.706 61.8467L991.085 62.1599C991.503 62.5058 992.123 62.4469 992.469 62.0285L993.408 60.8919L993.787 61.205C994.206 61.551 994.825 61.4921 995.171 61.0737L996.111 59.9371C996.4 59.5843 996.408 59.079 996.131 58.7167L999.879 56.6746L1000 56.7749C1000.42 57.1208 1001.04 57.0619 1001.38 56.6435L1004.2 53.2338C1004.55 52.8153 1004.49 52.1956 1004.07 51.8497V51.8497ZM988.226 63.3041L986.385 63.217L985.953 61.4252L987.675 59.3415L989.948 61.2204L988.226 63.3041ZM994.413 60.4473L991.004 57.6289C990.794 57.456 990.485 57.4854 990.312 57.6946C990.139 57.9039 990.168 58.2137 990.377 58.3867L992.651 60.2656L991.711 61.4021L987.165 57.6443L988.104 56.5077L988.862 57.134C989.071 57.307 989.381 57.2776 989.554 57.0683C989.727 56.8591 989.698 56.5493 989.488 56.3763L987.594 54.8105L988.533 53.674L995.353 59.3108L994.413 60.4473ZM995.343 58.027L989.796 53.4424L991.089 49.4094L999.045 55.9857L995.343 58.027ZM1000.63 56.0171L990.776 47.8751L993.594 44.4654L1003.44 52.6075L1000.63 56.0171Z" fill="#132E6B"/>
<path d="M993.479 46.9203L994.237 47.5466C994.446 47.7196 994.756 47.6902 994.929 47.4809C995.102 47.2717 995.072 46.9619 994.863 46.7889L994.105 46.1626C993.896 45.9896 993.586 46.0191 993.413 46.2283C993.24 46.4375 993.27 46.7474 993.479 46.9203Z" fill="#132E6B"/>
<path d="M995.753 48.7992L1001.06 53.1834C1001.27 53.3564 1001.58 53.3269 1001.75 53.1177C1001.92 52.9085 1001.89 52.5987 1001.68 52.4257L996.379 48.0415C996.17 47.8686 995.86 47.898 995.687 48.1072C995.514 48.3165 995.543 48.6263 995.753 48.7992Z" fill="#132E6B"/>
<path d="M982.951 48.7717C983.01 48.5078 982.845 48.2458 982.581 48.1854C980.321 47.6633 978.117 48.5324 976.376 50.6388C976.203 50.848 976.232 51.1579 976.442 51.3308C976.651 51.5038 976.961 51.4743 977.134 51.2651C978.624 49.4618 980.48 48.7061 982.364 49.1416C982.628 49.2006 982.89 49.0353 982.951 48.7717Z" fill="#132E6B"/>
<path d="M983.922 49.2241C984.132 49.3971 984.442 49.3676 984.614 49.1584C984.787 48.9492 984.758 48.6393 984.549 48.4664C984.34 48.2934 984.03 48.3229 983.857 48.5321C983.684 48.7413 983.713 49.0512 983.922 49.2241Z" fill="#132E6B"/>
</g>
<g opacity="0.5" clip-path="url(#clip7_2578_1275)">
<path d="M542.622 30.3272C542.108 31.3981 542.561 32.6874 543.632 33.2012L548.36 35.4698C549.431 35.9836 550.72 35.5304 551.234 34.4595L554.157 28.3677C554.671 27.2967 554.218 26.0075 553.147 25.4936L548.419 23.225C547.348 22.7112 546.059 23.1644 545.545 24.2353L542.622 30.3272ZM548.882 34.3823L544.154 32.1137C543.683 31.8876 543.483 31.3202 543.709 30.8489L544.229 29.7658L550.666 32.8546L550.147 33.9377C549.921 34.409 549.353 34.6084 548.882 34.3823ZM547.897 24.3125L552.625 26.5811C553.096 26.8072 553.296 27.3746 553.07 27.8459L551.188 31.7672L544.751 28.6784L546.632 24.7571C546.858 24.2858 547.426 24.0863 547.897 24.3125Z" fill="#132E6B"/>
<path d="M573.32 46.0579C574.188 46.4745 575.233 46.107 575.65 45.2389L577.921 40.5046C578.338 39.6364 577.97 38.5912 577.102 38.1747C576.915 38.0849 576.72 38.0318 576.524 38.0119C576.659 37.3296 576.325 36.6148 575.669 36.3004L573.604 35.3095C572.892 34.9679 572.048 35.2168 571.625 35.8588C571.373 35.445 571.003 35.0968 570.534 34.8719C569.428 34.3413 568.13 34.6653 567.389 35.5789L565.15 34.5046L570.612 29.8568C570.677 29.8012 570.728 29.733 570.764 29.658L570.765 29.6584L572.729 25.5646C572.873 25.2643 572.747 24.9041 572.446 24.76L563.484 20.4599C563.184 20.3158 562.824 20.4425 562.68 20.7428L560.715 24.8366L560.716 24.8371C560.68 24.9121 560.659 24.9943 560.656 25.08L560.449 32.2489L558.274 31.2054L558.324 31.1014C558.74 30.2333 558.373 29.1881 557.505 28.7715C557.335 28.69 557.158 28.639 556.981 28.6153L557.573 27.3812C558.155 26.168 557.642 24.7074 556.429 24.1252L549.844 20.9658C549.543 20.8217 549.183 20.9483 549.039 21.2486C548.895 21.5489 549.022 21.9091 549.322 22.0532L555.907 25.2127C556.52 25.5071 556.78 26.2459 556.486 26.8595L550.981 38.3326L539.758 32.948L545.263 21.4749C545.558 20.8613 546.296 20.6014 546.909 20.8956L547.147 21.0097C547.447 21.1538 547.808 21.0271 547.952 20.7269C548.096 20.4266 547.969 20.0664 547.669 19.9223L547.431 19.8082C546.218 19.2263 544.758 19.7399 544.176 20.9531L543.584 22.1873C543.454 22.0636 543.304 21.9577 543.134 21.8761C542.265 21.4597 541.22 21.827 540.804 22.6952L538.532 27.4295C538.116 28.2977 538.483 29.3429 539.351 29.7594C539.521 29.841 539.698 29.8921 539.876 29.9157L538.671 32.4274C537.521 31.9006 536.151 32.3917 535.602 33.5366C535.053 34.6815 535.526 36.0567 536.657 36.6242L532.216 45.8793C532.072 46.1795 532.198 46.5397 532.499 46.6839L544.808 52.5902C545.109 52.7343 545.469 52.6076 545.613 52.3073L550.053 43.0533L556.253 46.0281L551.813 55.2824C551.669 55.5827 551.795 55.9429 552.096 56.087L564.406 61.9934C564.706 62.1375 565.066 62.0108 565.21 61.7105L566.573 58.8709C566.717 58.5706 566.59 58.2104 566.29 58.0663C565.99 57.9222 565.629 58.0488 565.485 58.3491L564.384 60.6451L553.161 55.2605L557.341 46.5501L568.563 51.9347L566.529 56.1742C566.385 56.4745 566.511 56.8347 566.812 56.9788C567.112 57.1229 567.472 56.9963 567.616 56.696L569.651 52.4553C570.801 52.9821 572.17 52.491 572.719 51.346C573.269 50.2012 572.795 48.8259 571.665 48.2585L572.87 45.7468C572.999 45.8705 573.15 45.9764 573.32 46.0579ZM540.594 28.4186C540.465 28.6872 540.142 28.8008 539.873 28.672C539.604 28.5432 539.491 28.2198 539.62 27.9513L541.891 23.2169C542.02 22.9484 542.343 22.8348 542.612 22.9636C542.88 23.0924 542.994 23.4158 542.865 23.6843L540.594 28.4186ZM576.58 39.2622C576.849 39.391 576.963 39.7143 576.834 39.9829L574.562 44.7172C574.433 44.9857 574.11 45.0994 573.842 44.9706C573.573 44.8417 573.459 44.5184 573.588 44.2498L575.86 39.5154C575.989 39.2469 576.312 39.1333 576.58 39.2622ZM572.607 36.5642C572.692 36.387 572.905 36.3119 573.082 36.397L575.148 37.3878C575.325 37.4728 575.4 37.6862 575.315 37.8635L570.578 47.7357L567.87 46.4364L572.607 36.5642ZM570.012 35.9594C570.706 36.2921 570.999 37.127 570.666 37.8204L569.016 41.2592C568.684 41.9527 567.849 42.2462 567.155 41.9134C566.462 41.5807 566.168 40.7459 566.501 40.0524L568.151 36.6136C568.484 35.9202 569.319 35.6267 570.012 35.9594ZM571.381 25.5866L569.938 28.593L562.064 24.8147L563.506 21.8083L571.381 25.5866ZM561.835 26.0428L569.123 29.5398L563.96 33.9336L561.639 32.82L561.835 26.0428ZM566.803 36.6356L565.675 38.987L556.624 34.6444L557.752 32.293L566.803 36.6356ZM556.983 29.8591C557.252 29.9879 557.365 30.3113 557.236 30.5798L556.926 31.2275L555.276 34.6664L554.965 35.3141C554.836 35.5827 554.513 35.6963 554.244 35.5675C553.977 35.4395 553.864 35.1199 553.988 34.8525L556.265 30.107C556.396 29.8425 556.716 29.7312 556.983 29.8591ZM553.273 36.3439C553.402 36.4676 553.552 36.5733 553.722 36.6548C554.591 37.0714 555.636 36.704 556.052 35.8358L556.102 35.7318L565.217 40.1053C564.968 41.2549 565.528 42.4703 566.634 43.0009C567.096 43.2228 567.592 43.2946 568.067 43.237L566.783 45.9147L552.068 38.8546L553.273 36.3439ZM544.786 51.2418L533.564 45.8573L537.744 37.1469L548.966 42.5315L544.786 51.2419L544.786 51.2418ZM571.632 50.8243C571.364 51.3823 570.693 51.6183 570.135 51.3506L537.216 35.5559C536.658 35.2881 536.422 34.6163 536.689 34.0583C536.957 33.5003 537.629 33.2643 538.187 33.532L571.106 49.3267C571.664 49.5945 571.9 50.2663 571.632 50.8243Z" fill="#132E6B"/>
<path d="M565.262 51.4528L559.783 48.8241C558.947 48.4232 557.941 48.7768 557.54 49.6124C557.363 49.982 557.334 50.3848 557.428 50.754C557.081 50.9114 556.785 51.1863 556.608 51.5559C556.431 51.9254 556.401 52.3283 556.496 52.6975C556.149 52.8549 555.853 53.1297 555.675 53.4993C555.275 54.3349 555.628 55.341 556.464 55.7419L561.942 58.3706C562.778 58.7715 563.784 58.4179 564.185 57.5823C564.362 57.2127 564.391 56.8098 564.297 56.4406C564.644 56.2832 564.94 56.0084 565.117 55.6388C565.295 55.2692 565.324 54.8664 565.23 54.4972C565.577 54.3398 565.873 54.065 566.05 53.6954C566.451 52.8597 566.097 51.8537 565.262 51.4528ZM559.261 49.9115L564.74 52.5402C564.976 52.6535 565.076 52.9376 564.963 53.1736C564.849 53.4096 564.565 53.5095 564.329 53.3962L558.851 50.7676C558.614 50.6543 558.515 50.3702 558.628 50.1342C558.741 49.8981 559.025 49.7983 559.261 49.9115ZM564.03 55.1171C563.917 55.3531 563.633 55.453 563.397 55.3397L557.918 52.711C557.682 52.5978 557.582 52.3137 557.695 52.0777C557.809 51.8416 558.093 51.7418 558.329 51.855L563.807 54.4837C564.043 54.5969 564.143 54.8811 564.03 55.1171ZM562.464 57.2832L556.986 54.6545C556.749 54.5413 556.65 54.2572 556.763 54.0211C556.876 53.7852 557.16 53.6852 557.396 53.7985L562.875 56.4272C563.111 56.5405 563.211 56.8245 563.097 57.0606C562.984 57.2966 562.7 57.3965 562.464 57.2832Z" fill="#132E6B"/>
</g>
<g clip-path="url(#clip8_2578_1275)">
<path d="M1153.83 37.2476L1111.33 60.3601C1110.92 60.5843 1110.77 61.1002 1110.99 61.5124C1111.22 61.9246 1111.73 62.077 1112.14 61.8528L1117.77 58.7947L1119.36 61.715C1119.58 62.1272 1120.1 62.2797 1120.51 62.0554L1144.48 49.0176C1144.89 48.7934 1145.04 48.2775 1144.82 47.8653L1143.23 44.945L1154.64 38.7403C1154.87 38.6122 1155.17 38.6996 1155.3 38.9351L1158.02 43.9392L1110.05 70.0282L1107.33 65.0241C1107.2 64.7887 1107.29 64.4928 1107.53 64.3647L1109.16 63.4766C1109.57 63.2523 1109.72 62.7365 1109.5 62.3243C1109.28 61.9121 1108.76 61.7596 1108.35 61.9839L1106.71 62.872C1105.66 63.4478 1105.26 64.7774 1105.84 65.8359L1116.86 86.0907C1117.29 86.8823 1118.28 87.176 1119.07 86.7455L1122.66 84.794C1123.45 84.3634 1123.75 83.3691 1123.32 82.5775L1120.91 78.1561L1158.94 57.4696L1161.35 61.891C1161.78 62.6827 1162.77 62.9763 1163.56 62.5457L1167.15 60.5942C1167.94 60.1637 1168.24 59.1694 1167.81 58.3778L1156.79 38.123C1156.21 37.0646 1154.88 36.6718 1153.83 37.2476ZM1142.92 47.9309L1120.44 60.1568L1119.26 57.9828L1141.74 45.7569L1142.92 47.9309ZM1158.83 45.4318L1163.1 53.2757L1115.13 79.3647L1110.87 71.5208L1158.83 45.4318ZM1121.79 83.3324L1118.32 85.2217L1115.94 80.8574L1119.42 78.9681L1121.79 83.3324ZM1162.81 61.0221L1160.44 56.6578L1163.91 54.7685L1166.28 59.1327L1162.81 61.0221Z" fill="#132E6B"/>
<path d="M1139.64 9.89341L1100.77 31.0344C1100.35 31.2587 1100.2 31.7745 1100.43 32.1867C1100.65 32.5989 1101.17 32.7514 1101.58 32.5271L1140.34 11.442L1142.16 14.786L1094.2 40.875L1092.38 37.531L1098.59 34.1509C1099.01 33.9267 1099.16 33.4108 1098.93 32.9986C1098.71 32.5864 1098.19 32.434 1097.78 32.6582L1091.46 36.0942C1090.7 36.511 1090.41 37.4736 1090.83 38.2401L1092.76 41.7896C1093.18 42.556 1094.14 42.8403 1094.91 42.4235L1102.51 38.2897L1103.01 39.2177C1103.73 40.5383 1105.39 41.0284 1106.71 40.3101L1114.89 35.862L1117.01 39.7699C1117.55 40.7494 1118.78 41.1129 1119.76 40.5801L1120.57 40.1384L1122.24 43.206L1118.64 45.1594C1117.03 46.0364 1116.43 48.0619 1117.31 49.6745L1118.14 51.2066C1118.37 51.6188 1118.88 51.7712 1119.3 51.547L1137.48 41.6547C1137.9 41.4305 1138.05 40.9146 1137.82 40.5024L1136.99 38.9704C1136.11 37.3579 1134.09 36.7596 1132.48 37.6367L1128.88 39.5901L1127.22 36.5226L1128.03 36.081C1129.01 35.5481 1129.37 34.3178 1128.84 33.3383L1126.71 29.4304L1134.89 24.9823C1136.21 24.264 1136.7 22.6051 1135.98 21.2845L1135.48 20.3565L1143.08 16.2228C1143.84 15.806 1144.13 14.8432 1143.71 14.0769L1141.78 10.5273C1141.36 9.76088 1140.4 9.47658 1139.64 9.89341ZM1135.5 39.7823L1135.93 40.5681L1119.23 49.6484L1118.8 48.8627C1118.37 48.0732 1118.67 47.0816 1119.46 46.6522L1133.29 39.1294C1134.08 38.6999 1135.07 38.9929 1135.5 39.7823ZM1127.39 40.402L1123.73 42.3942L1122.06 39.3267L1125.72 37.3345L1127.39 40.402ZM1127.35 34.1502C1127.43 34.3066 1127.37 34.5031 1127.22 34.5882L1118.94 39.0875C1118.79 39.1726 1118.59 39.1146 1118.51 38.9582L1116.38 35.0503L1125.22 30.2423L1127.35 34.1502L1127.35 34.1502ZM1134.49 22.0963C1134.76 22.5939 1134.58 23.2189 1134.08 23.4895L1105.9 38.8174C1105.4 39.088 1104.77 38.9034 1104.5 38.4058L1104 37.4778L1133.99 21.1683L1134.49 22.0963Z" fill="#132E6B"/>
<path d="M1139.03 64.2175L1141.47 62.8857C1142.32 62.4252 1142.64 61.3617 1142.17 60.5151L1141.41 59.1002C1140.94 58.2535 1139.88 57.9395 1139.03 58.4L1136.59 59.7318C1135.74 60.1923 1135.43 61.2557 1135.89 62.1023L1136.66 63.5172C1137.12 64.364 1138.18 64.678 1139.03 64.2175ZM1137.38 61.2904C1137.37 61.2668 1137.37 61.2373 1137.4 61.2245L1139.85 59.8927C1139.87 59.8798 1139.9 59.8885 1139.91 59.9121L1140.68 61.327C1140.7 61.3506 1140.69 61.3802 1140.66 61.393L1138.21 62.7248C1138.19 62.7377 1138.16 62.7289 1138.15 62.7053L1137.38 61.2904Z" fill="#132E6B"/>
<path d="M1146.57 60.1111L1149.02 58.7793C1149.87 58.3188 1150.18 57.2553 1149.72 56.4086L1148.95 54.9937C1148.49 54.1471 1147.43 53.833 1146.58 54.2935L1144.14 55.6253C1143.29 56.0858 1142.97 57.1492 1143.43 57.9959L1144.2 59.4107C1144.66 60.2575 1145.73 60.5716 1146.57 60.1111ZM1144.93 57.184C1144.91 57.1604 1144.92 57.1309 1144.95 57.118L1147.4 55.7862C1147.42 55.7734 1147.45 55.782 1147.46 55.8056L1148.23 57.2205C1148.24 57.2441 1148.24 57.2737 1148.21 57.2866L1145.76 58.6184C1145.74 58.6312 1145.71 58.6224 1145.7 58.5988L1144.93 57.184Z" fill="#132E6B"/>
<path d="M1125.02 69.8725L1125.89 69.4005C1126.3 69.1763 1126.45 68.6604 1126.23 68.2482C1126 67.836 1125.49 67.6835 1125.08 67.9078L1124.21 68.3798C1123.8 68.6041 1123.64 69.1199 1123.87 69.5321C1124.09 69.9443 1124.61 70.0967 1125.02 69.8725Z" fill="#132E6B"/>
<path d="M1129.02 67.6974L1129.89 67.2253C1130.3 67.0011 1130.45 66.4852 1130.23 66.073C1130 65.6608 1129.49 65.5084 1129.07 65.7326L1128.21 66.2047C1127.79 66.4289 1127.64 66.9448 1127.86 67.357C1128.09 67.7691 1128.6 67.9216 1129.02 67.6974Z" fill="#132E6B"/>
<path d="M1133.24 65.401L1134.11 64.929C1134.52 64.7048 1134.67 64.1889 1134.45 63.7767C1134.22 63.3645 1133.71 63.2121 1133.3 63.4363L1132.43 63.9083C1132.02 64.1325 1131.86 64.6485 1132.09 65.0606C1132.31 65.4728 1132.83 65.6252 1133.24 65.401Z" fill="#132E6B"/>
</g>
</g>
<g opacity="0.1" clip-path="url(#clip9_2578_1275)">
<path d="M96.6744 38.4996L87.0462 35.1828C86.25 34.9086 85.3788 35.3333 85.1045 36.1296L84.607 37.5738L78.8301 35.5838L84.4503 31.7753L85.3347 29.2079L72.8181 24.8962L71.9337 27.4635L74.016 33.9254L68.7205 32.1012C67.9243 31.8269 67.0531 32.2517 66.7788 33.0479L62.1354 46.5273C61.9195 47.1541 62.1409 47.8228 62.6312 48.2147L61.708 50.8947C61.2953 51.1311 60.9593 51.5048 60.7926 51.9887C60.4268 53.0506 60.9929 54.2118 62.0549 54.5776C63.1169 54.9435 64.278 54.3773 64.6439 53.3153C64.8105 52.8315 64.7759 52.3301 64.5966 51.8892L65.4891 49.2982L74.1545 52.2833L73.262 54.8742C72.8493 55.1107 72.5132 55.4844 72.3464 55.9687C71.9806 57.0307 72.5467 58.1919 73.6087 58.5577C74.6707 58.9235 75.8318 58.3574 76.1977 57.2954C76.3643 56.8116 76.3297 56.3102 76.1504 55.8693L77.0429 53.2783L87.6339 56.9267L86.7414 59.5177C86.3287 59.7541 85.9926 60.1278 85.8258 60.6121C85.46 61.6741 86.0261 62.8353 87.0881 63.2011C88.1501 63.567 89.3112 63.0008 89.6771 61.9388C89.8437 61.455 89.8092 60.9536 89.6298 60.5127L90.5529 57.8332C91.1804 57.8264 91.7668 57.436 91.9827 56.8092L97.6211 40.4413C97.8954 39.6451 97.4707 38.7739 96.6744 38.4996ZM86.7146 36.1457L96.3427 39.4624C96.608 39.5538 96.7497 39.8444 96.6583 40.1096L96.4925 40.591L85.9015 36.9426L86.0673 36.4612C86.1587 36.196 86.4493 36.0543 86.7146 36.1457ZM82.617 43.3507L80.4521 42.6049C80.4693 40.6915 79.3629 38.8192 77.5946 37.6069L78.017 36.3807L84.2753 38.5366L82.617 43.3507ZM66.7836 48.6671L68.1103 44.8158L76.7757 47.8009L75.449 51.6522L66.7836 48.6671ZM63.4138 47.5063C63.1485 47.4149 63.0067 47.1247 63.0982 46.859L65.2541 40.6007L69.1053 41.9274L68.442 43.853L67.4792 43.5214L65.8208 48.3354L63.4138 47.5063ZM77.0542 36.0491L76.6995 37.0788C76.3986 36.9283 76.0866 36.7928 75.7597 36.6802C75.4333 36.5678 75.1036 36.4822 74.7739 36.4154L75.1286 35.3857L77.0542 36.0491ZM75.428 37.643C75.7559 37.756 76.0685 37.8927 76.3655 38.0483L75.3958 40.8631L73.4702 40.1998L74.4399 37.385C74.7697 37.4453 75.1002 37.5301 75.428 37.643ZM76.3587 41.1948L77.2499 38.6077C78.5059 39.5483 79.3152 40.8761 79.4214 42.2499L76.3587 41.1948ZM71.3304 44.848L71.9938 42.9224L74.8822 43.9174L74.2189 45.8431L71.3304 44.848ZM71.6943 40.6651L71.3626 41.6279L70.3998 41.2962L70.7315 40.3334L71.6943 40.6651ZM71.031 42.5907L70.3676 44.5164L69.4048 44.1847L70.0682 42.2591L71.031 42.5907ZM72.3255 41.9596L72.6571 40.9968L75.5456 41.9918L75.2139 42.9546L72.3255 41.9596ZM72.5074 39.8681L69.4447 38.8131C70.3743 37.7967 71.8301 37.2491 73.3984 37.2815L72.5074 39.8681ZM69.7687 40.0018L69.437 40.9646L65.5857 39.6379L65.9174 38.6751L69.7687 40.0018ZM75.1817 46.1747L75.8451 44.2491L76.8079 44.5808L76.1445 46.5064L75.1817 46.1747ZM76.1767 43.2863L76.5084 42.3235L77.4712 42.6551L77.1395 43.618L76.1767 43.2863ZM78.434 42.9868L82.2853 44.3135L81.9536 45.2763L78.1024 43.9496L78.434 42.9868ZM73.007 27.4746L73.4493 26.1907L84.0403 29.8391L83.598 31.123L77.6266 35.1692L75.2195 34.34L73.007 27.4746ZM68.3889 33.064L74.1658 35.054L73.7434 36.2802C71.6041 36.1464 69.5789 36.94 68.414 38.458L66.2491 37.7123L67.7416 33.3796C67.833 33.1143 68.1236 32.9726 68.3889 33.064ZM62.3866 53.6148C61.8556 53.4319 61.5725 52.8513 61.7554 52.3203C61.9383 51.7893 62.5189 51.5063 63.0499 51.6892C63.5809 51.8721 63.864 52.4527 63.681 52.9837C63.4981 53.5147 62.9175 53.7977 62.3866 53.6148ZM63.8394 50.9606C63.6983 50.8667 63.5486 50.7839 63.3816 50.7264C63.2145 50.6688 63.0456 50.6419 62.8766 50.6289L63.5635 48.6349L64.5263 48.9666L63.8394 50.9606ZM73.9403 57.5949C73.4094 57.412 73.1263 56.8314 73.3092 56.3004C73.4921 55.7694 74.0727 55.4863 74.6037 55.6693C75.1347 55.8522 75.4178 56.4328 75.2348 56.9637C75.0519 57.4947 74.4713 57.7778 73.9403 57.5949ZM75.3932 54.9406C75.2521 54.8468 75.1024 54.764 74.9354 54.7064C74.7683 54.6489 74.5994 54.6219 74.4304 54.609L75.1173 52.615L76.0801 52.9466L75.3932 54.9406ZM76.4118 51.9838L78.0702 47.1697L77.1073 46.8381L77.7707 44.9124L81.6219 46.2391L79.3002 52.9788L76.4118 51.9838ZM89.5595 57.5901L88.8727 59.5841C88.7316 59.4902 88.5818 59.4074 88.4148 59.3499C88.2477 59.2923 88.0788 59.2653 87.9098 59.2524L88.5967 57.2584L89.5595 57.5901ZM87.4198 62.2383C86.8888 62.0554 86.6057 61.4748 86.7886 60.9438C86.9716 60.4128 87.5521 60.1298 88.0831 60.3127C88.6141 60.4956 88.8972 61.0762 88.7143 61.6072C88.5313 62.1382 87.9508 62.4212 87.4198 62.2383ZM90.3726 56.7931L80.2631 53.3105L85.5698 37.9055L96.1608 41.5539L91.0199 56.4775C90.9283 56.7432 90.6379 56.8845 90.3726 56.7931Z" fill="white"/>
<path d="M83.8795 45.9397L92.5448 48.9247L94.8665 42.185L86.2012 39.2L83.8795 45.9397ZM85.174 45.3085L86.169 42.4201L87.3157 42.8151L87.6891 45.63L89.6305 44.1511L92.7429 45.2232L91.9137 47.6302L85.174 45.3085ZM93.572 42.8161L93.0745 44.2604L89.4471 43.0108L88.4679 43.757L88.2424 42.0573L86.5006 41.4573L86.8323 40.4944L93.572 42.8161Z" fill="white"/>
<path d="M86.9169 48.0633C86.1206 47.789 85.2494 48.2138 84.9751 49.0101C84.7009 49.8063 85.1256 50.6775 85.9219 50.9518C86.7181 51.2261 87.5893 50.8013 87.8636 50.0051C88.1379 49.2088 87.7131 48.3376 86.9169 48.0633ZM86.2535 49.989C85.9883 49.8976 85.8464 49.6075 85.938 49.3417C86.0295 49.076 86.32 48.9348 86.5852 49.0262C86.8505 49.1175 86.9923 49.4077 86.9008 49.6734C86.8092 49.9391 86.5188 50.0803 86.2535 49.989Z" fill="white"/>
<path d="M90.7684 49.39C89.9722 49.1157 89.101 49.5405 88.8267 50.3367C88.5524 51.133 88.9772 52.0042 89.7734 52.2785C90.5697 52.5528 91.4409 52.128 91.7152 51.3318C91.9895 50.5355 91.5647 49.6643 90.7684 49.39ZM90.1051 51.3157C89.8398 51.2243 89.698 50.9342 89.7895 50.6684C89.8811 50.4027 90.1715 50.2615 90.4368 50.3528C90.702 50.4442 90.8439 50.7344 90.7523 51.0001C90.6608 51.2658 90.3704 51.407 90.1051 51.3157Z" fill="white"/>
</g>
<defs>
<clipPath id="clip0_2578_1275">
<rect width="67.4689" height="67.4689" fill="white" transform="translate(158.734 59.9999) rotate(30)"/>
</clipPath>
<clipPath id="clip1_2578_1275">
<rect width="46.3472" height="46.3472" fill="white" transform="translate(364 48.0944) rotate(-24.3299)"/>
</clipPath>
<clipPath id="clip2_2578_1275">
<rect width="60" height="60" fill="white" transform="translate(877 134.719) rotate(-24.3299)"/>
</clipPath>
<clipPath id="clip3_2578_1275">
<rect width="74.0884" height="74.0884" fill="white" transform="translate(1231.33 65.6693) rotate(19.0079)"/>
</clipPath>
<clipPath id="clip4_2578_1275">
<rect width="29.4206" height="29.4206" fill="white" transform="translate(297.582 129) rotate(19.0079)"/>
</clipPath>
<clipPath id="clip5_2578_1275">
<rect width="50" height="50" fill="white" transform="translate(463 141)"/>
</clipPath>
<clipPath id="clip6_2578_1275">
<rect width="29" height="29" fill="white" transform="translate(982.477 33.9999) rotate(39.5767)"/>
</clipPath>
<clipPath id="clip7_2578_1275">
<rect width="41.169" height="41.169" fill="white" transform="translate(546.811 10.1744) rotate(25.6322)"/>
</clipPath>
<clipPath id="clip8_2578_1275">
<rect width="58" height="58" fill="white" transform="translate(1090 36.7128) rotate(-28.5422)"/>
</clipPath>
<clipPath id="clip9_2578_1275">
<rect width="32.587" height="32.587" fill="white" transform="translate(69.6133 23.2539) rotate(19.0079)"/>
</clipPath>
</defs>
</svg>
