<svg width="82" height="82" viewBox="0 0 82 82" fill="none" xmlns="http://www.w3.org/2000/svg">
<g clip-path="url(#clip0_2360_1459)">
<path d="M63.9544 43.4407L71.2273 30.9831H57.6781C57.0229 30.9831 56.4917 30.4519 56.4917 29.7966C56.4917 29.1414 57.0229 28.6102 57.6781 28.6102H71.9154V25.0509C71.9154 24.3956 71.3842 23.8644 70.729 23.8644H47.0002C46.3449 23.8644 45.8137 24.3956 45.8137 25.0509V28.6102H51.7459C52.4012 28.6102 52.9324 29.1414 52.9324 29.7966C52.9324 30.4519 52.4012 30.9831 51.7459 30.9831H46.5019L53.7747 43.4407C53.9854 43.8056 54.3738 44.0314 54.7951 44.0339H62.9341C63.3554 44.0314 63.7438 43.8056 63.9544 43.4407Z" fill="#FFEEE4"/>
<path d="M77.8475 13.1864C77.8475 12.5312 77.3163 12 76.661 12H74.2881V15.5593C74.2881 16.2146 73.757 16.7458 73.1017 16.7458C72.4464 16.7458 71.9153 16.2146 71.9153 15.5593V12H69.5424V15.5593C69.5424 16.2146 69.0112 16.7458 68.3559 16.7458C67.7007 16.7458 67.1695 16.2146 67.1695 15.5593V12H64.7966V15.5593C64.7966 16.2146 64.2654 16.7458 63.6102 16.7458C62.9549 16.7458 62.4237 16.2146 62.4237 15.5593V12H60.0508V15.5593C60.0508 16.2146 59.5197 16.7458 58.8644 16.7458C58.2092 16.7458 57.678 16.2146 57.678 15.5593V12H55.3051V15.5593C55.3051 16.2146 54.7739 16.7458 54.1186 16.7458C53.4634 16.7458 52.9322 16.2146 52.9322 15.5593V12H50.5593V15.5593C50.5593 16.2146 50.0281 16.7458 49.3729 16.7458C48.7176 16.7458 48.1864 16.2146 48.1864 15.5593V12H45.8136V15.5593C45.8136 16.2146 45.2824 16.7458 44.6271 16.7458C43.9719 16.7458 43.4407 16.2146 43.4407 15.5593V12H41.0678C40.4125 12 39.8813 12.5312 39.8813 13.1864V20.3051C39.8813 20.9603 40.4125 21.4915 41.0678 21.4915H76.661C77.3163 21.4915 77.8475 20.9603 77.8475 20.3051V13.1864Z" fill="#FFEEE4"/>
<path d="M55.3052 67.7627L58.8645 70.1356L62.4238 67.7627V63.2542C55.3052 67.9881 55.8035 67.7627 55.3052 67.7627Z" fill="#FFEEE4"/>
<path d="M62.4238 57.322C55.3052 62.0678 55.8035 61.8305 55.3052 61.8305V65.1525C62.3289 60.4661 61.878 60.6441 62.4238 60.6441V57.322Z" fill="#FFEEE4"/>
<path d="M62.4238 51.3898C55.3052 56.1356 55.8035 55.8983 55.3052 55.8983V59.2203C62.317 54.5458 61.878 54.7119 62.4238 54.7119V51.3898Z" fill="#FFEEE4"/>
<path d="M62.4238 46.4068H55.3052V53.2881C62.3408 48.6017 61.878 48.7797 62.4238 48.7797V46.4068Z" fill="#FFEEE4"/>
<path d="M49.717 66.2322C50.1822 66.6974 50.9365 66.6974 51.4017 66.2322C51.8669 65.767 51.8669 65.0127 51.4017 64.5475L41.9102 55.0559C41.6092 54.755 41.1706 54.6374 40.7595 54.7476C40.3484 54.8577 40.0272 55.1789 39.9171 55.59C39.8069 56.0011 39.9245 56.4397 40.2254 56.7407L49.717 66.2322Z" fill="#FFEEE4"/>
<path d="M68.0119 66.2322L77.5034 56.7407C77.8044 56.4397 77.9219 56.0011 77.8118 55.59C77.7016 55.1789 77.3805 54.8577 76.9694 54.7476C76.5583 54.6374 76.1197 54.755 75.8187 55.0559L66.3272 64.5475C65.862 65.0127 65.862 65.767 66.3272 66.2322C66.7924 66.6974 67.5467 66.6974 68.0119 66.2322Z" fill="#FFEEE4"/>
<path d="M37.5085 53.5254C38.1637 53.5254 38.6949 52.9943 38.6949 52.339C38.6949 51.6837 38.1637 51.1526 37.5085 51.1526C36.8532 51.1526 36.322 51.6837 36.322 52.339C36.322 52.9943 36.8532 53.5254 37.5085 53.5254Z" fill="#FFEEE4"/>
<path d="M80.2204 53.5254C80.8756 53.5254 81.4068 52.9943 81.4068 52.339C81.4068 51.6837 80.8756 51.1526 80.2204 51.1526C79.5651 51.1526 79.0339 51.6837 79.0339 52.339C79.0339 52.9943 79.5651 53.5254 80.2204 53.5254Z" fill="#FFEEE4"/>
<path d="M51.2949 58.0102C51.8038 57.6027 51.8886 56.861 51.4847 56.3492L46.739 50.417C46.491 50.0439 46.054 49.8423 45.6093 49.8958C45.1645 49.9493 44.7878 50.2487 44.6353 50.6699C44.4828 51.0912 44.5806 51.5624 44.8881 51.8881L49.6339 57.8204C50.0414 58.3292 50.7831 58.414 51.2949 58.0102Z" fill="#FFEEE4"/>
<path d="M70.9898 50.4169L66.2441 56.3491C65.8403 56.8609 65.925 57.6027 66.4339 58.0101C66.9457 58.414 67.6874 58.3292 68.0949 57.8203L72.8407 51.8881C73.2472 51.3794 73.1678 50.6381 72.6627 50.2271C72.4161 50.0294 72.1008 49.9382 71.7868 49.9739C71.4727 50.0095 71.1859 50.169 70.9898 50.4169Z" fill="#FFEEE4"/>
<path d="M18.4306 28.8593C21.4303 30.3945 22.6739 34.0307 21.2424 37.0814C18.833 42.3692 20.9733 48.6183 26.1187 51.3186C29.1134 52.8582 30.3554 56.4897 28.9306 59.5407C28.4162 60.7463 28.9766 62.1407 30.1823 62.6551C31.3879 63.1695 32.7823 62.6091 33.2967 61.4034C35.7061 56.1155 33.5658 49.8664 28.4204 47.1661C25.4441 45.6098 24.2205 41.9861 25.6441 38.9441C28.0427 33.6587 25.911 27.4195 20.7797 24.7068C17.762 23.1885 16.4959 19.5478 17.9204 16.4848C18.4393 15.2984 17.9113 13.9152 16.734 13.3763C16.1471 13.1086 15.4765 13.0914 14.8766 13.3287C14.2767 13.5659 13.7993 14.0372 13.5543 14.6339C11.1588 19.919 13.2965 26.1553 18.4306 28.8593Z" fill="#FFEEE4"/>
<path d="M40.9017 33.6644C40.588 32.876 39.8776 32.3148 39.0379 32.1922C38.1983 32.0697 37.3571 32.4044 36.8312 33.0702C36.3052 33.7361 36.1744 34.6319 36.4881 35.4203C38.0305 39.2525 36.3695 40.7237 36.144 40.9135C35.1619 41.6873 34.9487 43.0904 35.6566 44.121C36.3646 45.1516 37.7508 45.456 38.8254 44.8169C39.039 44.6864 43.9508 41.2932 40.9017 33.6644Z" fill="#FFEEE4"/>
<path d="M21.3847 60.9169C22.2325 61.0208 23.0712 60.6645 23.585 59.9822C24.0989 59.3 24.2097 58.3955 23.8757 57.6094C23.5418 56.8233 22.8138 56.275 21.9661 56.1712C17.861 55.7085 17.339 53.5254 17.339 53.2644C17.2112 51.9539 16.0452 50.9951 14.7347 51.1229C13.4242 51.2506 12.4654 52.4166 12.5932 53.7271C12.5932 53.9763 13.2339 59.9203 21.3847 60.9169Z" fill="#FFEEE4"/>
<path d="M81.4068 66.5763H71.3221C70.3915 66.6004 69.5611 67.1664 69.1983 68.0237C67.3475 71.9152 58.117 74.8813 47 74.8813C35.8831 74.8813 26.6526 71.9152 24.8017 68.0237C24.439 67.1664 23.6085 66.6004 22.678 66.5763H12.5933V82H81.4068V66.5763ZM18.5255 78.4407H17.339C16.6838 78.4407 16.1526 77.9095 16.1526 77.2542C16.1526 76.599 16.6838 76.0678 17.339 76.0678H18.5255C19.1807 76.0678 19.7119 76.599 19.7119 77.2542C19.7119 77.9095 19.1807 78.4407 18.5255 78.4407ZM31.5763 78.4407H23.2712C22.616 78.4407 22.0848 77.9095 22.0848 77.2542C22.0848 76.599 22.616 76.0678 23.2712 76.0678H31.5763C32.2316 76.0678 32.7627 76.599 32.7627 77.2542C32.7627 77.9095 32.2316 78.4407 31.5763 78.4407Z" fill="#FFEEE4"/>
</g>
<g clip-path="url(#clip1_2360_1459)">
<path d="M65.9837 11.4754V3.44263C65.9837 2.1751 64.9561 1.14755 63.6886 1.14755H29.2624C27.9948 1.14755 26.9673 2.1751 26.9673 3.44263V11.4754C26.9673 12.743 27.9948 13.7705 29.2624 13.7705H32.705V19.5082C32.705 19.9557 32.246 19.0377 40.5656 33.2787C40.8596 33.777 41.331 34.1459 41.8853 34.3115V53.9344C41.8873 54.3183 42.0811 54.6758 42.4017 54.8869C46.1427 57.3771 46.005 57.3771 46.4755 57.3771C46.946 57.3771 46.7853 57.3771 50.5492 54.8869C50.8698 54.6758 51.0637 54.3183 51.0656 53.9344V34.323C51.62 34.1573 52.0913 33.7885 52.3853 33.2902C60.6935 19.0492 60.246 19.9557 60.246 19.5082V13.7705H63.6886C64.9561 13.7705 65.9837 12.743 65.9837 11.4754ZM48.7706 41.8393L44.1804 44.9033V41.9312L48.7706 38.8672V41.8393ZM44.1804 47.6689L48.7706 44.6049V47.5771L44.1804 50.641V47.6689ZM48.7706 36.1016L44.1804 39.1656V34.4262H48.7706V36.1016ZM46.4755 54.8525L44.1804 53.3607L48.7706 50.3426V53.3148L46.4755 54.8525ZM57.9509 18.3607H45.3279C44.6942 18.3607 44.1804 18.8744 44.1804 19.5082C44.1804 20.142 44.6942 20.6557 45.3279 20.6557H57.1017L50.4115 32.1312H42.5394L35.8492 20.6557H39.5902C40.224 20.6557 40.7378 20.142 40.7378 19.5082C40.7378 18.8744 40.224 18.3607 39.5902 18.3607H35.0001V13.7705H57.9509V18.3607ZM63.6886 11.4754H29.2624V3.44263H31.5574V5.73772C31.5574 6.37149 32.0712 6.88526 32.705 6.88526C33.3388 6.88526 33.8525 6.37149 33.8525 5.73772V3.44263H36.1476V5.73772C36.1476 6.37149 36.6614 6.88526 37.2952 6.88526C37.9289 6.88526 38.4427 6.37149 38.4427 5.73772V3.44263H40.7378V5.73772C40.7378 6.37149 41.2515 6.88526 41.8853 6.88526C42.5191 6.88526 43.0329 6.37149 43.0329 5.73772V3.44263H45.3279V5.73772C45.3279 6.37149 45.8417 6.88526 46.4755 6.88526C47.1092 6.88526 47.623 6.37149 47.623 5.73772V3.44263H49.9181V5.73772C49.9181 6.37149 50.4319 6.88526 51.0656 6.88526C51.6994 6.88526 52.2132 6.37149 52.2132 5.73772V3.44263H54.5083V5.73772C54.5083 6.37149 55.022 6.88526 55.6558 6.88526C56.2896 6.88526 56.8033 6.37149 56.8033 5.73772V3.44263H59.0984V5.73772C59.0984 6.37149 59.6122 6.88526 60.246 6.88526C60.8797 6.88526 61.3935 6.37149 61.3935 5.73772V3.44263H63.6886V11.4754Z" fill="#FFCAAE"/>
<path d="M68.2786 52.7869H58.5245C57.1833 52.8117 55.9785 53.6133 55.4377 54.841C54.0377 57.7787 46.0163 60.8197 35 60.8197C23.9836 60.8197 15.9508 57.7787 14.5623 54.841C14.0214 53.6133 12.8167 52.8117 11.4754 52.7869H1.72127C1.0875 52.7869 0.57373 53.3007 0.57373 53.9344V68.8525C0.57373 69.4862 1.0875 70 1.72127 70H68.2786C68.9124 70 69.4262 69.4862 69.4262 68.8525V53.9344C69.4262 53.3007 68.9124 52.7869 68.2786 52.7869ZM67.1311 67.7049H2.86881V55.082H11.4754C11.9274 55.1062 12.3229 55.3939 12.4852 55.8164C14.5278 60.1197 23.7885 63.1148 35 63.1148C46.2114 63.1148 55.4721 60.1197 57.5147 55.8164C57.677 55.3939 58.0725 55.1062 58.5245 55.082H67.1311V67.7049Z" fill="#FFCAAE"/>
<path d="M53.6934 53.6017C53.9089 53.8189 54.2022 53.9411 54.5082 53.9411C54.8142 53.9411 55.1075 53.8189 55.323 53.6017L64.5033 44.4213C64.7944 44.1302 64.9081 43.706 64.8015 43.3084C64.695 42.9107 64.3844 42.6001 63.9868 42.4936C63.5891 42.3871 63.1649 42.5007 62.8738 42.7918L53.6934 51.9721C53.4762 52.1876 53.354 52.4809 53.354 52.7869C53.354 53.0929 53.4762 53.3862 53.6934 53.6017Z" fill="#FFCAAE"/>
<path d="M67.1312 41.3115C67.765 41.3115 68.2787 40.7977 68.2787 40.164C68.2787 39.5302 67.765 39.0164 67.1312 39.0164C66.4974 39.0164 65.9836 39.5302 65.9836 40.164C65.9836 40.7977 66.4974 41.3115 67.1312 41.3115Z" fill="#FFCAAE"/>
<path d="M54.5082 45.9016C54.8574 45.9 55.1868 45.7395 55.4033 45.4656L59.9935 39.7279C60.3867 39.2359 60.3099 38.5189 59.8214 38.1213C59.5829 37.9301 59.2779 37.8419 58.9741 37.8764C58.6704 37.9109 58.3929 38.0651 58.2033 38.3049L53.6132 44.0426C53.341 44.387 53.2892 44.8565 53.4796 45.2519C53.67 45.6474 54.0693 45.8996 54.5082 45.9016Z" fill="#FFCAAE"/>
<path d="M18.2803 51.1803C19.1231 51.5386 20.074 51.5464 20.9225 51.2018C21.771 50.8572 22.4473 50.1887 22.8016 49.3443C25.3704 43.6929 23.0853 37.0189 17.5918 34.1279C15.1983 32.936 14.2065 30.0423 15.3656 27.6328C17.9259 21.9877 15.6414 15.3254 10.1557 12.4393C7.7673 11.2431 6.77711 8.35418 7.92951 5.94426C8.47901 4.80346 8.35789 3.45308 7.61415 2.42827C6.8704 1.40346 5.62411 0.86966 4.36916 1.0384C3.11421 1.20715 2.05318 2.0512 1.60656 3.23607C-0.970086 8.88417 1.31107 15.5615 6.80492 18.4525C9.19988 19.649 10.1912 22.5462 9.03115 24.959C6.46357 30.6071 8.74909 37.2774 14.241 40.1639C16.6359 41.3604 17.6272 44.2577 16.4672 46.6705C15.7259 48.4166 16.5367 50.4333 18.2803 51.1803ZM15.3541 38.1672C10.9142 35.8231 9.06833 30.4263 11.1426 25.8541C12.7789 22.3639 11.3587 18.2048 7.92951 16.4443C3.48216 14.1126 1.62898 8.7142 3.70656 4.14262C3.88777 3.71474 4.30912 3.43836 4.77378 3.44262C5.15645 3.44675 5.51187 3.64137 5.72149 3.96155C5.9311 4.28173 5.96731 4.68533 5.81804 5.03771C4.18987 8.53123 5.61396 12.6869 9.04263 14.4475C13.4857 16.7832 15.3334 22.1806 13.2541 26.7492C11.6195 30.2424 13.0452 34.4026 16.4787 36.159C20.9186 38.5032 22.7645 43.8999 20.6902 48.4721C20.5282 48.8493 20.1774 49.1115 19.7698 49.1598C19.3621 49.2081 18.9597 49.0354 18.714 48.7065C18.4683 48.3777 18.4168 47.9428 18.5787 47.5656C20.2122 44.0757 18.7861 39.9191 15.3541 38.1672Z" fill="#FFCAAE"/>
<path d="M30.1689 21.677C29.4655 19.9088 27.4617 19.0457 25.6935 19.7492C23.9253 20.4527 23.0622 22.4564 23.7657 24.2246C24.9132 27.2082 23.8345 28.1721 23.8345 28.1721C22.6099 29.0375 22.0863 30.596 22.54 32.0252C22.9937 33.4544 24.3203 34.4256 25.8198 34.4262C26.4974 34.4266 27.16 34.227 27.7247 33.8525C27.9657 33.6918 33.4624 29.9164 30.1689 21.677ZM26.4509 31.9361C25.9273 32.284 25.2212 32.1459 24.8673 31.6262C24.6923 31.3678 24.6301 31.0492 24.695 30.7439C24.76 30.4387 24.9465 30.173 25.2116 30.0082C25.6362 29.6869 27.6673 27.782 25.9001 23.3754C25.7484 22.9941 25.8116 22.5609 26.066 22.2389C26.3203 21.9169 26.7272 21.755 27.1332 21.8143C27.5392 21.8736 27.8828 22.1449 28.0345 22.5262C30.6394 29.0443 26.6345 31.8213 26.4509 31.9361Z" fill="#FFCAAE"/>
<path d="M7.45897 40.9328C7.30521 39.4266 6.18548 38.1977 4.70007 37.9048C3.21465 37.612 1.71225 38.3239 0.998316 39.659C0.667196 40.2531 0.519452 40.9319 0.573726 41.6099C0.573726 41.8853 1.26225 48.4951 10.0754 49.6426C11.9735 49.8708 13.6972 48.517 13.9254 46.6189C14.1535 44.7207 12.7997 42.997 10.9016 42.7689C7.74585 42.3787 7.45897 40.9328 7.45897 40.9328ZM11.6704 46.3148C11.636 46.62 11.4807 46.8988 11.2391 47.0886C10.9975 47.2784 10.6899 47.3634 10.3852 47.3246C3.39668 46.4754 2.86881 41.6213 2.86881 41.4033C2.81583 40.773 3.2829 40.2187 3.91307 40.164C4.22324 40.1354 4.53168 40.2342 4.76757 40.4377C5.00345 40.6411 5.14651 40.9316 5.16389 41.2426C5.24422 41.782 5.93274 44.4672 10.6491 45.041C11.2756 45.1187 11.7217 45.6878 11.6475 46.3148H11.6704Z" fill="#FFCAAE"/>
<path d="M7.45915 63.1148H6.3116C5.67783 63.1148 5.16406 63.6285 5.16406 64.2623C5.16406 64.8961 5.67783 65.4098 6.3116 65.4098H7.45915C8.09292 65.4098 8.60669 64.8961 8.60669 64.2623C8.60669 63.6285 8.09292 63.1148 7.45915 63.1148Z" fill="#FFCAAE"/>
<path d="M20.0819 63.1148H12.0492C11.4154 63.1148 10.9016 63.6285 10.9016 64.2623C10.9016 64.8961 11.4154 65.4098 12.0492 65.4098H20.0819C20.7157 65.4098 21.2295 64.8961 21.2295 64.2623C21.2295 63.6285 20.7157 63.1148 20.0819 63.1148Z" fill="#FFCAAE"/>
</g>
<defs>
<clipPath id="clip0_2360_1459">
<rect width="70" height="70" fill="white" transform="translate(12 12)"/>
</clipPath>
<clipPath id="clip1_2360_1459">
<rect width="70" height="70" fill="white"/>
</clipPath>
</defs>
</svg>
