<svg width="55" height="55" viewBox="0 0 55 55" fill="none" xmlns="http://www.w3.org/2000/svg">
<path d="M47.0606 29.3606H42.8071C43.2406 30.5476 43.4775 31.8286 43.4775 33.1638V49.2395C43.4775 49.7961 43.3806 50.3305 43.2043 50.8274H50.2363C52.8631 50.8274 55 48.6903 55 46.0637V37.3001C55.0001 32.9223 51.4384 29.3606 47.0606 29.3606Z" fill="white"/>
<path d="M11.5226 33.1639C11.5226 31.8286 11.7595 30.5477 12.1931 29.3607H7.93957C3.56169 29.3607 0 32.9224 0 37.3003V46.0639C0 48.6906 2.13695 50.8276 4.76374 50.8276H11.7958C11.6195 50.3305 11.5226 49.7963 11.5226 49.2396V33.1639Z" fill="white"/>
<path d="M32.3621 25.2244H22.6381C18.2602 25.2244 14.6985 28.7861 14.6985 33.1639V49.2396C14.6985 50.1165 15.4094 50.8276 16.2864 50.8276H38.7138C39.5908 50.8276 40.3017 50.1166 40.3017 49.2396V33.1639C40.3017 28.7861 36.74 25.2244 32.3621 25.2244Z" fill="white"/>
<path d="M27.5 4.17224C22.2351 4.17224 17.9517 8.45559 17.9517 13.7207C17.9517 17.2919 19.9228 20.4109 22.8337 22.0485C24.2144 22.8251 25.8062 23.269 27.5 23.269C29.1939 23.269 30.7857 22.8251 32.1663 22.0485C35.0774 20.4109 37.0484 17.2918 37.0484 13.7207C37.0484 8.4557 32.765 4.17224 27.5 4.17224Z" fill="white"/>
<path d="M10.7334 13.0721C6.79585 13.0721 3.59253 16.2755 3.59253 20.213C3.59253 24.1506 6.79585 27.3539 10.7334 27.3539C11.7322 27.3539 12.6833 27.147 13.5473 26.7751C15.0411 26.132 16.2728 24.9935 17.035 23.5675C17.57 22.5666 17.8743 21.4249 17.8743 20.213C17.8743 16.2756 14.671 13.0721 10.7334 13.0721Z" fill="white"/>
<path d="M44.2667 13.0721C40.3292 13.0721 37.1259 16.2755 37.1259 20.213C37.1259 21.425 37.4302 22.5668 37.9651 23.5675C38.7273 24.9936 39.959 26.1321 41.4528 26.7751C42.3168 27.147 43.2679 27.3539 44.2667 27.3539C48.2043 27.3539 51.4076 24.1506 51.4076 20.213C51.4076 16.2755 48.2043 13.0721 44.2667 13.0721Z" fill="white"/>
</svg>
