<svg width="55" height="55" viewBox="0 0 55 55" fill="none" xmlns="http://www.w3.org/2000/svg">
<path d="M27.5 26.8986C33.6151 26.8986 38.5728 20.8772 38.5728 13.4494C38.5728 6.0214 36.9451 0 27.5 0C18.0549 0 16.4269 6.0214 16.4269 13.4494C16.4269 20.8772 21.3846 26.8986 27.5 26.8986Z" fill="white"/>
<path d="M6.5857 47.4341C6.58381 46.9811 6.58193 47.3064 6.5857 47.4341V47.4341Z" fill="white"/>
<path d="M48.4134 47.7877C48.4193 47.6637 48.4154 46.9275 48.4134 47.7877V47.7877Z" fill="white"/>
<path d="M48.3898 46.8909C48.1847 33.9515 46.4948 30.2644 33.563 27.9305C33.563 27.9305 31.7427 30.2501 27.4998 30.2501C23.257 30.2501 21.4363 27.9305 21.4363 27.9305C8.64569 30.239 6.853 33.8713 6.61729 46.4706C6.59796 47.4994 6.589 47.5534 6.58554 47.434C6.58633 47.6578 6.58727 48.0717 6.58727 48.7935C6.58727 48.7935 9.66601 55 27.4998 55C45.3334 55 48.4124 48.7935 48.4124 48.7935C48.4124 48.3297 48.4127 48.0073 48.4132 47.7879C48.4098 47.8618 48.4028 47.7186 48.3898 46.8909Z" fill="white"/>
</svg>
