<svg width="16" height="16" viewBox="0 0 16 16" fill="none" xmlns="http://www.w3.org/2000/svg">
<path d="M15.0409 12.8825C15.6692 12.027 15.9993 11.0329 15.9993 9.98514C15.9993 8.30789 15.1295 6.75071 13.6621 5.77896C13.5267 4.28462 12.829 2.89878 11.6624 1.831C10.3723 0.65028 8.66081 0 6.84309 0C5.02538 0 3.31388 0.65028 2.02382 1.83103C0.718324 3.02587 -0.000642919 4.61893 -0.000642919 6.31674C-0.000642919 7.62261 0.420325 8.86067 1.22057 9.91998L0.0449195 12.8282C-0.0504241 13.0641 0.00666957 13.3342 0.189325 13.5112C0.308388 13.6266 0.4652 13.6875 0.624512 13.6875C0.709606 13.6875 0.795418 13.6701 0.87648 13.6344L4.22963 12.1563C4.6506 12.3172 5.08428 12.4375 5.52797 12.5172C5.98244 13.2647 6.63069 13.8976 7.41875 14.3584C8.29856 14.8727 9.3144 15.1476 10.3593 15.1555C10.3746 15.1566 10.39 15.1578 10.4056 15.1578C11.128 15.1578 11.828 15.033 12.4901 14.7866L15.1222 15.9469C15.2033 15.9826 15.2891 16 15.3742 16C15.5335 16 15.6904 15.9391 15.8094 15.8237C15.992 15.6466 16.0491 15.3765 15.9538 15.1407L15.0409 12.8825ZM13.7459 13.0143L14.218 14.1822L12.7544 13.537C12.5961 13.4673 12.4161 13.4662 12.257 13.5341C11.6833 13.7788 11.0691 13.9043 10.4309 13.9075C10.4225 13.9072 10.4141 13.9062 10.4056 13.9062C9.1739 13.9062 8.01028 13.4249 7.19734 12.6243C8.22806 12.5749 9.23837 12.3117 10.1391 11.8542C10.4469 11.6979 10.5696 11.3217 10.4133 11.0139C10.2571 10.7062 9.88084 10.5835 9.57306 10.7397C8.74387 11.1609 7.79984 11.3835 6.84309 11.3835C6.01172 11.3835 5.21132 11.2219 4.46422 10.9031C4.30519 10.8352 4.12507 10.8362 3.96685 10.906L1.78067 11.8698L2.51673 10.0489C2.60401 9.83304 2.56404 9.58648 2.41295 9.40926C1.65173 8.5162 1.24935 7.44683 1.24935 6.31674C1.24935 3.5229 3.75869 1.25 6.84309 1.25C9.92749 1.25 12.4368 3.5229 12.4368 6.31674C12.4368 7.21911 12.1716 8.10498 11.6696 8.87858C11.4817 9.16814 11.5641 9.55517 11.8537 9.74304C12.1432 9.93098 12.5303 9.84848 12.7182 9.55892C13.1637 8.87239 13.4613 8.11439 13.5989 7.32714C14.331 8.04414 14.7493 8.98854 14.7493 9.98514C14.7493 10.8578 14.4382 11.6841 13.8496 12.3745C13.6985 12.5518 13.6586 12.7983 13.7459 13.0143ZM7.43684 9.53123C7.43684 9.87642 7.15703 10.1562 6.81184 10.1562C6.46666 10.1562 6.18684 9.87642 6.18684 9.53123C6.18684 9.18604 6.46666 8.90623 6.81184 8.90623C7.15703 8.90623 7.43684 9.18604 7.43684 9.53123ZM9.18631 4.84849C9.18668 4.85718 9.18687 4.86587 9.18687 4.87465C9.18709 5.81549 8.62806 6.66217 7.76272 7.03158C7.58365 7.10805 7.4679 7.28839 7.4679 7.49098V7.53123C7.4679 7.87642 7.18809 8.15623 6.84291 8.15623C6.49772 8.15623 6.21791 7.87642 6.21791 7.53123V7.49102C6.21791 6.78692 6.63163 6.15536 7.27194 5.88202C7.67047 5.71186 7.92984 5.32496 7.93672 4.89287C7.93656 4.88687 7.93647 4.88083 7.93647 4.8748C7.93647 4.27184 7.4459 3.78127 6.84291 3.78127C6.23994 3.78124 5.74935 4.2718 5.74935 4.87477C5.74935 5.21996 5.46953 5.49977 5.12435 5.49977C4.77916 5.49977 4.49935 5.21996 4.49935 4.87477C4.49935 3.58256 5.55066 2.53124 6.84291 2.53124C8.12637 2.53124 9.17221 3.56834 9.18631 4.84849Z" fill="#132E6B"/>
</svg>
