<svg width="17" height="17" fill="none" xmlns="http://www.w3.org/2000/svg"><path d="M.797 6.89c0 .86.161 1.667.484 2.423.323.75.771 1.411 1.344 1.984a6.308 6.308 0 001.984 1.344 6.095 6.095 0 002.422.484c.677 0 1.323-.104 1.938-.313a6.442 6.442 0 001.687-.859l3.844 3.852a.921.921 0 00.305.195.94.94 0 00.36.07.876.876 0 00.468-.125.791.791 0 00.312-.328.95.95 0 00.047-.82.815.815 0 00-.187-.29l-3.82-3.843c.4-.52.713-1.101.937-1.742.229-.64.344-1.318.344-2.031 0-.86-.162-1.664-.485-2.414A6.283 6.283 0 009.445 1.14 6.039 6.039 0 007.031.656c-.86 0-1.666.162-2.422.485a6.308 6.308 0 00-3.328 3.336A6.039 6.039 0 00.797 6.89zm1.336 0c0-.676.125-1.31.375-1.898a4.954 4.954 0 012.617-2.617 4.776 4.776 0 011.906-.383c.677 0 1.31.128 1.899.383.593.25 1.114.602 1.562 1.055.448.448.8.968 1.055 1.562a4.72 4.72 0 01.383 1.899c0 .677-.128 1.312-.383 1.906a4.98 4.98 0 01-2.617 2.61 4.718 4.718 0 01-1.899.382 4.774 4.774 0 01-1.906-.383 5.074 5.074 0 01-1.563-1.054 4.98 4.98 0 01-1.054-1.555 4.862 4.862 0 01-.375-1.906z" fill="#202634"/></svg>