<svg width="2519" height="583" viewBox="0 0 2519 583" fill="none" xmlns="http://www.w3.org/2000/svg">
<path d="M355.725 0L0 582.01H182.824L538.81 0H355.725Z" fill="#E3000F"/>
<path d="M576.886 0L317.81 423H500.963L759.81 0H576.886Z" fill="#FFE600"/>
<path d="M666.81 147L706.762 213H888.567L758.81 0L666.81 147Z" fill="#A7A7A8"/>
<path d="M754.729 269.724L740.629 367.824C739.829 374.024 740.429 378.324 742.429 380.724C744.629 383.124 748.129 384.324 752.929 384.324C759.929 384.324 766.729 382.324 773.329 378.324C780.129 374.324 788.629 367.924 798.829 359.124L805.429 381.324C792.429 395.124 780.129 405.424 768.529 412.224C756.929 418.824 745.129 422.124 733.129 422.124C718.729 422.124 708.229 418.424 701.629 411.024C695.229 403.424 693.029 393.024 695.029 379.824L710.329 269.724H754.729ZM852.229 269.724L831.829 417.924H797.029L797.629 377.724L793.729 373.824L808.129 269.724H852.229ZM943.082 265.824C950.482 265.824 958.382 266.124 966.782 266.724C975.182 267.324 983.282 268.024 991.082 268.824C999.082 269.624 1005.98 270.524 1011.78 271.524L1007.58 299.124C997.982 298.924 988.382 298.824 978.782 298.824C969.382 298.624 959.782 298.424 949.982 298.224C942.382 298.224 936.282 298.424 931.682 298.824C927.282 299.024 924.082 299.824 922.082 301.224C920.082 302.424 918.882 304.424 918.482 307.224C918.082 310.824 919.082 313.624 921.482 315.624C924.082 317.624 928.482 319.724 934.682 321.924L971.582 335.124C979.382 337.924 985.782 341.224 990.782 345.024C995.782 348.824 999.282 353.524 1001.28 359.124C1003.48 364.724 1004.08 371.524 1003.08 379.524C1001.68 391.524 997.882 400.524 991.682 406.524C985.682 412.324 977.582 416.224 967.382 418.224C957.382 420.224 945.182 421.224 930.782 421.224C922.982 421.224 915.682 421.024 908.882 420.624C902.282 420.424 895.382 419.824 888.182 418.824C881.182 418.024 873.282 417.024 864.482 415.824L868.382 388.224C872.182 388.424 876.782 388.624 882.182 388.824C887.782 388.824 893.582 388.924 899.582 389.124C905.782 389.124 911.582 389.124 916.982 389.124C928.382 388.924 937.082 388.524 943.082 387.924C949.082 387.324 953.282 386.324 955.682 384.924C958.282 383.324 959.882 381.024 960.482 378.024C960.882 375.424 960.482 373.424 959.282 372.024C958.282 370.624 956.382 369.324 953.582 368.124C950.982 366.924 947.382 365.524 942.782 363.924L906.782 350.424C898.582 347.424 891.982 343.824 886.982 339.624C882.182 335.424 878.882 330.324 877.082 324.324C875.482 318.324 875.182 311.524 876.182 303.924C877.382 294.724 880.382 287.424 885.182 282.024C889.982 276.424 897.082 272.324 906.482 269.724C915.882 267.124 928.082 265.824 943.082 265.824ZM1099.49 207.924L1087.19 299.424C1086.19 305.824 1084.69 312.024 1082.69 318.024C1080.89 324.024 1078.49 330.224 1075.49 336.624C1075.89 341.224 1076.39 346.424 1076.99 352.224C1077.59 357.824 1077.79 362.824 1077.59 367.224L1070.09 417.924H1025.69L1055.09 207.924H1099.49ZM1185.29 269.724C1180.89 285.324 1174.49 298.624 1166.09 309.624C1157.89 320.424 1148.39 329.524 1137.59 336.924C1126.79 344.324 1115.49 350.624 1103.69 355.824C1091.89 360.824 1080.59 365.224 1069.79 369.024L1065.89 339.624C1077.09 335.224 1087.79 329.524 1097.99 322.524C1108.39 315.524 1117.19 307.524 1124.39 298.524C1131.79 289.524 1136.89 279.924 1139.69 269.724H1185.29ZM1127.39 333.624C1132.39 336.624 1136.49 340.224 1139.69 344.424C1142.89 348.624 1145.49 353.024 1147.49 357.624L1175.69 417.924H1129.49L1097.09 344.724L1127.39 333.624ZM1259.51 269.724L1245.41 367.824C1244.61 374.024 1245.21 378.324 1247.21 380.724C1249.41 383.124 1252.91 384.324 1257.71 384.324C1264.71 384.324 1271.51 382.324 1278.11 378.324C1284.91 374.324 1293.41 367.924 1303.61 359.124L1310.21 381.324C1297.21 395.124 1284.91 405.424 1273.31 412.224C1261.71 418.824 1249.91 422.124 1237.91 422.124C1223.51 422.124 1213.01 418.424 1206.41 411.024C1200.01 403.424 1197.81 393.024 1199.81 379.824L1215.11 269.724H1259.51ZM1357.01 269.724L1336.61 417.924H1301.81L1302.41 377.724L1298.51 373.824L1312.91 269.724H1357.01ZM1495.57 265.824C1503.77 265.824 1510.87 267.424 1516.87 270.624C1522.87 273.624 1527.27 278.224 1530.07 284.424C1532.87 290.624 1533.67 298.424 1532.47 307.824L1516.87 417.924H1472.17L1485.97 321.324C1486.97 314.524 1486.57 309.824 1484.77 307.224C1483.17 304.424 1479.57 303.124 1473.97 303.324C1467.37 303.524 1460.37 305.624 1452.97 309.624C1445.77 313.624 1436.97 319.824 1426.57 328.224L1421.47 305.724C1433.27 293.124 1445.47 283.324 1458.07 276.324C1470.87 269.324 1483.37 265.824 1495.57 265.824ZM1427.77 269.724V308.724L1431.37 312.924L1416.67 417.924H1372.27L1392.97 269.724H1427.77ZM1643.36 265.824C1648.56 265.824 1654.36 266.124 1660.76 266.724C1667.36 267.124 1673.96 267.724 1680.56 268.524C1687.36 269.324 1693.66 270.224 1699.46 271.224C1705.46 272.224 1710.36 273.224 1714.16 274.224L1683.86 298.224C1675.86 297.824 1668.56 297.624 1661.96 297.624C1655.36 297.424 1649.16 297.324 1643.36 297.324C1636.76 297.324 1631.16 297.824 1626.56 298.824C1621.96 299.824 1618.16 301.824 1615.16 304.824C1612.16 307.624 1609.66 311.924 1607.66 317.724C1605.66 323.524 1603.96 331.324 1602.56 341.124C1600.76 353.524 1599.76 363.024 1599.56 369.624C1599.56 376.024 1600.76 380.424 1603.16 382.824C1605.56 385.224 1609.36 386.324 1614.56 386.124C1619.96 385.924 1625.56 384.124 1631.36 380.724C1637.36 377.324 1643.26 372.724 1649.06 366.924C1654.86 360.924 1660.46 354.224 1665.86 346.824L1673.66 361.224C1669.66 373.024 1663.96 383.424 1656.56 392.424C1649.36 401.224 1640.86 408.124 1631.06 413.124C1621.26 418.124 1610.36 420.924 1598.36 421.524C1585.36 422.124 1575.36 419.524 1568.36 413.724C1561.56 407.924 1557.36 398.924 1555.76 386.724C1554.16 374.524 1554.76 359.224 1557.56 340.824C1560.16 323.824 1563.76 310.324 1568.36 300.324C1573.16 290.124 1579.16 282.624 1586.36 277.824C1593.56 272.824 1601.86 269.624 1611.26 268.224C1620.86 266.624 1631.56 265.824 1643.36 265.824ZM1670.36 271.524L1714.16 274.224L1694.06 417.924H1659.56L1660.16 384.324L1654.76 380.724L1670.36 271.524ZM1803.79 207.924L1780.39 371.424C1779.59 376.624 1780.19 380.324 1782.19 382.524C1784.39 384.524 1788.49 385.524 1794.49 385.524H1807.99L1810.09 415.824C1807.69 417.224 1804.19 418.324 1799.59 419.124C1795.19 419.924 1790.79 420.524 1786.39 420.924C1781.99 421.324 1778.39 421.524 1775.59 421.524C1761.39 421.524 1750.69 417.924 1743.49 410.724C1736.29 403.324 1733.49 393.324 1735.09 380.724L1759.39 207.924H1803.79ZM1919.33 265.824C1924.53 265.824 1930.33 266.124 1936.73 266.724C1943.33 267.124 1949.93 267.724 1956.53 268.524C1963.33 269.324 1969.63 270.224 1975.43 271.224C1981.43 272.224 1986.33 273.224 1990.13 274.224L1959.83 298.224C1951.83 297.824 1944.53 297.624 1937.93 297.624C1931.33 297.424 1925.13 297.324 1919.33 297.324C1912.73 297.324 1907.13 297.824 1902.53 298.824C1897.93 299.824 1894.13 301.824 1891.13 304.824C1888.13 307.624 1885.63 311.924 1883.63 317.724C1881.63 323.524 1879.93 331.324 1878.53 341.124C1876.73 353.524 1875.73 363.024 1875.53 369.624C1875.53 376.024 1876.73 380.424 1879.13 382.824C1881.53 385.224 1885.33 386.324 1890.53 386.124C1895.93 385.924 1901.53 384.124 1907.33 380.724C1913.33 377.324 1919.23 372.724 1925.03 366.924C1930.83 360.924 1936.43 354.224 1941.83 346.824L1949.63 361.224C1945.63 373.024 1939.93 383.424 1932.53 392.424C1925.33 401.224 1916.83 408.124 1907.03 413.124C1897.23 418.124 1886.33 420.924 1874.33 421.524C1861.33 422.124 1851.33 419.524 1844.33 413.724C1837.53 407.924 1833.33 398.924 1831.73 386.724C1830.13 374.524 1830.73 359.224 1833.53 340.824C1836.13 323.824 1839.73 310.324 1844.33 300.324C1849.13 290.124 1855.13 282.624 1862.33 277.824C1869.53 272.824 1877.83 269.624 1887.23 268.224C1896.83 266.624 1907.53 265.824 1919.33 265.824ZM1946.33 271.524L1990.13 274.224L1970.03 417.924H1935.53L1936.13 384.324L1930.73 380.724L1946.33 271.524ZM2060.87 269.724L2061.17 305.124L2065.07 309.324L2050.07 417.924H2005.67L2026.37 269.724H2060.87ZM2133.47 265.824L2123.87 306.924H2113.07C2106.07 306.924 2098.47 308.524 2090.27 311.724C2082.27 314.724 2072.17 319.324 2059.97 325.524L2058.17 299.424C2069.97 288.424 2081.47 280.124 2092.67 274.524C2103.87 268.724 2114.47 265.824 2124.47 265.824H2133.47ZM2146.38 372.324C2151.78 372.324 2155.78 373.724 2158.38 376.524C2160.98 379.124 2161.88 383.224 2161.08 388.824L2159.28 403.224C2158.68 408.224 2156.98 411.924 2154.18 414.324C2151.58 416.724 2147.58 417.924 2142.18 417.924H2131.98C2120.58 417.924 2115.58 412.424 2116.98 401.424L2118.78 387.024C2120.18 377.224 2125.98 372.324 2136.18 372.324H2146.38ZM2253.85 269.724L2239.75 367.824C2238.95 374.024 2239.55 378.324 2241.55 380.724C2243.75 383.124 2247.25 384.324 2252.05 384.324C2259.05 384.324 2265.85 382.324 2272.45 378.324C2279.25 374.324 2287.75 367.924 2297.95 359.124L2304.55 381.324C2291.55 395.124 2279.25 405.424 2267.65 412.224C2256.05 418.824 2244.25 422.124 2232.25 422.124C2217.85 422.124 2207.35 418.424 2200.75 411.024C2194.35 403.424 2192.15 393.024 2194.15 379.824L2209.45 269.724H2253.85ZM2351.35 269.724L2330.95 417.924H2296.15L2296.75 377.724L2292.85 373.824L2307.25 269.724H2351.35ZM2456.6 300.324L2509.1 300.624L2416.4 387.624L2363.9 387.324L2456.6 300.324ZM2497.7 387.324L2493.5 417.924H2360.3L2364.2 387.324H2497.7ZM2512.7 269.724L2508.8 300.624H2378.3L2382.2 269.724H2512.7Z" fill="white"/>
<path d="M456.962 490.423V549.923H450.757V495.863H413.102V549.923H406.897V490.423H456.962ZM499.309 490.423C506.902 490.423 512.852 492.236 517.159 495.863C521.465 499.49 523.619 504.476 523.619 510.823C523.619 517.17 521.465 522.156 517.159 525.783C512.852 529.353 506.902 531.138 499.309 531.138H483.329V549.923H477.039V490.423H499.309ZM499.139 525.613C505.032 525.613 509.537 524.338 512.654 521.788C515.77 519.181 517.329 515.526 517.329 510.823C517.329 506.006 515.77 502.323 512.654 499.773C509.537 497.166 505.032 495.863 499.139 495.863H483.329V525.613H499.139ZM563.48 550.433C557.587 550.433 552.232 549.13 547.415 546.523C542.655 543.86 538.915 540.233 536.195 535.643C533.532 531.053 532.2 525.896 532.2 520.173C532.2 514.45 533.532 509.293 536.195 504.703C538.915 500.113 542.655 496.515 547.415 493.908C552.232 491.245 557.587 489.913 563.48 489.913C569.374 489.913 574.672 491.216 579.375 493.823C584.135 496.43 587.875 500.056 590.595 504.703C593.315 509.293 594.675 514.45 594.675 520.173C594.675 525.896 593.315 531.081 590.595 535.728C587.875 540.318 584.135 543.916 579.375 546.523C574.672 549.13 569.374 550.433 563.48 550.433ZM563.48 544.823C568.184 544.823 572.434 543.775 576.23 541.678C580.027 539.525 583.002 536.578 585.155 532.838C587.309 529.041 588.385 524.82 588.385 520.173C588.385 515.526 587.309 511.333 585.155 507.593C583.002 503.796 580.027 500.85 576.23 498.753C572.434 496.6 568.184 495.523 563.48 495.523C558.777 495.523 554.499 496.6 550.645 498.753C546.849 500.85 543.845 503.796 541.635 507.593C539.482 511.333 538.405 515.526 538.405 520.173C538.405 524.82 539.482 529.041 541.635 532.838C543.845 536.578 546.849 539.525 550.645 541.678C554.499 543.775 558.777 544.823 563.48 544.823ZM671.48 490.423V549.923H665.445V502.323L642.07 542.358H639.095L615.72 502.578V549.923H609.685V490.423H614.87L640.71 534.538L666.295 490.423H671.48ZM716.436 511.673C723.463 511.673 728.818 513.26 732.501 516.433C736.241 519.606 738.111 524.253 738.111 530.373C738.111 536.776 736.128 541.65 732.161 544.993C728.251 548.28 722.584 549.923 715.161 549.923H691.531V490.423H697.736V511.673H716.436ZM714.991 544.908C720.488 544.908 724.653 543.69 727.486 541.253C730.376 538.816 731.821 535.218 731.821 530.458C731.821 521.335 726.211 516.773 714.991 516.773H697.736V544.908H714.991ZM748.396 490.423H754.601V549.923H748.396V490.423ZM847.552 490.423V549.923H774.622V490.423H780.827V544.483H808.027V490.423H814.232V544.483H841.347V490.423H847.552ZM913.342 490.423V549.923H907.137V495.863H878.407L877.727 515.753C877.444 523.97 876.764 530.6 875.687 535.643C874.667 540.63 873.081 544.37 870.927 546.863C868.774 549.3 865.912 550.518 862.342 550.518C860.812 550.518 859.226 550.32 857.582 549.923L858.092 544.313C859.056 544.54 859.991 544.653 860.897 544.653C863.391 544.653 865.402 543.661 866.932 541.678C868.519 539.695 869.709 536.635 870.502 532.498C871.296 528.305 871.834 522.78 872.117 515.923L872.967 490.423H913.342ZM975.491 544.483V549.923H933.417V490.423H974.216V495.863H939.706V517.028H970.476V522.383H939.706V544.483H975.491ZM1039.17 490.423V549.923H1032.97V522.468H995.736V549.923H989.446V490.423H995.736V516.943H1032.97V490.423H1039.17ZM1108.98 490.423V549.923H1102.78V522.468H1065.55V549.923H1059.26V490.423H1065.55V516.943H1102.78V490.423H1108.98ZM1155.16 550.433C1149.27 550.433 1143.91 549.13 1139.1 546.523C1134.34 543.86 1130.6 540.233 1127.88 535.643C1125.21 531.053 1123.88 525.896 1123.88 520.173C1123.88 514.45 1125.21 509.293 1127.88 504.703C1130.6 500.113 1134.34 496.515 1139.1 493.908C1143.91 491.245 1149.27 489.913 1155.16 489.913C1161.05 489.913 1166.35 491.216 1171.06 493.823C1175.82 496.43 1179.56 500.056 1182.28 504.703C1185 509.293 1186.36 514.45 1186.36 520.173C1186.36 525.896 1185 531.081 1182.28 535.728C1179.56 540.318 1175.82 543.916 1171.06 546.523C1166.35 549.13 1161.05 550.433 1155.16 550.433ZM1155.16 544.823C1159.86 544.823 1164.11 543.775 1167.91 541.678C1171.71 539.525 1174.68 536.578 1176.84 532.838C1178.99 529.041 1180.07 524.82 1180.07 520.173C1180.07 515.526 1178.99 511.333 1176.84 507.593C1174.68 503.796 1171.71 500.85 1167.91 498.753C1164.11 496.6 1159.86 495.523 1155.16 495.523C1150.46 495.523 1146.18 496.6 1142.33 498.753C1138.53 500.85 1135.53 503.796 1133.32 507.593C1131.16 511.333 1130.09 515.526 1130.09 520.173C1130.09 524.82 1131.16 529.041 1133.32 532.838C1135.53 536.578 1138.53 539.525 1142.33 541.678C1146.18 543.775 1150.46 544.823 1155.16 544.823ZM1243.44 544.483V549.923H1201.36V490.423H1242.16V495.863H1207.65V517.028H1238.42V522.383H1207.65V544.483H1243.44ZM1305.74 550.433C1299.84 550.433 1294.49 549.13 1289.67 546.523C1284.91 543.86 1281.17 540.233 1278.45 535.643C1275.79 531.053 1274.46 525.896 1274.46 520.173C1274.46 514.45 1275.79 509.293 1278.45 504.703C1281.17 500.113 1284.91 496.515 1289.67 493.908C1294.49 491.245 1299.84 489.913 1305.74 489.913C1311.63 489.913 1316.93 491.216 1321.63 493.823C1326.39 496.43 1330.13 500.056 1332.85 504.703C1335.57 509.293 1336.93 514.45 1336.93 520.173C1336.93 525.896 1335.57 531.081 1332.85 535.728C1330.13 540.318 1326.39 543.916 1321.63 546.523C1316.93 549.13 1311.63 550.433 1305.74 550.433ZM1305.74 544.823C1310.44 544.823 1314.69 543.775 1318.49 541.678C1322.28 539.525 1325.26 536.578 1327.41 532.838C1329.56 529.041 1330.64 524.82 1330.64 520.173C1330.64 515.526 1329.56 511.333 1327.41 507.593C1325.26 503.796 1322.28 500.85 1318.49 498.753C1314.69 496.6 1310.44 495.523 1305.74 495.523C1301.03 495.523 1296.75 496.6 1292.9 498.753C1289.1 500.85 1286.1 503.796 1283.89 507.593C1281.74 511.333 1280.66 515.526 1280.66 520.173C1280.66 524.82 1281.74 529.041 1283.89 532.838C1286.1 536.578 1289.1 539.525 1292.9 541.678C1296.75 543.775 1301.03 544.823 1305.74 544.823ZM1351.94 490.423H1395.46V495.778H1358.15V515.243H1377.61C1384.64 515.243 1389.96 516.688 1393.59 519.578C1397.27 522.468 1399.12 526.661 1399.12 532.158C1399.12 537.881 1397.13 542.273 1393.17 545.333C1389.26 548.393 1383.62 549.923 1376.25 549.923H1351.94V490.423ZM1376.17 544.908C1381.66 544.908 1385.8 543.86 1388.58 541.763C1391.41 539.666 1392.83 536.55 1392.83 532.413C1392.83 528.333 1391.44 525.301 1388.66 523.318C1385.94 521.278 1381.78 520.258 1376.17 520.258H1358.15V544.908H1376.17ZM1439.79 550.433C1433.9 550.433 1428.55 549.13 1423.73 546.523C1418.97 543.86 1415.23 540.233 1412.51 535.643C1409.85 531.053 1408.51 525.896 1408.51 520.173C1408.51 514.45 1409.85 509.293 1412.51 504.703C1415.23 500.113 1418.97 496.515 1423.73 493.908C1428.55 491.245 1433.9 489.913 1439.79 489.913C1445.69 489.913 1450.99 491.216 1455.69 493.823C1460.45 496.43 1464.19 500.056 1466.91 504.703C1469.63 509.293 1470.99 514.45 1470.99 520.173C1470.99 525.896 1469.63 531.081 1466.91 535.728C1464.19 540.318 1460.45 543.916 1455.69 546.523C1450.99 549.13 1445.69 550.433 1439.79 550.433ZM1439.79 544.823C1444.5 544.823 1448.75 543.775 1452.54 541.678C1456.34 539.525 1459.32 536.578 1461.47 532.838C1463.62 529.041 1464.7 524.82 1464.7 520.173C1464.7 515.526 1463.62 511.333 1461.47 507.593C1459.32 503.796 1456.34 500.85 1452.54 498.753C1448.75 496.6 1444.5 495.523 1439.79 495.523C1435.09 495.523 1430.81 496.6 1426.96 498.753C1423.16 500.85 1420.16 503.796 1417.95 507.593C1415.8 511.333 1414.72 515.526 1414.72 520.173C1414.72 524.82 1415.8 529.041 1417.95 532.838C1420.16 536.578 1423.16 539.525 1426.96 541.678C1430.81 543.775 1435.09 544.823 1439.79 544.823ZM1508.27 490.423C1515.86 490.423 1521.81 492.236 1526.12 495.863C1530.43 499.49 1532.58 504.476 1532.58 510.823C1532.58 517.17 1530.43 522.156 1526.12 525.783C1521.81 529.353 1515.86 531.138 1508.27 531.138H1492.29V549.923H1486V490.423H1508.27ZM1508.1 525.613C1513.99 525.613 1518.5 524.338 1521.61 521.788C1524.73 519.181 1526.29 515.526 1526.29 510.823C1526.29 506.006 1524.73 502.323 1521.61 499.773C1518.5 497.166 1513.99 495.863 1508.1 495.863H1492.29V525.613H1508.1ZM1590.94 490.423L1563.91 540.488C1561.98 544.058 1559.71 546.721 1557.11 548.478C1554.56 550.178 1551.75 551.028 1548.69 551.028C1546.43 551.028 1543.99 550.49 1541.38 549.413L1543.17 544.313C1545.21 545.106 1547.08 545.503 1548.78 545.503C1552.69 545.503 1555.89 543.378 1558.38 539.128L1560.08 536.238L1535.94 490.423H1542.66L1563.4 530.713L1584.65 490.423H1590.94ZM1654.71 544.483V563.268H1648.84V549.923H1596.91L1596.82 563.268H1590.96L1591.04 544.483H1594.02C1597.93 544.256 1600.65 541.168 1602.18 535.218C1603.71 529.211 1604.64 520.711 1604.98 509.718L1605.66 490.423H1645.78V544.483H1654.71ZM1610.59 510.313C1610.31 519.38 1609.6 526.86 1608.47 532.753C1607.39 538.59 1605.55 542.5 1602.94 544.483H1639.58V495.863H1611.1L1610.59 510.313ZM1693.63 550.433C1687.74 550.433 1682.38 549.13 1677.57 546.523C1672.81 543.86 1669.07 540.233 1666.35 535.643C1663.68 531.053 1662.35 525.896 1662.35 520.173C1662.35 514.45 1663.68 509.293 1666.35 504.703C1669.07 500.113 1672.81 496.515 1677.57 493.908C1682.38 491.245 1687.74 489.913 1693.63 489.913C1699.53 489.913 1704.82 491.216 1709.53 493.823C1714.29 496.43 1718.03 500.056 1720.75 504.703C1723.47 509.293 1724.83 514.45 1724.83 520.173C1724.83 525.896 1723.47 531.081 1720.75 535.728C1718.03 540.318 1714.29 543.916 1709.53 546.523C1704.82 549.13 1699.53 550.433 1693.63 550.433ZM1693.63 544.823C1698.34 544.823 1702.59 543.775 1706.38 541.678C1710.18 539.525 1713.15 536.578 1715.31 532.838C1717.46 529.041 1718.54 524.82 1718.54 520.173C1718.54 515.526 1717.46 511.333 1715.31 507.593C1713.15 503.796 1710.18 500.85 1706.38 498.753C1702.59 496.6 1698.34 495.523 1693.63 495.523C1688.93 495.523 1684.65 496.6 1680.8 498.753C1677 500.85 1674 503.796 1671.79 507.593C1669.63 511.333 1668.56 515.526 1668.56 520.173C1668.56 524.82 1669.63 529.041 1671.79 532.838C1674 536.578 1677 539.525 1680.8 541.678C1684.65 543.775 1688.93 544.823 1693.63 544.823ZM1775.11 519.238C1779.25 520.088 1782.39 521.76 1784.55 524.253C1786.7 526.69 1787.78 529.891 1787.78 533.858C1787.78 539.015 1785.93 542.981 1782.25 545.758C1778.62 548.535 1773.27 549.923 1766.19 549.923H1739.84V490.423H1764.57C1770.92 490.423 1775.88 491.726 1779.45 494.333C1783.02 496.94 1784.8 500.708 1784.8 505.638C1784.8 508.981 1783.95 511.815 1782.25 514.138C1780.55 516.405 1778.17 518.105 1775.11 519.238ZM1746.04 517.368H1764.23C1768.82 517.368 1772.33 516.433 1774.77 514.563C1777.26 512.693 1778.51 509.973 1778.51 506.403C1778.51 502.833 1777.26 500.113 1774.77 498.243C1772.33 496.373 1768.82 495.438 1764.23 495.438H1746.04V517.368ZM1766.19 544.908C1776.44 544.908 1781.57 541.083 1781.57 533.433C1781.57 525.953 1776.44 522.213 1766.19 522.213H1746.04V544.908H1766.19ZM1841.58 534.028H1808.43L1801.29 549.923H1794.75L1821.95 490.423H1828.15L1855.35 549.923H1848.72L1841.58 534.028ZM1839.29 528.928L1825.01 496.968L1810.73 528.928H1839.29ZM1916.48 490.423V549.923H1910.28V522.468H1873.05V549.923H1866.76V490.423H1873.05V516.943H1910.28V490.423H1916.48ZM1936.57 490.423H1942.77V539.723L1980.85 490.423H1986.55V549.923H1980.34V500.708L1942.26 549.923H1936.57V490.423ZM2048.7 544.483V549.923H2006.62V490.423H2047.42V495.863H2012.91V517.028H2043.68V522.383H2012.91V544.483H2048.7ZM2084.9 490.423H2091.11V539.723L2129.19 490.423H2134.88V549.923H2128.68V500.708L2090.6 549.923H2084.9V490.423ZM2180.8 518.813C2184.71 519.776 2187.77 521.533 2189.98 524.083C2192.25 526.633 2193.38 529.693 2193.38 533.263C2193.38 536.72 2192.3 539.751 2190.15 542.358C2188 544.965 2185.13 546.976 2181.56 548.393C2177.99 549.753 2174.11 550.433 2169.92 550.433C2165.95 550.433 2162.04 549.81 2158.19 548.563C2154.39 547.26 2150.96 545.333 2147.9 542.783L2150.2 538.278C2152.81 540.488 2155.78 542.188 2159.12 543.378C2162.47 544.511 2165.84 545.078 2169.24 545.078C2172.47 545.078 2175.44 544.568 2178.16 543.548C2180.88 542.528 2183.04 541.083 2184.62 539.213C2186.27 537.286 2187.09 535.02 2187.09 532.413C2187.09 528.956 2185.73 526.293 2183.01 524.423C2180.29 522.553 2176.46 521.618 2171.53 521.618H2158.78V516.518H2171.19C2175.39 516.518 2178.65 515.64 2180.97 513.883C2183.35 512.07 2184.54 509.576 2184.54 506.403C2184.54 502.89 2183.04 500.141 2180.03 498.158C2177.03 496.118 2173.26 495.098 2168.73 495.098C2165.9 495.098 2163.03 495.523 2160.14 496.373C2157.25 497.166 2154.51 498.385 2151.9 500.028L2149.77 494.843C2155.67 491.33 2162.04 489.573 2168.9 489.573C2172.92 489.573 2176.61 490.225 2179.95 491.528C2183.29 492.831 2185.93 494.701 2187.85 497.138C2189.84 499.575 2190.83 502.436 2190.83 505.723C2190.83 508.896 2189.95 511.645 2188.19 513.968C2186.44 516.235 2183.97 517.85 2180.8 518.813ZM2250.96 522.638H2237.36V549.923H2231.24V490.423H2237.36V517.113H2250.96L2271.11 490.423H2277.91L2255.81 519.323L2279.18 549.923H2271.96L2250.96 522.638ZM2288.85 490.423H2295.06V539.723L2333.14 490.423H2338.83V549.923H2332.63V500.708L2294.55 549.923H2288.85V490.423ZM2397.84 495.863H2376.93V549.923H2370.72V495.863H2349.81V490.423H2397.84V495.863ZM2443.97 534.028H2410.82L2403.68 549.923H2397.14L2424.34 490.423H2430.54L2457.74 549.923H2451.11L2443.97 534.028ZM2441.68 528.928L2427.4 496.968L2413.12 528.928H2441.68ZM2508.56 490.423V549.923H2502.36V531.903H2484.59C2483.8 531.903 2482.67 531.846 2481.19 531.733L2468.7 549.923H2461.98L2475.5 530.628C2471.14 529.325 2467.79 527.03 2465.47 523.743C2463.15 520.4 2461.98 516.32 2461.98 511.503C2461.98 504.816 2464.08 499.631 2468.27 495.948C2472.52 492.265 2478.25 490.423 2485.44 490.423H2508.56ZM2468.27 511.333C2468.27 516.206 2469.69 519.975 2472.52 522.638C2475.41 525.245 2479.61 526.548 2485.1 526.548H2502.36V495.863H2485.7C2480.15 495.863 2475.84 497.195 2472.78 499.858C2469.78 502.465 2468.27 506.29 2468.27 511.333Z" fill="white"/>
</svg>
