<svg width="55" height="55" viewBox="0 0 55 55" fill="none" xmlns="http://www.w3.org/2000/svg">
<path d="M21.8769 25.9123L40.5299 15.1432L31.7569 10.0781L13.104 20.8473L21.8769 25.9123Z" fill="white"/>
<path d="M21.1621 27.2147L2.4707 16.4447V37.9864L21.1621 48.7564V27.2147Z" fill="white"/>
<path d="M39.7461 38.2422H37.7051V40.2832H39.7461V38.2422Z" fill="white"/>
<path d="M22.666 27.2147V48.7564L32.8711 42.8552V27.3047C32.867 26.449 33.2029 25.6266 33.8051 25.0186C34.4073 24.4106 35.2263 24.0667 36.082 24.0625H38.7578C38.9102 23.5108 39.2381 23.0236 39.692 22.6748C40.1458 22.3259 40.7009 22.1343 41.2733 22.1289H41.25V16.4447L22.666 27.2147Z" fill="white"/>
<path d="M45.637 23.6328H41.2673C40.6645 23.6328 40.1758 24.1215 40.1758 24.7243V24.7972C40.1758 25.4 40.6645 25.8887 41.2673 25.8887H45.637C46.2398 25.8887 46.7285 25.4 46.7285 24.7972V24.7243C46.7285 24.1215 46.2398 23.6328 45.637 23.6328Z" fill="white"/>
<path d="M30.253 9.20982L21.8769 4.3739L3.22406 15.1432L11.6001 19.9791L30.253 9.20982Z" fill="white"/>
<path d="M50.8015 25.5664H48.0963C47.9351 26.0987 47.6057 26.5643 47.1575 26.8936C46.7092 27.2228 46.1664 27.3979 45.6103 27.3926H41.2733C40.7172 27.3979 40.1743 27.2228 39.7261 26.8936C39.2778 26.5643 38.9484 26.0987 38.7871 25.5664H36.082C35.8557 25.5682 35.632 25.6147 35.4237 25.7031C35.2154 25.7915 35.0266 25.9201 34.868 26.0815C34.7095 26.243 34.5843 26.4341 34.4997 26.644C34.4151 26.8539 34.3727 27.0784 34.375 27.3047V49.0147C34.3737 49.2383 34.4171 49.46 34.5026 49.6667C34.5882 49.8734 34.7142 50.0608 34.8732 50.2181C35.0322 50.3754 35.2211 50.4994 35.4287 50.5826C35.6363 50.6659 35.8584 50.7069 36.082 50.7031H50.8015C51.0263 50.7073 51.2496 50.6667 51.4585 50.5838C51.6674 50.5009 51.8578 50.3773 52.0185 50.2202C52.1793 50.0631 52.3072 49.8757 52.3949 49.6687C52.4826 49.4618 52.5283 49.2394 52.5293 49.0147V27.3047C52.5292 26.8455 52.3475 26.405 52.0238 26.0794C51.7001 25.7537 51.2607 25.5693 50.8015 25.5664ZM36.2012 30.6188C36.2005 30.5201 36.2193 30.4223 36.2564 30.3309C36.2936 30.2396 36.3484 30.1564 36.4177 30.0862C36.4871 30.0161 36.5696 29.9603 36.6605 29.922C36.7514 29.8837 36.849 29.8638 36.9476 29.8633H40.4899C40.6905 29.8638 40.8829 29.9434 41.0252 30.0848C41.1675 30.2263 41.2483 30.4181 41.25 30.6188V31.1247C41.249 31.3244 41.1688 31.5155 41.0271 31.6562C40.8854 31.7968 40.6936 31.8755 40.494 31.875C40.3357 31.8802 40.18 31.8334 40.0509 31.7416C39.9218 31.6499 39.8263 31.5184 39.7791 31.3672H37.7051V33.4082H37.7347C37.9342 33.4082 38.1254 33.4874 38.2664 33.6284C38.4075 33.7695 38.4867 33.9607 38.4867 34.1602C38.4867 34.3596 38.4075 34.5508 38.2664 34.6919C38.1254 34.8329 37.9342 34.9121 37.7347 34.9121H36.9476C36.8492 34.9121 36.7518 34.8926 36.6609 34.8548C36.5701 34.817 36.4876 34.7616 36.4182 34.6918C36.3488 34.622 36.2939 34.5392 36.2567 34.4481C36.2194 34.357 36.2006 34.2594 36.2012 34.161V30.6188ZM36.2012 37.4902C36.2012 37.2908 36.2804 37.0995 36.4214 36.9585C36.5624 36.8175 36.7537 36.7383 36.9531 36.7383H40.498C40.6975 36.7383 40.8887 36.8175 41.0298 36.9585C41.1708 37.0995 41.25 37.2908 41.25 37.4902V41.0352C41.25 41.2346 41.1708 41.4258 41.0298 41.5669C40.8887 41.7079 40.6975 41.7871 40.498 41.7871H36.9531C36.7537 41.7871 36.5624 41.7079 36.4214 41.5669C36.2804 41.4258 36.2012 41.2346 36.2012 41.0352V37.4902ZM37.7348 48.6621H36.9476C36.8506 48.6649 36.754 48.6483 36.6635 48.6131C36.573 48.5778 36.4905 48.5248 36.4209 48.4572C36.3513 48.3895 36.2959 48.3085 36.2582 48.219C36.2205 48.1296 36.2011 48.0335 36.2012 47.9364V44.3941C36.1989 44.1922 36.2757 43.9975 36.4152 43.8515C36.5547 43.7056 36.7459 43.6201 36.9476 43.6133H40.4899C40.6931 43.6195 40.8859 43.7044 41.0277 43.8501C41.1695 43.9958 41.2492 44.1908 41.25 44.3941V45.1187C41.2457 45.3164 41.1641 45.5046 41.0227 45.6429C40.8813 45.7811 40.6913 45.8585 40.4935 45.8583C40.2957 45.8581 40.1059 45.7804 39.9647 45.6418C39.8236 45.5033 39.7423 45.3149 39.7385 45.1172H37.7051V47.1582H37.7348C37.9343 47.1582 38.1255 47.2374 38.2665 47.3784C38.4076 47.5195 38.4868 47.7107 38.4868 47.9102C38.4868 48.1096 38.4076 48.3008 38.2665 48.4419C38.1255 48.5829 37.9343 48.6621 37.7348 48.6621ZM43.2847 45.7339L40.5506 48.468C40.4808 48.5378 40.3979 48.5932 40.3066 48.631C40.2154 48.6688 40.1176 48.6883 40.0188 48.6883C39.9201 48.6883 39.8223 48.6688 39.7311 48.631C39.6398 48.5932 39.5569 48.5378 39.4871 48.468L38.2852 47.2664C38.2153 47.1965 38.1599 47.1137 38.1221 47.0224C38.0844 46.9312 38.0649 46.8334 38.0649 46.7346C38.0649 46.6359 38.0844 46.5381 38.1221 46.4469C38.1599 46.3556 38.2153 46.2727 38.2852 46.2029C38.355 46.1331 38.4379 46.0777 38.5291 46.0399C38.6204 46.0021 38.7181 45.9826 38.8169 45.9826C38.9156 45.9826 39.0134 46.0021 39.1047 46.0399C39.1959 46.0777 39.2788 46.1331 39.3486 46.2029L40.0185 46.8729L42.2207 44.6707C42.3617 44.5297 42.553 44.4505 42.7524 44.4505C42.9518 44.4505 43.1431 44.5297 43.2841 44.6707C43.4252 44.8118 43.5044 45.003 43.5044 45.2025C43.5044 45.4019 43.4252 45.5932 43.2841 45.7342L43.2847 45.7339ZM43.2847 31.8497L40.5506 34.5838C40.4808 34.6537 40.3979 34.7091 40.3066 34.7469C40.2154 34.7846 40.1176 34.8041 40.0188 34.8041C39.9201 34.8041 39.8223 34.7846 39.7311 34.7469C39.6398 34.7091 39.5569 34.6537 39.4871 34.5838L38.2852 33.3822C38.2153 33.3124 38.1599 33.2295 38.1221 33.1382C38.0844 33.047 38.0649 32.9492 38.0649 32.8505C38.0649 32.7517 38.0844 32.6539 38.1221 32.5627C38.1599 32.4715 38.2153 32.3886 38.2852 32.3187C38.355 32.2489 38.4379 32.1935 38.5291 32.1557C38.6204 32.1179 38.7181 32.0985 38.8169 32.0985C38.9156 32.0985 39.0134 32.1179 39.1047 32.1557C39.1959 32.1935 39.2788 32.2489 39.3486 32.3187L40.0185 32.9887L42.2207 30.7866C42.3617 30.6455 42.553 30.5663 42.7524 30.5663C42.9518 30.5663 43.1431 30.6455 43.2841 30.7866C43.4252 30.9276 43.5044 31.1189 43.5044 31.3183C43.5044 31.5178 43.4252 31.709 43.2841 31.85L43.2847 31.8497ZM49.9358 46.9434H45.2129C45.0135 46.9434 44.8222 46.8641 44.6812 46.7231C44.5402 46.5821 44.4609 46.3908 44.4609 46.1914C44.4609 45.992 44.5402 45.8007 44.6812 45.6597C44.8222 45.5187 45.0135 45.4395 45.2129 45.4395H49.9358C50.1352 45.4395 50.3265 45.5187 50.4675 45.6597C50.6085 45.8007 50.6878 45.992 50.6878 46.1914C50.6878 46.3908 50.6085 46.5821 50.4675 46.7231C50.3265 46.8641 50.1352 46.9434 49.9358 46.9434ZM49.9358 40.0684H45.2129C45.0135 40.0684 44.8222 39.9891 44.6812 39.8481C44.5402 39.7071 44.4609 39.5158 44.4609 39.3164C44.4609 39.117 44.5402 38.9257 44.6812 38.7847C44.8222 38.6437 45.0135 38.5645 45.2129 38.5645H49.9358C50.1352 38.5645 50.3265 38.6437 50.4675 38.7847C50.6085 38.9257 50.6878 39.117 50.6878 39.3164C50.6878 39.5158 50.6085 39.7071 50.4675 39.8481C50.3265 39.9891 50.1352 40.0684 49.9358 40.0684ZM49.9358 33.1934H45.2129C45.0135 33.1934 44.8222 33.1141 44.6812 32.9731C44.5402 32.8321 44.4609 32.6408 44.4609 32.4414C44.4609 32.242 44.5402 32.0507 44.6812 31.9097C44.8222 31.7687 45.0135 31.6895 45.2129 31.6895H49.9358C50.1352 31.6895 50.3265 31.7687 50.4675 31.9097C50.6085 32.0507 50.6878 32.242 50.6878 32.4414C50.6878 32.6408 50.6085 32.8321 50.4675 32.9731C50.3265 33.1141 50.1352 33.1934 49.9358 33.1934Z" fill="white"/>
</svg>
