<svg width="82" height="80" viewBox="0 0 82 80" fill="none" xmlns="http://www.w3.org/2000/svg">
<path d="M26.2188 48.2812H28.4062V52.6562H26.2188V48.2812Z" fill="#FDF7E0"/>
<path d="M26.2188 43.9062H28.4062V46.0938H26.2188V43.9062Z" fill="#FDF7E0"/>
<path d="M29.5 33.567V30.7812H16.375C15.7723 30.7812 15.2812 31.2723 15.2812 31.875V41.7188H20.1998C21.5036 37.8217 25.0616 34.792 29.5 33.567Z" fill="#FDF7E0"/>
<path d="M36.0625 33.1208V30.7812H31.6875V33.1208C32.4039 33.0256 33.1334 32.9687 33.875 32.9687C34.6177 32.9687 35.3461 33.0256 36.0625 33.1208Z" fill="#FDF7E0"/>
<path d="M19.6562 70.3116V65.7812H17.4688V70.3116C17.8209 70.2197 18.183 70.1563 18.5625 70.1563C18.942 70.1563 19.3041 70.2197 19.6562 70.3116Z" fill="#FDF7E0"/>
<path d="M36.6094 28.5938L45.9062 16.1983V13.2812H21.8438V16.1983L31.1406 28.5938H36.6094Z" fill="#FDF7E0"/>
<path d="M29.4999 35.842C26.292 36.8734 23.7184 39.0041 22.5415 41.7188H29.4999V35.842Z" fill="#FDF7E0"/>
<path d="M15.2812 43.9062H24.0312V46.0938H15.2812V43.9062Z" fill="#FDF7E0"/>
<path d="M38.25 35.8409V41.7188H45.2084C44.0316 39.003 41.4591 36.8723 38.25 35.8409Z" fill="#FDF7E0"/>
<path d="M39.3438 48.2812H41.5312V52.6562H39.3438V48.2812Z" fill="#FDF7E0"/>
<path d="M39.3438 43.9062H41.5312V46.0938H39.3438V43.9062Z" fill="#FDF7E0"/>
<path d="M31.6875 41.7188H36.0625V35.3236C35.3505 35.2153 34.6198 35.1562 33.875 35.1562C33.1302 35.1562 32.3995 35.2153 31.6875 35.3236V41.7188Z" fill="#FDF7E0"/>
<path d="M30.5938 43.9062H37.1562V46.0938H30.5938V43.9062Z" fill="#FDF7E0"/>
<path d="M30.5938 48.2812H37.1562V52.6562H30.5938V48.2812Z" fill="#FDF7E0"/>
<path d="M18.5625 76.7188C19.7706 76.7188 20.75 75.7394 20.75 74.5312C20.75 73.3231 19.7706 72.3438 18.5625 72.3438C17.3544 72.3438 16.375 73.3231 16.375 74.5312C16.375 75.7394 17.3544 76.7188 18.5625 76.7188Z" fill="#FDF7E0"/>
<path d="M75.4375 76.7188C76.6456 76.7188 77.625 75.7394 77.625 74.5312C77.625 73.3231 76.6456 72.3438 75.4375 72.3438C74.2294 72.3438 73.25 73.3231 73.25 74.5312C73.25 75.7394 74.2294 76.7188 75.4375 76.7188Z" fill="#FDF7E0"/>
<path d="M76.5312 70.3116V65.7812H74.3438V70.3116C74.6959 70.2197 75.058 70.1563 75.4375 70.1563C75.817 70.1563 76.1791 70.2197 76.5312 70.3116Z" fill="#FDF7E0"/>
<path d="M24.0312 48.2812H15.2812V62.5C15.2812 63.1038 15.7723 63.5938 16.375 63.5938H21.8438V52.6562H24.0312V48.2812Z" fill="#FDF7E0"/>
<path d="M77.625 24.2188H55.75C55.1473 24.2188 54.6562 24.7098 54.6562 25.3125V26.4062H78.7188V25.3125C78.7188 24.7098 78.2277 24.2188 77.625 24.2188Z" fill="#FDF7E0"/>
<path d="M54.6562 63.5938H77.625C78.2277 63.5938 78.7188 63.1037 78.7188 62.5V28.5938H54.6562V63.5938ZM64.5 53.75C63.2914 53.75 62.3125 52.7711 62.3125 51.5625C62.3125 50.3539 63.2914 49.375 64.5 49.375C65.7086 49.375 66.6875 50.3539 66.6875 51.5625C66.6875 52.7711 65.7086 53.75 64.5 53.75ZM73.25 53.75C72.0414 53.75 71.0625 52.7711 71.0625 51.5625C71.0625 50.3539 72.0414 49.375 73.25 49.375C74.4586 49.375 75.4375 50.3539 75.4375 51.5625C75.4375 52.7711 74.4586 53.75 73.25 53.75ZM57.9375 31.875H75.4375V36.25H66.1023L64.6356 38.4506L62.9884 35.1562H57.9375V31.875ZM57.9375 37.3438H61.6366L64.3644 42.7994L67.2727 38.4375H75.4375V45H57.9375V37.3438Z" fill="#FDF7E0"/>
<path d="M38.25 33.567C42.6906 34.792 46.2475 37.8206 47.5502 41.7188H52.4688V30.7812H38.25V33.567Z" fill="#FDF7E0"/>
<path d="M43.7188 43.9062H52.4688V46.0938H43.7188V43.9062Z" fill="#FDF7E0"/>
<path d="M43.7188 70.3116C44.0709 70.2197 44.433 70.1563 44.8125 70.1563C45.192 70.1563 45.5541 70.2197 45.9062 70.3116V65.7812H43.7188V70.3116Z" fill="#FDF7E0"/>
<path d="M24.0312 54.8438H43.7188V63.5938H24.0312V54.8438Z" fill="#FDF7E0"/>
<path d="M43.7188 52.6562H45.9062V63.5938H52.4688V48.2812H43.7188V52.6562Z" fill="#FDF7E0"/>
<path d="M44.8125 76.7188C46.0206 76.7188 47 75.7394 47 74.5312C47 73.3231 46.0206 72.3438 44.8125 72.3438C43.6044 72.3438 42.625 73.3231 42.625 74.5312C42.625 75.7394 43.6044 76.7188 44.8125 76.7188Z" fill="#FDF7E0"/>
<path d="M65.625 12.0312H43.75C41.9409 12.0312 40.4688 13.5034 40.4688 15.3125V18.5938H27.3438L36.0938 6.92672V1.09375H7.65625V6.92672L16.4062 18.5938H4.375C2.56594 18.5938 1.09375 20.0659 1.09375 21.875V52.5C1.09375 53.9241 2.01141 55.1272 3.28125 55.58V61.6689C2.60859 62.4378 2.1875 63.432 2.1875 64.5312C2.1875 66.9441 4.14969 68.9062 6.5625 68.9062C8.97531 68.9062 10.9375 66.9441 10.9375 64.5312C10.9375 63.432 10.5164 62.4378 9.84375 61.6678V55.7812H29.5312V61.6678C28.8586 62.4367 28.4375 63.4309 28.4375 64.5312C28.4375 66.9441 30.3997 68.9062 32.8125 68.9062C35.2253 68.9062 37.1875 66.9441 37.1875 64.5312C37.1875 63.432 36.7664 62.4378 36.0938 61.6678V55.7812H60.1562V61.6678C59.4836 62.4367 59.0625 63.4309 59.0625 64.5312C59.0625 66.9441 61.0247 68.9062 63.4375 68.9062C65.8503 68.9062 67.8125 66.9441 67.8125 64.5312C67.8125 63.432 67.3914 62.4378 66.7188 61.6678V55.58C67.9886 55.1272 68.9062 53.9241 68.9062 52.5V15.3125C68.9062 13.5034 67.4341 12.0312 65.625 12.0312ZM43.75 14.2188H65.625C66.2277 14.2188 66.7188 14.7098 66.7188 15.3125V16.4062H42.6562V15.3125C42.6562 14.7098 43.1473 14.2188 43.75 14.2188ZM40.4688 31.7188H35.5502C34.2464 27.8206 30.6895 24.792 26.25 23.567V20.7812H40.4688V31.7188ZM12.0312 53.5938V44.8438H31.7188V53.5938H12.0312ZM4.375 53.5938C3.77234 53.5938 3.28125 53.1037 3.28125 52.5V38.2812H12.0312V42.6562H9.84375V53.5938H4.375ZM24.0625 20.7812V23.1208C23.3461 23.0256 22.6177 22.9688 21.875 22.9688C21.1334 22.9688 20.4039 23.0256 19.6875 23.1208V20.7812H24.0625ZM21.875 25.1562C22.6198 25.1562 23.3505 25.2153 24.0625 25.3236V31.7188H19.6875V25.3236C20.3995 25.2153 21.1302 25.1562 21.875 25.1562ZM26.25 31.7188V25.8409C29.4591 26.8723 32.0316 29.003 33.2084 31.7188H26.25ZM18.5938 42.6562V38.2812H25.1562V42.6562H18.5938ZM16.4062 33.9062V36.0938H14.2188V33.9062H16.4062ZM16.4062 38.2812V42.6562H14.2188V38.2812H16.4062ZM18.5938 36.0938V33.9062H25.1562V36.0938H18.5938ZM17.5 31.7188H10.5416C11.7184 29.0041 14.292 26.8734 17.5 25.842V31.7188ZM12.0312 33.9062V36.0938H3.28125V33.9062H12.0312ZM27.3438 42.6562V38.2812H29.5312V42.6562H27.3438ZM27.3438 36.0938V33.9062H29.5312V36.0938H27.3438ZM31.7188 33.9062H40.4688V36.0938H31.7188V33.9062ZM9.84375 6.19828V3.28125H33.9062V6.19828L24.6094 18.5938H19.1406L9.84375 6.19828ZM4.375 20.7812H17.5V23.567C13.0616 24.792 9.50359 27.8206 8.19984 31.7188H3.28125V21.875C3.28125 21.2723 3.77234 20.7812 4.375 20.7812ZM6.5625 66.7188C5.35609 66.7188 4.375 65.7377 4.375 64.5312C4.375 63.3248 5.35609 62.3438 6.5625 62.3438C7.76891 62.3438 8.75 63.3248 8.75 64.5312C8.75 65.7377 7.76891 66.7188 6.5625 66.7188ZM7.65625 60.3116C7.30406 60.2197 6.94203 60.1562 6.5625 60.1562C6.18297 60.1562 5.82094 60.2197 5.46875 60.3116V55.7812H7.65625V60.3116ZM32.8125 66.7188C31.6061 66.7188 30.625 65.7377 30.625 64.5312C30.625 63.3248 31.6061 62.3438 32.8125 62.3438C34.0189 62.3438 35 63.3248 35 64.5312C35 65.7377 34.0189 66.7188 32.8125 66.7188ZM33.9062 60.3116C33.5541 60.2197 33.192 60.1562 32.8125 60.1562C32.433 60.1562 32.0709 60.2197 31.7188 60.3116V55.7812H33.9062V60.3116ZM33.9062 53.5938V42.6562H31.7188V38.2812H40.4688V53.5938H33.9062ZM64.5312 55.7812V60.3116C64.1791 60.2197 63.817 60.1562 63.4375 60.1562C63.058 60.1562 62.6959 60.2197 62.3438 60.3116V55.7812H64.5312ZM63.4375 66.7188C62.2311 66.7188 61.25 65.7377 61.25 64.5312C61.25 63.3248 62.2311 62.3438 63.4375 62.3438C64.6439 62.3438 65.625 63.3248 65.625 64.5312C65.625 65.7377 64.6439 66.7188 63.4375 66.7188ZM65.625 53.5938H42.6562V18.5938H66.7188V52.5C66.7188 53.1037 66.2277 53.5938 65.625 53.5938Z" fill="#FFE99A"/>
<path d="M44.8438 36.0938H64.5312V20.7812H44.8438V36.0938ZM47.0312 33.9062V27.3438H49.6366L52.3644 32.7994L55.2727 28.4375H62.3438V33.9062H47.0312ZM62.3438 22.9688V26.25H54.1023L52.6356 28.4506L50.9884 25.1562H47.0312V22.9688H62.3438Z" fill="#FFE99A"/>
<path d="M52.5 38.2812C50.6909 38.2812 49.2188 39.7534 49.2188 41.5625C49.2188 43.3716 50.6909 44.8438 52.5 44.8438C54.3091 44.8438 55.7812 43.3716 55.7812 41.5625C55.7812 39.7534 54.3091 38.2812 52.5 38.2812ZM52.5 42.6562C51.8973 42.6562 51.4062 42.1662 51.4062 41.5625C51.4062 40.9588 51.8973 40.4688 52.5 40.4688C53.1027 40.4688 53.5938 40.9588 53.5938 41.5625C53.5938 42.1662 53.1027 42.6562 52.5 42.6562Z" fill="#FFE99A"/>
<path d="M61.25 38.2812C59.4409 38.2812 57.9688 39.7534 57.9688 41.5625C57.9688 43.3716 59.4409 44.8438 61.25 44.8438C63.0591 44.8438 64.5312 43.3716 64.5312 41.5625C64.5312 39.7534 63.0591 38.2812 61.25 38.2812ZM61.25 42.6562C60.6473 42.6562 60.1562 42.1662 60.1562 41.5625C60.1562 40.9588 60.6473 40.4688 61.25 40.4688C61.8527 40.4688 62.3438 40.9588 62.3438 41.5625C62.3438 42.1662 61.8527 42.6562 61.25 42.6562Z" fill="#FFE99A"/>
</svg>
