<svg width="82" height="82" viewBox="0 0 82 82" fill="none" xmlns="http://www.w3.org/2000/svg">
<path d="M60.9757 22.3564H58.0396C57.7585 21.7624 57.4312 21.1945 57.0594 20.6555L58.5265 18.1143C59.009 17.2787 58.7227 16.2102 57.8871 15.7279L51.8355 12.2341C51.4342 12.0023 50.9572 11.9397 50.5098 12.0595C50.0624 12.1795 49.6808 12.4722 49.4492 12.8735L47.9844 15.4106C47.3233 15.3544 46.6767 15.3544 46.0156 15.4106L44.5508 12.8735C44.3191 12.4722 43.9375 12.1795 43.4902 12.0595C43.0428 11.9397 42.5658 12.0023 42.1645 12.2341L36.1129 15.728C35.2773 16.2104 34.991 17.2788 35.4735 18.1145L36.9406 20.6558C36.5688 21.1946 36.2415 21.7627 35.9604 22.3566H33.0243C32.0595 22.3566 31.2773 23.1387 31.2773 24.1036V31.0914C31.2773 32.0562 32.0595 32.8384 33.0243 32.8384H35.9604C36.2415 33.4322 36.5688 34.0002 36.9406 34.539L35.4735 37.0804C34.991 37.916 35.2773 38.9844 36.1129 39.4668L42.1645 42.9608C42.5657 43.1925 43.0425 43.255 43.4902 43.1354C43.9376 43.0153 44.3192 42.7226 44.5508 42.3213L46.0156 39.784C46.6767 39.8404 47.3233 39.8404 47.9844 39.784L49.4492 42.3211C49.6809 42.7223 50.0625 43.015 50.5098 43.1351C50.6586 43.1749 50.8106 43.1946 50.9621 43.1946C51.2662 43.1946 51.5678 43.1151 51.8356 42.9605L57.8872 39.4665C58.7228 38.9842 59.0091 37.9157 58.5266 37.0801L57.0595 34.5389C57.4314 34.0001 57.7587 33.4322 58.0398 32.8381H60.9758C61.9406 32.8381 62.7228 32.0559 62.7228 31.0911V29.3441V25.8501V24.1034C62.7227 23.1386 61.9405 22.3564 60.9757 22.3564ZM47 32.7242C44.1728 32.7242 41.873 30.4245 41.873 27.5973C41.873 24.7701 44.1728 22.4703 47 22.4703C49.8272 22.4703 52.127 24.7701 52.127 27.5973C52.127 30.4245 49.8272 32.7242 47 32.7242Z" fill="#2EC1AC" fill-opacity="0.14"/>
<path d="M22.9375 34.1354V29.6479H27.1758V25.5464H20.8867C19.7541 25.5464 18.8359 26.4646 18.8359 27.5971V34.1354C17.246 34.5092 15.7866 35.3159 14.6029 36.4997C12.9244 38.1781 12 40.4097 12 42.7834C12 45.1572 12.9244 47.389 14.6029 49.0673C15.4036 49.8681 16.7022 49.8681 17.5031 49.0673C18.304 48.2666 18.304 46.968 17.5031 46.1671C15.6374 44.3014 15.6374 41.2655 17.5031 39.3998C18.4069 38.4961 19.6085 37.9983 20.8867 37.9983C22.1649 37.9983 23.3665 38.4961 24.2704 39.3998C26.136 41.2655 26.136 44.3014 24.2704 46.1671C23.4695 46.9679 23.4695 48.2664 24.2704 49.0673C24.6708 49.4678 25.1957 49.6681 25.7204 49.6681C26.2451 49.6681 26.7701 49.4678 27.1704 49.0673C28.8489 47.389 29.7733 45.1572 29.7733 42.7834C29.7733 40.4097 28.8489 38.1779 27.1704 36.4996C25.9869 35.3159 24.5274 34.5092 22.9375 34.1354Z" fill="#2EC1AC" fill-opacity="0.14"/>
<path d="M79.3971 36.4996C78.2134 35.3157 76.754 34.5092 75.1641 34.1353V27.597C75.1641 26.4644 74.2459 25.5462 73.1133 25.5462H66.8242V29.6478H71.0625V34.1353C69.4726 34.5091 68.0131 35.3157 66.8294 36.4996C65.1509 38.1781 64.2266 40.4098 64.2266 42.7835C64.2266 45.1572 65.1509 47.389 66.8294 49.0673C67.6302 49.8681 68.9287 49.8681 69.7296 49.0673C70.5305 48.2666 70.5305 46.968 69.7296 46.1671C67.864 44.3015 67.864 41.2655 69.7296 39.3998C70.6335 38.4961 71.8351 37.9983 73.1133 37.9983C74.3915 37.9983 75.5931 38.4961 76.4969 39.3998C78.3626 41.2655 78.3626 44.3015 76.4969 46.1671C75.696 46.9679 75.696 48.2664 76.4969 49.0673C76.8974 49.4678 77.4222 49.6681 77.947 49.6681C78.4717 49.6681 78.9967 49.4678 79.397 49.0673C81.0755 47.389 81.9999 45.1572 81.9999 42.7835C81.9999 40.4098 81.0756 38.1781 79.3971 36.4996Z" fill="#2EC1AC" fill-opacity="0.14"/>
<path d="M17.6055 82C20.6258 82 23.0742 79.5516 23.0742 76.5312C23.0742 73.5109 20.6258 71.0625 17.6055 71.0625C14.5852 71.0625 12.1367 73.5109 12.1367 76.5312C12.1367 79.5516 14.5852 82 17.6055 82Z" fill="#2EC1AC" fill-opacity="0.14"/>
<path d="M47 82C50.0203 82 52.4688 79.5516 52.4688 76.5312C52.4688 73.5109 50.0203 71.0625 47 71.0625C43.9797 71.0625 41.5312 73.5109 41.5312 76.5312C41.5312 79.5516 43.9797 82 47 82Z" fill="#2EC1AC" fill-opacity="0.14"/>
<path d="M54.8472 71.0625C55.9316 72.614 56.5704 74.4989 56.5704 76.5312C56.5704 78.5636 55.9316 80.4485 54.8472 82H68.5475C67.463 80.4485 66.8243 78.5636 66.8243 76.5312C66.8243 74.4989 67.463 72.614 68.5475 71.0625H54.8472Z" fill="#2EC1AC" fill-opacity="0.14"/>
<path d="M25.4526 71.0625C26.5371 72.614 27.1758 74.4989 27.1758 76.5312C27.1758 78.5636 26.5371 80.4485 25.4526 82H39.1529C38.0685 80.4485 37.4297 78.5636 37.4297 76.5312C37.4297 74.4989 38.0685 72.614 39.1529 71.0625H25.4526Z" fill="#2EC1AC" fill-opacity="0.14"/>
<path d="M76.3945 82C79.4148 82 81.8633 79.5516 81.8633 76.5312C81.8633 73.5109 79.4148 71.0625 76.3945 71.0625C73.3742 71.0625 70.9258 73.5109 70.9258 76.5312C70.9258 79.5516 73.3742 82 76.3945 82Z" fill="#2EC1AC" fill-opacity="0.14"/>
<path d="M52.127 54.6562H41.873C40.7405 54.6562 39.8223 55.5745 39.8223 56.707V66.9609H54.1777V56.707C54.1777 55.5745 53.2595 54.6562 52.127 54.6562Z" fill="#2EC1AC" fill-opacity="0.14"/>
<path d="M31.6191 54.6562H21.3652C20.2327 54.6562 19.3145 55.5745 19.3145 56.707V66.9609H33.6699V56.707C33.6699 55.5745 32.7517 54.6562 31.6191 54.6562Z" fill="#2EC1AC" fill-opacity="0.14"/>
<path d="M62.3809 54.6562C61.2483 54.6562 60.3301 55.5745 60.3301 56.707V66.9609H74.6855V56.707C74.6855 55.5745 73.7673 54.6562 72.6348 54.6562H62.3809Z" fill="#2EC1AC" fill-opacity="0.14"/>
<g clip-path="url(#clip0_2360_1525)">
<path d="M63.7109 55.0878V44.707C63.7109 43.5745 62.7927 42.6562 61.6602 42.6562H49.3555C48.2229 42.6562 47.3047 43.5745 47.3047 44.707V54.9609H43.2031V44.707C43.2031 43.5745 42.2849 42.6562 41.1523 42.6562H28.8477C27.7151 42.6562 26.7969 43.5745 26.7969 44.707V54.9609H22.6953V44.707C22.6953 43.5745 21.7771 42.6562 20.6445 42.6562H8.33984C7.20727 42.6562 6.28906 43.5745 6.28906 44.707V55.0878C2.79357 55.7327 0.136719 58.8012 0.136719 62.4805C0.136719 66.6267 3.50998 70 7.65625 70H62.3438C66.49 70 69.8633 66.6267 69.8633 62.4805C69.8633 58.8012 67.2064 55.7327 63.7109 55.0878ZM28.3056 59.0625C27.7795 60.0888 27.4805 61.25 27.4805 62.4805C27.4805 63.7109 27.7795 64.8721 28.3056 65.8984H14.3507C14.8768 64.8721 15.1758 63.7109 15.1758 62.4805C15.1758 61.25 14.8768 60.0888 14.3507 59.0625H28.3056ZM31.582 62.4805C31.582 60.5958 33.1153 59.0625 35 59.0625C36.8847 59.0625 38.418 60.5958 38.418 62.4805C38.418 64.3651 36.8847 65.8984 35 65.8984C33.1153 65.8984 31.582 64.3651 31.582 62.4805ZM41.6944 59.0625H55.6493C55.1232 60.0888 54.8242 61.25 54.8242 62.4805C54.8242 63.7109 55.1232 64.8721 55.6493 65.8984H41.6944C42.2205 64.8721 42.5195 63.7109 42.5195 62.4805C42.5195 61.25 42.2205 60.0888 41.6944 59.0625ZM51.4062 46.7578H59.6094V54.9609H51.4062V46.7578ZM30.8984 46.7578H39.1016V54.9609H30.8984V46.7578ZM10.3906 46.7578H18.5938V54.9609H10.3906V46.7578ZM4.23828 62.4805C4.23828 60.5958 5.77158 59.0625 7.65625 59.0625C9.54092 59.0625 11.0742 60.5958 11.0742 62.4805C11.0742 64.3651 9.54092 65.8984 7.65625 65.8984C5.77158 65.8984 4.23828 64.3651 4.23828 62.4805ZM62.3438 65.8984C60.4591 65.8984 58.9258 64.3651 58.9258 62.4805C58.9258 60.5958 60.4591 59.0625 62.3438 59.0625C64.2284 59.0625 65.7617 60.5958 65.7617 62.4805C65.7617 64.3651 64.2284 65.8984 62.3438 65.8984Z" fill="#00DFBF"/>
<path d="M35 24.4621C38.3924 24.4621 41.1523 21.7022 41.1523 18.3098C41.1523 14.9174 38.3924 12.1574 35 12.1574C31.6076 12.1574 28.8477 14.9174 28.8477 18.3098C28.8477 21.7022 31.6076 24.4621 35 24.4621ZM35 16.259C36.1308 16.259 37.0508 17.179 37.0508 18.3098C37.0508 19.4406 36.1308 20.3606 35 20.3606C33.8692 20.3606 32.9492 19.4406 32.9492 18.3098C32.9492 17.179 33.8692 16.259 35 16.259Z" fill="#00DFBF"/>
<path d="M5.50307 39.78C6.30396 38.9792 6.30396 37.6806 5.50307 36.8797C3.6374 35.0141 3.6374 31.9781 5.50307 30.1124C6.40691 29.2087 7.60854 28.7109 8.88672 28.7109C10.1649 28.7109 11.3665 29.2087 12.2704 30.1124C14.136 31.9781 14.136 35.0141 12.2704 36.8797C11.4695 37.6805 11.4695 38.9791 12.2704 39.78C12.6708 40.1804 13.1957 40.3807 13.7204 40.3807C14.2451 40.3807 14.7701 40.1804 15.1704 39.78C16.8491 38.1016 17.7734 35.8698 17.7734 33.4961C17.7734 31.1224 16.8491 28.8906 15.1706 27.2122C13.9869 26.0284 12.5274 25.2219 10.9375 24.8479V20.3604H16.543V22.4112C16.543 23.5438 17.4612 24.462 18.5938 24.462H22.0404C22.3703 25.1592 22.7546 25.826 23.1912 26.4586L21.4688 29.4418C20.9024 30.4228 21.2384 31.677 22.2194 32.2432L29.3234 36.3448C29.7943 36.6167 30.3542 36.6901 30.8797 36.5497C31.405 36.4089 31.8529 36.0652 32.1248 35.5942L33.8443 32.6159C34.6151 32.6814 35.3682 32.6821 36.155 32.6151L37.8749 35.5942C38.1469 36.0652 38.5949 36.4089 39.12 36.5497C39.2946 36.5965 39.473 36.6196 39.6509 36.6196C40.0077 36.6196 40.3618 36.5263 40.6763 36.3448L47.7803 32.2432C48.7613 31.6769 49.0973 30.4228 48.5309 29.4418L46.8085 26.4588C47.2451 25.826 47.6293 25.1594 47.9593 24.4621H51.4062C52.5388 24.4621 53.457 23.5439 53.457 22.4113V20.3606H59.0625V24.8481C57.4726 25.2219 56.0131 26.0285 54.8294 27.2124C53.1509 28.8906 52.2266 31.1224 52.2266 33.4961C52.2266 35.8698 53.1509 38.1016 54.8294 39.78C55.6302 40.5807 56.9287 40.5807 57.7296 39.78C58.5305 38.9792 58.5305 37.6806 57.7296 36.8797C55.864 35.0141 55.864 31.9781 57.7296 30.1124C58.6335 29.2087 59.8351 28.7109 61.1133 28.7109C62.3915 28.7109 63.5931 29.2087 64.4969 30.1124C66.3626 31.9781 66.3626 35.0141 64.4969 36.8797C63.696 37.6805 63.696 38.9791 64.4969 39.78C64.8974 40.1804 65.4222 40.3807 65.947 40.3807C66.4717 40.3807 66.9967 40.1804 67.397 39.78C69.0756 38.1016 70 35.8698 70 33.4961C70 31.1224 69.0756 28.8906 67.3971 27.2122C66.2134 26.0284 64.754 25.2219 63.1641 24.8479V18.3096C63.1641 17.1771 62.2459 16.2589 61.1133 16.2589H53.457V14.2081C53.457 13.0755 52.5388 12.1573 51.4062 12.1573H47.9596C47.6295 11.4599 47.2453 10.7933 46.8088 10.1607L48.5312 7.17772C49.0976 6.19677 48.7616 4.94251 47.7806 4.37636L40.6766 0.274795C40.2056 0.00286179 39.6456 -0.0706929 39.1203 0.069854C38.595 0.210674 38.1471 0.554385 37.8752 1.02538L36.1553 4.00448C35.368 3.93735 34.615 3.9379 33.8446 4.00366L32.1249 1.02538C31.853 0.554385 31.405 0.210674 30.8798 0.069854C30.3547 -0.0706929 29.7947 0.00272506 29.3236 0.274795L22.2195 4.37636C21.2386 4.94265 20.9025 6.19677 21.4689 7.17772L23.1913 10.1609C22.7548 10.7935 22.3705 11.4603 22.0406 12.1574H18.5938C17.4612 12.1574 16.543 13.0756 16.543 14.2082V16.259H8.88672C7.75414 16.259 6.83594 17.1772 6.83594 18.3098V24.8481C5.24604 25.2219 3.78656 26.0285 2.60285 27.2124C0.924355 28.8906 0 31.1224 0 33.4961C0 35.8698 0.924355 38.1016 2.60285 39.78C3.40375 40.5807 4.7023 40.5807 5.50307 39.78ZM20.6445 16.259H23.4104C24.2791 16.259 25.0537 15.7116 25.3436 14.8926C25.7668 13.6973 26.3948 12.6078 27.2103 11.6544C27.7752 10.9938 27.8625 10.0488 27.4278 9.29605L26.0463 6.90292L29.5982 4.85214L30.9795 7.24458C31.4137 7.99667 32.2752 8.39316 33.1279 8.23593C34.4404 7.99353 35.5601 7.99353 36.8721 8.23593C37.7262 8.39316 38.5865 7.99653 39.0206 7.24458L40.4018 4.85214L43.9537 6.90292L42.5722 9.29605C42.1374 10.049 42.2248 10.994 42.7898 11.6546C43.6049 12.6074 44.233 13.6969 44.6564 14.8929C44.9464 15.7117 45.7209 16.259 46.5896 16.259H49.3555V20.3606H46.5896C45.7209 20.3606 44.9464 20.9078 44.6564 21.7268C44.2329 22.9227 43.6049 24.0123 42.7898 24.9651C42.2248 25.6257 42.1375 26.5707 42.5722 27.3236L43.9537 29.7168L40.4018 31.7675L39.0205 29.3751C38.6497 28.7329 37.968 28.3496 37.2451 28.3496C37.1215 28.3496 36.9968 28.3608 36.872 28.3838C35.5612 28.6259 34.4393 28.6259 33.1278 28.3838C32.2751 28.2267 31.4136 28.6232 30.9794 29.3751L29.5981 31.7675L26.0462 29.7168L27.4277 27.3236C27.8623 26.5709 27.7751 25.6259 27.2102 24.9652C26.3946 24.0119 25.7666 22.9224 25.3434 21.7269C25.0536 20.908 24.2791 20.3606 23.4102 20.3606H20.6445V16.259Z" fill="#00DFBF"/>
</g>
<defs>
<clipPath id="clip0_2360_1525">
<rect width="70" height="70" fill="white"/>
</clipPath>
</defs>
</svg>
