<svg width="20" height="20" viewBox="0 0 20 20" fill="none" xmlns="http://www.w3.org/2000/svg">
<path d="M10 20C15.5228 20 20 15.5228 20 10C20 4.47715 15.5228 0 10 0C4.47715 0 0 4.47715 0 10C0 15.5228 4.47715 20 10 20Z" fill="url(#paint0_linear_2313_7788)"/>
<path d="M12.0211 5H7.97895C7.1892 5.00104 6.4321 5.31523 5.87367 5.87367C5.31523 6.4321 5.00104 7.1892 5 7.97895V12.0211C5.00104 12.8108 5.31523 13.5679 5.87367 14.1263C6.4321 14.6848 7.1892 14.999 7.97895 15H12.0211C12.8109 14.9993 13.5682 14.6852 14.1267 14.1267C14.6852 13.5682 14.9993 12.8109 15 12.0211V7.97895C14.999 7.1892 14.6848 6.4321 14.1263 5.87367C13.5679 5.31523 12.8108 5.00104 12.0211 5ZM13.9947 12.0211C13.9947 12.5445 13.7868 13.0465 13.4167 13.4167C13.0465 13.7868 12.5445 13.9947 12.0211 13.9947H7.97895C7.45549 13.9947 6.95348 13.7868 6.58334 13.4167C6.2132 13.0465 6.00526 12.5445 6.00526 12.0211V7.97895C6.00526 7.45549 6.2132 6.95348 6.58334 6.58334C6.95348 6.2132 7.45549 6.00526 7.97895 6.00526H12.0211C12.5445 6.00526 13.0465 6.2132 13.4167 6.58334C13.7868 6.95348 13.9947 7.45549 13.9947 7.97895V12.0211Z" fill="white"/>
<path d="M9.99996 7.41455C9.48822 7.41429 8.9879 7.56582 8.5623 7.84996C8.13669 8.13411 7.80492 8.53811 7.60897 9.01084C7.41301 9.48358 7.36167 10.0038 7.46145 10.5057C7.56122 11.0077 7.80762 11.4687 8.16947 11.8306C8.53133 12.1924 8.99238 12.4388 9.4943 12.5386C9.99622 12.6384 10.5165 12.587 10.9892 12.3911C11.4619 12.1951 11.8659 11.8633 12.1501 11.4377C12.4342 11.0121 12.5857 10.5118 12.5855 10.0001C12.5848 9.31457 12.3122 8.65733 11.8274 8.1726C11.3427 7.68787 10.6855 7.41525 9.99996 7.41455ZM9.99996 11.579C9.68768 11.579 9.3824 11.4864 9.12275 11.3129C8.86309 11.1394 8.66071 10.8928 8.54121 10.6043C8.4217 10.3158 8.39043 9.99833 8.45135 9.69204C8.51228 9.38575 8.66266 9.10441 8.88348 8.88359C9.1043 8.66277 9.38564 8.51239 9.69193 8.45147C9.99821 8.39055 10.3157 8.42181 10.6042 8.54132C10.8927 8.66083 11.1393 8.86321 11.3128 9.12286C11.4863 9.38252 11.5789 9.68779 11.5789 10.0001C11.5789 10.4188 11.4126 10.8205 11.1164 11.1166C10.8203 11.4127 10.4187 11.579 9.99996 11.579Z" fill="white"/>
<path d="M12.6013 8.05385C12.9545 8.05385 13.2408 7.76755 13.2408 7.41438C13.2408 7.0612 12.9545 6.7749 12.6013 6.7749C12.2482 6.7749 11.9619 7.0612 11.9619 7.41438C11.9619 7.76755 12.2482 8.05385 12.6013 8.05385Z" fill="white"/>
<defs>
<linearGradient id="paint0_linear_2313_7788" x1="10" y1="19.9079" x2="10" y2="1.35526" gradientUnits="userSpaceOnUse">
<stop stop-color="#E09B3D"/>
<stop offset="0.24" stop-color="#C74C4D"/>
<stop offset="0.65" stop-color="#C21975"/>
<stop offset="1" stop-color="#7024C4"/>
</linearGradient>
</defs>
</svg>
