<svg width="414" height="186" viewBox="0 0 414 186" fill="none" xmlns="http://www.w3.org/2000/svg">
<rect width="414" height="186" fill="white"/>
<rect width="414" height="186" fill="#FFE700"/>
<g opacity="0.1" clip-path="url(#clip0_2578_1629)">
<path d="M27.7926 38.4996L25.0245 35.1828C24.7956 34.9086 24.5451 35.3333 24.4663 36.1296L24.3232 37.5738L22.6624 35.5838L24.2782 31.7753L24.5325 29.2079L20.9339 24.8962L20.6797 27.4635L21.2783 33.9254L19.7559 32.1012C19.527 31.8269 19.2765 32.2517 19.1976 33.0479L17.8627 46.5273C17.8006 47.1541 17.8643 47.8228 18.0052 48.2147L17.7398 50.8947C17.6211 51.1311 17.5245 51.5048 17.4766 51.9887C17.3714 53.0507 17.5342 54.2118 17.8395 54.5776C18.1448 54.9435 18.4787 54.3773 18.5838 53.3154C18.6318 52.8315 18.6218 52.3301 18.5703 51.8892L18.8269 49.2983L21.3181 52.2833L21.0615 54.8742C20.9429 55.1107 20.8463 55.4844 20.7983 55.9687C20.6931 57.0307 20.8559 58.1919 21.1612 58.5577C21.4665 58.9235 21.8004 58.3574 21.9056 57.2954C21.9535 56.8116 21.9435 56.3102 21.892 55.8693L22.1486 53.2783L25.1935 56.9267L24.9369 59.5177C24.8182 59.7541 24.7216 60.1279 24.6737 60.6122C24.5685 61.6741 24.7312 62.8353 25.0366 63.2011C25.3419 63.567 25.6757 63.0008 25.7809 61.9388C25.8288 61.455 25.8189 60.9536 25.7673 60.5127L26.0327 57.8332C26.2131 57.8264 26.3817 57.436 26.4438 56.8092L28.0648 40.4413C28.1437 39.6451 28.0215 38.7739 27.7926 38.4996V38.4996ZM24.9292 36.1457L27.6973 39.4624C27.7735 39.5538 27.8143 39.8444 27.788 40.1096L27.7403 40.591L24.6954 36.9426L24.7431 36.4612C24.7694 36.196 24.8529 36.0543 24.9292 36.1457ZM23.7511 43.3507L23.1287 42.6049C23.1336 40.6915 22.8156 38.8192 22.3072 37.6069L22.4286 36.3807L24.2279 38.5366L23.7511 43.3507ZM19.199 48.6671L19.5804 44.8158L22.0717 47.8009L21.6903 51.6522L19.199 48.6671ZM18.2302 47.5063C18.1539 47.4149 18.1131 47.1247 18.1395 46.859L18.7593 40.6007L19.8665 41.9274L19.6758 43.853L19.399 43.5214L18.9222 48.3354L18.2302 47.5063ZM22.1518 36.0491L22.0498 37.0788C21.9633 36.9283 21.8736 36.7928 21.7796 36.6802C21.6858 36.5678 21.591 36.4822 21.4962 36.4154L21.5982 35.3857L22.1518 36.0491ZM21.6843 37.643C21.7785 37.756 21.8684 37.8927 21.9538 38.0483L21.675 40.8631L21.1214 40.1998L21.4002 37.385C21.495 37.4453 21.59 37.5301 21.6843 37.643ZM21.9518 41.1948L22.2081 38.6077C22.5692 39.5483 22.8018 40.8761 22.8324 42.2499L21.9518 41.1948ZM20.5062 44.848L20.6969 42.9224L21.5274 43.9174L21.3367 45.8431L20.5062 44.848ZM20.6108 40.6651L20.5155 41.6279L20.2387 41.2962L20.334 40.3334L20.6108 40.6651ZM20.4201 42.5907L20.2294 44.5164L19.9526 44.1847L20.1433 42.2591L20.4201 42.5907ZM20.7923 41.9596L20.8877 40.9968L21.7181 41.9918L21.6227 42.9546L20.7923 41.9596ZM20.8446 39.8681L19.9641 38.8131C20.2313 37.7967 20.6499 37.2491 21.1008 37.2815L20.8446 39.8681ZM20.0572 40.0018L19.9619 40.9646L18.8546 39.6379L18.95 38.6751L20.0572 40.0018ZM21.6135 46.1747L21.8042 44.2491L22.081 44.5808L21.8903 46.5064L21.6135 46.1747ZM21.8995 43.2863L21.9949 42.3235L22.2717 42.6551L22.1763 43.618L21.8995 43.2863ZM22.5485 42.9868L23.6558 44.3135L23.5604 45.2763L22.4532 43.9496L22.5485 42.9868ZM20.9882 27.4746L21.1154 26.1907L24.1603 29.8391L24.0331 31.123L22.3164 35.1692L21.6243 34.34L20.9882 27.4746ZM19.6605 33.064L21.3214 35.054L21.2 36.2802C20.5849 36.1464 20.0027 36.94 19.6678 38.458L19.0453 37.7123L19.4744 33.3796C19.5007 33.1143 19.5843 32.9726 19.6605 33.064ZM17.9349 53.6148C17.7822 53.4319 17.7008 52.8513 17.7534 52.3203C17.806 51.7893 17.9729 51.5063 18.1256 51.6892C18.2782 51.8721 18.3596 52.4527 18.307 52.9837C18.2544 53.5147 18.0875 53.7977 17.9349 53.6148ZM18.3526 50.9606C18.312 50.8667 18.269 50.7839 18.2209 50.7264C18.1729 50.6688 18.1243 50.6419 18.0758 50.6289L18.2732 48.6349L18.55 48.9666L18.3526 50.9606ZM21.2566 57.5949C21.1039 57.412 21.0225 56.8314 21.0751 56.3004C21.1277 55.7694 21.2946 55.4863 21.4473 55.6693C21.6 55.8522 21.6813 56.4328 21.6287 56.9638C21.5762 57.4947 21.4092 57.7778 21.2566 57.5949ZM21.6743 54.9406C21.6337 54.8468 21.5907 54.764 21.5426 54.7064C21.4946 54.6489 21.446 54.6219 21.3975 54.609L21.595 52.615L21.8718 52.9467L21.6743 54.9406ZM21.9671 51.9838L22.4439 47.1698L22.1671 46.8381L22.3578 44.9124L23.465 46.2391L22.7976 52.9789L21.9671 51.9838ZM25.7471 57.5901L25.5496 59.5841C25.5091 59.4902 25.466 59.4074 25.418 59.3499C25.37 59.2923 25.3214 59.2653 25.2728 59.2524L25.4703 57.2584L25.7471 57.5901ZM25.1319 62.2383C24.9793 62.0554 24.8979 61.4748 24.9505 60.9438C25.0031 60.4128 25.17 60.1298 25.3226 60.3127C25.4753 60.4956 25.5567 61.0762 25.5041 61.6072C25.4515 62.1382 25.2846 62.4212 25.1319 62.2383ZM25.9809 56.7931L23.0744 53.3105L24.6001 37.9055L27.645 41.5539L26.1669 56.4775C26.1406 56.7433 26.0571 56.8845 25.9809 56.7931Z" fill="white"/>
<path d="M24.1138 45.9397L26.605 48.9247L27.2725 42.185L24.7812 39.2L24.1138 45.9397ZM24.4859 45.3085L24.772 42.4201L25.1017 42.8151L25.209 45.63L25.7672 44.1511L26.662 45.2232L26.4236 47.6302L24.4859 45.3085ZM26.9004 42.8161L26.7573 44.2604L25.7145 43.0108L25.4329 43.757L25.3681 42.0573L24.8673 41.4573L24.9627 40.4944L26.9004 42.8161Z" fill="white"/>
<path d="M24.9875 48.0633C24.7586 47.789 24.5081 48.2138 24.4292 49.0101C24.3504 49.8063 24.4725 50.6775 24.7014 50.9518C24.9303 51.2261 25.1808 50.8013 25.2597 50.0051C25.3385 49.2088 25.2164 48.3376 24.9875 48.0633ZM24.7968 49.989C24.7205 49.8976 24.6797 49.6075 24.706 49.3417C24.7324 49.076 24.8159 48.9348 24.8921 49.0262C24.9684 49.1175 25.0092 49.4077 24.9829 49.6734C24.9565 49.9391 24.873 50.0804 24.7968 49.989Z" fill="white"/>
<path d="M26.0949 49.39C25.866 49.1157 25.6155 49.5405 25.5367 50.3367C25.4578 51.133 25.5799 52.0042 25.8088 52.2785C26.0378 52.5528 26.2882 52.128 26.3671 51.3318C26.4459 50.5355 26.3238 49.6643 26.0949 49.39ZM25.9042 51.3157C25.8279 51.2243 25.7871 50.9342 25.8135 50.6684C25.8398 50.4027 25.9233 50.2615 25.9995 50.3528C26.0758 50.4442 26.1166 50.7344 26.0903 51.0001C26.064 51.2658 25.9805 51.407 25.9042 51.3157Z" fill="white"/>
</g>
<g opacity="0.3">
<g clip-path="url(#clip1_2578_1629)">
<path d="M48.0043 48.6622L28.3603 37.3208C28.1697 37.2107 27.9261 37.276 27.8161 37.4666C27.7061 37.6571 27.7713 37.9008 27.9619 38.0108L30.5611 39.5114L29.7817 40.8615C29.6716 41.052 29.7369 41.2957 29.9275 41.4057L41.0087 47.8034C41.1993 47.9135 41.4429 47.8482 41.5529 47.6576L42.3323 46.3076L47.6059 49.3523C47.7148 49.4151 47.7522 49.5548 47.6893 49.6637L46.3538 51.977L24.18 39.175L25.5155 36.8617C25.5784 36.7528 25.7181 36.7153 25.8269 36.7782L26.5818 37.214C26.7724 37.324 27.016 37.2587 27.126 37.0682C27.2361 36.8776 27.1708 36.634 26.9802 36.524L26.2253 36.0881C25.736 35.8056 25.108 35.9739 24.8255 36.4632L19.4195 45.8267C19.2082 46.1927 19.3341 46.6623 19.7 46.8735L21.3586 47.8311C21.7246 48.0424 22.1942 47.9166 22.4055 47.5507L23.5855 45.5067L41.1676 55.6577L39.9875 57.7017C39.7762 58.0676 39.9021 58.5372 40.2681 58.7485L41.9267 59.7061C42.2926 59.9174 42.7622 59.7915 42.9735 59.4256L48.3795 50.0621C48.6619 49.5727 48.4937 48.9448 48.0043 48.6622V48.6622ZM41.0621 46.9142L30.6709 40.9148L31.2512 39.9098L41.6423 45.9092L41.0621 46.9142ZM45.9554 52.667L43.8618 56.2932L21.688 43.4911L23.7816 39.865L45.9554 52.667ZM21.7306 47.1258L20.1248 46.1987L21.2896 44.1812L22.8954 45.1083L21.7306 47.1258ZM40.6928 58.0736L41.8576 56.0561L43.4634 56.9832L42.2986 59.0008L40.6928 58.0736Z" fill="#132E6B"/>
<path d="M55.4739 36.2914L37.5055 25.9174C37.3149 25.8073 37.0713 25.8727 36.9613 26.0632C36.8513 26.2538 36.9165 26.4974 37.1071 26.6074L55.0279 36.954L54.1354 38.4999L31.9616 25.6979L32.8542 24.152L35.727 25.8106C35.9175 25.9206 36.1612 25.8553 36.2712 25.6648C36.3812 25.4743 36.3159 25.2306 36.1254 25.1206L33.205 23.4345C32.8508 23.23 32.3961 23.3517 32.1915 23.7061L31.2442 25.3469C31.0396 25.7012 31.1615 26.1559 31.5157 26.3604L35.0291 28.3889L34.7815 28.8179C34.429 29.4284 34.6389 30.2119 35.2494 30.5643L39.03 32.747L37.987 34.5536C37.7255 35.0064 37.8812 35.5875 38.3341 35.849L38.7094 36.0657L37.8907 37.4837L36.2304 36.5252C35.485 36.0948 34.5283 36.3511 34.098 37.0965L33.689 37.8048C33.579 37.9954 33.6443 38.239 33.8349 38.349L42.2426 43.2032C42.4332 43.3133 42.6768 43.248 42.7868 43.0574L43.1957 42.3492C43.6261 41.6038 43.3697 40.6471 42.6243 40.2167L40.964 39.2582L41.7827 37.8401L42.1581 38.0568C42.6109 38.3183 43.192 38.1626 43.4535 37.7098L44.4965 35.9032L48.277 38.0859C48.8875 38.4384 49.671 38.2284 50.0235 37.6179L50.2712 37.1889L53.7846 39.2174C54.1388 39.4219 54.5935 39.3001 54.7981 38.9458L55.7454 37.3049C55.95 36.9506 55.8281 36.496 55.4739 36.2914V36.2914ZM42.5057 41.9508L42.2959 42.314L34.5783 37.8582L34.788 37.495C34.9987 37.13 35.467 37.0046 35.832 37.2153L42.2259 40.9068C42.5909 41.1175 42.7164 41.5858 42.5057 41.9508ZM40.274 38.8598L38.5807 37.8822L39.3994 36.4641L41.0927 37.4417L40.274 38.8598ZM42.7634 37.3113C42.7216 37.3837 42.6288 37.4085 42.5565 37.3668L38.7324 35.1589C38.6601 35.1172 38.6352 35.0243 38.6769 34.952L39.72 33.1455L43.8064 35.5048L42.7634 37.3113L42.7634 37.3113ZM49.3335 37.2195C49.2007 37.4495 48.9055 37.5286 48.6754 37.3958L35.6478 29.8743C35.4178 29.7415 35.3387 29.4463 35.4715 29.2163L35.7192 28.7873L49.5811 36.7905L49.3335 37.2195Z" fill="#132E6B"/>
<path d="M33.5946 49.3416L34.7265 49.9951C35.1179 50.2211 35.6202 50.0865 35.8462 49.6951L36.2238 49.041C36.4498 48.6496 36.3152 48.1474 35.9238 47.9214L34.7919 47.2679C34.4005 47.0419 33.8982 47.1765 33.6722 47.5679L33.2946 48.222C33.0686 48.6134 33.2032 49.1156 33.5946 49.3416ZM34.3623 47.9663C34.3686 47.9554 34.3825 47.9516 34.3935 47.958L35.5254 48.6115C35.5363 48.6178 35.5401 48.6317 35.5338 48.6426L35.1561 49.2967C35.1498 49.3076 35.1359 49.3114 35.1249 49.3051L33.993 48.6516C33.9821 48.6453 33.9784 48.6313 33.9847 48.6204L34.3623 47.9663Z" fill="#132E6B"/>
<path d="M37.0848 51.3567L38.2168 52.0102C38.6082 52.2362 39.1105 52.1016 39.3364 51.7102L39.7141 51.0561C39.94 50.6647 39.8054 50.1625 39.414 49.9365L38.2821 49.283C37.8907 49.057 37.3884 49.1916 37.1625 49.583L36.7848 50.237C36.5588 50.6285 36.6934 51.1307 37.0848 51.3567ZM37.8525 49.9814C37.8588 49.9705 37.8728 49.9667 37.8837 49.973L39.0156 50.6266C39.0265 50.6329 39.0303 50.6468 39.024 50.6577L38.6464 51.3118C38.6401 51.3227 38.6261 51.3265 38.6152 51.3202L37.4833 50.6666C37.4723 50.6603 37.4686 50.6463 37.4749 50.6354L37.8525 49.9814Z" fill="#132E6B"/>
<path d="M27.9056 45.1226L28.3068 45.3542C28.4974 45.4643 28.741 45.399 28.851 45.2084C28.961 45.0179 28.8958 44.7742 28.7052 44.6642L28.304 44.4326C28.1134 44.3225 27.8698 44.3878 27.7598 44.5784C27.6498 44.7689 27.7151 45.0126 27.9056 45.1226Z" fill="#132E6B"/>
<path d="M29.7533 46.19L30.1545 46.4216C30.345 46.5316 30.5887 46.4663 30.6987 46.2758C30.8087 46.0852 30.7434 45.8416 30.5529 45.7316L30.1517 45.4999C29.9611 45.3899 29.7175 45.4552 29.6074 45.6458C29.4974 45.8363 29.5627 46.0799 29.7533 46.19Z" fill="#132E6B"/>
<path d="M31.7044 47.3168L32.1056 47.5484C32.2962 47.6585 32.5399 47.5932 32.6499 47.4026C32.7599 47.2121 32.6946 46.9684 32.504 46.8584L32.1028 46.6267C31.9123 46.5167 31.6686 46.582 31.5586 46.7726C31.4486 46.9631 31.5139 47.2068 31.7044 47.3168Z" fill="#132E6B"/>
</g>
<g clip-path="url(#clip2_2578_1629)">
<path d="M91.1492 123.026C91.4471 122.891 91.5792 122.541 91.4445 122.243L90.941 121.13C90.8064 120.83 90.4556 120.695 90.155 120.827L89.3889 121.173L85.3029 112.137C85.2274 111.973 85.0348 111.901 84.8703 111.973L83.8559 112.432C83.6941 112.507 83.6243 112.698 83.6992 112.86L83.6998 112.861L84.0462 113.628L80.8613 115.068L80.5149 114.301C80.4394 114.138 80.2468 114.066 80.0823 114.138L76.9399 115.559C76.7782 115.634 76.7083 115.825 76.7832 115.987L76.7838 115.988L77.1302 116.755L73.9453 118.195L73.5989 117.428C73.5234 117.265 73.3308 117.193 73.1663 117.265L72.152 117.724C71.9902 117.799 71.9203 117.99 71.9952 118.152L71.9958 118.153L76.0818 127.19L75.3157 127.537C75.0143 127.673 74.8802 128.028 75.0165 128.33L75.52 129.443C75.6558 129.742 76.0074 129.873 76.3057 129.737L76.31 129.736L76.3171 129.732L78.0778 133.627C77.7942 133.887 77.7122 134.301 77.8741 134.65L78.0024 134.934C78.1382 135.232 78.4898 135.363 78.7881 135.228L78.7924 135.226L80.9984 134.228C81.298 134.094 81.4333 133.743 81.3008 133.442L81.1725 133.159C81.0176 132.806 80.6528 132.595 80.2697 132.635L78.6436 129.039L79.7544 129.323C79.9215 129.362 80.097 129.346 80.2544 129.276L88.199 125.684C88.3537 125.611 88.4821 125.49 88.5643 125.34L89.0779 124.321L90.7039 127.918C90.4295 128.182 90.3512 128.591 90.5073 128.938L90.6356 129.222C90.7703 129.519 91.1205 129.652 91.4185 129.517L93.6316 128.516C93.9295 128.382 94.0616 128.031 93.9269 127.733L93.7986 127.45C93.6411 127.103 93.2825 126.892 92.9029 126.923L91.1421 123.029L91.1492 123.026ZM84.3479 112.859L84.8728 112.622L88.8498 121.417L88.3249 121.655L84.3479 112.859ZM81.105 115.607L84.2899 114.167L84.5273 114.691L81.3424 116.132L81.105 115.607ZM77.432 115.986L80.0849 114.786L81.0438 116.907L78.3909 118.107L77.432 115.986ZM81.5981 120.023L81.8355 120.548L80.6012 121.106L80.3639 120.581L81.5981 120.023ZM80.4748 119.881L80.1797 119.229L80.7046 118.991L80.9997 119.644L80.4748 119.881ZM79.404 118.93L79.1667 118.405L80.7556 117.687L80.9929 118.212L79.404 118.93ZM74.1891 118.734L77.3739 117.294L77.6113 117.819L74.4264 119.259L74.1891 118.734ZM74.6701 119.798L77.855 118.358L78.0667 118.826C78.0838 118.862 78.1264 118.877 78.1622 118.859L78.1665 118.858L78.6276 118.649L79.0798 119.649C79.0969 119.685 79.1395 119.7 79.1753 119.683L79.1796 119.681L79.6406 119.473L79.9357 120.125L79.652 120.253C79.6141 120.268 79.5947 120.31 79.6093 120.348L79.6131 120.356L80.2738 121.818C80.2884 121.855 80.3305 121.875 80.3683 121.86L80.3768 121.856L81.1854 121.491L81.4773 122.136C81.5463 122.289 81.7265 122.357 81.879 122.288C82.0285 122.216 82.0953 122.039 82.0306 121.886L81.7387 121.241L82.5474 120.875C82.5864 120.857 82.6039 120.811 82.5862 120.772L81.9255 119.311C81.9079 119.272 81.8615 119.254 81.8225 119.272L81.5388 119.4L81.2437 118.748L81.7048 118.539C81.7417 118.523 81.7597 118.481 81.7469 118.443L81.2947 117.443L81.7557 117.235C81.7926 117.218 81.8106 117.177 81.7978 117.139L81.5861 116.671L84.771 115.231L87.7858 121.898L85.7571 122.816L85.5743 122.411C85.353 121.922 84.7762 121.704 84.2867 121.925L80.0165 123.856C79.5271 124.078 79.3095 124.654 79.5308 125.144L79.7136 125.548L77.6849 126.465L74.6701 119.798ZM85.0204 122.66L85.021 122.661L85.2038 123.066L80.2669 125.298L80.0841 124.894C80.0003 124.71 80.0819 124.494 80.2653 124.41L80.2667 124.41L84.5369 122.479C84.7203 122.395 84.9366 122.477 85.0204 122.66V122.66ZM72.644 118.151L73.1689 117.913L77.1458 126.709L76.6209 126.946L72.644 118.151ZM80.7443 133.685L78.5525 134.676L78.4274 134.4C78.3587 134.25 78.4228 134.072 78.5719 134.001L80.2246 133.254C80.3763 133.189 80.552 133.258 80.6192 133.409L80.7443 133.685ZM78.6016 133.33L76.8633 129.485L77.9627 128.988L79.701 132.833L78.6016 133.33ZM81.0076 128.278L80.695 127.095L86.2703 124.574L86.9518 125.59L81.0076 128.278ZM93.3775 127.973L91.1786 128.968L91.0535 128.691C90.9887 128.538 91.0556 128.361 91.2051 128.289L92.8507 127.545C93.0032 127.476 93.1835 127.544 93.2524 127.697L93.3775 127.973ZM91.2348 127.618L89.4964 123.773L90.5888 123.279L92.3271 127.124L91.2348 127.618ZM88.8735 123.397L88.0017 125.116L87.5051 125.34L86.7645 124.231C86.6039 123.989 86.2921 123.899 86.0272 124.018L80.4377 126.545C80.1734 126.665 80.0355 126.959 80.111 127.239L80.4473 128.531L79.9578 128.753L78.0846 128.275L76.0701 129.186L75.573 128.087L90.398 121.384L90.8951 122.483L88.8735 123.397Z" fill="#132E6B"/>
</g>
<g clip-path="url(#clip3_2578_1629)">
<path d="M168.885 23.581C169.221 23.4288 169.371 23.0333 169.219 22.6969L168.65 21.4393C168.498 21.1009 168.102 20.9481 167.762 21.0977L166.897 21.4889L162.283 11.2836C162.198 11.0992 161.98 11.0172 161.794 11.0992L160.649 11.6172C160.466 11.7017 160.387 11.9178 160.472 12.1005L160.472 12.1021L160.864 12.9672L157.267 14.5935L156.876 13.7283C156.79 13.544 156.573 13.462 156.387 13.544L152.839 15.1485C152.656 15.2331 152.577 15.4491 152.662 15.6319L152.662 15.6335L153.053 16.4986L149.457 18.1248L149.066 17.2597C148.98 17.0754 148.763 16.9933 148.577 17.0754L147.432 17.5933C147.249 17.6778 147.17 17.8939 147.254 18.0766L147.255 18.0782L151.869 28.2835L151.004 28.6747C150.664 28.8286 150.513 29.23 150.666 29.5704L151.235 30.828C151.388 31.1649 151.785 31.3134 152.122 31.1601L152.127 31.158L152.135 31.1543L154.124 35.5521C153.803 35.8465 153.711 36.3138 153.894 36.7077L154.038 37.0281C154.192 37.365 154.589 37.5135 154.926 37.3602L154.93 37.358L157.422 36.2316C157.76 36.0796 157.913 35.6834 157.763 35.344L157.618 35.0235C157.443 34.626 157.031 34.3868 156.599 34.4329L154.763 30.3716L156.017 30.692C156.206 30.736 156.404 30.7178 156.582 30.6393L165.553 26.5828C165.728 26.4999 165.873 26.3639 165.966 26.1937L166.546 25.0438L168.382 29.1051C168.072 29.4034 167.984 29.8651 168.16 30.2571L168.305 30.5775C168.457 30.914 168.853 31.0632 169.189 30.9111L171.688 29.781C172.025 29.6289 172.174 29.2334 172.022 28.897L171.877 28.5766C171.699 28.1852 171.294 27.9467 170.865 27.9823L168.877 23.5846L168.885 23.581ZM161.204 12.0992L161.797 11.8312L166.288 21.7641L165.696 22.0322L161.204 12.0992ZM157.542 15.2023L161.139 13.576L161.407 14.1688L157.81 15.795L157.542 15.2023ZM153.394 15.6305L156.39 14.276L157.473 16.6711L154.477 18.0257L153.394 15.6305ZM158.099 20.1894L158.367 20.7822L156.973 21.4124L156.705 20.8196L158.099 20.1894ZM156.83 20.0297L156.497 19.2927L157.09 19.0247L157.423 19.7617L156.83 20.0297ZM155.621 18.9556L155.353 18.3628L157.148 17.5515L157.416 18.1443L155.621 18.9556ZM149.732 18.7336L153.329 17.1074L153.597 17.7002L150 19.3264L149.732 18.7336ZM150.275 19.9352L153.872 18.3089L154.111 18.8376C154.13 18.8781 154.178 18.895 154.219 18.8757L154.224 18.8735L154.744 18.6381L155.255 19.7676C155.274 19.8081 155.322 19.8249 155.363 19.8056L155.368 19.8034L155.888 19.568L156.222 20.305L155.901 20.4499C155.859 20.4663 155.837 20.5138 155.853 20.5566L155.857 20.5662L156.603 22.2163C156.62 22.2591 156.667 22.281 156.71 22.2646L156.72 22.2602L157.633 21.8473L157.963 22.5763C158.04 22.7485 158.244 22.8253 158.416 22.7474C158.585 22.6663 158.661 22.4662 158.587 22.2938L158.258 21.5648L159.171 21.1519C159.215 21.132 159.235 21.0796 159.215 21.0356L158.469 19.3854C158.449 19.3414 158.397 19.3216 158.352 19.3416L158.032 19.4864L157.699 18.7495L158.22 18.514C158.261 18.4952 158.281 18.4484 158.267 18.4057L157.756 17.2763L158.277 17.0408C158.319 17.022 158.339 16.9752 158.325 16.9325L158.085 16.4038L161.682 14.7776L165.087 22.3074L162.796 23.3433L162.589 22.8867C162.339 22.334 161.688 22.0882 161.135 22.3381L156.313 24.5185C155.76 24.7684 155.514 25.4198 155.764 25.9725L155.971 26.4291L153.68 27.465L150.275 19.9352ZM161.964 23.1676L161.964 23.1692L162.171 23.6258L156.596 26.1466L156.389 25.69C156.295 25.4829 156.387 25.2386 156.594 25.144L156.595 25.1433L161.418 22.9629C161.625 22.8683 161.869 22.9605 161.964 23.1676V23.1676ZM147.987 18.0753L148.58 17.8073L153.071 27.7403L152.478 28.0083L147.987 18.0753ZM157.135 35.6185L154.66 36.7376L154.518 36.4252C154.441 36.2557 154.513 36.0552 154.681 35.9752L156.548 35.1313C156.719 35.0577 156.918 35.1359 156.994 35.306L157.135 35.6185ZM154.715 35.2171L152.752 30.8754L153.994 30.3141L155.957 34.6557L154.715 35.2171ZM157.432 29.5118L157.079 28.1761L163.375 25.3292L164.145 26.4767L157.432 29.5118ZM171.401 29.1679L168.918 30.2906L168.777 29.9782C168.704 29.8058 168.779 29.6057 168.948 29.5246L170.807 28.6843C170.979 28.6064 171.182 28.6832 171.26 28.8555L171.401 29.1679ZM168.982 28.7665L167.019 24.4249L168.252 23.8671L170.215 28.2087L168.982 28.7665ZM166.315 24L165.331 25.9407L164.77 26.1942L163.933 24.9418C163.752 24.6688 163.4 24.5665 163.101 24.7008L156.789 27.5549C156.49 27.6908 156.334 28.0227 156.42 28.3392L156.799 29.798L156.247 30.0479L154.131 29.5089L151.856 30.5375L151.295 29.2959L168.037 21.7262L168.598 22.9678L166.315 24Z" fill="#132E6B"/>
</g>
<g clip-path="url(#clip4_2578_1629)">
<path d="M391.121 137.189L383.423 134.537C382.786 134.318 382.09 134.657 381.87 135.294L381.473 136.449L376.854 134.858L381.347 131.813L382.055 129.76L372.048 126.313L371.341 128.366L373.005 133.532L368.772 132.073C368.135 131.854 367.438 132.194 367.219 132.83L363.507 143.607C363.334 144.108 363.511 144.643 363.903 144.956L363.165 147.099C362.835 147.288 362.566 147.586 362.433 147.973C362.141 148.822 362.593 149.751 363.442 150.043C364.291 150.336 365.22 149.883 365.512 149.034C365.646 148.647 365.618 148.246 365.475 147.894L366.188 145.822L373.116 148.209L372.402 150.28C372.072 150.469 371.804 150.768 371.67 151.155C371.378 152.004 371.831 152.933 372.68 153.225C373.529 153.518 374.457 153.065 374.749 152.216C374.883 151.829 374.855 151.428 374.712 151.076L375.425 149.004L383.893 151.921L383.179 153.993C382.849 154.182 382.581 154.48 382.447 154.868C382.155 155.717 382.607 156.645 383.456 156.938C384.305 157.23 385.234 156.777 385.526 155.928C385.659 155.542 385.632 155.141 385.488 154.788L386.226 152.646C386.728 152.64 387.197 152.328 387.37 151.827L391.877 138.741C392.097 138.105 391.757 137.408 391.121 137.189V137.189ZM383.158 135.307L390.855 137.959C391.067 138.032 391.181 138.264 391.108 138.476L390.975 138.861L382.508 135.944L382.64 135.559C382.713 135.347 382.946 135.234 383.158 135.307ZM379.882 141.067L378.151 140.471C378.165 138.941 377.28 137.444 375.866 136.475L376.204 135.495L381.208 137.218L379.882 141.067ZM367.223 145.318L368.284 142.239L375.212 144.625L374.151 147.704L367.223 145.318ZM364.529 144.39C364.317 144.317 364.203 144.085 364.277 143.872L366 138.869L369.079 139.929L368.549 141.469L367.779 141.204L366.453 145.053L364.529 144.39ZM375.434 135.23L375.151 136.053C374.91 135.933 374.661 135.824 374.399 135.734C374.138 135.644 373.875 135.576 373.611 135.523L373.895 134.699L375.434 135.23ZM374.134 136.504C374.396 136.594 374.646 136.704 374.884 136.828L374.108 139.078L372.569 138.548L373.344 136.298C373.608 136.346 373.872 136.414 374.134 136.504ZM374.878 139.344L375.591 137.275C376.595 138.027 377.242 139.089 377.327 140.187L374.878 139.344ZM370.858 142.264L371.389 140.725L373.698 141.52L373.167 143.06L370.858 142.264ZM371.149 138.92L370.884 139.69L370.114 139.425L370.379 138.655L371.149 138.92ZM370.619 140.46L370.088 141.999L369.319 141.734L369.849 140.195L370.619 140.46ZM371.654 139.955L371.919 139.185L374.228 139.981L373.963 140.751L371.654 139.955ZM371.799 138.283L369.351 137.439C370.094 136.627 371.258 136.189 372.512 136.215L371.799 138.283ZM369.61 138.39L369.344 139.16L366.265 138.099L366.53 137.329L369.61 138.39ZM373.937 143.325L374.468 141.786L375.237 142.051L374.707 143.59L373.937 143.325ZM374.733 141.016L374.998 140.246L375.768 140.511L375.503 141.281L374.733 141.016ZM376.537 140.776L379.617 141.837L379.351 142.607L376.272 141.546L376.537 140.776ZM372.199 128.374L372.552 127.348L381.02 130.265L380.666 131.291L375.892 134.526L373.967 133.863L372.199 128.374ZM368.506 132.843L373.125 134.434L372.787 135.414C371.077 135.307 369.458 135.942 368.526 137.156L366.796 136.559L367.989 133.095C368.062 132.883 368.294 132.77 368.506 132.843ZM363.708 149.273C363.283 149.127 363.057 148.663 363.203 148.238C363.349 147.814 363.813 147.588 364.238 147.734C364.662 147.88 364.889 148.344 364.743 148.769C364.596 149.193 364.132 149.42 363.708 149.273ZM364.869 147.151C364.756 147.076 364.637 147.01 364.503 146.964C364.37 146.918 364.234 146.896 364.099 146.886L364.649 145.292L365.418 145.557L364.869 147.151ZM372.945 152.455C372.52 152.309 372.294 151.845 372.44 151.42C372.586 150.996 373.051 150.77 373.475 150.916C373.9 151.062 374.126 151.526 373.98 151.951C373.833 152.375 373.369 152.602 372.945 152.455ZM374.106 150.333C373.994 150.258 373.874 150.192 373.74 150.146C373.607 150.1 373.472 150.079 373.337 150.068L373.886 148.474L374.656 148.739L374.106 150.333ZM374.921 147.969L376.247 144.121L375.477 143.855L376.007 142.316L379.086 143.377L377.23 148.765L374.921 147.969ZM385.432 152.452L384.883 154.046C384.77 153.971 384.651 153.904 384.517 153.858C384.383 153.812 384.248 153.791 384.113 153.781L384.662 152.186L385.432 152.452ZM383.721 156.168C383.297 156.022 383.071 155.557 383.217 155.133C383.363 154.708 383.827 154.482 384.252 154.628C384.676 154.774 384.903 155.239 384.756 155.663C384.61 156.088 384.146 156.314 383.721 156.168ZM386.082 151.814L378 149.03L382.242 136.714L390.71 139.631L386.6 151.562C386.527 151.775 386.294 151.887 386.082 151.814Z" fill="#132E6B"/>
<path d="M380.89 143.137L387.818 145.524L389.674 140.135L382.746 137.749L380.89 143.137ZM381.925 142.633L382.72 140.323L383.637 140.639L383.936 142.89L385.488 141.707L387.976 142.564L387.313 144.489L381.925 142.633ZM388.639 140.64L388.241 141.795L385.341 140.796L384.558 141.392L384.378 140.033L382.986 139.553L383.251 138.784L388.639 140.64Z" fill="#132E6B"/>
<path d="M383.321 144.835C382.684 144.616 381.988 144.955 381.768 145.592C381.549 146.228 381.889 146.925 382.525 147.144C383.162 147.364 383.858 147.024 384.078 146.387C384.297 145.751 383.957 145.054 383.321 144.835ZM382.79 146.375C382.578 146.301 382.465 146.069 382.538 145.857C382.611 145.645 382.843 145.532 383.055 145.605C383.268 145.678 383.381 145.91 383.308 146.122C383.235 146.335 383.002 146.448 382.79 146.375Z" fill="#132E6B"/>
<path d="M386.399 145.896C385.762 145.676 385.066 146.016 384.846 146.653C384.627 147.289 384.967 147.986 385.603 148.205C386.24 148.424 386.936 148.085 387.156 147.448C387.375 146.811 387.035 146.115 386.399 145.896ZM385.868 147.435C385.656 147.362 385.543 147.13 385.616 146.918C385.689 146.705 385.922 146.592 386.134 146.665C386.346 146.738 386.459 146.97 386.386 147.183C386.313 147.395 386.081 147.508 385.868 147.435Z" fill="#132E6B"/>
</g>
<g clip-path="url(#clip5_2578_1629)">
<path d="M46.7121 161.549L43.208 160.341C42.9182 160.242 42.6011 160.396 42.5013 160.686L42.3202 161.212L40.2178 160.487L42.2632 159.101L42.5851 158.167L38.0298 156.598L37.7079 157.532L38.4657 159.884L36.5384 159.22C36.2487 159.12 35.9316 159.275 35.8318 159.564L34.1418 164.47C34.0632 164.698 34.1438 164.942 34.3223 165.084L33.9863 166.06C33.8361 166.146 33.7138 166.282 33.6531 166.458C33.52 166.844 33.726 167.267 34.1125 167.4C34.499 167.533 34.9216 167.327 35.0548 166.941C35.1154 166.765 35.1028 166.582 35.0376 166.422L35.3624 165.479L38.5161 166.565L38.1913 167.508C38.0411 167.594 37.9188 167.73 37.8581 167.906C37.7249 168.293 37.931 168.715 38.3175 168.849C38.704 168.982 39.1266 168.776 39.2597 168.389C39.3204 168.213 39.3078 168.031 39.2425 167.87L39.5673 166.927L43.4219 168.255L43.097 169.198C42.9469 169.284 42.8245 169.42 42.7638 169.596C42.6307 169.983 42.8367 170.405 43.2232 170.539C43.6097 170.672 44.0323 170.466 44.1655 170.079C44.2261 169.903 44.2135 169.721 44.1483 169.56L44.4842 168.585C44.7126 168.582 44.926 168.44 45.0046 168.212L47.0567 162.255C47.1565 161.965 47.0019 161.648 46.7121 161.549V161.549ZM43.0873 160.692L46.5914 161.899C46.6879 161.932 46.7395 162.038 46.7063 162.135L46.6459 162.31L42.7914 160.982L42.8517 160.807C42.885 160.71 42.9907 160.659 43.0873 160.692ZM41.596 163.314L40.8081 163.043C40.8143 162.346 40.4117 161.665 39.7681 161.224L39.9219 160.777L42.1995 161.562L41.596 163.314ZM35.8335 165.249L36.3164 163.847L39.4701 164.934L38.9872 166.335L35.8335 165.249ZM34.6071 164.827C34.5105 164.793 34.4589 164.688 34.4922 164.591L35.2768 162.313L36.6785 162.796L36.4371 163.497L36.0867 163.376L35.4831 165.128L34.6071 164.827ZM39.5714 160.657L39.4423 161.031C39.3328 160.977 39.2193 160.927 39.1003 160.886C38.9815 160.846 38.8615 160.814 38.7415 160.79L38.8706 160.415L39.5714 160.657ZM38.9796 161.237C39.0989 161.278 39.2127 161.328 39.3208 161.384L38.9679 162.409L38.2671 162.167L38.62 161.143C38.74 161.165 38.8603 161.196 38.9796 161.237ZM39.3183 162.53L39.6427 161.588C40.0998 161.93 40.3943 162.414 40.433 162.913L39.3183 162.53ZM37.4883 163.859L37.7297 163.158L38.781 163.52L38.5395 164.221L37.4883 163.859ZM37.6207 162.337L37.5 162.687L37.1496 162.566L37.2703 162.216L37.6207 162.337ZM37.3793 163.038L37.1379 163.738L36.7875 163.618L37.0289 162.917L37.3793 163.038ZM37.8504 162.808L37.9712 162.457L39.0224 162.82L38.9017 163.17L37.8504 162.808ZM37.9167 162.047L36.802 161.663C37.1403 161.293 37.6702 161.093 38.2409 161.105L37.9167 162.047ZM36.9199 162.095L36.7992 162.446L35.3976 161.963L35.5183 161.612L36.9199 162.095ZM38.89 164.342L39.1314 163.641L39.4818 163.762L39.2404 164.463L38.89 164.342ZM39.2521 163.291L39.3728 162.94L39.7232 163.061L39.6025 163.411L39.2521 163.291ZM40.0736 163.182L41.4753 163.665L41.3546 164.015L39.9529 163.532L40.0736 163.182ZM38.0985 157.536L38.2595 157.069L42.114 158.397L41.953 158.864L39.7798 160.336L38.9037 160.035L38.0985 157.536ZM36.4177 159.57L38.5202 160.295L38.3665 160.741C37.5879 160.692 36.8508 160.981 36.4269 161.533L35.639 161.262L36.1822 159.685C36.2154 159.589 36.3212 159.537 36.4177 159.57ZM34.2332 167.05C34.04 166.983 33.937 166.772 34.0035 166.579C34.0701 166.385 34.2814 166.282 34.4747 166.349C34.6679 166.415 34.7709 166.627 34.7044 166.82C34.6378 167.013 34.4265 167.116 34.2332 167.05ZM34.762 166.084C34.7107 166.05 34.6562 166.019 34.5954 165.998C34.5346 165.978 34.4731 165.968 34.4116 165.963L34.6616 165.237L35.012 165.358L34.762 166.084ZM38.4382 168.498C38.2449 168.432 38.1419 168.22 38.2085 168.027C38.275 167.834 38.4863 167.731 38.6796 167.797C38.8728 167.864 38.9759 168.075 38.9093 168.269C38.8427 168.462 38.6314 168.565 38.4382 168.498ZM38.9669 167.532C38.9156 167.498 38.8611 167.468 38.8003 167.447C38.7395 167.426 38.678 167.416 38.6165 167.412L38.8665 166.686L39.2169 166.807L38.9669 167.532ZM39.3376 166.456L39.9412 164.704L39.5908 164.583L39.8322 163.883L41.2339 164.365L40.3889 166.818L39.3376 166.456ZM44.1227 168.496L43.8727 169.222C43.8214 169.188 43.7669 169.158 43.7061 169.137C43.6453 169.116 43.5838 169.106 43.5223 169.101L43.7723 168.376L44.1227 168.496ZM43.3439 170.188C43.1507 170.122 43.0477 169.91 43.1142 169.717C43.1808 169.524 43.3921 169.421 43.5854 169.487C43.7786 169.554 43.8816 169.765 43.8151 169.958C43.7485 170.152 43.5372 170.255 43.3439 170.188ZM44.4186 168.206L40.7393 166.939L42.6707 161.332L46.5252 162.66L44.6542 168.092C44.6209 168.188 44.5152 168.24 44.4186 168.206Z" fill="#132E6B"/>
<path d="M42.0554 164.256L45.2091 165.343L46.0541 162.89L42.9004 161.803L42.0554 164.256ZM42.5265 164.027L42.8887 162.975L43.306 163.119L43.4419 164.144L44.1485 163.605L45.2812 163.996L44.9794 164.872L42.5265 164.027ZM45.583 163.12L45.4019 163.645L44.0817 163.19L43.7253 163.462L43.6433 162.843L43.0094 162.625L43.1301 162.275L45.583 163.12Z" fill="#132E6B"/>
<path d="M43.1604 165.029C42.8706 164.929 42.5535 165.084 42.4537 165.374C42.3539 165.664 42.5085 165.981 42.7983 166.081C43.088 166.18 43.4051 166.026 43.5049 165.736C43.6048 165.446 43.4502 165.129 43.1604 165.029ZM42.919 165.73C42.8224 165.697 42.7708 165.591 42.8041 165.495C42.8374 165.398 42.9431 165.346 43.0397 165.38C43.1362 165.413 43.1878 165.519 43.1545 165.615C43.1212 165.712 43.0155 165.763 42.919 165.73Z" fill="#132E6B"/>
<path d="M44.5627 165.512C44.2729 165.412 43.9559 165.567 43.856 165.857C43.7562 166.146 43.9108 166.464 44.2006 166.563C44.4904 166.663 44.8075 166.509 44.9073 166.219C45.0071 165.929 44.8525 165.612 44.5627 165.512ZM44.3213 166.213C44.2248 166.18 44.1731 166.074 44.2065 165.977C44.2398 165.881 44.3455 165.829 44.442 165.863C44.5386 165.896 44.5902 166.001 44.5569 166.098C44.5236 166.195 44.4178 166.246 44.3213 166.213Z" fill="#132E6B"/>
</g>
<g clip-path="url(#clip6_2578_1629)">
<path d="M215.645 160.559C216.862 160.559 217.848 159.573 217.848 158.356C217.848 157.139 216.862 156.153 215.645 156.153C214.428 156.153 213.441 157.139 213.441 158.356C213.443 159.572 214.429 160.557 215.645 160.559ZM215.645 156.831C216.487 156.831 217.17 157.513 217.17 158.356C217.17 159.198 216.487 159.881 215.645 159.881C214.802 159.881 214.119 159.198 214.119 158.356C214.121 157.514 214.803 156.832 215.645 156.831Z" fill="#132E6B"/>
<path d="M207.834 156.397C207.345 156.486 206.992 156.916 207 157.414V159.332C206.992 159.829 207.345 160.26 207.834 160.349L209.817 160.708C209.837 160.763 209.861 160.817 209.885 160.868L208.736 162.492C208.456 162.896 208.506 163.443 208.854 163.79L210.21 165.146C210.558 165.493 211.105 165.541 211.509 165.261L213.166 164.112L213.326 164.18L213.685 166.163C213.774 166.652 214.205 167.005 214.702 166.997H216.62C217.118 167.005 217.548 166.652 217.637 166.163L217.997 164.18L218.156 164.112L219.814 165.261C220.218 165.541 220.765 165.491 221.112 165.142L222.204 164.054C222.34 163.925 222.346 163.71 222.217 163.573C222.088 163.436 221.872 163.43 221.736 163.559L220.631 164.664C220.516 164.78 220.335 164.797 220.2 164.705L218.844 163.763C219.63 163.3 220.303 162.669 220.817 161.915C220.922 161.76 220.881 161.549 220.726 161.444C220.57 161.339 220.359 161.38 220.254 161.536C218.645 163.88 215.533 164.644 213.021 163.311C210.509 161.978 209.397 158.972 210.437 156.325C211.477 153.678 214.337 152.233 217.085 152.966C217.202 152.996 217.327 152.962 217.412 152.875C217.497 152.788 217.529 152.663 217.497 152.546C217.464 152.429 217.372 152.339 217.254 152.308C216.206 152.037 215.106 152.037 214.058 152.308L214.349 150.685C214.379 150.522 214.523 150.404 214.688 150.407H215.814C216.001 150.407 216.153 150.255 216.153 150.068C216.153 149.881 216.001 149.729 215.814 149.729H214.685C214.188 149.721 213.757 150.073 213.668 150.563L213.309 152.546L213.149 152.614L211.509 151.447C211.104 151.168 210.557 151.218 210.21 151.566L208.854 152.922C208.507 153.27 208.459 153.817 208.739 154.22L209.888 155.878C209.865 155.929 209.841 155.983 209.82 156.037L207.834 156.397ZM207.678 159.315V157.397C207.675 157.231 207.793 157.087 207.956 157.058L209.576 156.766C209.305 157.806 209.305 158.899 209.576 159.939L207.956 159.647C207.796 159.618 207.679 159.478 207.678 159.315V159.315ZM217.231 164.424L216.939 166.044C216.909 166.207 216.766 166.325 216.6 166.322H214.685C214.519 166.325 214.376 166.207 214.346 166.044L214.054 164.424C215.095 164.697 216.19 164.697 217.231 164.424ZM212.485 163.769L211.129 164.708C210.995 164.801 210.814 164.785 210.698 164.671L209.343 163.315C209.227 163.2 209.21 163.019 209.302 162.885L210.241 161.529C210.784 162.455 211.555 163.226 212.481 163.769H212.485ZM209.329 153.403L210.685 152.047C210.8 151.932 210.981 151.915 211.115 152.007L212.471 152.946C211.54 153.49 210.765 154.266 210.22 155.197L209.281 153.841C209.188 153.703 209.208 153.518 209.329 153.403V153.403Z" fill="#132E6B"/>
<path d="M226.322 147H217.508C217.134 147 216.83 147.304 216.83 147.678V150.729C216.827 150.97 216.957 151.193 217.169 151.308C217.306 151.39 217.465 151.424 217.623 151.407C218.596 153.844 218.373 153.278 218.718 154.139C218.409 154.207 218.188 154.48 218.186 154.797V155.814C218.186 156.188 218.49 156.492 218.864 156.492H219.203V157.508C219.203 157.883 219.507 158.186 219.881 158.186H220.22V160.22C220.22 160.327 220.27 160.428 220.356 160.492L221.576 161.407V162.593C221.576 162.78 221.728 162.932 221.915 162.932C222.102 162.932 222.254 162.78 222.254 162.593V161.407L223.474 160.492C223.56 160.428 223.61 160.327 223.61 160.22V158.186H223.949C224.323 158.186 224.627 157.883 224.627 157.508V156.492H224.966C225.34 156.492 225.644 156.188 225.644 155.814V154.797C225.642 154.482 225.425 154.21 225.118 154.139L226.213 151.407H226.322C226.696 151.407 227 151.103 227 150.729V147.678C227 147.304 226.696 147 226.322 147V147ZM222.932 160.051L221.915 160.814L220.898 160.051V158.186H222.932V160.051ZM224.966 155.814H221.915C221.728 155.814 221.576 155.965 221.576 156.153C221.576 156.34 221.728 156.492 221.915 156.492H223.949V157.508H219.881V156.492H220.559C220.746 156.492 220.898 156.34 220.898 156.153C220.898 155.965 220.746 155.814 220.559 155.814H218.864V154.797H224.966V155.814ZM224.396 154.119H219.434L218.349 151.407H225.467L224.396 154.119ZM226.322 150.729H217.508V147.678H226.322V150.729Z" fill="#132E6B"/>
<path d="M218.526 149.034H219.204C219.392 149.034 219.543 148.882 219.543 148.695C219.543 148.508 219.392 148.356 219.204 148.356H218.526C218.339 148.356 218.188 148.508 218.188 148.695C218.188 148.882 218.339 149.034 218.526 149.034Z" fill="#132E6B"/>
<path d="M220.56 149.034H225.305C225.493 149.034 225.644 148.882 225.644 148.695C225.644 148.508 225.493 148.356 225.305 148.356H220.56C220.372 148.356 220.221 148.508 220.221 148.695C220.221 148.882 220.372 149.034 220.56 149.034Z" fill="#132E6B"/>
<path d="M213.743 154.644C213.658 154.478 213.455 154.411 213.289 154.495C211.858 155.21 211.068 156.641 211.068 158.525C211.068 158.713 211.22 158.864 211.407 158.864C211.595 158.864 211.746 158.713 211.746 158.525C211.746 156.912 212.401 155.695 213.594 155.098C213.76 155.014 213.827 154.811 213.743 154.644Z" fill="#132E6B"/>
<path d="M214.458 154.458C214.645 154.458 214.797 154.306 214.797 154.119C214.797 153.931 214.645 153.78 214.458 153.78C214.271 153.78 214.119 153.931 214.119 154.119C214.119 154.306 214.271 154.458 214.458 154.458Z" fill="#132E6B"/>
</g>
<g clip-path="url(#clip7_2578_1629)">
<path d="M257.269 39.5834C258.25 40.3949 259.704 40.2569 260.516 39.2751C261.327 38.2933 261.189 36.8395 260.207 36.028C259.226 35.2164 257.772 35.3545 256.96 36.3363C256.151 37.3187 256.289 38.7709 257.269 39.5834ZM259.755 36.575C260.435 37.1368 260.531 38.1433 259.969 38.823C259.407 39.5027 258.4 39.5982 257.721 39.0364C257.041 38.4746 256.945 37.4681 257.507 36.7884C258.07 36.1106 259.075 36.0152 259.755 36.575Z" fill="#132E6B"/>
<path d="M253.744 31.0164C253.289 30.7623 252.718 30.8741 252.393 31.2807L251.113 32.8287C250.775 33.2245 250.773 33.8068 251.108 34.2053L252.468 35.8177C252.448 35.875 252.431 35.9346 252.417 35.9914L250.407 36.5351C249.911 36.675 249.587 37.1494 249.636 37.6617L249.826 39.6599C249.875 40.1721 250.284 40.5757 250.797 40.6187L252.9 40.797L252.984 40.958L251.951 42.7975C251.697 43.2519 251.809 43.8234 252.216 44.1485L253.764 45.4281C254.159 45.7662 254.742 45.7685 255.14 45.4335L256.753 44.0732L256.926 44.1247L257.497 46.1573C257.637 46.6526 258.112 46.9768 258.624 46.9274L260.23 46.7774C260.427 46.7644 260.575 46.5945 260.562 46.3981C260.549 46.2017 260.379 46.0531 260.183 46.0662L258.554 46.2208C258.385 46.237 258.227 46.1302 258.18 45.9665L257.714 44.3019C258.657 44.4521 259.621 44.3924 260.538 44.1271C260.726 44.0716 260.834 43.8741 260.778 43.6859C260.723 43.4977 260.526 43.3901 260.337 43.4455C257.475 44.2638 254.455 42.8045 253.317 40.0537C252.18 37.303 253.288 34.1366 255.892 32.6946C258.496 31.2526 261.767 31.9941 263.495 34.4179C263.57 34.5207 263.693 34.5759 263.82 34.5627C263.946 34.5495 264.056 34.4699 264.107 34.3539C264.159 34.2379 264.145 34.1032 264.07 34.0004C263.405 33.0826 262.518 32.349 261.491 31.8686L262.809 30.753C262.942 30.6413 263.136 30.6421 263.268 30.7548L264.176 31.5053C264.327 31.6302 264.551 31.6089 264.676 31.4579C264.801 31.3069 264.779 31.0832 264.628 30.9583L263.718 30.2055C263.322 29.8674 262.74 29.8651 262.341 30.2001L260.729 31.5604L260.555 31.5089L260.009 29.4739C259.869 28.9786 259.395 28.6544 258.882 28.7038L256.884 28.8935C256.372 28.9428 255.968 29.3514 255.925 29.8641L255.747 31.9679C255.694 31.9931 255.639 32.021 255.586 32.0512L253.744 31.0164ZM251.671 33.2671L252.951 31.7192C253.059 31.5836 253.25 31.5464 253.401 31.6311L254.903 32.4764C253.99 33.1348 253.262 34.0162 252.787 35.0363L251.674 33.7205C251.564 33.5898 251.563 33.3992 251.671 33.2671V33.2671ZM255.972 43.7592L254.656 44.872C254.523 44.9837 254.329 44.983 254.197 44.8702L252.652 43.593C252.516 43.4846 252.479 43.2941 252.564 43.1427L253.409 41.6409C254.067 42.5559 254.949 43.2855 255.972 43.7592ZM252.579 40.0664L250.859 39.9197C250.689 39.9051 250.554 39.772 250.536 39.6026L250.347 37.6043C250.331 37.4346 250.437 37.2774 250.601 37.2299L252.263 36.7621C252.083 37.8715 252.191 39.0084 252.576 40.0642L252.579 40.0664ZM256.946 29.5984L258.944 29.4087C259.114 29.3925 259.271 29.4992 259.319 29.663L259.786 31.3248C258.672 31.1432 257.53 31.2517 256.469 31.6397L256.616 29.9195C256.632 29.746 256.772 29.6099 256.946 29.5984V29.5984Z" fill="#132E6B"/>
<path d="M274.927 35.7647L267.817 29.8871C267.514 29.6374 267.067 29.6798 266.817 29.9819L264.783 32.4433C264.62 32.6358 264.576 32.9027 264.67 33.1371C264.726 33.2938 264.832 33.428 264.971 33.5193C264.13 36.1345 264.327 35.5286 264.032 36.4539C263.737 36.3026 263.377 36.3755 263.164 36.6295L262.486 37.45C262.236 37.7521 262.279 38.1994 262.581 38.4491L262.854 38.6752L262.176 39.4956C261.926 39.7977 261.969 40.245 262.271 40.4947L262.544 40.7208L261.188 42.3618C261.117 42.4478 261.09 42.5624 261.117 42.671L261.491 44.2232L260.699 45.1805C260.575 45.3315 260.596 45.5552 260.747 45.68C260.898 45.8049 261.122 45.7836 261.246 45.6326L262.038 44.6754L263.633 44.7508C263.744 44.756 263.852 44.7085 263.923 44.6224L265.279 42.9815L265.553 43.2075C265.855 43.4572 266.302 43.4148 266.552 43.1127L267.23 42.2922L267.504 42.5183C267.806 42.768 268.253 42.7255 268.503 42.4234L269.181 41.6029C269.39 41.3482 269.396 40.9834 269.196 40.7219L271.901 39.2478L271.989 39.3201C272.291 39.5698 272.738 39.5274 272.988 39.2253L275.022 36.7638C275.272 36.4618 275.229 36.0144 274.927 35.7647V35.7647ZM263.489 44.0335L262.16 43.9707L261.848 42.6771L263.091 41.1729L264.732 42.5293L263.489 44.0335ZM267.956 41.9713L265.494 39.9367C265.343 39.8118 265.12 39.8331 264.995 39.9841C264.87 40.1352 264.891 40.3588 265.042 40.4837L266.683 41.8401L266.005 42.6605L262.723 39.9478L263.401 39.1273L263.948 39.5794C264.099 39.7043 264.323 39.683 264.448 39.532C264.573 39.3809 264.551 39.1573 264.4 39.0324L263.033 37.9021L263.711 37.0816L268.634 41.1508L267.956 41.9713ZM268.627 40.224L264.623 36.9144L265.556 34.0031L271.299 38.7504L268.627 40.224ZM272.441 38.7731L265.33 32.8955L267.364 30.434L274.475 36.3117L272.441 38.7731Z" fill="#132E6B"/>
<path d="M267.28 32.2062L267.827 32.6583C267.978 32.7832 268.202 32.762 268.327 32.6109C268.452 32.4599 268.431 32.2362 268.279 32.1114L267.732 31.6592C267.581 31.5344 267.358 31.5556 267.233 31.7066C267.108 31.8577 267.129 32.0814 267.28 32.2062Z" fill="#132E6B"/>
<path d="M268.921 33.5626L272.75 36.7275C272.901 36.8523 273.125 36.8311 273.249 36.6801C273.374 36.529 273.353 36.3054 273.202 36.1805L269.373 33.0156C269.222 32.8908 268.998 32.912 268.874 33.063C268.749 33.2141 268.77 33.4377 268.921 33.5626Z" fill="#132E6B"/>
<path d="M259.681 33.5427C259.723 33.3522 259.604 33.1631 259.414 33.1195C257.783 32.7425 256.191 33.3699 254.934 34.8906C254.81 35.0416 254.831 35.2653 254.982 35.3901C255.133 35.515 255.357 35.4937 255.481 35.3427C256.558 34.0409 257.897 33.4953 259.258 33.8097C259.448 33.8523 259.637 33.733 259.681 33.5427Z" fill="#132E6B"/>
<path d="M260.382 33.8693C260.533 33.9942 260.757 33.9729 260.881 33.8219C261.006 33.6708 260.985 33.4472 260.834 33.3223C260.683 33.1975 260.459 33.2187 260.334 33.3697C260.21 33.5208 260.231 33.7445 260.382 33.8693Z" fill="#132E6B"/>
</g>
<g opacity="0.5" clip-path="url(#clip8_2578_1629)">
<path d="M320.491 110.124C320.284 110.556 320.467 111.075 320.898 111.282L322.804 112.197C323.236 112.404 323.756 112.221 323.963 111.79L325.141 109.334C325.348 108.902 325.166 108.383 324.734 108.175L322.828 107.261C322.396 107.054 321.876 107.236 321.669 107.668L320.491 110.124ZM323.015 111.759L321.109 110.844C320.919 110.753 320.838 110.524 320.929 110.334L321.139 109.898L323.734 111.143L323.524 111.579C323.433 111.769 323.205 111.85 323.015 111.759ZM322.618 107.699L324.523 108.614C324.713 108.705 324.794 108.934 324.703 109.124L323.944 110.704L321.349 109.459L322.108 107.878C322.199 107.688 322.428 107.608 322.618 107.699V107.699Z" fill="#132E6B"/>
<path d="M332.866 116.465C333.216 116.633 333.637 116.485 333.805 116.135L334.721 114.227C334.888 113.877 334.74 113.455 334.39 113.287C334.315 113.251 334.236 113.23 334.157 113.222C334.212 112.947 334.077 112.659 333.813 112.532L332.98 112.132C332.693 111.995 332.353 112.095 332.183 112.354C332.081 112.187 331.931 112.047 331.743 111.956C331.297 111.742 330.773 111.873 330.475 112.241L329.572 111.808L331.774 109.934C331.8 109.912 331.821 109.884 331.835 109.854L331.836 109.854L332.627 108.204C332.686 108.083 332.635 107.938 332.513 107.88L328.901 106.146C328.78 106.088 328.635 106.139 328.576 106.26L327.785 107.911L327.785 107.911C327.77 107.941 327.762 107.974 327.761 108.009L327.677 110.899L326.8 110.478L326.821 110.436C326.988 110.086 326.84 109.665 326.49 109.497C326.422 109.464 326.351 109.443 326.279 109.434L326.518 108.936C326.753 108.447 326.546 107.858 326.056 107.624L323.402 106.35C323.281 106.292 323.136 106.343 323.078 106.464C323.02 106.585 323.071 106.73 323.192 106.789L325.846 108.062C326.094 108.181 326.198 108.479 326.08 108.726L323.86 113.351L319.337 111.18L321.556 106.555C321.674 106.308 321.972 106.203 322.219 106.322L322.315 106.368C322.436 106.426 322.581 106.375 322.639 106.254C322.697 106.133 322.646 105.988 322.525 105.929L322.43 105.884C321.941 105.649 321.352 105.856 321.117 106.345L320.879 106.843C320.826 106.793 320.766 106.75 320.697 106.717C320.347 106.549 319.926 106.697 319.758 107.047L318.842 108.956C318.674 109.306 318.822 109.727 319.172 109.895C319.241 109.928 319.312 109.948 319.384 109.958L318.898 110.97C318.434 110.758 317.882 110.956 317.661 111.418C317.44 111.879 317.63 112.434 318.086 112.662L316.296 116.393C316.238 116.514 316.289 116.659 316.41 116.717L321.372 119.098C321.493 119.156 321.639 119.105 321.697 118.984L323.487 115.254L325.986 116.453L324.196 120.184C324.138 120.305 324.189 120.45 324.31 120.508L329.272 122.889C329.393 122.947 329.538 122.896 329.596 122.775L330.146 121.63C330.204 121.509 330.153 121.364 330.032 121.306C329.911 121.248 329.765 121.299 329.707 121.42L329.263 122.345L324.739 120.175L326.424 116.664L330.948 118.834L330.128 120.543C330.07 120.664 330.121 120.809 330.242 120.868C330.363 120.926 330.508 120.875 330.566 120.754L331.387 119.044C331.85 119.256 332.402 119.058 332.624 118.597C332.845 118.135 332.654 117.581 332.198 117.352L332.684 116.34C332.736 116.39 332.797 116.432 332.866 116.465V116.465ZM319.673 109.355C319.621 109.463 319.491 109.509 319.383 109.457C319.274 109.405 319.229 109.274 319.281 109.166L320.196 107.258C320.248 107.149 320.379 107.104 320.487 107.155C320.595 107.207 320.641 107.338 320.589 107.446L319.673 109.355ZM334.18 113.726C334.288 113.778 334.334 113.908 334.282 114.016L333.366 115.925C333.315 116.033 333.184 116.079 333.076 116.027C332.968 115.975 332.922 115.845 332.974 115.736L333.89 113.828C333.941 113.72 334.072 113.674 334.18 113.726V113.726ZM332.578 112.638C332.612 112.567 332.698 112.536 332.77 112.571L333.602 112.97C333.674 113.004 333.704 113.09 333.67 113.162L331.76 117.141L330.669 116.618L332.578 112.638ZM331.532 112.394C331.812 112.528 331.93 112.865 331.796 113.144L331.131 114.531C330.997 114.81 330.66 114.929 330.381 114.794C330.101 114.66 329.983 114.324 330.117 114.044L330.782 112.658C330.916 112.378 331.253 112.26 331.532 112.394ZM332.084 108.213L331.502 109.425L328.328 107.902L328.91 106.69L332.084 108.213ZM328.236 108.397L331.174 109.806L329.092 111.578L328.157 111.129L328.236 108.397ZM330.239 112.667L329.784 113.615L326.135 111.864L326.59 110.916L330.239 112.667ZM326.28 109.935C326.388 109.987 326.434 110.117 326.382 110.226L326.257 110.487L325.592 111.873L325.466 112.134C325.414 112.242 325.284 112.288 325.176 112.236C325.068 112.185 325.023 112.056 325.073 111.948L325.991 110.035C326.043 109.928 326.173 109.884 326.28 109.935ZM324.784 112.549C324.836 112.599 324.897 112.642 324.966 112.675C325.316 112.843 325.737 112.694 325.905 112.344L325.925 112.303L329.599 114.066C329.499 114.529 329.725 115.019 330.17 115.233C330.357 115.322 330.557 115.351 330.748 115.328L330.23 116.407L324.299 113.561L324.784 112.549ZM321.363 118.555L316.84 116.384L318.524 112.873L323.048 115.044L321.363 118.555L321.363 118.555ZM332.185 118.387C332.077 118.611 331.807 118.707 331.582 118.599L318.312 112.232C318.087 112.124 317.991 111.853 318.099 111.628C318.207 111.403 318.478 111.308 318.703 111.416L331.973 117.783C332.198 117.891 332.293 118.162 332.185 118.387Z" fill="#132E6B"/>
<path d="M329.616 118.64L327.408 117.58C327.071 117.419 326.665 117.561 326.504 117.898C326.432 118.047 326.421 118.209 326.459 118.358C326.319 118.422 326.199 118.532 326.128 118.681C326.056 118.83 326.045 118.993 326.083 119.142C325.943 119.205 325.823 119.316 325.752 119.465C325.59 119.802 325.733 120.207 326.07 120.369L328.278 121.429C328.615 121.59 329.021 121.448 329.182 121.111C329.254 120.962 329.266 120.799 329.227 120.651C329.367 120.587 329.487 120.476 329.558 120.327C329.63 120.178 329.641 120.016 329.603 119.867C329.743 119.804 329.863 119.693 329.934 119.544C330.096 119.207 329.953 118.802 329.616 118.64ZM327.197 118.019L329.406 119.078C329.501 119.124 329.541 119.238 329.496 119.334C329.45 119.429 329.336 119.469 329.24 119.423L327.032 118.364C326.937 118.318 326.896 118.204 326.942 118.108C326.988 118.013 327.102 117.973 327.197 118.019ZM329.12 120.117C329.074 120.212 328.96 120.252 328.865 120.207L326.656 119.147C326.561 119.101 326.521 118.987 326.566 118.892C326.612 118.797 326.726 118.756 326.822 118.802L329.03 119.862C329.125 119.907 329.165 120.022 329.12 120.117ZM328.489 120.99L326.28 119.931C326.185 119.885 326.145 119.77 326.19 119.675C326.236 119.58 326.35 119.54 326.446 119.586L328.654 120.645C328.749 120.691 328.79 120.805 328.744 120.9C328.698 120.996 328.584 121.036 328.489 120.99Z" fill="#132E6B"/>
</g>
<g clip-path="url(#clip9_2578_1629)">
<path d="M358.201 28.9233L338.761 39.4973C338.572 39.5999 338.502 39.8359 338.605 40.0245C338.708 40.2131 338.944 40.2829 339.132 40.1803L341.704 38.7812L342.431 40.1172C342.534 40.3058 342.77 40.3756 342.958 40.273L353.925 34.3082C354.113 34.2056 354.183 33.9696 354.081 33.781L353.354 32.4449L358.573 29.6062C358.681 29.5477 358.816 29.5876 358.875 29.6954L360.12 31.9848L338.175 43.9205L336.93 41.6311C336.872 41.5234 336.912 41.3881 337.019 41.3295L337.766 40.9231C337.955 40.8206 338.025 40.5845 337.922 40.396C337.819 40.2074 337.583 40.1376 337.395 40.2402L336.648 40.6466C336.164 40.91 335.984 41.5183 336.247 42.0025L341.287 51.2692C341.484 51.6313 341.939 51.7657 342.301 51.5687L343.943 50.6759C344.305 50.4789 344.439 50.024 344.243 49.6619L343.142 47.6391L360.542 38.175L361.643 40.1978C361.84 40.5599 362.295 40.6943 362.657 40.4973L364.298 39.6045C364.66 39.4075 364.795 38.9526 364.598 38.5905L359.557 29.3239C359.294 28.8396 358.686 28.6599 358.201 28.9233V28.9233ZM353.212 33.811L342.928 39.4043L342.387 38.4097L352.671 32.8164L353.212 33.811ZM360.491 32.6676L362.443 36.2562L340.499 48.192L338.547 44.6034L360.491 32.6676ZM343.545 50.0072L341.956 50.8716L340.87 48.8749L342.459 48.0105L343.545 50.0072ZM362.311 39.8002L361.225 37.8035L362.814 36.9392L363.9 38.9358L362.311 39.8002Z" fill="#132E6B"/>
<path d="M351.709 16.4087L333.927 26.0808C333.738 26.1834 333.669 26.4194 333.771 26.608C333.874 26.7966 334.11 26.8663 334.298 26.7637L352.034 17.1172L352.866 18.6471L330.922 30.5829L330.09 29.053L332.933 27.5066C333.121 27.404 333.191 27.168 333.088 26.9794C332.986 26.7908 332.75 26.7211 332.561 26.8237L329.671 28.3957C329.32 28.5864 329.19 29.0268 329.381 29.3774L330.264 31.0013C330.455 31.3519 330.895 31.482 331.246 31.2913L334.723 29.4001L334.954 29.8247C335.283 30.4289 336.042 30.6531 336.646 30.3244L340.387 28.2894L341.36 30.0773C341.603 30.5254 342.166 30.6917 342.614 30.4479L342.986 30.2459L343.749 31.6493L342.106 32.543C341.368 32.9443 341.095 33.8709 341.496 34.6087L341.877 35.3096C341.98 35.4982 342.216 35.5679 342.404 35.4653L350.725 30.9396C350.914 30.837 350.983 30.601 350.881 30.4124L350.499 29.7115C350.098 28.9738 349.172 28.7001 348.434 29.1013L346.791 29.995L346.027 28.5916L346.399 28.3896C346.847 28.1458 347.013 27.5829 346.77 27.1348L345.797 25.3469L349.539 23.3119C350.143 22.9833 350.367 22.2244 350.038 21.6202L349.807 21.1956L353.284 19.3044C353.635 19.1137 353.765 18.6733 353.574 18.3227L352.691 16.6988C352.5 16.3481 352.06 16.2181 351.709 16.4087V16.4087ZM349.817 30.083L350.012 30.4425L342.374 34.5967L342.179 34.2373C341.982 33.8761 342.116 33.4224 342.478 33.226L348.805 29.7842C349.166 29.5878 349.62 29.7218 349.817 30.083ZM346.108 30.3665L344.432 31.2779L343.669 29.8745L345.344 28.9631L346.108 30.3665ZM346.087 27.5063C346.126 27.5778 346.099 27.6677 346.027 27.7067L342.243 29.7651C342.171 29.804 342.081 29.7775 342.042 29.7059L341.07 27.9181L345.114 25.7184L346.087 27.5063L346.087 27.5063ZM349.355 21.9916C349.479 22.2192 349.395 22.5052 349.167 22.629L336.274 29.6415C336.047 29.7653 335.761 29.6809 335.637 29.4532L335.406 29.0287L349.124 21.567L349.355 21.9916Z" fill="#132E6B"/>
<path d="M351.43 41.2621L352.55 40.6528C352.938 40.4422 353.081 39.9556 352.871 39.5683L352.519 38.9209C352.308 38.5336 351.821 38.3899 351.434 38.6006L350.314 39.2099C349.926 39.4206 349.783 39.9071 349.993 40.2944L350.345 40.9417C350.556 41.3291 351.043 41.4728 351.43 41.2621ZM350.676 39.923C350.67 39.9122 350.674 39.8987 350.685 39.8928L351.805 39.2835C351.816 39.2776 351.83 39.2816 351.836 39.2924L352.188 39.9397C352.194 39.9505 352.19 39.964 352.179 39.9699L351.059 40.5792C351.048 40.5851 351.034 40.5811 351.028 40.5703L350.676 39.923Z" fill="#132E6B"/>
<path d="M354.885 39.3834L356.005 38.7741C356.393 38.5634 356.536 38.0769 356.326 37.6895L355.974 37.0422C355.763 36.6549 355.276 36.5112 354.889 36.7219L353.769 37.3312C353.382 37.5419 353.238 38.0284 353.448 38.4157L353.801 39.063C354.011 39.4504 354.498 39.5941 354.885 39.3834ZM354.131 38.0443C354.126 38.0335 354.13 38.02 354.14 38.0141L355.261 37.4048C355.271 37.3989 355.285 37.4029 355.291 37.4137L355.643 38.061C355.649 38.0718 355.645 38.0853 355.634 38.0912L354.514 38.7005C354.503 38.7064 354.489 38.7024 354.483 38.6916L354.131 38.0443Z" fill="#132E6B"/>
<path d="M345.021 43.8493L345.419 43.6334C345.607 43.5308 345.677 43.2947 345.574 43.1062C345.472 42.9176 345.236 42.8478 345.047 42.9504L344.65 43.1664C344.461 43.269 344.392 43.505 344.494 43.6936C344.597 43.8822 344.833 43.9519 345.021 43.8493Z" fill="#132E6B"/>
<path d="M346.852 42.8542L347.249 42.6382C347.437 42.5356 347.507 42.2996 347.404 42.111C347.302 41.9224 347.066 41.8527 346.877 41.9553L346.48 42.1712C346.292 42.2738 346.222 42.5098 346.324 42.6984C346.427 42.887 346.663 42.9568 346.852 42.8542Z" fill="#132E6B"/>
<path d="M348.783 41.8036L349.18 41.5876C349.369 41.485 349.439 41.249 349.336 41.0605C349.233 40.8719 348.997 40.8021 348.809 40.9047L348.412 41.1207C348.223 41.2232 348.153 41.4593 348.256 41.6479C348.359 41.8364 348.595 41.9062 348.783 41.8036Z" fill="#132E6B"/>
</g>
</g>
<defs>
<clipPath id="clip0_2578_1629">
<rect width="13.8242" height="30.9609" fill="white" transform="matrix(0.640752 0.767748 -0.0985563 0.995131 20.0137 23.2539)"/>
</clipPath>
<clipPath id="clip1_2578_1629">
<rect width="27.1977" height="27.1977" fill="white" transform="translate(32.5996 23) rotate(30)"/>
</clipPath>
<clipPath id="clip2_2578_1629">
<rect width="18.6832" height="18.6832" fill="white" transform="translate(70 118.697) rotate(-24.3299)"/>
</clipPath>
<clipPath id="clip3_2578_1629">
<rect width="21.0989" height="21.0989" fill="white" transform="translate(145 18.6925) rotate(-24.3299)"/>
</clipPath>
<clipPath id="clip4_2578_1629">
<rect width="26.0531" height="26.0531" fill="white" transform="translate(369.486 125) rotate(19.0079)"/>
</clipPath>
<clipPath id="clip5_2578_1629">
<rect width="11.8599" height="11.8599" fill="white" transform="translate(36.8633 156) rotate(19.0079)"/>
</clipPath>
<clipPath id="clip6_2578_1629">
<rect width="20" height="20" fill="white" transform="translate(207 147)"/>
</clipPath>
<clipPath id="clip7_2578_1629">
<rect width="20.9349" height="20.9349" fill="white" transform="translate(259.338 22.8791) rotate(39.5767)"/>
</clipPath>
<clipPath id="clip8_2578_1629">
<rect width="16.5958" height="16.5958" fill="white" transform="translate(322.18 102) rotate(25.6322)"/>
</clipPath>
<clipPath id="clip9_2578_1629">
<rect width="26.5351" height="26.5351" fill="white" transform="translate(329 28.6787) rotate(-28.5422)"/>
</clipPath>
</defs>
</svg>
