<svg width="55" height="55" viewBox="0 0 55 55" fill="none" xmlns="http://www.w3.org/2000/svg">
<g clip-path="url(#clip0_2098_3098)">
<path d="M43.9936 27.9194C43.6807 27.5022 43.0889 27.4176 42.6716 27.7305C42.4712 27.8809 42.3387 28.1047 42.3034 28.3528L41.7793 32.0259C41.7667 32.0731 41.7502 32.1191 41.7302 32.1637C42.6932 30.885 43.4704 29.4763 44.0389 27.9798L43.9936 27.9194Z" fill="white"/>
<path d="M40.8436 32.836C40.7991 32.836 40.7546 32.8332 40.7104 32.8275L35.1017 32.0259C34.5854 31.9518 34.227 31.4735 34.301 30.9572C34.301 30.9571 34.301 30.9571 34.301 30.957L34.825 27.2839C34.8981 26.7675 34.5388 26.2898 34.0225 26.2167C33.7754 26.1818 33.5245 26.246 33.3247 26.3954L30.356 28.6209C29.9388 28.9338 29.347 28.8493 29.0341 28.4321L25.6348 23.8998C25.3219 23.4826 25.4064 22.8908 25.8237 22.5779L28.7914 20.3523C29.2086 20.0394 29.2931 19.4476 28.9803 19.0304C28.8299 18.83 28.6061 18.6974 28.358 18.6621L24.6849 18.1371C24.1687 18.0637 23.8096 17.5856 23.8832 17.0693C23.8832 17.069 23.8833 17.0686 23.8833 17.0683L24.6849 11.4605C24.7584 10.9442 25.2365 10.5852 25.7527 10.6587C25.7531 10.6587 25.7535 10.6588 25.7538 10.6588L29.4269 11.1838C29.8047 11.2386 30.178 11.0589 30.3711 10.7296C30.5716 10.4023 30.5491 9.98521 30.3144 9.68152L28.0908 6.71474C27.7779 6.29751 27.8624 5.70571 28.2796 5.39282L28.815 4.99152C27.9477 4.94962 27.0784 4.97287 26.2146 5.06139C16.8884 6.12625 10.1914 14.5499 11.2563 23.8761C11.8364 28.9566 14.6731 33.5059 18.9799 36.2626C20.5523 37.2375 21.518 38.9478 21.5406 40.7978V44.6134C21.5406 46.1779 22.8089 47.4461 24.3733 47.4461H31.9272C33.4917 47.4461 34.7599 46.1779 34.7599 44.6134V40.8761C34.7839 38.9827 35.7694 37.2316 37.3754 36.2286C38.864 35.2629 40.1934 34.0715 41.3157 32.6972C41.1734 32.7844 41.0105 32.8323 40.8436 32.836ZM29.0945 44.6134H27.206V41.7807H29.0945V44.6134ZM27.206 39.8923C27.2054 37.3957 25.666 35.1579 23.3347 34.2646C16.5352 31.6059 13.1784 23.9386 15.8371 17.1391C16.8666 14.5062 18.713 12.2727 21.1054 10.7664L22.1072 12.3641C16.8106 15.6969 15.2188 22.6922 18.5516 27.9888C19.8428 30.0408 21.7583 31.6247 24.0164 32.5074C27.0767 33.6779 29.0969 36.6158 29.0945 39.8923H27.206Z" fill="white"/>
<path d="M24.3734 52.1674V53.1116C24.3734 54.1546 25.2188 55.0001 26.2618 55.0001H30.0387C31.0818 55.0001 31.9272 54.1546 31.9272 53.1116V52.1674H24.3734Z" fill="white"/>
<path d="M18.47 37.0596C17.9105 36.6969 17.3717 36.3031 16.8563 35.8802C15.4309 38.6551 12.026 39.749 9.25111 38.3237C7.36241 37.3535 6.1774 35.406 6.18365 33.2826C6.18802 30.4279 8.31408 28.0215 11.1465 27.6654C10.8 26.6232 10.5497 25.5514 10.3987 24.4635L10.2335 25.2491C10.0189 26.2697 9.01741 26.9231 7.99682 26.7085C7.75238 26.6572 7.52057 26.5578 7.31484 26.4162L5.35084 25.0678L3.63045 26.7844L4.98259 28.7503C5.57439 29.6091 5.35792 30.7851 4.49914 31.3769C4.29318 31.5188 4.06114 31.6184 3.81646 31.6699L1.46249 32.1656V34.4091L3.81646 34.9048C4.83706 35.1198 5.49023 36.1213 5.2753 37.1419C5.22372 37.387 5.12387 37.6193 4.98165 37.8253L3.63045 39.7808L5.35084 41.4975L7.31296 40.1453C8.17173 39.5535 9.34778 39.77 9.93957 40.6288C10.0814 40.8347 10.1811 41.0668 10.2325 41.3114L10.7273 43.6692H12.9717L13.4665 41.3152C13.6813 40.2946 14.6828 39.6413 15.7034 39.8561C15.9481 39.9076 16.1801 40.0072 16.3861 40.1491L18.3473 41.4975L20.3726 39.4721C20.0331 38.474 19.3615 37.6224 18.47 37.0596Z" fill="white"/>
<path d="M31.9272 48.3904H24.3734V50.2788H31.9272V48.3904Z" fill="white"/>
<path d="M51.7268 16.278C50.1782 16.0566 49.1022 14.6215 49.3236 13.0728C49.43 12.3291 49.8274 11.6581 50.4285 11.2075L52.6408 9.54751L50.3747 6.52597L48.1623 8.18499C46.911 9.12403 45.1354 8.87074 44.1965 7.61951C43.7462 7.01945 43.5522 6.26513 43.6574 5.52225L44.0483 2.78398L40.3101 2.25049L39.9192 4.98876C39.6977 6.53742 38.2627 7.61337 36.714 7.39195C35.9703 7.28561 35.2993 6.8882 34.8487 6.28708L33.1887 4.07097L30.1672 6.33713L31.8262 8.54946C32.765 9.80092 32.5116 11.5764 31.2601 12.5154C30.6588 12.9665 29.9029 13.16 29.1587 13.0534L26.4204 12.6625L25.8841 16.4017L28.6224 16.7926C30.1711 17.0141 31.247 18.4491 31.0256 19.9978C30.9192 20.7415 30.5218 21.4125 29.9207 21.8631L27.7093 23.5231L29.9755 26.5446L32.1878 24.8856C33.4393 23.9468 35.2148 24.2002 36.1537 25.4517C36.6048 26.053 36.7984 26.809 36.6918 27.5531L36.3009 30.2914L40.0476 30.8277L40.4385 28.0894C40.6601 26.5407 42.0951 25.4648 43.6437 25.6862C44.3874 25.7926 45.0584 26.19 45.5091 26.7911L47.169 29.0025L50.1906 26.7363L48.5259 24.5202C47.5874 23.2685 47.8413 21.493 49.093 20.5545C49.6931 20.1046 50.447 19.9111 51.1896 20.0162L53.9278 20.4071L54.4613 16.6689L51.7268 16.278ZM40.176 22.2012C37.0471 22.2012 34.5106 19.6647 34.5106 16.5358C34.5106 13.4068 37.0471 10.8704 40.176 10.8704C43.305 10.8704 45.8414 13.4068 45.8414 16.5358C45.8378 19.6632 43.3034 22.1975 40.176 22.2012Z" fill="white"/>
<path d="M52.7003 35.1711H46.0907V37.0596H52.7003V35.1711Z" fill="white"/>
<path d="M45.751 40.1105L44.5422 41.5614L50.208 46.2818L51.4168 44.8309L45.751 40.1105Z" fill="white"/>
<path d="M42.3138 42.725H40.4253V49.3346H42.3138V42.725Z" fill="white"/>
<path d="M8.09157 14.4258L0.538239 16.314L0.995962 18.1451L8.54929 16.2569L8.09157 14.4258Z" fill="white"/>
<path d="M3.20372 5.13283L2.10669 6.6687L8.71579 11.3894L9.81282 9.8535L3.20372 5.13283Z" fill="white"/>
<path d="M12.0266 -0.0006097L10.197 0.467163L12.1282 8.02044L13.9578 7.55267L12.0266 -0.0006097Z" fill="white"/>
</g>
<defs>
<clipPath id="clip0_2098_3098">
<rect width="55" height="55" fill="white"/>
</clipPath>
</defs>
</svg>
