<svg width="17" height="17" viewBox="0 0 17 17" fill="none" xmlns="http://www.w3.org/2000/svg">
<path d="M0.796875 6.89062C0.796875 7.75 0.958333 8.55729 1.28125 9.3125C1.60417 10.0625 2.05208 10.724 2.625 11.2969C3.19792 11.8698 3.85938 12.3177 4.60938 12.6406C5.36458 12.9635 6.17188 13.125 7.03125 13.125C7.70833 13.125 8.35417 13.0208 8.96875 12.8125C9.58333 12.6042 10.1458 12.3177 10.6562 11.9531L14.5 15.8047C14.5938 15.8932 14.6953 15.9583 14.8047 16C14.9193 16.0469 15.0391 16.0703 15.1641 16.0703C15.3411 16.0703 15.4974 16.0286 15.6328 15.9453C15.7682 15.8672 15.8724 15.7578 15.9453 15.6172C16.0234 15.4766 16.0625 15.3203 16.0625 15.1484C16.0625 15.0234 16.0391 14.9062 15.9922 14.7969C15.9505 14.6875 15.888 14.5911 15.8047 14.5078L11.9844 10.6641C12.3854 10.1432 12.6979 9.5625 12.9219 8.92188C13.151 8.28125 13.2656 7.60417 13.2656 6.89062C13.2656 6.03125 13.1042 5.22656 12.7812 4.47656C12.4583 3.72135 12.0104 3.05729 11.4375 2.48438C10.8646 1.91146 10.2005 1.46354 9.44531 1.14062C8.69531 0.817708 7.89062 0.65625 7.03125 0.65625C6.17188 0.65625 5.36458 0.817708 4.60938 1.14062C3.85938 1.46354 3.19792 1.91146 2.625 2.48438C2.05208 3.05729 1.60417 3.72135 1.28125 4.47656C0.958333 5.22656 0.796875 6.03125 0.796875 6.89062ZM2.13281 6.89062C2.13281 6.21354 2.25781 5.58073 2.50781 4.99219C2.76302 4.39844 3.11458 3.8776 3.5625 3.42969C4.01562 2.97656 4.53646 2.625 5.125 2.375C5.71875 2.11979 6.35417 1.99219 7.03125 1.99219C7.70833 1.99219 8.34115 2.11979 8.92969 2.375C9.52344 2.625 10.0443 2.97656 10.4922 3.42969C10.9401 3.8776 11.2917 4.39844 11.5469 4.99219C11.8021 5.58073 11.9297 6.21354 11.9297 6.89062C11.9297 7.56771 11.8021 8.20312 11.5469 8.79688C11.2917 9.38542 10.9401 9.90365 10.4922 10.3516C10.0443 10.7995 9.52344 11.151 8.92969 11.4062C8.34115 11.6615 7.70833 11.7891 7.03125 11.7891C6.35417 11.7891 5.71875 11.6615 5.125 11.4062C4.53646 11.151 4.01562 10.7995 3.5625 10.3516C3.11458 9.90365 2.76302 9.38542 2.50781 8.79688C2.25781 8.20312 2.13281 7.56771 2.13281 6.89062Z" fill="#202634"/>
</svg>
