<svg width="18" height="18" viewBox="0 0 18 18" fill="none" xmlns="http://www.w3.org/2000/svg">
<path d="M17.3669 0.217449C17.2698 0.116704 17.1472 0.046952 17.0135 0.0163941C16.8797 -0.0141638 16.7403 -0.00425713 16.6118 0.0449493L0.789853 6.04495C0.653402 6.09892 0.535925 6.19491 0.453026 6.32016C0.370127 6.44542 0.325729 6.59401 0.325729 6.7462C0.325729 6.89839 0.370127 7.04698 0.453026 7.17223C0.535925 7.29749 0.653402 7.39348 0.789853 7.44745L6.96759 10.0199L11.5272 5.24995L12.5412 6.30745L7.96006 11.0849L10.434 17.5275C10.4873 17.667 10.5796 17.7866 10.6988 17.8709C10.8181 17.9551 10.9588 18.0001 11.1029 17.9999C11.2482 17.9968 11.3892 17.9479 11.5073 17.8595C11.6255 17.7711 11.7151 17.6475 11.7645 17.5049L17.5179 1.00495C17.5669 0.872257 17.5788 0.727772 17.552 0.588342C17.5253 0.448912 17.4611 0.320282 17.3669 0.217449Z" fill="white"/>
</svg>
