<svg width="82" height="82" viewBox="0 0 82 82" fill="none" xmlns="http://www.w3.org/2000/svg">
<g clip-path="url(#clip0_2360_1438)">
<path d="M49.4561 26.7368L52.6859 34.8298L52.6982 34.8421L54.3683 39.0176H74.0175L78.9297 26.7368H49.4561Z" fill="#EDEEFF"/>
<path d="M56.8244 52.5263H71.5613C72.2395 52.5263 72.7893 51.9765 72.7893 51.2983V47.614H75.2455C75.9237 47.614 76.4735 47.0642 76.4735 46.386V42.7018C76.4735 42.0235 75.9237 41.4737 75.2455 41.4737H53.1402C52.4619 41.4737 51.9121 42.0235 51.9121 42.7018V46.386C51.9121 47.0642 52.4619 47.614 53.1402 47.614H55.5963V51.2983C55.5963 51.9765 56.1462 52.5263 56.8244 52.5263Z" fill="#EDEEFF"/>
<path d="M62.9647 65.114V67.2632C62.9647 67.9414 63.5146 68.4912 64.1928 68.4912C64.871 68.4912 65.4209 67.9414 65.4209 67.2632V65.114L69.1051 62.3509V54.9825H59.2805V62.3509L62.9647 65.114Z" fill="#EDEEFF"/>
<path d="M80.1579 12H48.2281C47.5498 12 47 12.5498 47 13.2281V23.0526C47.0032 23.4983 47.2476 23.9072 47.6386 24.121C48.0193 24.3667 46.1526 24.2807 80.1579 24.2807C80.8362 24.2807 81.386 23.7309 81.386 23.0526V13.2281C81.386 12.5498 80.8362 12 80.1579 12ZM76.4737 18.1403H59.2807C58.6025 18.1403 58.0526 17.5905 58.0526 16.9123C58.0526 16.234 58.6025 15.6842 59.2807 15.6842H76.4737C77.1519 15.6842 77.7018 16.234 77.7018 16.9123C77.7018 17.5905 77.1519 18.1403 76.4737 18.1403Z" fill="#EDEEFF"/>
<path d="M47.2332 31.1825L46.3367 26.2702C45.5872 25.8215 45.028 25.1137 44.7648 24.2807H37.9982C37.3976 24.2709 36.8781 24.6969 36.7701 25.2877L35.7017 31.1825C39.4778 30.1622 43.4571 30.1622 47.2332 31.1825Z" fill="#EDEEFF"/>
<path d="M21.2105 53.1404C21.2 62.0238 26.9804 69.877 35.4657 72.5071C43.9509 75.1373 53.1596 71.9302 58.1754 64.5983L56.8245 63.579V54.9825C54.7898 54.9825 53.1403 53.333 53.1403 51.2983V50.0702C51.1056 50.0702 49.4561 48.4207 49.4561 46.386V42.7018C49.4625 41.1797 50.4043 39.8183 51.8263 39.2754L50.021 34.7684C43.745 31.8631 36.4213 32.3549 30.5901 36.0733C24.759 39.7918 21.2237 46.2245 21.2105 53.1404ZM37.1754 36.5614C37.8536 36.5614 38.4034 37.1112 38.4034 37.7895C38.4034 38.4677 37.8536 39.0175 37.1754 39.0175C36.4971 39.0175 35.9473 38.4677 35.9473 37.7895C35.9473 37.1112 36.4971 36.5614 37.1754 36.5614ZM41.4736 47.614C44.5257 47.614 46.9999 50.0883 46.9999 53.1404C46.9999 56.1925 44.5257 58.6667 41.4736 58.6667C38.4215 58.6667 35.9473 56.1925 35.9473 53.1404C35.9541 50.0911 38.4243 47.6208 41.4736 47.614ZM32.9385 39.1526C33.333 38.9153 33.827 38.9185 34.2184 39.1609C34.6097 39.4033 34.8326 39.8442 34.7958 40.303C34.7591 40.7619 34.4688 41.1616 34.0438 41.3386C29.721 43.5 27.3508 47.9088 27.3508 53.7544C27.3508 54.4326 26.801 54.9825 26.1227 54.9825C25.4445 54.9825 24.8947 54.4326 24.8947 53.7544C24.8947 46.9263 27.7561 41.7439 32.9385 39.1526Z" fill="#EDEEFF"/>
<path d="M37.9983 82H44.9491C45.5497 82.0098 46.0692 81.5838 46.1772 80.993L47.2456 75.0982C43.4733 76.1163 39.4986 76.1163 35.7263 75.0982L36.7947 80.993C36.9012 81.5746 37.407 81.9978 37.9983 82Z" fill="#EDEEFF"/>
<path d="M21.8736 64.586L18.4596 69.4982C18.1277 69.986 18.1896 70.6409 18.607 71.0579L23.5192 75.9702C23.9393 76.3837 24.594 76.4404 25.0789 76.1053L29.9912 72.6912C26.6429 70.7201 23.8498 67.9312 21.8736 64.586Z" fill="#EDEEFF"/>
<path d="M53.5701 72.3351L59.0841 76.1544C59.5719 76.4863 60.2268 76.4244 60.6438 76.007C65.9245 70.6526 65.8017 70.9596 65.8753 70.5421C64.733 71.1285 63.3678 71.0778 62.272 70.4083C61.1763 69.7389 60.5082 68.5472 60.5087 67.2632V66.3421L60.1157 66.0351C58.3815 68.5555 56.1549 70.6985 53.5701 72.3351Z" fill="#EDEEFF"/>
<path d="M23.5315 30.2737L18.6192 35.186C18.2057 35.606 18.149 36.2607 18.4841 36.7456L21.8982 41.6579C23.8781 38.2901 26.6848 35.4834 30.0526 33.5035L25.1403 30.0895C24.6338 29.7386 23.9456 29.8174 23.5315 30.2737Z" fill="#EDEEFF"/>
<path d="M12.6139 49.6649V56.6158C12.6041 57.2163 13.0301 57.7358 13.621 57.8439L19.5157 58.9123C18.4976 55.14 18.4976 51.1653 19.5157 47.393L13.621 48.4614C13.0393 48.5678 12.6161 49.0736 12.6139 49.6649Z" fill="#EDEEFF"/>
</g>
<g clip-path="url(#clip1_2360_1438)">
<path d="M30.2543 47.4576C34.5135 47.4576 37.9662 44.0049 37.9662 39.7458C37.9662 35.4866 34.5135 32.0339 30.2543 32.0339C25.9952 32.0339 22.5425 35.4866 22.5425 39.7458C22.549 44.0022 25.9979 47.4511 30.2543 47.4576ZM30.2543 34.4068C33.203 34.4068 35.5933 36.7971 35.5933 39.7458C35.5933 42.6944 33.203 45.0847 30.2543 45.0847C27.3057 45.0847 24.9154 42.6944 24.9154 39.7458C24.9219 36.7998 27.3084 34.4133 30.2543 34.4068Z" fill="#B1B2F2"/>
<path d="M2.91864 32.8881C1.20627 33.2012 -0.0283986 34.7069 -8.56418e-06 36.4474V43.1627C-0.0283986 44.9032 1.20627 46.4089 2.91864 46.722L9.85931 47.9796C9.9305 48.1695 10.0136 48.3593 10.0966 48.5373L6.07457 54.2203C5.09619 55.6362 5.27102 57.5493 6.48982 58.7644L11.2356 63.5102C12.4537 64.7252 14.3665 64.895 15.7797 63.9135L21.5813 59.8915L22.139 60.1288L23.3966 67.0695C23.7097 68.7818 25.2154 70.0165 26.9559 69.9881H33.6712C35.4117 70.0165 36.9174 68.7818 37.2305 67.0695L38.4881 60.1288L39.0458 59.8915L44.8475 63.9135C46.2633 64.8919 48.1764 64.7171 49.3915 63.4983L53.2119 59.6898C53.6902 59.2377 53.7114 58.4834 53.2593 58.0051C52.8072 57.5267 52.0529 57.5055 51.5746 57.9576L47.7068 61.8254C47.3039 62.2287 46.6712 62.2884 46.2 61.9678L41.4542 58.6695C44.2037 57.0485 46.5615 54.8406 48.3593 52.2034C48.7263 51.6595 48.5828 50.9212 48.039 50.5542C47.4951 50.1873 46.7568 50.3307 46.3898 50.8746C40.7572 59.0804 29.8639 61.7537 21.0724 57.0876C12.2809 52.4215 8.38997 41.9015 12.0294 32.6377C15.6688 23.3739 25.68 18.3155 35.2966 20.8813C35.7078 20.9873 36.1442 20.8659 36.4416 20.5628C36.7389 20.2597 36.852 19.821 36.7382 19.4119C36.6244 19.0029 36.301 18.6856 35.8898 18.5796C32.2208 17.6307 28.3707 17.6307 24.7017 18.5796L25.722 12.8966C25.8264 12.3258 26.3283 11.9143 26.9085 11.9237H30.8475C31.5027 11.9237 32.0339 11.3925 32.0339 10.7373C32.0339 10.082 31.5027 9.55083 30.8475 9.55083H26.8966C25.1561 9.52244 23.6504 10.7571 23.3373 12.4695L22.0797 19.4102L21.522 19.6474L15.7797 15.5661C14.3638 14.5877 12.4507 14.7625 11.2356 15.9813L6.48982 20.7271C5.27477 21.9452 5.10497 23.8581 6.08643 25.2712L10.1085 31.0729C10.0254 31.2508 9.94236 31.4407 9.87118 31.6305L2.91864 32.8881ZM2.37287 43.1034V36.3881C2.36341 35.8079 2.77497 35.306 3.34575 35.2017L9.01694 34.1813C8.06768 37.8222 8.06768 41.6456 9.01694 45.2864L3.34575 44.2661C2.78384 44.1633 2.37497 43.6746 2.37287 43.1034ZM35.8068 60.983L34.7864 66.6542C34.6821 67.225 34.1802 67.6366 33.6 67.6271H26.8966C26.3164 67.6366 25.8145 67.225 25.7102 66.6542L24.6898 60.983C28.3337 61.9402 32.1629 61.9402 35.8068 60.983ZM19.1966 58.6932L14.4508 61.9797C13.9823 62.3034 13.3499 62.2486 12.9441 61.8491L8.1983 57.1034C7.79505 56.7005 7.73527 56.0679 8.05592 55.5966L11.3424 50.8508C13.2433 54.0922 15.9434 56.7923 19.1847 58.6932H19.1966ZM8.15084 22.4118L12.8966 17.6661C13.2995 17.2628 13.9321 17.2031 14.4034 17.5237L19.1491 20.8102C15.8903 22.7162 13.1772 25.4293 11.2712 28.6881L7.98474 23.9424C7.65667 23.4606 7.72707 22.812 8.15084 22.4118Z" fill="#B1B2F2"/>
<path d="M67.6273 0H36.7798C35.4693 0 34.4069 1.06238 34.4069 2.37288V13.0508C34.3961 13.8947 34.8526 14.6754 35.5934 15.0797C36.0719 15.364 36.63 15.4847 37.1832 15.4237C40.5883 23.9542 39.8052 21.9729 41.0154 24.9864C39.9332 25.2246 39.16 26.1801 39.1527 27.2881V30.8475C39.1527 32.158 40.2151 33.2203 41.5256 33.2203H42.712V36.7797C42.712 38.0902 43.7744 39.1525 45.0849 39.1525H46.2713V46.2712C46.2713 46.6446 46.4472 46.9963 46.7459 47.2203L51.0171 50.4237V54.5763C51.0171 55.2315 51.5483 55.7627 52.2035 55.7627C52.8588 55.7627 53.39 55.2315 53.39 54.5763V50.4237L57.6612 47.2203C57.9599 46.9963 58.1357 46.6446 58.1357 46.2712V39.1525H59.3222C60.6327 39.1525 61.6951 38.0902 61.6951 36.7797V33.2203H62.8815C64.192 33.2203 65.2544 32.158 65.2544 30.8475V27.2881C65.2496 26.1872 64.4881 25.2341 63.4154 24.9864L67.2476 15.4237H67.6273C68.9378 15.4237 70.0001 14.3614 70.0001 13.0508V2.37288C70.0001 1.06238 68.9378 0 67.6273 0V0ZM55.7629 45.678L52.2035 48.3475L48.6442 45.678V39.1525H55.7629V45.678ZM62.8815 30.8475H52.2035C51.5483 30.8475 51.0171 31.3786 51.0171 32.0339C51.0171 32.6892 51.5483 33.2203 52.2035 33.2203H59.3222V36.7797H45.0849V33.2203H47.4578C48.113 33.2203 48.6442 32.6892 48.6442 32.0339C48.6442 31.3786 48.113 30.8475 47.4578 30.8475H41.5256V27.2881H62.8815V30.8475ZM60.8883 24.9153H43.5188L39.7222 15.4237H64.6374L60.8883 24.9153ZM67.6273 13.0508H36.7798V2.37288H67.6273V13.0508Z" fill="#B1B2F2"/>
<path d="M40.339 7.11864H42.7119C43.3672 7.11864 43.8984 6.58745 43.8984 5.9322C43.8984 5.27695 43.3672 4.74576 42.7119 4.74576H40.339C39.6838 4.74576 39.1526 5.27695 39.1526 5.9322C39.1526 6.58745 39.6838 7.11864 40.339 7.11864Z" fill="#B1B2F2"/>
<path d="M47.4577 7.11864H64.0678C64.7231 7.11864 65.2543 6.58745 65.2543 5.9322C65.2543 5.27695 64.7231 4.74576 64.0678 4.74576H47.4577C46.8024 4.74576 46.2712 5.27695 46.2712 5.9322C46.2712 6.58745 46.8024 7.11864 47.4577 7.11864Z" fill="#B1B2F2"/>
</g>
<defs>
<clipPath id="clip0_2360_1438">
<rect width="70" height="70" fill="white" transform="translate(12 12)"/>
</clipPath>
<clipPath id="clip1_2360_1438">
<rect width="70" height="70" fill="white"/>
</clipPath>
</defs>
</svg>
