<svg width="16" height="16" viewBox="0 0 16 16" fill="none" xmlns="http://www.w3.org/2000/svg">
<path d="M5.59998 0H1.60001C0.716812 0 0 0.718387 0 1.60001V5.60002C0 6.4824 0.716812 7.19999 1.60001 7.19999H5.60002C6.48318 7.19999 7.19999 6.48239 7.19999 5.59998V1.60001C7.19999 0.718387 6.48318 0 5.59998 0ZM5.59758 5.59998H1.60001V1.60001H5.60002L5.59758 5.59998Z" fill="#132E6B"/>
<path d="M14.4 0H10.4C9.51677 0 8.79996 0.718387 8.79996 1.60001V5.60002C8.79996 6.48243 9.51677 7.20003 10.4 7.20003H14.4C15.2832 7.20003 16 6.48243 16 5.60002V1.60001C16 0.718387 15.2832 0 14.4 0ZM14.3976 5.59998H10.4V1.60001H14.4L14.3976 5.59998Z" fill="#132E6B"/>
<path d="M5.59998 8.8H1.60001C0.716812 8.8 0 9.51839 0 10.4V14.4C0 15.2824 0.716812 16 1.60001 16H5.60002C6.48318 16 7.19999 15.2824 7.19999 14.4V10.4C7.19999 9.51839 6.48318 8.8 5.59998 8.8ZM5.59758 14.4H1.60001V10.4H5.60002L5.59758 14.4Z" fill="#132E6B"/>
<path d="M14.4 8.8H10.4C9.51677 8.8 8.79996 9.51839 8.79996 10.4V14.4C8.79996 15.2824 9.51677 16 10.4 16H14.4C15.2832 16 16 15.2824 16 14.4V10.4C16 9.51839 15.2832 8.8 14.4 8.8ZM14.3976 14.4H10.4V10.4H14.4L14.3976 14.4Z" fill="#132E6B"/>
</svg>
