<?xml version="1.0" encoding="UTF-8"?>
<!DOCTYPE svg PUBLIC "-//W3C//DTD SVG 1.1//EN" "http://www.w3.org/Graphics/SVG/1.1/DTD/svg11.dtd">
<!-- Creator: CorelDRAW 2021 (64-Bit) -->
<svg xmlns="http://www.w3.org/2000/svg" xml:space="preserve" width="674.588mm" height="330.433mm" version="1.1" style="shape-rendering:geometricPrecision; text-rendering:geometricPrecision; image-rendering:optimizeQuality; fill-rule:evenodd; clip-rule:evenodd"
viewBox="0 0 27935.66 13683.72"
 xmlns:xlink="http://www.w3.org/1999/xlink"
 xmlns:xodm="http://www.corel.com/coreldraw/odm/2003">
 <defs>
  <style type="text/css">
   <![CDATA[
    .fil2 {fill:none}
    .fil0 {fill:#333333}
    .fil1 {fill:#E89900}
   ]]>
  </style>
   <clipPath id="id0">
    <path d="M-0 0l27935.66 0 0 13683.72 -27935.66 0 0 -13683.72z"/>
   </clipPath>
 </defs>
 <g id="Layer_x0020_1">
  <metadata id="CorelCorpID_0Corel-Layer"/>
  <polygon class="fil0" points="-0,0 27935.66,0 27935.66,13683.72 -0,13683.72 "/>
  <g style="clip-path:url(#id0)">
   <g id="_2427848595184">
    <path id="_1" class="fil1" d="M13849.25 -243.81c32.91,315.54 72.34,887.76 161.03,1391.16 88.7,503.41 226.67,938 394.21,1282.06 167.53,344.05 364.64,597.57 568.31,829.35 203.67,231.79 413.92,441.84 601.17,593.95 187.25,152.11 351.5,246.27 640.59,427.35 289.09,181.08 703.01,449.09 1317.31,854.71 614.31,405.63 1429,948.87 1944.75,1477.62 515.75,528.76 732.56,1043.03 824.55,1560.92 91.98,517.9 59.13,1039.42 73.25,1712.11 14.11,672.7 75.2,1496.59 328.15,2134 252.95,637.41 697.76,1088.34 916.89,1306.56 219.12,218.22 212.55,203.74 334.1,370.33 121.55,166.6 371.21,514.27 1474.99,720.7 1103.78,206.44 3061.67,271.63 4668.07,257.14 1606.39,-14.49 2861.29,-108.65 3317.91,-1919.47 456.62,-1810.82 114.97,-5338.29 -167.54,-7891.54 -282.52,-2553.25 -505.9,-4132.28 -1034.79,-4990.62 -528.89,-858.32 -1363.3,-995.95 -2388.24,-1035.79 -1024.94,-39.84 -2240.41,18.11 -4345.97,70.32 -2105.56,52.21 -5101.21,98.67 -6868.64,167.02 -1767.43,68.35 -2306.63,158.6 -2563.02,233.15 -256.4,74.55 -229.99,133.42 -197.07,448.95z"/>
    <circle class="fil1" cx="12718.99" cy="5261.15" r="819.83"/>
    <path class="fil1" d="M18342.94 10696.12l0 -0c382.29,-135.54 805.96,66.32 941.51,448.61l5200.03 14665.69c135.55,382.29 -66.33,805.96 -448.61,941.51l-0 0c-382.28,135.55 -805.96,-66.32 -941.51,-448.61l-5200.03 -14665.69c-135.55,-382.29 66.32,-805.96 448.61,-941.51z"/>
    <path class="fil1" d="M13941.67 7097.04l0 -0c383.11,-133.21 805.54,71.25 938.75,454.36l5110.3 14697.2c133.21,383.11 -71.25,805.54 -454.36,938.75l0 0c-383.11,133.21 -805.54,-71.25 -938.75,-454.36l-5110.29 -14697.2c-133.21,-383.11 71.25,-805.54 454.36,-938.75z"/>
    <path class="fil1" d="M6308.24 -12703.39l0 -0c383.11,-133.21 805.54,71.25 938.75,454.36l5110.3 14697.2c133.21,383.11 -71.25,805.54 -454.36,938.75l0 0c-383.11,133.21 -805.54,-71.25 -938.75,-454.36l-5110.29 -14697.2c-133.21,-383.11 71.25,-805.54 454.36,-938.75z"/>
    <path class="fil1" d="M2800.98 -14235.97l0 -0c383.11,-133.21 805.54,71.25 938.75,454.36l5110.3 14697.2c133.21,383.11 -71.25,805.54 -454.36,938.75l0 0c-383.11,133.21 -805.54,-71.25 -938.75,-454.36l-5110.29 -14697.2c-133.21,-383.11 71.25,-805.54 454.36,-938.75z"/>
   </g>
  </g>
  <polygon class="fil2" points="-0,0 27935.66,0 27935.66,13683.72 -0,13683.72 "/>
 </g>
</svg>
