<?xml version="1.0" encoding="UTF-8"?>
<!DOCTYPE svg PUBLIC "-//W3C//DTD SVG 1.1//EN" "http://www.w3.org/Graphics/SVG/1.1/DTD/svg11.dtd">
<!-- Creator: CorelDRAW 2021 (64-Bit) -->
<svg xmlns="http://www.w3.org/2000/svg" xml:space="preserve" width="20.6836mm" height="21.6433mm" version="1.1" style="shape-rendering:geometricPrecision; text-rendering:geometricPrecision; image-rendering:optimizeQuality; fill-rule:evenodd; clip-rule:evenodd"
viewBox="0 0 48.29 50.53"
 xmlns:xlink="http://www.w3.org/1999/xlink"
 xmlns:xodm="http://www.corel.com/coreldraw/odm/2003">
 <defs>
  <style type="text/css">
   <![CDATA[
    .str0 {stroke:#FFE600;stroke-width:0.47;stroke-miterlimit:22.9256}
    .fil0 {fill:#333333}
    .fil1 {fill:#FFE600}
   ]]>
  </style>
 </defs>
 <g id="Layer_x0020_1">
  <metadata id="CorelCorpID_0Corel-Layer"/>
  <ellipse class="fil0" transform="matrix(0.20268 -0 -0.0473599 0.259485 24.1443 25.2646)" rx="116.91" ry="97.36"/>
  <path class="fil1 str0" d="M15.37 29.29c-0.2,-1.14 -1.5,-2.63 -2.71,-2.8 0.19,0.27 3.06,3.26 0.68,4.68 -1.31,0.78 -4.78,0.43 -6.39,0.17 -0.25,0.7 -0.27,0.39 0.04,1.13 0.68,2.04 6.59,1.57 8.19,1.06 2.21,-0.7 5.28,1.83 8.57,-0.59 1.76,1.53 4.65,1.06 6.97,0.57 1.32,-0.27 1.28,0.12 2.4,0.3 2.64,0.42 9.24,0.35 6.89,-3.41 -1.08,0.14 -2.17,0.74 -3.35,0.83 -1.75,0.12 -1.63,-0.62 -2.28,-1.61l-1.21 1.04c0.55,-1.59 0.97,-2.03 0.83,-4.15l-0.89 -0.83c-0.33,0.91 -0.25,1.76 -0.79,2.73 -1.33,2.37 -4.74,3.35 -7.1,2.18 0.31,-1.8 0.35,-1.69 0.06,-3.6 0,-1.45 -0.88,-3.3 -2.23,-3.64 -0.64,1.29 1.33,4.31 -1.78,6.74 -2.24,1.75 -4.68,0.36 -5.31,-1.73l-0.15 1.52 -0.44 -0.57z"/>
  <path class="fil1" d="M15.37 29.29l0.44 0.57 0.15 -1.52c0.62,2.1 3.07,3.49 5.31,1.73 3.11,-2.43 1.14,-5.44 1.78,-6.74 -2.8,-1.72 -6.96,0.53 -8.5,1.96 0.34,0.81 0.92,1.12 1.13,2.64 0.16,1.16 -0.02,1.09 -0.31,1.34z"/>
  <path class="fil1" d="M25.28 26.98c0.29,1.91 0.24,1.8 -0.06,3.6 2.36,1.17 5.77,0.19 7.1,-2.18 0.55,-0.97 0.46,-1.81 0.79,-2.73 -1.15,-1.47 -4.31,-3.3 -7.13,-2.73 0.07,1.94 0.9,1.25 -0.28,5.26l-0.17 -0.28c-0.42,-1.31 0.25,1.04 -0.09,-0.33 -0.11,-0.46 0.09,-0.21 -0.16,-0.62z"/>
  <path class="fil1" d="M10.41 40.03c1.64,-0.07 9.27,-1.45 12.98,-1.77 3.27,-0.28 7.32,-0.39 10.62,-0.05 1.16,0.12 2.17,0.48 3.23,0.57l-0.18 -0.23c-2.68,-2.32 -10.57,-2.16 -13.51,-1.82 -2.4,0.27 -4.63,0.69 -6.92,1.28 -1.12,0.29 -2.12,0.54 -3.17,0.87 -0.74,0.23 -2.48,0.65 -3.04,1.15z"/>
  <path class="fil1" d="M6.99 32.47c-0.31,-0.74 -0.29,-0.43 -0.04,-1.13 1.61,0.25 5.08,0.61 6.39,-0.17 2.38,-1.42 -0.49,-4.41 -0.68,-4.68 -1.73,0.23 -3.22,1.12 -4.12,2.01 -0.37,0.37 -2.59,2.91 -1.56,3.97z"/>
  <path class="fil1" d="M23.38 20.43c0.87,-0.28 1.8,-1.34 1.99,-2.38 0.48,-2.59 -2.17,-4.26 -2.22,-6.54 -0.04,-1.56 0.71,-2.36 0.97,-3.58 -1.26,0.68 -2.73,4.03 -2.05,5.97 0.88,2.53 2.21,3.38 1.32,6.53z"/>
  <path class="fil1" d="M34.38 29.62c0.65,0.99 0.53,1.73 2.28,1.61 1.18,-0.08 2.27,-0.69 3.35,-0.83 -0.61,-1.25 -2.68,-2.98 -4.24,-3.26 -0.25,0.46 -0.31,0.8 -0.6,1.28 -0.29,0.49 -0.55,0.74 -0.8,1.2z"/>
  <path class="fil1" d="M29.22 20.55c0.52,-0.36 0.94,-1.18 1.22,-1.98 1.06,-2.96 -2.71,-2.29 -2.17,-7.36 -1.56,0.89 -1.49,3.13 -0.7,4.61 1.28,2.41 1.56,1.15 1.65,4.72z"/>
  <path class="fil1" d="M18.95 20.61c0.37,-0.3 -0.03,0.19 0.4,-0.41 0.96,-1.32 1.54,-2.79 0.36,-4.12 -1.37,-1.54 -1.78,-2.05 -1.72,-4.82 -1.44,0.81 -1.45,3.12 -0.6,4.65 1.1,1.96 1.74,1.62 1.56,4.7z"/>
 </g>
</svg>
