<?xml version="1.0" encoding="UTF-8"?>
<!DOCTYPE svg PUBLIC "-//W3C//DTD SVG 1.1//EN" "http://www.w3.org/Graphics/SVG/1.1/DTD/svg11.dtd">
<!-- Creator: CorelDRAW 2021 (64-Bit) -->
<svg xmlns="http://www.w3.org/2000/svg" xml:space="preserve" width="96.6139mm" height="97.0388mm" version="1.1" style="shape-rendering:geometricPrecision; text-rendering:geometricPrecision; image-rendering:optimizeQuality; fill-rule:evenodd; clip-rule:evenodd"
viewBox="0 0 1292.35 1298.04"
 xmlns:xlink="http://www.w3.org/1999/xlink"
 xmlns:xodm="http://www.corel.com/coreldraw/odm/2003">
 <defs>
  <style type="text/css">
   <![CDATA[
    .str0 {stroke:#FFE600;stroke-width:1.02;stroke-miterlimit:22.9256}
    .fil0 {fill:#333333}
    .fil1 {fill:#FFE600}
   ]]>
  </style>
 </defs>
 <g id="Layer_x0020_1">
  <metadata id="CorelCorpID_0Corel-Layer"/>
  <path class="fil0" d="M645.34 20.99c344.75,0 624.23,281.47 624.23,628.69 0,347.21 -279.48,628.69 -624.23,628.69 -344.75,0 -624.23,-281.47 -624.23,-628.69 0,-347.21 279.48,-628.69 624.23,-628.69zm300.01 572.84c19.41,0.86 37.61,4.45 51.82,10.8 -12.91,7.64 -41.98,0.61 -61.23,1.73 9.14,5.58 19.92,11.78 32.58,17.16 18.81,8 27.25,7.02 41.74,20.93 -28.96,-2.05 -49.72,-12.33 -69.75,-21.85 13.23,50.47 17.76,56.11 53.88,80.12l79.89 58.68c77.05,-64.15 -25.98,-188.32 37.43,-259.26 -63.86,2.53 -92.47,31.12 -130.48,62.02 -12.61,10.25 -24.4,16.78 -35.87,29.67zm-696.1 162.69c30.01,-3.21 85.44,-28.92 102.28,-45.15 25.4,-24.47 41.37,-62.38 62.51,-87.52 -21.57,-1.2 -21.24,5.29 -37.08,2.87 -12.88,-1.97 -1.65,2.41 -11.09,-4.21 18.04,-5.03 34.93,-11.86 58.56,-10.31 -11.76,-23.14 -47.4,-18.68 -66.96,-36.68l44.85 5.48c-26.55,-49.46 -116.05,-78.63 -189.04,-67.54 1.64,30.2 20.14,17.03 13.73,121.17 -4.34,70.49 -2.85,68.17 22.26,121.88z"/>
  <path class="fil0" d="M655.74 32.72c46.13,-11.55 78.88,15.96 117.37,29.26 43.8,15.14 92.9,0.87 132.05,23.7 22.87,13.33 23.48,20.63 41.44,38.74 50.39,50.82 110.35,42.84 140.36,90.61 24.02,38.24 29.64,70.17 58.92,97.08 27.1,24.9 56.48,39.92 64.85,90 11.33,67.76 2.87,63.98 32.68,123.89 25.96,52.16 22.7,63.38 8.19,123.84 -14.46,60.23 6.81,88.58 0.03,137.13 -4.91,35.14 -41.45,67.88 -55,100.28 -16.67,39.85 -13.34,84.03 -40.98,114.52 -24.96,27.53 -62.59,41.32 -83.89,71.87 -22.69,32.55 -38.55,69.33 -71.86,83.62 -44.92,19.27 -72.39,15.87 -111.19,44.75 -33.23,24.74 -52.94,48.38 -111.11,45.27 -76.79,-4.11 -70.82,1.12 -137.52,17.92 -46.91,11.82 -80.9,-13.67 -117.93,-27.5 -42.71,-15.95 -97.97,-3.37 -132.12,-23.59 -31.57,-18.7 -49.01,-49.96 -85.11,-70.64 -41.83,-23.97 -71.12,-21.04 -97.66,-58.01 -44.31,-61.73 -0.66,-41.63 -99.71,-136.28 -43.68,-41.74 -11.69,-80.31 -56.5,-174.53 -29.3,-61.59 -27.12,-56.07 -9.72,-127.83 13.89,-57.26 -9.34,-101.22 1.42,-144.29 9.54,-38.18 43.09,-62.44 55.89,-100 16.08,-47.16 10.81,-80.51 43.7,-112.07 31.63,-30.35 58.17,-35.76 82.99,-72.78 24.17,-36.05 33.1,-65.24 75.42,-80.38 54.08,-19.35 65.69,-14.31 109.42,-46.12 37.06,-26.96 46.63,-44.44 109.59,-40.16 69.63,4.73 76.64,-3.47 135.97,-18.32zm-641.95 524.94c8.6,80.19 -8.67,78.98 -13.46,142.1 -3.75,49.53 24.96,82.83 39.3,118.72 18.19,45.52 2.36,88.41 32.47,133.05 23.53,34.88 56.01,47.22 76.51,84.04 24.52,44.02 30.68,76.14 67,98.35 37.29,22.8 74.05,27.25 104.62,55.82 27.76,25.95 45.74,57.26 99.93,64.1 70.79,8.94 71.55,-1.01 133.33,28.24 53.67,25.41 77.3,16.79 131.53,-0.39 56.7,-17.97 103.32,4.7 149.42,-11.03 43.24,-14.75 63.82,-48.96 102.55,-63.4 46.44,-17.31 78.66,-15.61 110.58,-49.27 28.37,-29.91 35.84,-63.09 73.27,-91.86 35.08,-26.97 61.25,-36.68 78.94,-81.52 21.14,-53.6 9.41,-69.71 42.8,-117.71 27.81,-39.98 43.69,-61.96 35.89,-125.35 -9.89,-80.34 7.14,-76.15 13.35,-141.57 4.75,-49.97 -23.94,-83.54 -39.15,-120.82 -18.18,-44.57 -5.01,-91.26 -32.43,-132.88 -19.62,-29.79 -54.89,-46.88 -76.64,-83.62 -27.47,-46.39 -24.37,-68.97 -67.36,-98.08 -41.44,-28.06 -62.83,-18.65 -102.85,-57.64 -112.13,-109.27 -108.05,-32.31 -234.32,-91.45 -54.4,-25.48 -80.33,-15.45 -134.19,1.08 -58.05,17.81 -99.12,-5.73 -149.41,11.81 -41.96,14.64 -62.83,49.22 -101.73,62.89 -49.94,17.55 -78.84,17.4 -110.51,50.06 -29.93,30.86 -34.14,61.71 -73.22,91.88 -34.94,26.97 -62.72,36.14 -78.51,82.36 -19.22,56.26 -9.27,65.32 -43.15,117.02 -26.96,41.14 -41.57,59.72 -34.56,125.09z"/>
  <path class="fil1" d="M604.73 792.18c34.17,22.39 161.28,-7.73 199.14,-20.06 39.1,-12.74 47.39,-18.74 78.16,-39.87 22.14,-15.2 43.39,-31.35 46.94,-65.88 3.77,-30.27 0.96,-55.36 -8.88,-77.89 -98.04,-148.52 -307.75,-146.69 -408.02,-74.92l-18.74 15.54c-0.42,-0.83 -1.76,1.69 -2.56,2.61 -13.35,2.82 1.58,-2.18 -9.32,3.36l-22.78 19.45c-10.47,12.01 -15.67,21.12 -18.62,38.1l-4.75 31.95c-6,84.28 86.56,176.89 169.43,167.6z"/>
  <path class="fil1 str0" d="M943.41 589.97c11.34,-12.79 23,-19.28 35.47,-29.47 37.58,-30.69 65.87,-59.09 129.02,-61.6 -62.7,70.47 39.18,193.79 -37.02,257.52l-79 -58.29c-35.72,-23.85 -40.19,-29.45 -53.28,-79.58 19.8,9.46 40.33,19.67 68.97,21.71 -14.32,-13.82 -22.67,-12.84 -41.27,-20.79 -12.52,-5.35 -23.17,-11.5 -32.21,-17.05 19.03,-1.12 47.78,5.87 60.55,-1.72 -14.05,-6.3 -32.05,-9.87 -51.24,-10.72zm-23.34 -1.49c9.84,22.52 12.65,47.62 8.88,77.89 7.8,-10.86 6.72,-8.44 7.3,-24.14 15.94,61.94 52.28,62.89 100.92,100.71 18.71,14.55 15.9,18.18 29,32.59 44.17,-22.22 53.21,-79.1 43.25,-142.57 -22.33,-142.36 3.89,-99.49 32.02,-148.87 -138.33,-2.39 -170.24,90.47 -221.37,104.39z"/>
  <path class="fil1 str0" d="M356.22 706.72c-16.65,16.12 -71.46,41.66 -101.14,44.85 -24.83,-53.35 -26.3,-51.04 -22.01,-121.06 6.35,-103.44 -11.95,-90.36 -13.57,-120.36 72.18,-11.02 160.68,17.95 186.94,67.08l-44.35 -5.45c19.35,17.88 54.59,13.45 66.22,36.43 -23.36,-1.55 -40.07,5.24 -57.91,10.24 9.34,6.57 -1.77,2.22 10.97,4.18 15.67,2.4 15.34,-4.04 36.67,-2.85 -20.9,24.97 -36.7,62.63 -61.81,86.94zm79.08 -82.14l4.75 -31.95c-13.7,-4.45 -13.85,-7.11 -24.5,-21.03 -50.34,-65.84 -133.36,-88.09 -219.03,-71.42 -0.28,8.34 17.57,34.97 21.73,56.07 4.95,25.13 2.06,52.31 0.36,77.67 -4.1,61.03 0.58,98.95 35.92,132.57 129.43,-20.83 139.75,-127.62 180.78,-141.9z"/>
  <g id="_1948440382656">
   <rect class="fil1" transform="matrix(1.29903 -0.54278 0.54278 1.29903 448.073 223.094)" width="34.03" height="58.96" rx="16.66" ry="16.66"/>
   <rect class="fil1" transform="matrix(1.03457 -0.954857 0.954857 1.03457 312.228 314.64)" width="34.03" height="58.96" rx="16.66" ry="16.66"/>
   <rect class="fil1" transform="matrix(1.40702 0.0487913 -0.0487913 1.40702 622.202 174.493)" width="34.03" height="58.96" rx="16.66" ry="16.66"/>
   <rect class="fil1" transform="matrix(1.30636 0.524892 -0.524892 1.30636 800.23 204.841)" width="34.03" height="58.96" rx="16.66" ry="16.66"/>
   <rect class="fil1" transform="matrix(0.966527 1.02368 -1.02368 0.966527 945.566 282.285)" width="34.03" height="58.96" rx="16.66" ry="16.66"/>
  </g>
  <g id="_1948440381408">
   <rect class="fil1" transform="matrix(1.29903 0.54278 0.54278 -1.29903 448.073 1062.72)" width="34.03" height="58.96" rx="16.66" ry="16.66"/>
   <rect class="fil1" transform="matrix(1.03457 0.954857 0.954857 -1.03457 312.228 971.177)" width="34.03" height="58.96" rx="16.66" ry="16.66"/>
   <rect class="fil1" transform="matrix(1.40702 -0.0487913 -0.0487913 -1.40702 622.202 1111.32)" width="34.03" height="58.96" rx="16.66" ry="16.66"/>
   <rect class="fil1" transform="matrix(1.30636 -0.524892 -0.524892 -1.30636 800.23 1080.98)" width="34.03" height="58.96" rx="16.66" ry="16.66"/>
   <rect class="fil1" transform="matrix(0.966527 -1.02368 -1.02368 -0.966527 945.566 1003.53)" width="34.03" height="58.96" rx="16.66" ry="16.66"/>
  </g>
 </g>
</svg>
