<?xml version="1.0" encoding="UTF-8"?>
<!DOCTYPE svg PUBLIC "-//W3C//DTD SVG 1.1//EN" "http://www.w3.org/Graphics/SVG/1.1/DTD/svg11.dtd">
<!-- Creator: CorelDRAW 2021 (64-Bit) -->
<svg xmlns="http://www.w3.org/2000/svg" xml:space="preserve" width="15.3946mm" height="13.2662mm" version="1.1" style="shape-rendering:geometricPrecision; text-rendering:geometricPrecision; image-rendering:optimizeQuality; fill-rule:evenodd; clip-rule:evenodd"
viewBox="0 0 68.89 59.37"
 xmlns:xlink="http://www.w3.org/1999/xlink"
 xmlns:xodm="http://www.corel.com/coreldraw/odm/2003">
 <defs>
  <style type="text/css">
   <![CDATA[
    .str0 {stroke:#333333;stroke-width:0.34;stroke-miterlimit:10}
    .fil2 {fill:none;fill-rule:nonzero}
    .fil1 {fill:#FFE600}
    .fil0 {fill:#333333;fill-rule:nonzero}
   ]]>
  </style>
    <clipPath id="id0" style="clip-rule:nonzero">
     <path d="M29.6 34.06l0 17.29c1.49,-0.1 3,-0.16 4.51,-0.17l0 -27.96 1.6 -0.65 5.14 -2.08 0.83 -0.34 0.27 -0.11 2.43 -0.98 4.87 -1.97 0.95 -0.38 0 -10.23 -16.03 -6.48 -7.06 2.86 0 30.2 0.88 0.35 1.6 0.65z"/>
    </clipPath>
 </defs>
 <g id="Layer_x0020_1">
  <metadata id="CorelCorpID_0Corel-Layer"/>
  <g id="_1963368947744">
   <polygon class="fil0" points="24.23,31.89 24.23,4.02 18.15,6.48 18.15,29.43 18.72,29.66 "/>
   <path class="fil0" d="M29.6 34.06l0 17.29c1.49,-0.1 3,-0.16 4.51,-0.17l0 -27.96 1.6 -0.65 5.14 -2.08 0.83 -0.34 0.27 -0.11 2.43 -0.98 4.87 -1.97 0.95 -0.38 0 -10.23 -16.03 -6.48 -7.06 2.86 0 30.2 0.88 0.35 1.6 0.65z"/>
   <g style="clip-path:url(#id0)">
    <g>
     <g>
      <rect class="fil1" transform="matrix(0.538396 0.190708 1.38778E-17 0.538396 35.3386 11.7475)" width="7.37" height="7.37"/>
      <rect class="fil1" transform="matrix(0.538396 0.190708 1.38778E-17 0.538396 40.2818 13.5291)" width="7.37" height="7.37"/>
      <rect class="fil1" transform="matrix(0.538396 0.190708 1.38778E-17 0.538396 45.1974 15.313)" width="7.37" height="7.37"/>
      <rect class="fil1" transform="matrix(0.538396 0.190708 1.38778E-17 0.538396 35.3574 16.3977)" width="7.37" height="7.37"/>
      <rect class="fil1" transform="matrix(0.538396 0.190708 1.38778E-17 0.538396 40.3006 18.1792)" width="7.37" height="7.37"/>
      <rect class="fil1" transform="matrix(0.538396 0.190708 1.38778E-17 0.538396 45.2162 19.9632)" width="7.37" height="7.37"/>
     </g>
    </g>
   </g>
   <path class="fil2" d="M29.6 34.06l0 17.29c1.49,-0.1 3,-0.16 4.51,-0.17l0 -27.96 1.6 -0.65 5.14 -2.08 0.83 -0.34 0.27 -0.11 2.43 -0.98 4.87 -1.97 0.95 -0.38 0 -10.23 -16.03 -6.48 -7.06 2.86 0 30.2 0.88 0.35 1.6 0.65z"/>
   <path class="fil0" d="M41.69 51.51l0 -28.59 -5.01 2.03 0 26.25c1.68,0.05 3.35,0.15 5.01,0.31z"/>
   <path class="fil0" d="M63.71 57.02l0.06 0 0 -32.06 -13.54 -5.48 -0.01 0.01 -5.82 2.36 0 29.98c6.73,0.88 13.21,2.66 19.32,5.2z"/>
   <path class="fil0 str0" d="M11.11 54.94l0 -20.2 -2.62 1.06 0 20.05c0.87,-0.32 1.74,-0.62 2.62,-0.91z"/>
   <path class="fil0" d="M27.04 51.56l0 -15.77 -2.8 -1.14 -6.08 -2.46 -0.39 -0.15 -4.09 1.65 0 20.45c4.32,-1.25 8.79,-2.12 13.36,-2.58z"/>
   <rect class="fil1" transform="matrix(0.538396 0.190708 1.38778E-17 0.538396 35.3386 2.40784)" width="7.37" height="7.37"/>
   <rect class="fil1" transform="matrix(0.538396 0.190708 1.38778E-17 0.538396 40.2818 4.18943)" width="7.37" height="7.37"/>
   <rect class="fil1" transform="matrix(0.538396 0.190708 1.38778E-17 0.538396 45.1974 5.97338)" width="7.37" height="7.37"/>
   <rect class="fil1" transform="matrix(0.538396 0.190708 1.38778E-17 0.538396 35.3386 7.0544)" width="7.37" height="7.37"/>
   <rect class="fil1" transform="matrix(0.538396 0.190708 1.38778E-17 0.538396 40.2818 8.83599)" width="7.37" height="7.37"/>
   <rect class="fil1" transform="matrix(0.538396 0.190708 1.38778E-17 0.538396 45.1974 10.6199)" width="7.37" height="7.37"/>
   <g>
    <rect class="fil1" transform="matrix(0.30402 0.114335 1.09709E-17 0.460443 18.6028 33.4951)" width="7.37" height="7.37"/>
    <rect class="fil1" transform="matrix(0.30402 0.114335 1.09709E-17 0.460443 21.3942 34.571)" width="7.37" height="7.37"/>
    <rect class="fil1" transform="matrix(0.30402 0.114335 1.09709E-17 0.460443 24.1698 35.6515)" width="7.37" height="7.37"/>
    <rect class="fil1" transform="matrix(0.30402 0.114335 1.09709E-17 0.460443 18.6028 37.4689)" width="7.37" height="7.37"/>
    <rect class="fil1" transform="matrix(0.30402 0.114335 1.09709E-17 0.460443 21.3942 38.5448)" width="7.37" height="7.37"/>
    <rect class="fil1" transform="matrix(0.30402 0.114335 1.09709E-17 0.460443 24.1698 39.6253)" width="7.37" height="7.37"/>
    <rect class="fil1" transform="matrix(0.30402 0.114335 1.09709E-17 0.460443 18.6028 41.1471)" width="7.37" height="7.37"/>
    <rect class="fil1" transform="matrix(0.30402 0.114335 1.09709E-17 0.460443 21.3942 42.2231)" width="7.37" height="7.37"/>
    <rect class="fil1" transform="matrix(0.30402 0.114335 1.09709E-17 0.460443 24.1698 43.3036)" width="7.37" height="7.37"/>
    <rect class="fil1" transform="matrix(0.30402 0.114335 1.09709E-17 0.460443 18.6028 45.1209)" width="7.37" height="7.37"/>
    <rect class="fil1" transform="matrix(0.30402 0.114335 1.09709E-17 0.460443 21.3942 46.1969)" width="7.37" height="7.37"/>
    <rect class="fil1" transform="matrix(0.30402 0.114335 1.09709E-17 0.460443 24.1698 47.2774)" width="7.37" height="7.37"/>
   </g>
   <path class="fil0" d="M68.89 59.37c0,0 -1.05,-0.41 -2.88,-1.18 -0.9,-0.42 -2.05,-0.75 -3.32,-1.23 -1.27,-0.49 -2.75,-0.89 -4.34,-1.37 -0.4,-0.12 -0.81,-0.24 -1.22,-0.36 -0.42,-0.1 -0.85,-0.2 -1.29,-0.3 -0.87,-0.21 -1.77,-0.43 -2.69,-0.65 -0.93,-0.21 -1.89,-0.35 -2.87,-0.53 -0.98,-0.17 -1.97,-0.39 -3,-0.49 -1.02,-0.13 -2.06,-0.27 -3.11,-0.41 -1.05,-0.11 -2.12,-0.16 -3.2,-0.26 -0.54,-0.04 -1.08,-0.09 -1.62,-0.13 -0.54,-0.03 -1.09,-0.03 -1.63,-0.04 -1.09,-0.03 -2.19,-0.06 -3.28,-0.09 -1.1,0.03 -2.2,0.06 -3.29,0.09 -0.55,0.02 -1.11,0.02 -1.65,0.05 -0.54,0.04 -1.07,0.09 -1.61,0.13 -1.07,0.1 -2.13,0.15 -3.18,0.26 -1.05,0.14 -2.09,0.27 -3.11,0.41 -1.03,0.1 -2.02,0.32 -3,0.49 -0.98,0.18 -1.94,0.32 -2.87,0.53 -0.92,0.22 -1.82,0.44 -2.69,0.65 -0.44,0.1 -0.86,0.2 -1.29,0.3 -0.42,0.12 -0.82,0.24 -1.22,0.36 -1.59,0.48 -3.08,0.88 -4.35,1.37 -1.28,0.48 -2.43,0.81 -3.32,1.23 -1.82,0.76 -2.88,1.18 -2.88,1.18 0,0 0.97,-0.62 2.69,-1.67 0.85,-0.56 1.95,-1.07 3.19,-1.71 0.31,-0.16 0.64,-0.32 0.97,-0.48 0.17,-0.08 0.34,-0.17 0.51,-0.25 0.17,-0.07 0.35,-0.15 0.53,-0.23 0.72,-0.3 1.48,-0.6 2.27,-0.93 0.4,-0.16 0.8,-0.32 1.21,-0.49 0.42,-0.14 0.85,-0.29 1.28,-0.43 0.87,-0.28 1.78,-0.57 2.7,-0.87 0.93,-0.28 1.91,-0.49 2.89,-0.75 0.99,-0.25 2,-0.51 3.05,-0.67 1.04,-0.18 2.1,-0.36 3.17,-0.55 1.08,-0.16 2.18,-0.25 3.29,-0.37 0.55,-0.06 1.11,-0.11 1.67,-0.17 0.55,-0.04 1.1,-0.05 1.66,-0.07 1.11,-0.04 2.23,-0.07 3.35,-0.11 1.12,0.04 2.25,0.07 3.37,0.11 0.56,0.02 1.12,0.03 1.67,0.07 0.55,0.06 1.11,0.11 1.66,0.17 1.1,0.12 2.2,0.21 3.27,0.36 1.07,0.19 2.13,0.37 3.17,0.55 1.04,0.16 2.06,0.42 3.05,0.67 0.99,0.26 1.96,0.47 2.89,0.75 0.93,0.3 1.83,0.59 2.7,0.87 0.44,0.15 0.86,0.29 1.28,0.43 0.41,0.17 0.82,0.33 1.21,0.49 0.79,0.32 1.55,0.63 2.27,0.93 0.18,0.08 0.36,0.15 0.53,0.22 0.17,0.09 0.34,0.17 0.51,0.25 0.33,0.17 0.66,0.33 0.97,0.49 1.25,0.63 2.35,1.15 3.19,1.71 1.72,1.04 2.69,1.67 2.69,1.67z"/>
   <g>
    <rect class="fil1" transform="matrix(0.482591 0.190608 1.24393E-17 0.504132 50.6656 21.263)" width="7.37" height="7.37"/>
    <rect class="fil1" transform="matrix(0.482591 0.190608 1.24393E-17 0.504132 55.0965 23.0417)" width="7.37" height="7.37"/>
    <rect class="fil1" transform="matrix(0.482591 0.190608 1.24393E-17 0.504132 59.5025 24.822)" width="7.37" height="7.37"/>
    <rect class="fil1" transform="matrix(0.482591 0.190608 1.24393E-17 0.504132 50.6656 25.6138)" width="7.37" height="7.37"/>
    <rect class="fil1" transform="matrix(0.482591 0.190608 1.24393E-17 0.504132 55.0965 27.3925)" width="7.37" height="7.37"/>
    <rect class="fil1" transform="matrix(0.482591 0.190608 1.24393E-17 0.504132 59.5025 29.1729)" width="7.37" height="7.37"/>
    <rect class="fil1" transform="matrix(0.482591 0.190608 1.24393E-17 0.504132 50.6656 30.058)" width="7.37" height="7.37"/>
    <rect class="fil1" transform="matrix(0.482591 0.190608 1.24393E-17 0.504132 55.0965 31.8367)" width="7.37" height="7.37"/>
    <rect class="fil1" transform="matrix(0.482591 0.190608 1.24393E-17 0.504132 59.5025 33.617)" width="7.37" height="7.37"/>
    <rect class="fil1" transform="matrix(0.482591 0.190608 1.24393E-17 0.504132 50.6656 34.4089)" width="7.37" height="7.37"/>
    <rect class="fil1" transform="matrix(0.482591 0.190608 1.24393E-17 0.504132 55.0965 36.1876)" width="7.37" height="7.37"/>
    <rect class="fil1" transform="matrix(0.482591 0.190608 1.24393E-17 0.504132 59.5025 37.9679)" width="7.37" height="7.37"/>
    <rect class="fil1" transform="matrix(0.482591 0.190608 1.24393E-17 0.504132 50.6656 38.9005)" width="7.37" height="7.37"/>
    <rect class="fil1" transform="matrix(0.482591 0.190608 1.24393E-17 0.504132 55.0965 40.6792)" width="7.37" height="7.37"/>
    <rect class="fil1" transform="matrix(0.482591 0.190608 1.24393E-17 0.504132 59.5025 42.4595)" width="7.37" height="7.37"/>
    <rect class="fil1" transform="matrix(0.482591 0.190608 1.24393E-17 0.504132 50.6656 43.2513)" width="7.37" height="7.37"/>
    <rect class="fil1" transform="matrix(0.482591 0.190608 1.24393E-17 0.504132 55.0965 45.0301)" width="7.37" height="7.37"/>
    <rect class="fil1" transform="matrix(0.482591 0.190608 1.24393E-17 0.504132 59.5025 46.8104)" width="7.37" height="7.37"/>
   </g>
  </g>
 </g>
</svg>
