<?xml version="1.0" encoding="UTF-8"?>
<!DOCTYPE svg PUBLIC "-//W3C//DTD SVG 1.1//EN" "http://www.w3.org/Graphics/SVG/1.1/DTD/svg11.dtd">
<!-- Creator: CorelDRAW 2021 (64-Bit) -->
<svg xmlns="http://www.w3.org/2000/svg" xml:space="preserve" width="21.6838mm" height="23.5874mm" version="1.1" style="shape-rendering:geometricPrecision; text-rendering:geometricPrecision; image-rendering:optimizeQuality; fill-rule:evenodd; clip-rule:evenodd"
viewBox="0 0 27.55 29.97"
 xmlns:xlink="http://www.w3.org/1999/xlink"
 xmlns:xodm="http://www.corel.com/coreldraw/odm/2003">
 <defs>
  <style type="text/css">
   <![CDATA[
    .fil1 {fill:#333333}
    .fil0 {fill:#FFE600}
   ]]>
  </style>
 </defs>
 <g id="Layer_x0020_1">
  <metadata id="CorelCorpID_0Corel-Layer"/>
  <path class="fil0" d="M15.65 3.3c0.97,-2.62 -2.28,-3.07 -2.25,0.07 0.01,1.1 -0.13,1.74 -0.37,2.03 -0.18,0.19 -0.44,0.21 -0.7,0.1 -0.4,-0.2 -0.88,-0.72 -1.38,-1.42 -1.29,-1.83 -3.49,-2.1 -2.79,0.89 0.26,1.12 0.61,1.77 0.63,2.46 0.03,0.69 -0.13,1.34 -0.95,1 -0.29,-0.12 -0.63,-0.38 -1.04,-0.82 -2.49,-2.69 -4.54,-0.74 -2.65,1.12 0.63,0.62 1.57,1.14 1.54,1.76 -0.03,0.59 -0.78,1.19 -2.2,0.44 -2.91,-1.53 -3.46,1.61 -0.48,2.39 1.42,0.37 0.9,0.57 0.37,0.9 -0.8,0.5 -0.74,1.12 0.29,1.36 0.27,0.06 0.56,0.11 0.81,0.22 0.76,0.34 -0.16,0.81 -0.63,0.92 -2.56,0.62 -2.86,2.01 -0.78,2.32 2.08,0.3 2.72,1.62 -0.22,2.3 -2.95,0.69 -0.71,3.28 1.15,1.75 1.85,-1.53 3.36,-1.31 1.43,1.31 -1.93,2.61 0.6,3.75 1.6,1.44 0.99,-2.31 3.15,-0.62 2.43,1.08 -0.71,1.7 0.87,2.12 1.72,0.68 0.93,-1.58 1.29,0.3 2.14,0.28 1.04,-0.02 2.79,-4.08 3.02,-0.43 0.16,2.48 2.7,2.89 2.02,-0.18 -0.68,-3.06 0.28,-2.4 2,-0.69 1.73,1.71 3.1,0.77 1.47,-1.68 -1.63,-2.45 -0.85,-4.67 2.16,-2.73 3.01,1.93 4.61,-1.63 1.24,-2.03 -1.49,-0.17 -1.9,-0.77 -1.75,-1.36 0.24,-0.94 1.23,-1.25 2.19,-1.29 1.54,-0.07 2.32,-1.38 0.46,-2.01 -1.86,-0.62 -3.15,-1.51 -0.41,-2.3 2.75,-0.79 2.04,-2.04 0.05,-2.09 -1.6,-0.04 -1.73,-0.13 -1.35,-0.65l-0 0c0.09,-0.12 0.21,-0.27 0.35,-0.45 0.71,-0.92 0.48,-2.3 -1.47,-1.24 -0.34,0.18 -0.67,0.34 -0.97,0.45 -0,0.02 -0.01,0.04 -0.01,0.06 -0.04,0.16 -0.07,0.31 -0.11,0.46 0.04,-0.01 0.08,-0.03 0.12,-0.04l0 0c-0.04,0.03 -0.08,0.05 -0.12,0.07 -0.53,2.02 -1.33,3.77 -2.11,4.71 -1.06,1.29 -1.75,2.24 -2.25,3.18 -0.5,0.94 -0.83,1.91 -1.18,3.23l-0.03 0.12c-0.28,1.04 -0.46,1.71 -1.21,2.64 -0.36,0.45 -0.82,0.87 -1.26,1.17 -0.48,0.33 -0.97,0.53 -1.36,0.5 -0.26,-0.02 -0.54,-0.1 -0.79,-0.28 -0.21,-0.15 -0.4,-0.36 -0.52,-0.65 -0.02,-0.04 0.35,-0.2 0.2,-0.13 -0.03,0.01 -0.07,0.03 -0.11,0.05 -0.17,0.09 -0.38,0.19 -0.69,0.26 -0.35,0.08 -0.8,-0.02 -1.17,-0.21 -0.38,-0.19 -0.72,-0.5 -0.86,-0.83 -0.12,-0.29 -0.16,-0.52 -0.19,-0.71 -0.01,-0.05 -0.01,-0.09 -0.02,-0.12 -0.04,-0.16 0.05,0.23 0.01,0.24 -0.31,0.07 -0.59,0.04 -0.83,-0.04 -0.29,-0.1 -0.52,-0.28 -0.69,-0.48 -0.05,-0.06 -0.09,-0.12 -0.13,-0.2 -0.06,0.29 -0.27,0.66 -0.65,1.07 0.84,-1.31 0.35,-2.05 -1.59,-1.06l0 0c0.99,-0.64 1.71,-0.78 2.04,-0.59 -0.04,-0.19 -0.06,-0.4 -0.06,-0.62 -0.01,-0.53 0.07,-1.15 0.22,-1.71 0.32,-1.17 0.75,-1.7 1.44,-2.53l0.08 -0.09c0.86,-1.06 1.46,-1.89 1.93,-2.84 0.48,-0.96 0.85,-2.07 1.27,-3.68 0.27,-1.02 1.01,-2.41 2.06,-3.79 0.37,-0.48 0.77,-0.97 1.2,-1.44 0.16,-0.17 0.32,-0.34 0.48,-0.5 -0.01,-0.3 0.05,-0.68 0.22,-1.15l0 0zm-6.68 3.77l0 0c1.15,2.15 -0.16,2.81 -1.91,1.26 1.59,0.89 2.64,0.74 1.91,-1.26l0 0zm2.41 -1.81l0 0c0.49,0.42 1.92,1.65 2.21,-0.6 0.19,2.49 -1.73,1.48 -2.21,0.6l0 0zm12.28 1l0 0 0 -0 0.01 -0.01c0.06,-0.06 0.12,-0.13 0.19,-0.18 0.43,-0.34 0.98,-0.29 1.24,0.03 0.23,0.28 0.21,0.62 -0.1,0.93l-0.01 0.01 -0 0c-0.04,0.04 -0.09,0.08 -0.14,0.12 -0.43,0.34 -1.13,0.42 -1.38,0.1 -0.21,-0.27 -0.11,-0.68 0.18,-1l0 0zm0.56 -0.09l0 0c0.11,-0.07 0.26,-0.05 0.32,0.05 0.05,0.08 0.05,0.16 -0.01,0.23 -0.01,0.01 -0.03,0.02 -0.05,0.04 -0.11,0.07 -0.28,0.09 -0.34,-0.01 -0.05,-0.08 -0.04,-0.19 0.03,-0.26 0.01,-0.01 0.03,-0.03 0.05,-0.04l0 0zm0.12 3.97l0 0c-0.55,0.61 -0.67,1.25 0.39,1.25 -1.07,0.24 -1.17,-0.35 -0.74,-0.9l-0 0c0.09,-0.12 0.21,-0.24 0.36,-0.34l0 0zm2.75 2.06l0 0c-0.18,-0.45 -1.19,-0.7 -1.84,-0.82 0.8,-0.1 2.26,0.15 1.84,0.82l0 0zm-2.2 -3l0 0c-0.35,-0.33 -1.2,-0.1 -1.84,0.07 0.66,-0.45 1.54,-1 1.84,-0.07l0 0zm-2.39 15l0 0c-0.35,-0.42 -0.46,-0.97 -0.14,-1.23 0.31,-0.27 0.95,-0.09 1.31,0.33 0.35,0.42 0.37,0.85 0.06,1.11 -0.31,0.27 -0.87,0.21 -1.22,-0.21l0 0zm-21.57 -9.07l0 0c0.64,-0.06 1.3,0.36 1.4,0.85 0.1,0.5 -0.54,0.88 -1.18,0.94 -0.64,0.06 -1.04,-0.24 -1.14,-0.73 -0.1,-0.5 0.28,-1 0.92,-1.06l0 0zm0.27 0.26l0 0c0.19,-0.01 0.4,0.09 0.46,0.22 0.06,0.14 -0.11,0.24 -0.31,0.25 -0.19,0.01 -0.33,-0.07 -0.39,-0.21 -0.06,-0.14 0.05,-0.26 0.24,-0.27l0 0zm10.87 -13.33l0 0c0.21,0.44 0.05,1.02 -0.34,1.22 -0.39,0.2 -1,-0.12 -1.21,-0.56 -0.21,-0.44 0.05,-0.82 0.43,-1.02 0.39,-0.2 0.9,-0.07 1.12,0.37l0 0zm-0.29 0.03l0 0c0.08,0.16 0.05,0.34 -0.07,0.4 -0.12,0.06 -0.29,-0.07 -0.37,-0.23 -0.08,-0.16 -0.05,-0.28 0.08,-0.35 0.12,-0.06 0.29,0.02 0.37,0.18l0 0zm-0.55 27.26l0 0c-0.05,-0.45 0.23,-0.93 0.58,-1.01 0.35,-0.08 0.74,0.37 0.8,0.82 0.11,0.9 -1.26,1.2 -1.38,0.19l0 0zm0.23 0.05l0 0c-0.02,-0.17 0.05,-0.32 0.16,-0.34 0.11,-0.02 0.21,0.14 0.23,0.31 0.02,0.17 -0.04,0.27 -0.15,0.29 -0.11,0.02 -0.22,-0.09 -0.24,-0.26l0 0zm11.41 -5.21l0 0c-0.1,-0.09 -0.1,-0.23 -0.02,-0.32 0.08,-0.08 0.24,-0.04 0.34,0.05 0.1,0.09 0.09,0.19 0.01,0.28 -0.08,0.08 -0.23,0.08 -0.33,-0.01l0 0zm-4.98 2.38l0 0c-0.75,-2.39 0.35,-2.98 1.44,-1.25 -1.04,-1.15 -1.89,-0.88 -1.44,1.25l0 0zm2.66 -3.42l0 0c-0.88,-2.1 1.2,-3.04 2.81,-1.68 -1.63,-0.8 -3.19,-0.26 -2.81,1.68l0 0zm3.97 -8.13l0 0c-0.72,0.08 -1.85,-0.74 -0.12,-1.77 -1.1,1.01 -0.5,1.65 0.12,1.77l0 0zm-8.14 11.21l0 0c-0.03,-0.75 -0.28,-1.2 -1.43,-0.1 1.12,-1.46 1.67,-0.9 1.43,0.1l0 0zm-3.98 0.76l0 0c-0.25,-0.29 -0.72,-0.7 -1.24,0.29 0.37,-1.18 1.12,-0.94 1.24,-0.29l0 0zm-8.87 -13.68l0 0c0.79,0.01 1.32,0.55 0.32,0.98 0.69,-0.5 0.31,-0.85 -0.32,-0.98l0 0zm0.8 2.33l0 0c0.85,0.03 1.35,0.54 0.3,0.92 0.65,-0.47 0.29,-0.8 -0.3,-0.92l0 0zm-0.14 3.26l0 0c1.45,-0.03 2.38,1.19 0.51,2.27 1.3,-1.22 0.64,-2.02 -0.51,-2.27l0 0zm3.18 5.66l0 0c0.91,-1.08 3.21,-0.15 2.59,1.95 0.12,-1.94 -1.51,-2.6 -2.59,-1.95l0 0zm16.12 -4.76l0 0c-1.25,-0.68 -0.6,-2.78 1.66,-2.46 -2.03,0.1 -2.49,1.6 -1.66,2.46l0 0zm3.25 -2.91l0 0c-0.19,-0.6 -1.38,-1.2 -2.11,-1.53 0.9,0.08 2.63,0.81 2.11,1.53l0 0zm-11.67 -15.27l0 0c-0.59,0.19 -1.14,1.26 -1.12,2.37 -0.27,-1.31 -0.02,-2.77 1.12,-2.37l0 0zm10.47 20.69l0 0c0.9,-0.37 0.75,-1.23 0,-1.6 1.28,0.07 1.36,1.65 -0,1.6l0 0zm-4.7 4.28l0 0c1.22,0.28 1,-0.64 0.33,-1.93 1.03,1.35 1.75,3.06 -0.33,1.93l0 0zm-8.18 0.33l0 0c0.78,0.33 1.29,-0.11 1.94,-0.65 -0.28,0.37 -1.2,1.83 -1.94,0.65l0 0zm4.1 1.35l0 0c1.11,0.86 1.19,-0.55 1.1,-1.23 0.48,0.85 0.33,3.17 -1.1,1.23l0 0zm-7.14 -1.14l0 0c0.05,0.99 0.8,0.8 1.1,0.61 -0.22,0.51 -1.47,0.81 -1.1,-0.61l0 0zm-3.28 -0.76l0 0c-0.95,0.64 -1.83,-0.21 -0.73,-1.47 -0.38,1.07 0.19,1.36 0.73,1.47l0 0zm-3.76 -3.15l0 0c-1.4,-0.32 -0.75,-1.71 1.18,-1.7 -1.72,0.36 -1.47,1.22 -1.18,1.7l0 0zm-0.06 -4.64l0 0c-1.19,-0.72 0.71,-1.31 1.68,-1.53 -0.56,0.23 -1.98,0.96 -1.68,1.53l0 0zm0.71 -4.05l0 0c-0.11,0.47 0.44,0.75 0.8,0.8 -0.47,0.13 -1.31,-0.17 -0.8,-0.8l0 0zm-1.57 -3.68l0 0c-0.2,0.85 0.81,1.74 1.47,2.08 -0.88,-0.05 -2.42,-1.19 -1.47,-2.08l0 0zm3.03 -4.23l0 0c-1.1,0.65 -0.04,1.86 0.78,2.66 -1.15,-0.66 -2.74,-2.39 -0.78,-2.66l0 0zm4.63 -3.45l0 0c-0.59,0.54 -0.7,1.93 -0.35,3.12 -0.66,-1.39 -0.87,-3.16 0.35,-3.12l0 0zm-3.47 6.64l0 0c1.13,1.03 0.19,2.73 -1.99,1.69 2.01,0.59 2.68,-0.62 1.99,-1.69z"/>
  <path class="fil1" d="M22.75 2.83c0.03,0.15 0.02,0.28 -0.04,0.4 -0.08,0.15 -0.22,0.25 -0.42,0.31 -0.06,0.02 -0.12,0.03 -0.18,0.04 0.56,3.88 -1.01,8.78 -2.47,10.54 -2.18,2.63 -2.81,3.92 -3.54,6.63 -0.28,1.04 -0.43,1.67 -1.13,2.54 -0.64,0.79 -1.61,1.5 -2.1,1.45 -0.31,-0.03 -0.65,-0.17 -0.82,-0.57 -0.37,-0.88 -0.51,-0.34 -1.27,-0.17 -0.42,0.1 -1.19,-0.3 -1.36,-0.7 -0.31,-0.72 0.05,-1.15 -0.88,-0.94 -0.42,0.1 -0.74,-0.1 -0.94,-0.33 -0.33,-0.38 -0.32,-1.58 -0.05,-2.56 0.3,-1.08 0.72,-1.57 1.4,-2.41 1.78,-2.18 2.45,-3.45 3.31,-6.75 0.53,-2.04 3.2,-5.75 6.35,-7.72 -1.97,1.82 -4.71,4.54 -5.73,8.29 -0.79,2.9 -1.57,4.35 -3.12,6.28 -0.59,0.74 -0.87,1.11 -1.19,2.06 -0.28,0.85 -0.11,1.3 0.16,1.63 0.17,0.2 0.43,0.3 0.79,0.27 0.54,-0.05 0.57,0.47 0.73,0.8 0.14,0.35 0.78,0.68 1.14,0.59 0.38,-0.08 0.85,-0.34 1.08,0.12 0.16,0.33 0.42,0.47 0.68,0.48 0.1,0.01 0.21,-0.03 0.34,-0.09 -0.2,-0.1 -0.41,-0.3 -0.51,-0.52 -0.38,-0.78 -0.83,-0.75 -1.38,-0.54 -0.34,0.11 -0.92,-0.19 -1.03,-0.53 -0.39,-1.24 -0.93,-0.61 -1.19,-1.05 -0.11,-0.19 -0.11,-0.65 0.04,-1.14 0.14,-0.47 0.41,-0.98 0.52,-1.19 0.22,-0.4 0.6,-0.97 0.94,-1.41 1.54,-2.02 2.14,-3.09 3.03,-6.04 0.49,-1.61 2.55,-4.79 4.85,-6.88 0.29,-0.26 0.5,-0.46 0.8,-0.68 0.59,0.39 1.36,0.61 1.83,0.44 -0.07,-0.02 -0.15,-0.03 -0.21,-0.05 -0.46,-0.14 -0.92,-0.38 -1.29,-0.69 -0.52,-0.44 -0.77,-0.95 -0.59,-1.3 0.06,-0.12 0.16,-0.2 0.29,-0.26l0.45 -0.87c0.55,-1.06 3.7,0.57 3.15,1.63l-0.44 0.86 0 0zm-1.29 1.29l0 0c-0.12,0.01 -0.25,0.01 -0.38,0 0.27,3.4 -1.21,7.64 -2.47,9.14 -1.99,2.36 -2.91,4.17 -3.59,6.61 -0.24,0.86 -0.38,1.41 -0.91,2.11l0.34 0.28c0.58,-0.74 0.72,-1.29 0.97,-2.19 0.68,-2.44 1.6,-4.25 3.59,-6.61 1.29,-1.53 2.8,-5.9 2.45,-9.34l0 0zm-0.89 -1.81l0 0 0.09 0.05 0.36 -0.71 -0.09 -0.05 -0.36 0.71 0 0zm-0.57 -0.61l0 0c0.06,0.22 0.35,0.48 0.48,0.55l0.37 -0.7c-0.19,-0.12 -0.38,-0.29 -0.52,-0.47l-0.32 0.62 0 0zm1.89 0.97l0 0c0.23,-0.45 0.14,-0.26 0.37,-0.7 -0.1,0.01 -0.19,0.01 -0.27,0 -0.23,0.45 -0.14,0.28 -0.37,0.72 0.06,0.01 0.19,0 0.27,-0.02l0 0zm0.41 -0.86l0 0c-0.64,0.08 -1.89,-0.51 -2.04,-1.16l-0.39 0.75c-0.41,0.8 1.87,1.98 2.28,1.18l0.4 -0.78c0.25,-0.49 -0.58,-1.14 -1.32,-1.35 -0.39,-0.11 -0.71,-0.09 -0.6,0.2 0.09,0.25 0.34,0.46 0.54,0.62 0.36,0.27 0.81,0.48 1.11,0.55z"/>
 </g>
</svg>
