<?xml version="1.0" encoding="UTF-8"?>
<!DOCTYPE svg PUBLIC "-//W3C//DTD SVG 1.1//EN" "http://www.w3.org/Graphics/SVG/1.1/DTD/svg11.dtd">
<!-- Creator: CorelDRAW 2021 (64-Bit) -->
<svg xmlns="http://www.w3.org/2000/svg" xml:space="preserve" width="28.1378mm" height="11.3644mm" version="1.1" style="shape-rendering:geometricPrecision; text-rendering:geometricPrecision; image-rendering:optimizeQuality; fill-rule:evenodd; clip-rule:evenodd"
viewBox="0 0 168.44 68.03"
 xmlns:xlink="http://www.w3.org/1999/xlink"
 xmlns:xodm="http://www.corel.com/coreldraw/odm/2003">
 <defs>
  <style type="text/css">
   <![CDATA[
    .fil0 {fill:#333333}
    .fil1 {fill:#FFE600}
   ]]>
  </style>
 </defs>
 <g id="Layer_x0020_1">
  <metadata id="CorelCorpID_0Corel-Layer"/>
  <g id="_1963033596720">
   <path class="fil0" d="M9.67 19.7c2.59,-0.61 7.57,-3.23 10.53,-4.42 27.69,-11.08 59.34,-8.8 84.77,5.28 4.89,2.71 13.84,8.42 17.01,12.62 5.59,7.43 0.83,15.18 5.81,23.83 3.21,5.57 9.58,11.02 18.98,11.01 9.12,-0.01 15.87,-5.46 18.94,-11.05 6.03,-10.97 1.73,-24.66 -9.29,-30.11 -8.37,-4.14 -10.97,0.65 -22.34,-7.31 -3.08,-2.16 -5.74,-3.83 -9.14,-5.68 -28.84,-15.76 -65.81,-18.98 -96.37,-5.06 -5.57,2.54 -15.65,7.37 -18.9,10.89z"/>
   <path class="fil0" d="M119.03 59.32c-16.86,-11.33 -35.62,-17.24 -56.61,-17.89 -8.96,-0.28 -15.13,1.62 -23.34,-8.14 -14.2,-16.89 -34.79,-7.01 -38.38,7.49 -4.6,18.62 14.22,34.05 32.67,23.96 26.27,-14.36 58.69,-17.05 85.66,-5.42z"/>
  </g>
  <path class="fil1" d="M31.43 42.29c-0.03,-0.06 -0.1,-0.08 -0.16,-0.08l-7.51 0c-0.06,0 -0.11,-0.04 -0.15,-0.09 -0.04,-0.05 -0.05,-0.11 -0.03,-0.17l3.14 -12.26c0.02,-0.09 -0.02,-0.18 -0.1,-0.21 -0.08,-0.04 -0.17,-0.02 -0.23,0.06l-13.4 17.96c-0.04,0.06 -0.05,0.23 -0.02,0.29 0.03,0.06 0.1,0.2 0.17,0.2l6.89 0c0.06,0 0.11,-0.07 0.14,-0.03 0.04,0.04 0.05,0.05 0.04,0.1l-2.86 14.18c-0.02,0.09 0.03,0.16 0.11,0.19 0.08,0.03 0.17,0 0.22,-0.07l13.73 -19.88c0.04,-0.06 0.04,-0.13 0.01,-0.19z"/>
  <path class="fil1" d="M157.75 42.29c-0.03,-0.06 -0.09,-0.08 -0.16,-0.08l-7.51 0c-0.06,0 -0.11,-0.04 -0.15,-0.09 -0.03,-0.05 -0.05,-0.11 -0.03,-0.17l3.14 -12.26c0.02,-0.09 -0.02,-0.18 -0.1,-0.21 -0.08,-0.04 -0.17,-0.02 -0.23,0.06l-13.4 17.96c-0.04,0.06 -0.05,0.23 -0.02,0.29 0.03,0.06 0.1,0.2 0.17,0.2l6.89 0c0.06,0 0.11,-0.07 0.14,-0.03 0.04,0.04 0.05,0.05 0.04,0.1l-2.86 14.18c-0.02,0.09 0.03,0.16 0.11,0.19 0.08,0.03 0.17,0 0.22,-0.07l13.73 -19.88c0.04,-0.06 0.04,-0.13 0.01,-0.19z"/>
 </g>
</svg>
