<?xml version="1.0" encoding="UTF-8"?>
<!DOCTYPE svg PUBLIC "-//W3C//DTD SVG 1.1//EN" "http://www.w3.org/Graphics/SVG/1.1/DTD/svg11.dtd">
<!-- Creator: CorelDRAW 2021 (64-Bit) -->
<svg xmlns="http://www.w3.org/2000/svg" xml:space="preserve" width="33.7455mm" height="14.4308mm" version="1.1" style="shape-rendering:geometricPrecision; text-rendering:geometricPrecision; image-rendering:optimizeQuality; fill-rule:evenodd; clip-rule:evenodd"
viewBox="0 0 193.09 82.57"
 xmlns:xlink="http://www.w3.org/1999/xlink"
 xmlns:xodm="http://www.corel.com/coreldraw/odm/2003">
 <defs>
  <style type="text/css">
   <![CDATA[
    .str0 {stroke:#333333;stroke-width:0.61;stroke-miterlimit:22.9256}
    .str1 {stroke:#333333;stroke-width:0.61;stroke-linecap:round;stroke-linejoin:round;stroke-miterlimit:22.9256}
    .fil3 {fill:none}
    .fil2 {fill:black}
    .fil0 {fill:#333333}
    .fil1 {fill:#FFE600}
   ]]>
  </style>
 </defs>
 <g id="Layer_x0020_1">
  <metadata id="CorelCorpID_0Corel-Layer"/>
  <path class="fil0 str0" d="M180.14 42.7l0.22 0.72 7.57 0.01 -0.27 -1c-0.16,0.8 0.14,0.32 -0.31,0.75l-6.69 -0.03c0.16,-1.23 0.34,-1.17 0.87,-2.27 -0.55,0.3 -0.42,-0.04 -0.99,0.71 -0.21,0.28 -0.31,0.67 -0.39,1.1z"/>
  <path class="fil1 str0" d="M4.18 39.81l0.19 0.37c0.59,2.41 0.15,14.49 0.15,17.92 0,6.1 0,12.2 0,18.3 4.03,-0.24 8.25,0.42 12.08,-0.74l1.41 -1.19c-1.39,-2.56 -3.12,-4.31 -2.22,-8.67 0.62,-3 2.78,-5.63 4.76,-6.53l-0.21 -0.69c-1.88,-0.65 -4.45,-2.86 -4.47,-5.46 2.14,0.12 5.56,0.82 7.51,1.3 0.96,-0.28 -0.31,0.38 0.46,-0.26 0.05,-0.04 0.26,-0.21 0.29,-0.33 0.03,-0.11 0.09,-0.13 0.14,-0.19 0.3,-0.62 0.96,-1.27 2.15,-1.05 1.12,0.21 0.72,0.85 0.8,2.22 2.28,-0.91 5.42,-1.45 8.16,-1.71 -0.01,2.88 -2.87,4.98 -5.08,5.82 0.36,0.4 2.98,2.76 3.42,3.08 0.43,-0.01 0.29,0.57 1.15,-1.54 3.28,-8 1.73,-12.62 2.12,-20.93 -4.79,0.08 -30.83,-0.58 -32.81,0.29z"/>
  <path class="fil0 str0" d="M71.28 80.82c1.45,-0.46 4.08,-0.46 5.54,-0.05 -0.53,0.42 0.89,0.48 -2.66,0.46l-2.22 -0.03c-0.65,-0.18 -0.29,-0.09 -0.66,-0.38zm-51.77 -4.91c5.15,2.4 6.34,2.63 11.66,0.12 0.78,-0.5 0.44,-0.58 1.38,-0.94l2.28 2.37c-3.11,4.55 -14.25,5.6 -18.55,0.07l2.39 -2.39c0.44,0.31 0.55,0.3 0.84,0.78zm79.37 -3.91c0.05,1.01 0.32,2.03 0.61,2.96l0.6 1.81c0.09,0.71 0.09,0.38 -0.09,0.64 -1.14,1.42 -1.78,1.75 -0.91,3.92l-14.63 0.03c0.9,-0.67 1.42,-1.13 2.18,-1.9 1.1,-1.1 0.92,-1.42 1.66,-2.56 0.75,-3.71 0.59,-4.64 -0.51,-7.93l-0.39 -0.62 11.18 -0.04 0.3 3.69zm-82.52 -3.36c-1.16,-12.38 17.38,-13.52 18.31,-1.64 0.96,12.32 -17.2,13.52 -18.31,1.64zm67.15 7.53c-0.65,1.23 -0.69,1.42 -1.65,2.06 -1.55,2.29 -5.98,1.47 -8.94,1.7l1.3 -1.95 0.95 -2.2c-0.09,-1.7 0.16,-3.41 -0.28,-5.08 -0.45,-1.73 -1.31,-2.35 -1.85,-3.45 8.02,-0.55 11.49,0.49 10.47,8.92zm-5.65 4.44c4.25,-0.59 6.64,-2.36 6.69,-6.98 0.05,-4.84 -2.32,-6.69 -6.72,-7.24 8.47,-4.35 13.73,8.5 7.31,13.5 -1.82,1.41 -5.02,2.11 -7.28,0.73zm23.3 -3.65c-2.34,-2.49 -2.23,-12.82 0.01,-15.54 1,-1.12 8.68,-0.44 10.17,-0.44l32.13 0c-0.56,0.72 -3.35,2.41 -2.49,6.07 0.57,2.46 2.21,3.15 4.03,3.68l1.14 0.45c-1.26,0.45 -6.03,4.36 -7.45,5.39 -2.27,1.65 -8.79,0.91 -12.1,0.91l-24.16 -0.06c-1.49,-0.13 -0.71,0.17 -1.29,-0.47zm-76.49 -20.53c0.16,-2.17 -0.51,-3.04 1.76,-3.11 0.01,0.82 -0.13,2.33 0.1,3.04 0.26,0.81 0.72,0.64 1.2,1.7l-4.37 -0.06c0.37,-1.11 0.39,-0.77 1.31,-1.56zm4.53 0.83l0.32 1.16c-1.13,0.01 -0.81,0.26 -1.18,-0.99 -0.41,-0.71 -0.74,-0.94 -1.03,-1.56 1.44,-1.43 4.84,-1.72 7.12,-1.88 -0.77,2.87 -2.03,1.98 -2.37,1.96 0.13,0.83 0.56,0.89 0.02,1.1 -0.81,0.32 -0.18,-0.2 -1.46,-0.35 0.22,0.84 0.78,1.16 -0.04,1.2 -0.53,0.03 -0.77,-0.38 -1.38,-0.64zm-12.39 -3.29c2.51,0.25 5.57,0.61 7.11,1.9l-1.64 2.51c-1.23,-0.48 -0.07,0.29 -0.53,-1.08 -1.13,0.37 -0.26,0.34 -1.41,0.53 -0.27,-0.61 -0.17,0 0.07,-1.19 -1.02,0.2 -0.55,0.19 -1.59,0.43 0.33,-2.3 0.22,-0.59 -0.96,-1.28 -0.67,-0.39 -0.75,-1.13 -1.06,-1.83zm8.19 -32.03c1.34,-0.33 1.41,-0.19 2.77,0.02l-0.04 2.65 -2.97 -0.15 -8.46 -0.01 -0.17 -2.38 8.88 -0.12zm-6.98 -2.92c1.15,-0.28 2.03,-0.58 2.81,-1.22 1.54,-1.28 0.31,-1.4 2.96,-1.4l2.38 -0.01 0.02 5.02 -8.5 0.09c-0.04,-0.5 -0.13,-1.05 -0.09,-1.43 0.19,-1.71 -0.11,-0.52 0.42,-1.06zm4.66 -7.66l1.92 0.02 -0 4.29 -2.02 -0.01c0.36,-2.1 0.44,-2.04 0.1,-4.31zm-3.66 3.45c-1.93,6.23 -11.67,3.24 -9.29,-3.13 2.24,-6 11.11,-2.73 9.29,3.13zm-1.51 3.46c0.05,-0.06 0.12,-0.13 0.16,-0.17l0.47 -0.49c2.84,-2.99 2.23,-6.3 -0.82,-9.11 6.4,0.39 6.61,9.26 0.19,9.78zm-1.28 -16.58c1.56,-1.71 14.2,-0.3 17.4,0.23 2.64,0.44 5.2,1.03 7.72,1.9 1.02,0.35 5.94,1.92 6.19,3 1.46,1.19 0.06,2.85 -1.61,2.5 -0.54,-0.11 -4.9,-2.54 -11.04,-3.77 -2.84,-0.57 -5.84,-0.93 -8.79,-1.06 -2.55,-0.1 -7.48,0.19 -9.62,-0.28 -0.26,-0.35 -0.56,-0.62 -0.67,-1.17 -0.1,-0.52 -0.08,-0.33 0.07,-0.79 0.34,-1.02 -0.03,-0.1 0.35,-0.56zm0.53 3.31c0.4,0.74 0.42,1.56 0.14,2.78l-3.73 0.18c-5.85,0.73 -6.18,10.23 0.47,11l3.31 0.05 0.03 2.43 -1.46 0.09 -0.02 3.15c-3.8,2 -6.8,3.35 -9.43,7.77 -2.97,4.99 -2.72,8.31 -2.72,14.83 0,4.83 -0.76,32.05 0.56,34.05 -1.11,0.08 -2.72,-0.17 -3.5,0.35 0.56,0.96 4.01,0.44 5.23,0.44l90.72 -0c9.21,0.01 95.38,0.3 96.38,-0.16 -0.29,-1.2 -0.3,-0.15 -1.46,-0.83 0.35,-1.47 0.28,-33.52 0.07,-34.26l-0.73 -0.42 0.07 26.42 0.02 6.07 -3.73 -0.06 -0.01 0.6 3.75 -0.07 -0.2 1.77 -3.43 0.22c-1.37,-0.1 -0.36,-0.01 -0.75,-0.4l-0.89 -0.03 -0.9 0.35c-3.51,0.96 -27.57,-0.1 -34.64,0.32l-10.03 0.12c-1.76,-0.19 -0.89,0.07 -0.86,-0.63 -6.68,0.84 -17.66,0.22 -24.9,0.22 -4.12,0 -8.41,0.12 -12.5,0.02 -2.98,-0.07 -2.62,-2.58 -1.2,-3.08 0.89,-0.32 29.08,-0.13 31.47,-0.13 6.39,0 5.74,0.24 9.73,-2.84 2.39,-1.85 4.76,-3.62 7.19,-5.49 -0.19,-0.66 0.54,-0.65 -0.71,-0.4 -3.17,2.13 -7.38,-0.92 -6.35,-4.78 1.41,-5.27 7.23,-2.85 8.87,-4.05 -1.27,-0.81 -25.26,-0.36 -26.49,-0.36 -4.44,-0 -8.88,0 -13.32,0 -2.22,0 -4.44,-0 -6.66,-0 -2.86,0 -4.88,0.7 -4.66,-2.42l-0.46 1.04c-0.03,0.07 -0.06,0.15 -0.08,0.22l-0.14 0.39 0.14 0.72c0.89,0.51 1.12,0.37 1.34,1.23 -1.18,0.65 -35.21,0.28 -41.35,0.27 -2.96,0 -11.73,0.38 -14.02,-0.12 -0.04,-0.97 -0.21,-1.65 0.3,-2.24 0.16,-1.41 0.22,-0.54 0.96,-1.57l0.38 -0.85c-2.31,0.84 -2.33,2.14 -2.36,4.75 -2.01,0.11 -3.1,0.38 -3.6,1.91 -0.3,1.19 -0.12,1.12 -0.14,2.31 -0,0.02 -0.01,1.09 -0.01,1.1 0.27,1.02 -0.26,0.37 0.59,0.83 -0.02,-1.41 -0.43,-2.56 0.19,-3.67 0.46,-2.29 3.21,-1.73 5.8,-1.72 17.15,0.03 36.17,-0.33 52.81,0.03l-0.96 4.04 -0.15 1.14 -10.38 0.09c-1.5,0 -1.77,0.04 -2.34,-1.22 -1.82,-0.57 -2.66,-1.8 -5.7,-1.59 -3.01,0.2 -2.79,1.58 -6.09,1.58 -5.02,0.01 -5.67,-3.89 -11.81,0.13 0.25,0.52 -0.75,1.03 0.64,0.19 2.75,-0.54 4.32,-2.46 8.09,-0.08 7.68,4.85 1.4,20.14 -8.78,12.58 -0.11,0.58 0.07,0.45 -0.43,0.5 0.47,0.62 0.9,0.66 1.36,1.38 -6.71,0.05 -13.43,0.01 -20.14,0.01 -6.65,0 -6.07,1.15 -6.11,-8.97 -0.01,-2.12 -0.04,-2.95 1.56,-3.46 0.66,-0.83 0.51,-0.2 1.55,-0.74l-1.71 0.15c-2.57,-0 -2.08,3.63 -2.08,6 -0,3.1 -0.46,4.86 0.89,7.11l-6.62 0.05c1.86,-1.35 4.16,-1.95 5.17,-3.84l-2.76 -2.98c2.97,-5.65 3.54,-5.96 0.75,-12.55 -0.43,-0.33 -3.06,-2.69 -3.42,-3.08 2.21,-0.84 5.06,-2.94 5.08,-5.82 -2.75,0.26 -5.88,0.8 -8.16,1.71 -0.08,-1.37 0.31,-2.01 -0.8,-2.22 -1.19,-0.22 -1.85,0.44 -2.15,1.05l-0.28 1.22 -0.61 -0.44c-1.95,-0.47 -5.36,-1.18 -7.51,-1.3 0.02,2.61 2.58,4.82 4.47,5.46l0.65 0.28c0.05,0.85 0.06,0.07 -0.43,0.42 -1.98,0.9 -4.14,3.53 -4.76,6.53 -0.9,4.36 0.82,6.11 2.22,8.67l-1.41 1.19c-0.64,1.22 -1.02,0.75 -1.33,2.26 2.97,2.17 1.89,1.56 5.31,3.4 -4.08,0.23 -10.34,0.27 -14.41,0.05 -2.77,-0.15 -2.06,-2.21 -2.1,-4.95 -0.09,-5.75 -0.43,-35.16 0.3,-36.24l-0.19 -0.37c0.43,-2.14 1.14,-5.79 2.63,-6.95 0.75,-1.92 3.61,-4.48 5.38,-5.63 3.32,-2.15 4.36,-2.15 8.97,-2.15 4.65,-0.01 5.72,-0.39 9.47,1.66 2.53,1.38 4.27,3.26 5.83,5.42 0.05,0.05 0.14,0.06 0.16,0.16 0.02,0.1 0.13,0.13 0.16,0.16 0.11,0.12 0.34,0.36 0.41,0.44 0.81,2.18 1.69,3.8 2.21,6.6l0.01 0.62c0.85,3.11 -0.03,22.23 0.43,23.83 0.14,0.5 0.23,0.58 0.38,0.8 -0.32,-3.6 0,-8.68 0,-12.47 -0,-4.2 -0.11,-8.18 -0.26,-12.25 0.82,-4.72 -5.21,-13.17 -11.63,-15.16 -0.08,-4.62 0.03,-3.05 -1.4,-3.67l-0.06 -5.27c-1.56,-1.04 -1.59,1.78 -1.55,-4.88 0.32,-0.47 0.06,-0.27 1.1,-0.38l-0.26 -0.54 -1.84 0.01c-3.2,-0.06 -1.63,0.29 -3.46,-1.14 -0.81,-0.63 -1.84,-0.97 -3.17,-1.3l-0 -2.57 6.52 0.02 1.83 0.06c0.62,-0.63 -0.9,-0.54 0.8,-0.52 -0.92,2.57 -0.2,0.98 0.18,1.35 -0.21,-1.43 -0.14,-0.37 0.24,-0.77 5.33,0.35 11.23,1.51 15.56,3.43 1.94,0.86 5.79,2.82 5.93,-0.83 0.18,-4.66 -17.33,-7.13 -21.14,-7.39 -3.02,-0.21 -6.17,-0.22 -9.23,-0.17 -4.2,0.06 -4.32,3.64 -1.63,4.68z"/>
  <path class="fil1 str0" d="M150.46 68.2c0.4,-1.07 1,-1.33 2.11,-1.64 -0.35,0.95 0.1,0.52 -0.81,1.19 -0.57,0.43 -0.54,0.37 -1.3,0.44zm-3.21 -0.68c-3.95,0.16 -3.24,-3.59 -1.42,-4.09 2.28,-0.63 4.09,1.95 1.42,4.09zm-47.78 -9.69c-0.22,3.11 1.8,2.42 4.66,2.42 2.22,-0 4.44,0 6.66,0 4.44,-0 8.88,-0 13.32,-0 1.23,0 25.22,-0.45 26.49,0.36 -1.64,1.19 -7.46,-1.23 -8.87,4.05 -1.03,3.87 3.18,6.92 6.35,4.78 0.39,-0.22 -0.68,-0.59 0.94,-0.17 0.15,1.09 0.1,0.21 -0.23,0.57 -2.42,1.87 -4.79,3.64 -7.19,5.49 -3.99,3.08 -3.34,2.84 -9.73,2.84 -2.39,-0 -30.58,-0.19 -31.47,0.13 -1.42,0.51 -1.78,3.01 1.2,3.08 4.1,0.1 8.38,-0.02 12.5,-0.02 7.24,0 18.22,0.62 24.9,-0.22l5.02 -3.65c0.94,-0.69 4.25,-3.52 5.29,-3.73 0.56,-0.81 0.75,-0.83 1.52,-1.39 5.61,-4.06 5.31,-2.88 4.96,-12.62 -0.13,-3.7 -3.86,-2.68 -7.29,-2.68 -3.33,0.01 -6.66,0 -9.99,0 -6.75,-0 -13.51,0.04 -20.25,-0.01l-14.98 0c-4.16,-0.02 -2.72,0.26 -3.82,0.76z"/>
  <path class="fil0 str0" d="M135.28 77.17l-13.95 0.03c-1.18,-1.37 -1.9,-5.65 -1.9,-7.73 -0.01,-2.85 0.73,-5.79 1.72,-8.11 1.47,-0.41 12.43,-0.35 14.28,-0.09 -0.93,1.66 -1.68,5.26 -1.74,7.65 -0.09,4.06 0.94,5.12 1.59,8.25zm-31.29 -16.02l3.84 -0c-0.81,3.01 -1.69,4.57 -1.71,8.05 -0.03,3.95 0.99,4.94 1.64,7.97l-3.67 0.17 -1.35 -0.33c-0.52,-0.07 -1.05,-0.04 -1.58,-0.04 0.57,0.63 -0.21,0.34 1.29,0.47l24.16 0.06c3.31,-0 9.83,0.74 12.1,-0.91 1.42,-1.03 6.19,-4.94 7.45,-5.39l-1.14 -0.45c-1.81,-0.53 -3.46,-1.22 -4.03,-3.68 -0.86,-3.67 1.93,-5.35 2.49,-6.07l-32.13 -0c-1.49,-0 -9.17,-0.68 -10.17,0.44 0.47,0 0.82,0 1.28,-0.05l1.53 -0.23z"/>
  <path class="fil0 str0" d="M168.34 76.09c-0.6,-0.92 -0.22,-12.46 -0.25,-14.65 -0.03,-1.95 -0.49,-13.83 0.25,-14.5 0.44,-1.26 1.35,-0.92 2.92,-0.9 1.33,0.01 2.65,-0.01 3.97,0.02l-0.07 17.73c0.22,0.79 0.5,5.99 -0.04,6.82l-6.94 -0.06 0.02 0.29c1.85,0.04 5.48,-0.31 7.03,0.18l0.03 4.96c-1.29,0.35 -5.52,0.26 -6.93,0.09zm-57.14 -35.33c-0.01,-3.6 3.87,-6.79 7.03,-7.65 4.22,-1.15 9.26,1.25 10.19,3.83 0.54,0.38 0.21,-0.03 0.8,0.8l1.13 3.01c0.35,1.78 0.28,14.23 0.05,15.58l-19.51 -0.01c-0.19,-2.19 -0.57,-14.59 0.32,-15.56zm-8.17 13.11c-0.13,-3.97 4.61,-11.02 6.67,-11.58 0.41,-0.53 0.07,-0.55 0.53,-0.28l-0.12 14.33 -7.36 0.02c-0.08,-1.07 -0.08,-1.73 0.29,-2.5zm70.72 -10.51l0.28 -0.01 1.17 0.04 -0.01 1.77 -3.15 -0.04 0.01 -1.74 1.7 -0.03zm-1.76 -2.69l0.07 -0.71 -0.01 -2.35 3.19 0.02 -0.07 2.35 0.08 0.68 -0.19 2.39 -2.94 -0.02 -0.12 -2.35zm-28.76 2.17c1.91,1.09 3.31,3.27 4.39,5.59 1.29,2.76 1.52,4.48 1.82,7.8 -0.78,0.33 -1.38,0.21 -2.33,0.21 -3.18,-0.01 -14.5,0.24 -15.94,-0.18 -0.18,-5 -0.01,-10.12 -0.21,-15.07 0.03,-1.32 -0.44,-2.1 -0.78,-3.26 2.82,-0.08 5.44,0.36 7.75,1.32 1.17,0.48 5.14,2.47 5.29,3.59zm28.85 -30.37l-0.12 -0.71c0.19,-1.73 -0.45,-4.39 1.78,-4.25 1.97,0.12 1.35,2.58 1.55,4.27l-0.13 0.68 0.05 24.84 -3.23 -0.03 0.09 -24.79zm-0.81 27.45l0.03 0.66c0.02,0.06 0.06,0.14 0.07,0.18l0.13 0.95c0.01,0.52 -0.04,0.81 -0.1,1.39l-1.21 0.29c1.24,-0.12 1.16,-0.39 1.08,1.91 -5.03,0.18 -3.8,-0.07 -3.8,13.35 0,5.79 -0.04,11.59 0,17.37 -3.08,0 -5.58,0.33 -8.03,-1.13 -1.08,-0.64 -4.05,-3.22 -3.72,-5.08 0.24,-1.34 0.8,-0.9 0.79,-3.67 -0.01,-1.7 0.31,-7.23 -0.44,-8.42 -0.74,-1.18 -1.63,-1.07 -3.03,-1.6 -0.88,-9.12 -1.47,-15.11 -6.44,-20.83 -1.75,-2.02 -4.56,-4.38 -7.86,-5.76 -4.83,-2.02 -7.09,-1.35 -12.28,-1.87 0.37,0.34 0.78,0.61 1.25,0.8 4.12,1.68 11.8,-1.5 18.89,7.94 0.92,1.23 3.03,4.07 3.18,5.85 1.23,1.23 1.34,4.37 1.59,6.25 0.26,1.99 0.77,4.73 0.81,6.59l0.26 1.35 -2.36 -0.18 -0.18 -2.38c-0.38,-5.21 -3.87,-10.08 -6.43,-12.13 -3.86,-3.09 -7.23,-4.42 -13.7,-4.64 -1.49,-1.53 -1.9,-2.64 -3.99,-3.75 -2.1,-1.12 -3.83,-1.35 -6.49,-1.27l-1.3 0.2c0.29,-2.28 1.79,-4.31 4.02,-4.33 1.21,-1.06 3.77,0.36 4.54,1.03 1.56,1.34 1.02,2.68 1.99,4.11 0.74,-0.83 0.14,-1.91 -0.18,-3.09 -0.5,-0.69 -1.34,-1.66 -1.89,-2.36 -2.16,-0.29 -3.68,-1.59 -6.34,0.08 -1.98,1.24 -2.23,2.08 -2.97,4.8 -0.83,1.15 -4.6,0.99 -6.59,7.05 -0.61,1.86 -1.03,1.53 -2.19,2.51 -2.45,2.09 -6.03,7.44 -6.19,12.1l-0.18 2.12 -1.63 0.24c-0.99,0.17 -0.64,0.33 -1.72,0.39l-3.01 -0.11 -0.09 -1.42c-0.35,-1.06 -0.89,-1.63 -1.98,-1.66l-39.49 0.07c6.44,0.15 13.21,0.13 19.78,0.13l17.49 -0.01c2.17,-0 1.71,0.01 2.1,0.39 0.95,0.29 0.83,0.16 1.16,0.92 0.25,0.36 0.02,-0.25 0.33,0.62 0,0.01 0.15,0.82 0.16,0.85 -0.07,0.04 -0.19,0 -0.23,0.1l-31.28 0.26c-2.71,0 -8.83,0.33 -11.08,-0.09 0.08,0.05 0.21,-0 0.26,0.11 0.21,0.42 4.87,0.35 5.26,0.35 6.47,0 39.37,-0.29 40.43,0.24l0.28 1.76 0.14 -0.39c0.03,-0.06 0.06,-0.15 0.08,-0.22l0.46 -1.04c1.1,-0.5 -0.34,-0.78 3.82,-0.76l14.98 -0c6.75,0.05 13.51,0.01 20.25,0.01 3.33,0 6.66,0.01 9.99,0 3.43,-0.01 7.16,-1.02 7.29,2.68 0.35,9.73 0.65,8.56 -4.96,12.62 -0.77,0.56 -0.96,0.58 -1.52,1.39l0.85 -0.06c1.25,-0.72 1.8,-1.46 3.18,-2.1 0.51,-0.52 0.71,-0.87 1.56,-1.26 0.83,2.52 2.58,4.47 4.76,5.49 4.5,2.09 21.64,0.22 25.08,1.05 1.1,0.27 2.14,1.44 1.53,3.02 -0.37,0.84 -0.04,0.56 -0.84,1.08l0.89 0.03c0.51,-0.43 0.65,-0.44 0.64,-1.52l0.01 -0.6 -0.02 -0.86c-1.1,-3.13 -7.52,-1.96 -10.93,-2l-0.1 -29.92c4.45,-0.24 10.91,-0.52 14.69,0.35l0.73 0.42 -0.28 -1.09 -0.97 -0.33 -3.48 -0.11 -10.63 -0.13 -0.01 -1.71 -0.15 -0.63 0.07 -2.2 0.11 -0.76c-0.1,-2.69 -0.16,-2.18 1.1,-2.34 -1.46,-1.01 -1.22,0.21 -1.16,-2.76l0.01 -20.82c0,-2.27 0.7,-6.11 -1.28,-7.01 -3.32,-1.52 -3.34,2.3 -3.33,4.51l0 24.97c-0.19,1.1 0.34,0.67 -1.18,0.86 1.36,0.94 1.37,-0.06 1.13,2.6z"/>
  <path class="fil1 str0" d="M184.86 73.93c0.83,0.4 1.02,0.6 0,1.01 -0.65,-0.76 -0.61,-0.37 0,-1.01zm-2.5 -0.01c0.49,0.59 0.87,0.1 0,1.03 -0.94,-0.43 -0.86,-0.61 0,-1.03zm5.03 1.02c-1.19,-2.08 2.38,-0.54 0,0zm-7.44 -0.83c0.22,0.74 0.25,0.22 -0.09,0.86 -1.24,-0.35 -0.95,-1.18 0.09,-0.86zm7.96 -1.25l-3.84 -0.02c-0.15,-1.23 -0.27,-2.65 0.11,-3.74 0.96,-0.09 2.47,-0.11 3.45,-0.07 1.58,0.06 1.49,0.53 1.48,2.11 -0,0.97 -0.16,1.72 -1.21,1.71zm-6.14 -1.99c0.08,-0.05 0.32,-1.14 1.01,0.28 -0.36,0.21 0.43,0.65 -0.62,0.22 -0.99,-0.41 0.1,0.03 -0.39,-0.49zm-2.65 0.28c0.37,-1.04 0.17,-0.9 1.02,-0.28 -0.38,0.84 -0.09,1.01 -1.02,0.28zm5.74 -4.1c0.98,0.43 0.87,0.61 0,1.02 -0.38,-0.46 -0.86,-0.22 0,-1.02zm-2.5 -0.01c0.74,0.83 0.57,0.36 0,1.04 -0.81,-0.41 -0.97,-0.61 0,-1.04zm4.99 -0c0.51,0.13 0.7,0 0.73,0.53 0.05,1.03 -0.75,0.31 -0.77,0.3 -0.19,-0.54 -0.43,-0.17 0.03,-0.83zm-8.24 0.5c0.02,-0.53 0.95,-0.85 0.96,0.01 0.01,0.94 -0.98,0.58 -0.96,-0.01zm8.02 -3.33c0.4,-0.89 0.59,-0.95 0.98,0 -0.78,0.66 -0.32,0.54 -0.98,0zm-2.61 0.34c0.05,-0.42 -0.08,-1.56 0.73,-0.74 0.79,0.79 -0.32,0.69 -0.73,0.74zm-1.78 0.03c-0.41,-0.07 -1.56,0.01 -0.77,-0.78 0.85,-0.85 0.71,0.35 0.77,0.78zm-3.61 -0.65c0.92,-0.68 0.65,-0.46 0.99,0.28 -1.06,0.82 -0.58,0.26 -0.99,-0.28zm-0.1 -14.88l1.09 -0.37c0.19,-0.02 0.88,0 1.12,0 4.59,0.05 7.3,-0.85 7.38,1.93 0.23,7.55 0.29,6.43 -5.71,6.43 -3.18,0 -3.7,0.45 -4.5,-0.88 -0.54,-0.2 -0.28,-2.97 -0.29,-3.89 -0.01,-1.32 -0.38,-3.03 0.9,-3.23zm7.93 28.97c1.38,-0.32 2.34,-2.21 2.91,-3.5l0.82 -1.65 -0.07 -26.42c-3.78,-0.86 -10.24,-0.59 -14.69,-0.35l0.1 29.92c3.41,0.04 9.83,-1.14 10.93,2z"/>
  <path class="fil1 str0" d="M113.01 40.94c4.32,-0.09 3.29,-1.69 4.98,-1.66 1.63,0.03 0.48,1.39 4.94,1.69 2.92,6.99 -3.03,12.32 -5.17,12.13 -1.7,-0.15 -4.08,-3.02 -4.74,-4.46 -1.12,-2.45 -0.94,-5.38 -0.01,-7.7zm-1.8 -0.18c-0.14,4.39 -0.4,9.06 -0.15,13.55 2.95,0.07 5.93,0.03 8.88,0.02 3.26,-0.01 5.47,0.33 7.42,-1.57 2.84,-2.76 1.66,-11.51 1.06,-15.83 -0.93,-2.58 -5.96,-4.98 -10.19,-3.83 -3.16,0.86 -7.04,4.05 -7.03,7.65z"/>
  <path class="fil1 str0" d="M135.28 77.17c-0.65,-3.13 -1.68,-4.19 -1.59,-8.25 0.06,-2.4 0.81,-6 1.74,-7.65 -1.85,-0.25 -12.81,-0.32 -14.28,0.09 -0.99,2.32 -1.72,5.26 -1.72,8.11 0,2.08 0.72,6.36 1.9,7.73l13.95 -0.03z"/>
  <path class="fil1 str0" d="M41.17 64.15l-0.04 2.59 21.04 -0.15 0.17 0.04c6.14,-4.02 6.79,-0.12 11.81,-0.13 3.3,-0.01 3.08,-1.38 6.09,-1.58 3.04,-0.2 3.88,1.02 5.7,1.59 1.51,0.48 11.35,0.47 12.87,-0.01l0.96 -4.04c-16.64,-0.36 -35.66,-0 -52.81,-0.03 -2.58,-0.01 -5.34,-0.57 -5.8,1.72z"/>
  <path class="fil0 str0" d="M119.29 32.13c2.65,-0.09 4.39,0.15 6.49,1.26 2.09,1.11 2.51,2.22 3.99,3.75 6.47,0.22 9.84,1.54 13.7,4.64 2.56,2.05 6.05,6.92 6.43,12.13l0.51 2.34 1.84 -0.01 -0.07 -1.12c-0.03,-1.86 -0.55,-4.6 -0.81,-6.59 -0.24,-1.88 -0.36,-5.02 -1.59,-6.25 -0.29,0.13 -0.09,-0.06 -0.55,-0.93 -3.96,-7.35 -11.98,-12.05 -20.87,-11.3 0.32,1.19 0.92,2.27 0.18,3.09 -0.97,-1.43 -0.43,-2.77 -1.99,-4.11 -0.77,-0.66 -3.33,-2.08 -4.54,-1.03l-0.25 0.12c-1.09,1.37 -2.1,1.36 -2.47,4.01z"/>
  <path class="fil1 str0" d="M6.81 32.86c-0.28,0.91 -0.77,0.72 2.98,0.68l26.81 -0.02 -0.13 -1.37c-1.57,-2.16 -3.3,-4.04 -5.83,-5.42 -3.75,-2.04 -4.82,-1.66 -9.47,-1.66 -4.61,0.01 -5.65,0 -8.97,2.15 -1.77,1.15 -4.63,3.72 -5.38,5.63z"/>
  <path class="fil0 str0" d="M6.81 32.86c-1.49,1.16 -2.2,4.81 -2.63,6.95 1.99,-0.87 28.03,-0.21 32.81,-0.29l-0.16 -4.84c-0,-0.32 -0.02,-0.32 0.04,-0.65l0.13 -0.52c0.02,-0.1 0.16,-0.52 0.19,-0.6 -0.07,-0.08 -0.3,-0.32 -0.41,-0.44 -0.03,-0.03 -0.13,-0.06 -0.16,-0.16 -0.02,-0.1 -0.11,-0.11 -0.16,-0.16l0.13 1.37 -26.81 0.02c-3.74,0.04 -3.26,0.23 -2.98,-0.68z"/>
  <path class="fil1 str0" d="M130.98 41.19c0.84,1.42 0.4,10.72 0.32,13.11 4.23,-0.01 7.4,0.12 9.89,-2.13 1.89,-1.71 3.64,-5.64 2.06,-9.32 -0.15,-1.12 -4.12,-3.11 -5.29,-3.59 -2.31,-0.96 -4.94,-1.4 -7.75,-1.32 0.33,1.16 0.8,1.94 0.78,3.26z"/>
  <path class="fil0 str0" d="M46.14 57.78c-0.73,1.03 -0.8,0.17 -0.96,1.57l0.13 1.17c10.76,0.51 28.69,0.03 40.77,0.03l11.7 0.02c1.22,-0.04 1.06,0.24 1.13,-0.37l-0.14 -0.72 -0.28 -1.76 -52.36 0.06z"/>
  <path class="fil1 str0" d="M51.75 69.76c-0.92,0.64 -0.19,0.09 -0.59,0.62 1.08,2.31 0.86,1.97 0.81,4.81 0.18,0.91 -0.07,0.48 0.62,0.86 0.56,0.3 13.4,2.17 15.63,1.28 3.36,-1.48 2.39,-8.25 -2.39,-9 -2.97,-0.47 -10.48,1.4 -14.08,1.43z"/>
  <path class="fil0 str0" d="M31.56 67.54c0.67,0.38 0.57,-0.82 0.61,1.1 0.01,0.22 -0.24,1.04 -0.31,1.26 -2.16,6.3 -10.92,5.05 -11.05,1.93 -2.7,-2.28 -1.56,-6.77 0.47,-8.61 2.28,-2.06 6.41,-2.56 8.55,0.44l0.21 -0.45c0.7,0.42 2.09,2.08 1.66,3.23l-0.15 1.11zm-15.2 1.1c1.11,11.87 19.27,10.68 18.31,-1.64 -0.93,-11.88 -19.47,-10.74 -18.31,1.64z"/>
  <path class="fil1 str0" d="M153.35 71.59c-0.39,4.01 -0.16,5.25 2.94,7.05 2.63,1.53 5.88,1.53 9.16,1.52 3.52,-0 18.65,0.47 20.84,-0.28 0.61,-1.58 -0.43,-2.76 -1.53,-3.02 -3.45,-0.83 -20.59,1.04 -25.08,-1.05 -2.18,-1.01 -3.93,-2.96 -4.76,-5.49 -0.85,0.39 -1.05,0.74 -1.56,1.26z"/>
  <path class="fil0 str0" d="M33.73 61.99c2.78,6.59 2.22,6.9 -0.75,12.55l2.76 2.98c-1.02,1.89 -3.31,2.49 -5.17,3.84l6.62 -0.05c-1.35,-2.26 -0.89,-4.01 -0.89,-7.11 0,-2.37 -0.49,-6 2.08,-6l0.58 -0.32c0.54,-0.41 0.28,0.07 0.61,-0.62l-0.14 -27.14 -0.01 -0.62 -2.42 0.01c-0.39,8.31 1.17,12.93 -2.12,20.93 -0.86,2.11 -0.72,1.53 -1.15,1.54z"/>
  <path class="fil0 str0" d="M61.86 79.83c-1.55,-1.01 -0.98,-0.85 -3.58,-1.13 -1.33,-0.15 -2.65,-0.33 -4,-0.5 -7.65,-0.97 -3.5,0.7 -7.59,0.74 -6.46,0.07 -6.81,-8.66 -3.02,-9.85 -0.45,-0.5 0.4,-0.29 -1.13,-0.5 -0.18,-0.02 -1.14,0.02 -1.4,0.02 -0.97,0.02 -1.64,-0.03 -2.61,0.17 -1.6,0.51 -1.56,1.34 -1.56,3.46 0.04,10.12 -0.54,8.97 6.11,8.97 6.71,-0 13.43,0.04 20.14,-0.01 -0.46,-0.73 -0.89,-0.76 -1.36,-1.38z"/>
  <path class="fil0 str0" d="M174.09 54.56c-1.23,0.42 -3.81,0.36 -4.87,-0.14l0.08 -3.82c1.33,-0.36 3.18,-0.19 4.86,-0.21l-0.07 4.17zm-5.75 -7.62l0.08 16.88 6.75 -0.02 0.07 -17.73c-1.33,-0.04 -2.65,-0.01 -3.97,-0.03 -1.57,-0.02 -2.48,-0.36 -2.92,0.9z"/>
  <path class="fil1 str0" d="M88.3 76.9c-0.01,0.73 -0.46,0.66 2.5,0.61l9.2 -0.09c0.18,-0.26 0.18,0.07 0.09,-0.64l-0.6 -1.81c-0.29,-0.93 -0.56,-1.95 -0.61,-2.96 -0.64,-1.08 -0.42,-2.05 -0.58,-3.39l-9.71 -0c-1.43,0.05 -0.39,-0.05 -0.8,0.36 1.1,3.29 1.26,4.21 0.51,7.93z"/>
  <path class="fil0 str0" d="M131.3 54.29l0.07 1.93 18.08 0.01c-0.3,-3.32 -0.53,-5.04 -1.82,-7.8 -1.08,-2.32 -2.48,-4.5 -4.39,-5.59 1.58,3.68 -0.17,7.62 -2.06,9.32 -2.49,2.25 -5.66,2.12 -9.89,2.13z"/>
  <path class="fil0 str0" d="M16.6 75.66c-3.83,1.17 -8.05,0.5 -12.08,0.74 0,-6.1 0,-12.2 0,-18.3 0,-3.43 0.44,-15.51 -0.15,-17.92 -0.73,1.08 -0.39,30.49 -0.3,36.24 0.04,2.74 -0.67,4.8 2.1,4.95 4.07,0.22 10.33,0.18 14.41,-0.05 -3.42,-1.84 -2.34,-1.23 -5.31,-3.4 0.31,-1.5 0.69,-1.04 1.33,-2.26z"/>
  <path class="fil0 str0" d="M139.01 81.13c-0.03,0.7 -0.91,0.44 0.86,0.63l10.03 -0.12c7.07,-0.43 31.13,0.64 34.64,-0.32 -6.6,0.43 -14.57,0.05 -21.33,0.05 -3.53,0 -6.07,-0.4 -8.65,-2.12 -1.21,-0.81 -5.31,-4.02 -4.39,-5.56l-0.85 0.06c-1.04,0.21 -4.36,3.04 -5.29,3.73l-5.02 3.65z"/>
  <path class="fil1 str0" d="M24.77 64.39c4.69,-1.27 5.95,5.89 1.82,6.92 -4.6,1.15 -6.45,-5.67 -1.82,-6.92zm-3.96 7.44c2.06,1.01 3.68,2.95 7.15,1.4 2.37,-1.06 2.93,-2.51 3.6,-5.67l0.15 -1.11c-0.99,-0.45 -0.41,-0.28 -1.04,-1.47 -0.29,-0.56 -0.57,-0.88 -0.83,-1.31 -2.15,-3 -6.27,-2.5 -8.55,-0.44 -2.03,1.83 -3.17,6.32 -0.47,8.61z"/>
  <path class="fil0 str0" d="M47.53 6.81c0.69,1.76 0.17,0.52 -0,0.92 -8.71,-4.39 -17.08,-5.85 -26.91,-5.76 -1.56,0.01 -3.59,0.32 -4.39,-0.28 -0.37,0.47 -0.01,-0.45 -0.35,0.56 -0.15,0.46 -0.17,0.26 -0.07,0.79 0.1,0.55 0.41,0.82 0.67,1.17 2.13,0.47 7.07,0.17 9.62,0.28 2.95,0.12 5.95,0.49 8.79,1.06 6.14,1.23 10.51,3.65 11.04,3.77 1.67,0.35 3.07,-1.3 1.61,-2.5z"/>
  <path class="fil1 str0" d="M75.16 75.79l0.11 0.44 8.23 -0.05c1.02,-8.42 -2.45,-9.46 -10.47,-8.92 0.54,1.1 1.4,1.73 1.85,3.45 0.44,1.66 0.19,3.37 0.28,5.08z"/>
  <path class="fil0 str0" d="M111.21 40.76c-0.89,0.97 -0.51,13.37 -0.32,15.56l19.51 0.01c0.23,-1.35 0.3,-13.8 -0.05,-15.58l-1.13 -3.01c-0.59,-0.83 -0.26,-0.42 -0.8,-0.8 0.6,4.31 1.77,13.07 -1.06,15.83 -1.95,1.9 -4.16,1.56 -7.42,1.57 -2.95,0.01 -5.93,0.05 -8.88,-0.02 -0.25,-4.49 0.01,-9.17 0.15,-13.55z"/>
  <path class="fil1 str0" d="M62.99 66.83l-0.14 0.38c0.26,0.51 -0.25,0.22 0.94,0.33 4.33,0.09 7.81,2.02 7.09,6.93 -0.31,2.13 -1.63,3.5 -3.01,4.29 -2.22,1.26 -3.3,0.4 -5.57,0.57 10.18,7.57 16.46,-7.73 8.78,-12.58 -3.77,-2.38 -5.34,-0.46 -8.09,0.08z"/>
  <path class="fil1 str0" d="M116.59 43.25c2.81,-1.41 4.83,3.1 1.91,4.29 -2.89,1.18 -4.75,-2.87 -1.91,-4.29zm-3.19 -1.43c-1.35,5.11 0.87,9.39 4.59,10.6 3.23,-1.19 6.31,-5.81 4.54,-10.42l-2.42 -0.74c-0.97,-0.38 -1.23,-0.8 -2.12,-1.27 -1.05,0.39 -0.93,0.72 -1.96,1.18 -0.85,0.38 -1.67,0.38 -2.63,0.65z"/>
  <path class="fil0 str0" d="M26.17 10.14l0.26 0.54c0.03,-0.03 0.07,-0.12 0.07,-0.1 0.2,0.68 -0.03,0.09 0.37,-0.65 0.03,-0.05 0.07,-0.15 0.12,-0.22 3.03,1.02 5.77,2.08 8.23,3.52 3.37,1.97 5.93,5.07 7.58,4.04 1.65,-2.02 0.21,-2.96 -1.27,-4.24 -2.83,-2.45 -11.4,-7.07 -14.51,-6.99 -0.38,-0.37 -1.1,1.22 -0.18,-1.35 -1.7,-0.02 -0.18,-0.11 -0.8,0.52l0.13 4.92z"/>
  <path class="fil1 str0" d="M53.29 55.56c0.07,0.44 33.37,0.17 39.2,0.24 1.16,0.01 1.93,0.29 2.16,-0.53 -0.33,-0.76 -0.21,-0.62 -1.16,-0.92 -3.07,-0.33 -29.99,-0.03 -36.24,-0.09 -2.08,-0.02 -3.45,-0.4 -3.95,1.3z"/>
  <path class="fil0 str0" d="M45 69.11c5.75,-2.27 9.03,6.45 3.43,8.77 -5.68,2.35 -9.55,-6.36 -3.43,-8.77zm6.76 0.65c3.6,-0.03 11.11,-1.9 14.08,-1.43 4.78,0.75 5.75,7.51 2.39,9 -1.36,2.28 -5.71,1.17 -8.27,0.85 -2.98,-0.38 -5.92,-0.72 -8.93,-1.11 0.07,-0.34 0.1,-0.36 0.29,-0.75 0.07,-0.14 0.22,-0.42 0.3,-0.56 0.15,-0.26 0.28,-0.45 0.36,-0.57 0.05,-2.83 0.28,-2.5 -0.81,-4.81 -0.36,-0.46 -0.35,0.58 -0.29,-0.56l0.88 -0.06zm-2.35 -0.83c0.88,-0.67 2.75,-0.39 4.36,-0.33 -0.5,0.31 0.43,-0.01 -0.69,0.34 -1.05,0.33 -2.81,0.36 -3.66,-0.01zm11.94 -1.16c-0.9,0.49 -1.62,0.4 -2.72,0.39 -3.37,-0.03 -17.08,0.14 -18.13,-0.2l0.44 0.17c0.09,0.02 1.82,-0.03 3.3,0.45l-0.55 0.51c-3.8,1.19 -3.44,9.92 3.02,9.85 4.09,-0.04 -0.05,-1.71 7.59,-0.74 1.35,0.17 2.66,0.35 4,0.5 2.6,0.28 2.03,0.12 3.58,1.13 0.51,-0.05 0.32,0.07 0.43,-0.5 2.27,-0.18 3.35,0.69 5.57,-0.57 1.38,-0.78 2.69,-2.15 3.01,-4.29 0.72,-4.91 -2.76,-6.83 -7.09,-6.93 -0.58,0.28 0.64,-0 -0.71,0.27 -0.61,0.12 -0.32,0.03 -0.79,-0.02 0.34,-0.84 0.08,-0.26 0.57,-0.58l0.14 -0.38c-1.39,0.83 -0.39,0.33 -0.64,-0.19l-0.17 -0.04c-0.44,0.57 -0.62,0.5 -0.83,1.18z"/>
  <path class="fil0 str0" d="M98.92 60.2c-0.07,0.61 0.09,0.33 -1.13,0.37l-11.7 -0.02c-12.08,-0 -30.02,0.49 -40.77,-0.03l-0.13 -1.17c-0.51,0.59 -0.34,1.27 -0.3,2.24 2.29,0.5 11.05,0.12 14.02,0.12 6.14,0 40.17,0.38 41.35,-0.27 -0.22,-0.86 -0.45,-0.72 -1.34,-1.23z"/>
  <path class="fil0 str0" d="M46.52 56.92l-0.38 0.85 52.36 -0.06c-1.06,-0.52 -33.96,-0.24 -40.43,-0.24 -0.39,0 -5.05,0.06 -5.26,-0.35 -0.06,-0.11 -0.18,-0.06 -0.26,-0.11 2.25,0.42 8.37,0.09 11.08,0.09l31.28 -0.26c0.05,-0.1 0.16,-0.06 0.23,-0.1l-42.05 0.02c-0.15,-0.9 -0.3,-0.75 0.21,-1.2 0.5,-1.69 1.87,-1.32 3.95,-1.3 6.26,0.06 33.18,-0.24 36.24,0.09 -0.4,-0.38 0.06,-0.39 -2.1,-0.38l-17.49 0.01c-6.57,-0 -13.34,0.02 -19.78,-0.13l39.49 -0.07c-0.6,-0.46 -1.64,-0.38 -2.5,-0.37l-31.08 0.01c-4.34,-0 -7.31,-1.07 -8.05,3.31l-5.44 0.2z"/>
  <path class="fil1 str0" d="M104.08 77.34l3.67 -0.17c-0.65,-3.03 -1.67,-4.03 -1.64,-7.97 0.03,-3.48 0.9,-5.04 1.71,-8.05l-3.84 0c-0.44,2.83 -1.62,4.31 -1.66,8.05 -0.04,3.59 0.85,5.36 1.75,8.14z"/>
  <polygon class="fil0 str0" points="172.42,37.06 174.92,37.05 174.86,12.72 172.39,12.75 "/>
  <path class="fil1 str0" d="M45.91 71.94c2.5,-1.08 3.38,2.45 1.44,3.21 -1.1,0.43 -2.08,-0.12 -2.38,-0.89 -0.18,-0.47 -0.2,-1.03 -0.01,-1.5 0.45,-1.06 0.13,-0.47 0.94,-0.82zm-0.91 -2.83c-6.12,2.41 -2.25,11.12 3.43,8.77 5.61,-2.32 2.32,-11.04 -3.43,-8.77z"/>
  <path class="fil1 str0" d="M85.14 79.9c6.42,-5 1.16,-17.85 -7.31,-13.5 4.4,0.55 6.77,2.41 6.72,7.24 -0.05,4.62 -2.45,6.39 -6.69,6.98 2.26,1.38 5.46,0.69 7.28,-0.73z"/>
  <path class="fil1 str0" d="M103.04 53.86c0.59,0.6 -0.41,0.35 1.35,0.47l5.47 -0.04c0.09,-1.6 0.35,-11.36 -0.15,-12 -2.05,0.56 -6.79,7.61 -6.67,11.58z"/>
  <path class="fil0 str0" d="M150.17 73.69c-0.91,1.54 3.18,4.75 4.39,5.56 2.59,1.72 5.12,2.12 8.65,2.12 6.75,0 14.73,0.38 21.33,-0.05l0.9 -0.35c0.8,-0.52 0.46,-0.24 0.84,-1.08 -2.19,0.75 -17.32,0.27 -20.84,0.28 -3.27,0 -6.53,0 -9.16,-1.52 -3.09,-1.8 -3.32,-3.04 -2.94,-7.05 -1.38,0.64 -1.92,1.38 -3.18,2.1z"/>
  <path class="fil1 str0" d="M16.75 14.27c-0.96,2.96 -6.02,1.94 -4.91,-1.81 0.85,-2.87 6.07,-1.73 4.91,1.81zm2.26 0.55c1.81,-5.86 -7.05,-9.13 -9.29,-3.13 -2.38,6.37 7.36,9.35 9.29,3.13z"/>
  <path class="fil0 str0" d="M100 77.42l-9.2 0.09c-2.96,0.05 -2.51,0.13 -2.5,-0.61 -0.74,1.14 -0.56,1.46 -1.66,2.56 -0.76,0.77 -1.28,1.23 -2.18,1.9l14.63 -0.03c-0.87,-2.17 -0.24,-2.5 0.91,-3.92z"/>
  <path class="fil0 str0" d="M101.15 76.97c0.53,0 1.06,-0.03 1.58,0.04l1.35 0.33c-0.91,-2.78 -1.79,-4.55 -1.75,-8.14 0.04,-3.74 1.22,-5.22 1.66,-8.05l-1.53 0.23c-0.47,0.05 -0.82,0.05 -1.28,0.05 -2.24,2.72 -2.36,13.05 -0.01,15.54z"/>
  <path class="fil0 str0" d="M178.42 56.16l0.44 0c-0.22,-0.39 2.09,-0.24 2.66,-0.3 1.31,-0.13 1.64,-0.29 2.49,-1.11 1.8,-1.74 1.48,-2.56 1.69,-5.52l-6.66 -0.19c-1.28,0.19 -0.91,1.9 -0.9,3.23 0.01,0.92 -0.25,3.68 0.29,3.89z"/>
  <path class="fil0 str0" d="M95.13 56.75c-0,-0.02 -0.15,-0.84 -0.16,-0.85 -0.31,-0.88 -0.07,-0.26 -0.33,-0.62 -0.22,0.82 -0.99,0.54 -2.16,0.53 -5.83,-0.07 -39.13,0.19 -39.2,-0.24 -0.51,0.45 -0.36,0.31 -0.21,1.2l42.05 -0.02z"/>
  <path class="fil0 str0" d="M31.17 76.03c0.5,0.87 0.7,0.63 0.98,1.49 -1.74,1.3 -3.94,2.04 -6.54,2.06 -3.37,0.02 -4.53,-0.99 -6.74,-1.92 0.64,-1.56 0.96,-0.49 0.64,-1.75 -0.29,-0.47 -0.41,-0.47 -0.84,-0.78l-2.39 2.39c4.31,5.53 15.44,4.49 18.55,-0.07l-2.28 -2.37c-0.94,0.36 -0.6,0.44 -1.38,0.94z"/>
  <path class="fil1 str0" d="M16.22 1.69c0.8,0.6 2.84,0.29 4.39,0.28 9.84,-0.09 18.2,1.37 26.91,5.76 0.17,-0.39 0.69,0.84 0,-0.92 -0.25,-1.08 -5.17,-2.65 -6.19,-3 -2.53,-0.86 -5.09,-1.46 -7.72,-1.9 -3.19,-0.53 -15.84,-1.93 -17.4,-0.23z"/>
  <polygon class="fil0 str0" points="168.33,75.82 174.87,75.95 174.94,71.1 168.35,71.19 "/>
  <path class="fil0 str0" d="M113.4 41.83c0.96,-0.27 1.79,-0.27 2.63,-0.65 1.02,-0.46 0.91,-0.79 1.96,-1.18 0.9,0.47 1.15,0.89 2.12,1.27l2.42 0.74c1.76,4.6 -1.31,9.22 -4.54,10.42 -3.72,-1.21 -5.94,-5.49 -4.59,-10.6zm-0.4 -0.89c-0.92,2.33 -1.11,5.25 0.01,7.7 0.66,1.44 3.04,4.31 4.74,4.46 2.14,0.19 8.08,-5.14 5.17,-12.13 -4.46,-0.31 -3.31,-1.66 -4.94,-1.69 -1.69,-0.04 -0.66,1.57 -4.98,1.66z"/>
  <path class="fil0 str0" d="M24.33 10.15c0.16,-1.57 0.3,-3.48 -0.11,-5l-6.52 -0.02 0 2.57c1.33,0.33 2.36,0.67 3.17,1.3 1.83,1.44 0.26,1.08 3.46,1.14z"/>
  <path class="fil0 str0" d="M22.89 68.65c0.84,3.17 6.54,2.36 5.48,-1.62 -0.93,-3.47 -6.49,-2.19 -5.48,1.62z"/>
  <path class="fil0 str0" d="M31.17 76.03c-5.32,2.51 -6.51,2.28 -11.66,-0.12 0.32,1.25 0.01,0.19 -0.64,1.75 2.21,0.93 3.37,1.95 6.74,1.92 2.6,-0.02 4.8,-0.75 6.54,-2.06 -0.28,-0.86 -0.48,-0.63 -0.98,-1.49z"/>
  <path class="fil0 str0" d="M40.99 67.82l20.36 -0.05c0.22,-0.68 0.39,-0.61 0.83,-1.18l-21.04 0.15 0.04 -2.59c-0.62,1.11 -0.21,2.26 -0.19,3.67z"/>
  <path class="fil0 str0" d="M38.37 68.2l1.71 -0.15c-1.04,0.55 -0.89,-0.09 -1.55,0.74 0.96,-0.2 1.64,-0.15 2.61,-0.17 0.26,-0 1.22,-0.04 1.4,-0.02 1.53,0.21 0.68,-0.01 1.13,0.5l0.55 -0.51c-1.49,-0.49 -3.21,-0.43 -3.3,-0.45l-0.44 -0.17c1.05,0.34 14.76,0.17 18.13,0.2 1.1,0.01 1.82,0.1 2.72,-0.39l-20.36 0.05c-0.85,-0.46 -0.32,0.19 -0.59,-0.83 -0,-0.01 0.01,-1.08 0.01,-1.1 0.02,-1.2 -0.15,-1.13 0.14,-2.31 -0.71,-1.53 0.06,-18.13 -0.22,-22.14l-0.36 -1.41c0.15,4.07 0.25,8.05 0.26,12.25 0,3.79 -0.32,8.87 -0,12.47 -0.15,-0.22 -0.23,-0.3 -0.38,-0.8 -0.46,-1.6 0.42,-20.72 -0.43,-23.83l0.14 27.14c-0.33,0.69 -0.07,0.21 -0.61,0.62l-0.58 0.32z"/>
  <path class="fil1 str0" d="M18.01 19.03l-0.13 2.21 6.02 -0.18 -0.12 -4.65c-2.64,0 -1.42,0.12 -2.96,1.4 -0.78,0.64 -1.66,0.94 -2.81,1.22z"/>
  <path class="fil0 str0" d="M17.5 18.28c6.41,-0.51 6.21,-9.39 -0.19,-9.78 3.05,2.81 3.66,6.12 0.82,9.11l-0.47 0.49c-0.04,0.04 -0.11,0.11 -0.16,0.17z"/>
  <polygon class="fil0 str0" points="168.35,67.3 175.13,67.28 175.15,64.35 168.32,64.41 "/>
  <path class="fil1 str0" d="M168.32 64.41l6.83 -0.06 -0.02 2.93 -6.78 0.03 -0.03 -2.89zm0.03 11.67l-0.02 -0.27 0.02 -4.63 -0.14 -0.34 -0.02 -0.29 0.16 -2.68 6.78 -0.04 -0 2.77c0.55,-0.83 0.26,-6.03 0.04,-6.82l-6.75 0.02 -0.08 -16.88c-0.74,0.67 -0.28,12.55 -0.25,14.5 0.04,2.19 -0.34,13.74 0.25,14.66z"/>
  <polygon class="fil0 str0" points="168.19,70.56 175.12,70.61 175.12,67.84 168.35,67.88 "/>
  <path class="fil0 str0" d="M181.53 40.89c-0.01,0.01 -0.01,0.03 -0.02,0.04 -0.51,1.06 -0.69,1.01 -0.85,2.23l6.69 0.03c0.45,-0.42 0.15,0.05 0.31,-0.75 -0.82,-2.69 -5.34,-3.4 -6.14,-1.55z"/>
  <path class="fil0 str0" d="M68.22 77.33c-2.23,0.89 -15.07,-0.98 -15.63,-1.28 -0.7,-0.37 -0.44,0.05 -0.62,-0.86 -0.09,0.12 -0.21,0.31 -0.36,0.57 -0.08,0.14 -0.23,0.42 -0.3,0.56 -0.19,0.39 -0.22,0.41 -0.29,0.75 3.01,0.39 5.95,0.73 8.93,1.11 2.57,0.33 6.91,1.43 8.27,-0.85z"/>
  <path class="fil0 str0" d="M103.04 53.86c-0.37,0.76 -0.37,1.42 -0.29,2.5l7.36 -0.02 0.12 -14.33c-0.46,-0.27 -0.11,-0.25 -0.53,0.28 0.5,0.65 0.24,10.41 0.15,12l-5.47 0.04c-1.76,-0.12 -0.75,0.13 -1.35,-0.47z"/>
  <path class="fil0 str0" d="M172.39 12.75l2.48 -0.03 0.05 24.33 -2.5 0.01 -0.03 -24.31zm2.79 -0.29l-3.09 0.01 -0.09 24.79 3.23 0.03 -0.05 -24.84z"/>
  <path class="fil0 str0" d="M74.21 77.99c0.82,0.7 6.56,0.37 7.64,0.25 0.96,-0.64 1,-0.84 1.65,-2.06l-8.23 0.05 -0.11 -0.44 -0.95 2.2z"/>
  <path class="fil0 str0" d="M186.87 56.58c-0.14,-0.87 -0.34,-6.53 0.21,-7.43 1.46,0.45 1.1,1.23 1.1,2.85l-0.1 4.08c-0.47,0.3 -0.45,0.41 -1.2,0.5zm-1.18 -7.34c0.83,0.07 0.29,-0.15 0.73,0.27l-0.01 6.66c-1.32,0.37 -6.06,0.41 -7.57,0l-0.44 0c0.79,1.34 1.31,0.88 4.5,0.88 6,0 5.94,1.12 5.71,-6.43 -0.09,-2.78 -2.79,-1.88 -7.38,-1.93 -0.23,-0 -0.93,-0.02 -1.12,-0l-1.09 0.37 6.66 0.19z"/>
  <path class="fil1 str0" d="M28.33 57.44c0.56,0.4 0.19,-0.6 0.57,0.72 -0.14,-1.19 0.17,-0.65 0.29,-0.89 0.62,0.26 0.85,0.67 1.38,0.64 0.82,-0.04 0.26,-0.35 0.04,-1.2 1.28,0.15 0.65,0.66 1.46,0.35 0.53,-0.21 0.11,-0.27 -0.02,-1.1 0.34,0.02 1.6,0.91 2.37,-1.96 -2.28,0.16 -5.69,0.45 -7.12,1.88 0.29,0.62 0.62,0.85 1.03,1.56z"/>
  <path class="fil1 str0" d="M16.81 53.98c0.31,0.7 0.39,1.44 1.06,1.83 1.18,0.69 1.29,-1.02 0.96,1.28 1.04,-0.24 0.56,-0.23 1.59,-0.43 -0.25,1.2 -0.34,0.58 -0.07,1.19 1.15,-0.19 0.28,-0.16 1.41,-0.53 0.46,1.37 -0.7,0.6 0.53,1.08l1.64 -2.51c-1.54,-1.29 -4.6,-1.65 -7.11,-1.9z"/>
  <path class="fil0 str0" d="M22.89 68.65c-1.02,-3.81 4.55,-5.09 5.48,-1.62 1.07,3.98 -4.63,4.79 -5.48,1.62zm1.88 -4.26c-4.63,1.25 -2.78,8.07 1.82,6.92 4.13,-1.03 2.88,-8.19 -1.82,-6.92z"/>
  <path class="fil0 str0" d="M18.01 19.03c-0.53,0.54 -0.23,-0.66 -0.42,1.06 -0.04,0.38 0.04,0.93 0.09,1.43l8.5 -0.09 -0.02 -5.02 -2.38 0.01 0.12 4.65 -6.02 0.18 0.13 -2.21z"/>
  <path class="fil0 str0" d="M180.14 42.71c0.08,-0.43 0.18,-0.83 0.39,-1.1 0.68,-0.58 0.51,-0.37 0.99,-0.71 1.42,-1.03 5.32,-1.15 6.14,1.55l0.27 1 -7.57 -0.01 -0.59 -0.04 0.37 -0.68zm-0.84 0.97l2.5 0.2c1.25,0.03 3.31,-0.42 4.77,0.27l2.16 -0.18c-0.5,-2.71 -1.35,-4.61 -4.43,-4.78 -2.72,-0.15 -5.62,2.01 -5,4.49z"/>
  <path class="fil1 str0" d="M178.86 56.16c1.5,0.41 6.25,0.37 7.57,-0l0.01 -6.66c-0.44,-0.42 0.09,-0.2 -0.73,-0.27 -0.21,2.95 0.11,3.78 -1.69,5.52 -0.85,0.82 -1.18,0.98 -2.49,1.11 -0.57,0.06 -2.88,-0.09 -2.66,0.3z"/>
  <path class="fil1 str0" d="M171.97 11.76l3.33 0.02c-0.2,-1.68 0.42,-4.14 -1.55,-4.27 -2.23,-0.14 -1.58,2.52 -1.78,4.25z"/>
  <path class="fil0 str0" d="M98.82 66.5c-1.52,0.47 -11.36,0.49 -12.87,0.01 0.57,1.27 0.83,1.23 2.34,1.22l10.38 -0.09 0.15 -1.14z"/>
  <path class="fil0 str0" d="M81.85 78.24c-1.08,0.12 -6.82,0.45 -7.64,-0.25l-1.3 1.95c2.96,-0.23 7.39,0.6 8.94,-1.7z"/>
  <path class="fil0 str0" d="M20.81 71.82c0.13,3.12 8.88,4.38 11.05,-1.93 0.07,-0.21 0.32,-1.04 0.31,-1.26 -0.04,-1.92 0.06,-0.71 -0.61,-1.1 -0.66,3.16 -1.22,4.61 -3.6,5.67 -3.47,1.55 -5.09,-0.39 -7.15,-1.4z"/>
  <polygon class="fil0 str0" points="19.07,24.18 24.73,24.21 24.81,22.26 19.12,22.28 "/>
  <path class="fil0 str0" d="M15.03 12.64c0.33,0.93 0.04,2.38 -1.25,1.59 -0.66,-0.4 -0.99,-2.15 1.25,-1.59zm-2.93 0.8c0.41,1.18 0.91,2.21 2.42,2.1 1.35,-0.1 2.65,-2.09 1.24,-3.63 -0.66,-0.73 -2.71,-1.5 -3.66,1.54z"/>
  <path class="fil0 str0" d="M115.83 44.42c-0.63,3.19 2.68,3.35 3.49,1.81 0.06,-0.11 0.77,-4.4 -3.49,-1.81z"/>
  <path class="fil0 str0" d="M186.96 78.02l0.02 0.86 3.73 0.06 -0.02 -6.07 -0.82 1.65c-0.57,1.29 -1.53,3.18 -2.91,3.5z"/>
  <path class="fil1 str0" d="M24.67 56.44c-0.91,0.79 -0.93,0.45 -1.31,1.56l4.37 0.06c-0.48,-1.06 -0.94,-0.89 -1.2,-1.7 -0.23,-0.71 -0.09,-2.21 -0.1,-3.04 -2.27,0.08 -1.6,0.94 -1.76,3.11z"/>
  <path class="fil0 str0" d="M45.91 71.94c-0.81,0.35 -0.5,-0.24 -0.94,0.82 -0.2,0.47 -0.17,1.03 0.01,1.5 0.3,0.78 1.28,1.32 2.38,0.89 1.94,-0.75 1.05,-4.28 -1.44,-3.21z"/>
  <path class="fil0 str0" d="M37 39.52l2.42 -0.01c-0.53,-2.8 -1.41,-4.43 -2.21,-6.6 -0.03,0.09 -0.17,0.51 -0.19,0.6l-0.13 0.52c-0.06,0.33 -0.04,0.33 -0.04,0.65l0.16 4.84z"/>
  <path class="fil1 str0" d="M186.87 56.58c0.76,-0.09 0.73,-0.2 1.2,-0.5l0.1 -4.08c0.01,-1.61 0.37,-2.4 -1.1,-2.85 -0.55,0.9 -0.35,6.56 -0.21,7.43z"/>
  <path class="fil1 str0" d="M186.03 69.6l2.39 0.16c0.32,1.14 0.23,1.39 0.06,2.58l-2.52 0.01 0.07 -2.74zm-1.52 2.1c-0.26,-1.01 -0.1,-1.64 0.34,-2.12 0.75,0.27 0.65,-0.24 0.68,1.28 0.02,1.31 0.05,1.06 -0.68,1.5 -0.19,-0.28 -0.2,-0.09 -0.34,-0.66zm3.4 1.16c1.04,0.01 1.2,-0.74 1.21,-1.71 0,-1.58 0.1,-2.05 -1.48,-2.11 -0.98,-0.04 -2.48,-0.02 -3.45,0.07 -0.38,1.09 -0.26,2.51 -0.11,3.74l3.84 0.02z"/>
  <path class="fil0 str0" d="M149.45 56.23l-18.08 -0.01 -0.07 -1.93c0.08,-2.39 0.52,-11.69 -0.32,-13.11 0.2,4.95 0.03,10.08 0.21,15.08 1.44,0.41 12.76,0.17 15.94,0.18 0.94,0 1.54,0.12 2.33,-0.21z"/>
  <path class="fil0 str0" d="M24.33 10.15l1.84 -0.01 -0.13 -4.92 -1.83 -0.06c0.42,1.51 0.27,3.42 0.11,5z"/>
  <path class="fil0 str0" d="M145.39 64.38c2.13,-0.77 3.14,0.8 2.19,1.93 -1,1.2 -3,0.54 -2.19,-1.93zm1.86 3.14c2.67,-2.14 0.85,-4.72 -1.42,-4.09 -1.82,0.5 -2.53,4.25 1.42,4.09z"/>
  <path class="fil1 str0" d="M169.55 53.99l2.53 0.14 0.06 -3.21 -2.22 0.04c-0.56,0.74 -0.31,1.9 -0.37,3.02z"/>
  <path class="fil0 str0" d="M22.67 11.38c0.34,2.27 0.26,2.2 -0.1,4.31l2.02 0.01 0 -4.29 -1.92 -0.02z"/>
  <path class="fil0 str0" d="M12.1 13.44c0.95,-3.03 2.99,-2.26 3.66,-1.54 1.41,1.54 0.11,3.53 -1.24,3.63 -1.51,0.11 -2,-0.91 -2.42,-2.1zm4.66 0.83c1.15,-3.55 -4.07,-4.69 -4.91,-1.81 -1.1,3.75 3.95,4.77 4.91,1.81z"/>
  <polygon class="fil1 str0" points="175.26,40.65 172.01,40.67 172.13,43.02 175.07,43.04 "/>
  <path class="fil0 str0" d="M24.73 24.21l0.02 0.26 2.97 0.15 0.04 -2.65c-1.35,-0.21 -1.43,-0.36 -2.77,-0.02 0.08,0.48 0.18,0.72 0.16,1.22 -0.09,1.79 -0.09,0.73 -0.42,1.04z"/>
  <path class="fil0 str0" d="M186.33 81c0.39,0.39 -0.61,0.31 0.75,0.4l3.43 -0.22 0.2 -1.77 -3.75 0.07c0.02,1.08 -0.13,1.08 -0.64,1.52z"/>
  <path class="fil0 str0" d="M115.83 44.42c4.25,-2.59 3.54,1.7 3.49,1.81 -0.81,1.54 -4.12,1.38 -3.49,-1.81zm0.76 -1.16c-2.84,1.43 -0.98,5.47 1.91,4.29 2.91,-1.19 0.89,-5.7 -1.91,-4.29z"/>
  <path class="fil1 str0" d="M185.97 72.34l2.52 -0.01c0.17,-1.19 0.25,-1.44 -0.06,-2.58l-2.39 -0.16 -0.07 2.74z"/>
  <path class="fil0 str0" d="M145.39 64.38c-0.81,2.48 1.19,3.13 2.19,1.93 0.95,-1.14 -0.06,-2.7 -2.19,-1.93z"/>
  <path class="fil1 str0" d="M168.33 75.82l0.02 0.27c1.4,0.17 5.63,0.26 6.93,-0.09l-0.03 -4.97c-1.55,-0.49 -5.18,-0.14 -7.03,-0.18l0.14 0.34 6.59 -0.08 -0.07 4.85 -6.55 -0.14z"/>
  <polygon class="fil1 str0" points="172.05,45.12 175.2,45.17 175.21,43.39 174.04,43.35 173.76,43.36 172.06,43.39 "/>
  <path class="fil0 str0" d="M17.47 22.14l1.65 0.14 5.69 -0.02 -0.08 1.95 -5.66 -0.04 -1.56 0.14 -1.15 -0.34 0.02 -1.39c0.3,-0.19 0.02,-0.07 0.61,-0.33 0.06,-0.02 0.39,-0.1 0.48,-0.12zm7.28 2.33l-0.02 -0.26c0.33,-0.3 0.33,0.75 0.42,-1.04 0.02,-0.5 -0.08,-0.74 -0.16,-1.22l-8.88 0.12 0.17 2.38 8.46 0.01z"/>
  <path class="fil0 str0" d="M173.48 54.2c-1.12,-0.18 -0.86,-0.07 -0.87,-1.64 -0,-1.4 -0.24,-1.43 0.87,-1.72 0.29,0.78 0.33,2.52 0,3.36zm-4.27 0.22l0.33 -0.43c0.06,-1.12 -0.19,-2.28 0.37,-3.02 0.25,-0.56 0.23,-0.7 2.31,-0.42 0.56,1.36 0.57,2.71 -0.13,3.98l1.99 0.03 0.07 -4.17c-1.69,0.01 -3.53,-0.15 -4.86,0.21l-0.08 3.82z"/>
  <path class="fil1 str0" d="M119.29 32.13c0.36,-2.65 1.38,-2.63 2.47,-4.01l0.25 -0.12c-2.23,0.02 -3.73,2.06 -4.02,4.33l1.3 -0.2z"/>
  <path class="fil0 str0" d="M169.55 53.99l-0.33 0.43c1.06,0.49 3.64,0.55 4.87,0.14l-1.99 -0.03c0.7,-1.28 0.69,-2.62 0.13,-3.98 -2.07,-0.28 -2.06,-0.14 -2.31,0.42l2.22 -0.04 -0.06 3.21 -2.53 -0.14z"/>
  <path class="fil1 str0" d="M181.71 44.79c0.45,0.63 -0.35,0.27 0.65,0.45 0.16,0.03 1.14,-0.01 1.38,-0.01 3.26,-0.02 1.92,0.17 2.36,-0.43 -0.34,-0.76 0.22,-0.41 -0.66,-0.65l-2.84 -0.03c-1.55,0.26 -0.31,-0.02 -0.89,0.68z"/>
  <polygon class="fil1 str0" points="172.34,39.81 174.91,39.84 174.89,38.03 172.46,37.98 "/>
  <path class="fil0 str0" d="M87.79 68.97c0.41,-0.42 -0.63,-0.31 0.8,-0.36l9.71 0c0.15,1.34 -0.07,2.31 0.58,3.39l-0.3 -3.69 -11.18 0.04 0.39 0.62z"/>
  <path class="fil0 str0" d="M182.36 45.24c-0.99,-0.18 -0.2,0.18 -0.65,-0.45 0.58,-0.7 -0.67,-0.42 0.89,-0.68l2.84 0.03c0.89,0.25 0.32,-0.11 0.66,0.65 -0.44,0.61 0.89,0.42 -2.36,0.43 -0.24,0 -1.23,0.04 -1.38,0.01zm-6.37 -0.03l10.63 0.13 -0.04 -1.19c-1.46,-0.69 -3.52,-0.24 -4.77,-0.27l-2.5 -0.2c0.76,1.35 -0.02,0.06 1.36,0.51 0.64,0.21 0.14,-0.01 0.52,0.32l-0.02 0.56c-1.04,0.48 -3.86,0.23 -5.18,0.14z"/>
  <path class="fil0 str0" d="M76.82 80.77c-1.47,-0.42 -4.09,-0.42 -5.54,0.05 0.37,0.29 0.01,0.2 0.66,0.38l2.22 0.03c3.55,0.02 2.13,-0.03 2.66,-0.46z"/>
  <path class="fil1 str0" d="M173.48 54.2c0.33,-0.84 0.29,-2.58 0,-3.36 -1.1,0.29 -0.87,0.32 -0.87,1.72 0.01,1.57 -0.25,1.46 0.87,1.64z"/>
  <polygon class="fil0 str0" points="17.51,24.32 19.07,24.18 19.12,22.28 17.47,22.14 "/>
  <path class="fil0 str0" d="M15.03 12.64c-2.24,-0.56 -1.91,1.18 -1.25,1.59 1.29,0.79 1.57,-0.66 1.25,-1.59z"/>
  <path class="fil0 str0" d="M172.46 37.98l2.43 0.05 0.03 1.81 -2.58 -0.03 0.12 -1.83zm-0.38 1.98l3.1 0.02 0.07 -2.35 -3.19 -0.02 0.01 2.35z"/>
  <path class="fil1 str0" d="M184.86 72.36c0.72,-0.44 0.7,-0.19 0.68,-1.5 -0.03,-1.52 0.07,-1.02 -0.68,-1.28 -0.44,0.48 -0.6,1.11 -0.34,2.12 0.14,0.57 0.15,0.38 0.34,0.66z"/>
  <path class="fil0 str0" d="M29.84 63.65c0.26,0.43 0.54,0.75 0.83,1.31 0.63,1.2 0.05,1.02 1.04,1.47 0.42,-1.14 -0.96,-2.81 -1.66,-3.23l-0.21 0.45z"/>
  <polygon class="fil0 str0" points="172.09,12.47 175.18,12.46 175.3,11.78 171.97,11.76 "/>
  <path class="fil0 str0" d="M49.41 68.93c0.86,0.38 2.62,0.34 3.66,0.01 1.13,-0.35 0.19,-0.03 0.69,-0.34 -1.61,-0.06 -3.48,-0.34 -4.36,0.33z"/>
  <polygon class="fil0 str0" points="172.01,40.67 175.26,40.65 175.18,39.98 172.08,39.96 "/>
  <path class="fil0 str0" d="M17.51 24.32l-0.03 -2.18c-0.09,0.02 -0.42,0.09 -0.48,0.12 -0.59,0.26 -0.32,0.14 -0.61,0.33l-0.02 1.39 1.15 0.34z"/>
  <path class="fil0 str0" d="M186.62 45.34l3.48 0.11c-0.37,-0.37 0.6,-0.27 -0.8,-0.36 -3.18,-0.11 -2.15,0.29 -2.44,-0.58 0.09,-0 0.77,0.02 0.79,0.02 1.61,-0.39 0.45,0.02 1.1,-0.56l-2.16 0.18 0.04 1.19z"/>
  <path class="fil0 str0" d="M15.51 21.53l1.46 -0.09 -0.03 -2.43 -3.31 -0.05c0.33,0.19 -0.36,0.1 0.61,0.27l2.49 0.05 -0.01 1.65 -1.22 0.6z"/>
  <path class="fil0 str0" d="M150.46 68.2c0.76,-0.07 0.73,-0.02 1.3,-0.44 0.91,-0.67 0.46,-0.25 0.81,-1.19 -1.11,0.31 -1.7,0.57 -2.11,1.64z"/>
  <path class="fil0 str0" d="M170.2 43.4l1.21 -0.29c0.05,-0.58 0.11,-0.86 0.1,-1.39l-0.13 -0.95c-0.01,-0.04 -0.05,-0.12 -0.07,-0.18l-0.28 2.08c-0.1,0.34 -0.28,0.01 -0.83,0.73z"/>
  <path class="fil1 str0" d="M29.2 57.27c-0.12,0.24 -0.43,-0.3 -0.29,0.89 -0.39,-1.32 -0.02,-0.32 -0.57,-0.72 0.37,1.25 0.05,1.01 1.18,0.99l-0.32 -1.16z"/>
  <path class="fil1 str0" d="M180.07 67.55c-0.01,-0.86 -0.94,-0.54 -0.96,-0.01 -0.02,0.59 0.96,0.95 0.96,0.01z"/>
  <path class="fil1 str0" d="M187.39 74.94c2.38,-0.54 -1.19,-2.08 0,0z"/>
  <path class="fil1 str0" d="M181.97 63.8c-0.79,0.79 0.36,0.71 0.77,0.78 -0.06,-0.43 0.08,-1.63 -0.77,-0.78z"/>
  <polygon class="fil0 str0" points="152.18,55.12 152.25,56.24 150.41,56.25 149.9,53.91 150.08,56.29 152.44,56.46 "/>
  <path class="fil1 str0" d="M188.08 67.57c-0.03,-0.53 -0.22,-0.4 -0.73,-0.53 -0.47,0.67 -0.23,0.29 -0.03,0.83 0.02,0.01 0.82,0.72 0.77,-0.3z"/>
  <path class="fil0 str0" d="M100.39 56.57l1.63 -0.24 0.18 -2.12c-0.42,0.72 -0.36,1.01 -0.44,2 -1.01,0.01 -0.83,-0.18 -1.38,0.35z"/>
  <path class="fil1 str0" d="M185.25 63.81c-0.81,-0.82 -0.68,0.32 -0.73,0.74 0.41,-0.05 1.52,0.05 0.73,-0.74z"/>
  <path class="fil1 str0" d="M180.14 70.87c-0.85,-0.63 -0.65,-0.76 -1.02,0.28 0.93,0.74 0.64,0.57 1.02,-0.28z"/>
  <path class="fil0 str0" d="M98.66 56.96c-0.85,-0.35 -1.48,-0.19 -2.59,-0.26l-0.51 -1.27 0.09 1.42 3.01 0.11z"/>
  <path class="fil1 str0" d="M184.86 68.07c0.87,-0.41 0.98,-0.59 0,-1.02 -0.86,0.8 -0.38,0.56 0,1.02z"/>
  <path class="fil1 str0" d="M182.36 74.94c0.87,-0.93 0.49,-0.44 0,-1.03 -0.86,0.42 -0.94,0.6 0,1.03z"/>
  <path class="fil1 str0" d="M182.77 71.14c-0.69,-1.42 -0.93,-0.33 -1.01,-0.28 0.49,0.52 -0.6,0.08 0.39,0.49 1.04,0.43 0.25,-0 0.62,-0.22z"/>
  <path class="fil1 str0" d="M182.36 68.07c0.57,-0.68 0.74,-0.2 0,-1.04 -0.97,0.42 -0.81,0.63 0,1.04z"/>
  <path class="fil1 str0" d="M179.85 74.97c0.35,-0.63 0.31,-0.11 0.09,-0.86 -1.05,-0.32 -1.33,0.51 -0.09,0.86z"/>
  <path class="fil1 str0" d="M184.86 74.94c1.02,-0.41 0.83,-0.6 0,-1.01 -0.61,0.64 -0.65,0.25 0,1.01z"/>
  <path class="fil1 str0" d="M188.11 64.21c-0.39,-0.95 -0.59,-0.89 -0.98,0 0.66,0.54 0.21,0.66 0.98,0z"/>
  <path class="fil1 str0" d="M180.13 64.21c-0.35,-0.74 -0.07,-0.96 -0.99,-0.28 0.42,0.54 -0.07,1.1 0.99,0.28z"/>
  <path class="fil0 str0" d="M175.89 40.67l1.23 -0.2c-0.22,-0.47 -0.62,-0.49 -1.12,-0.56l-0.11 0.76z"/>
  <path class="fil0 str0" d="M63.79 67.54c-1.19,-0.11 -0.68,0.18 -0.94,-0.33 -0.49,0.32 -0.23,-0.26 -0.57,0.58 0.48,0.04 0.18,0.14 0.79,0.02 1.35,-0.27 0.13,0.01 0.71,-0.27z"/>
  <path class="fil0 str0" d="M171.31 40.59l-0.03 -0.66c-0.16,0.01 -0.47,0.03 -0.55,0.07 -0.53,0.23 -0.28,0.1 -0.56,0.35l1.14 0.24z"/>
  <path class="fil0 str0" d="M175.98 43.5c0.16,-0.01 0.46,-0.03 0.54,-0.06 0.48,-0.19 0.33,-0.14 0.54,-0.31l-1.24 -0.25 0.15 0.63z"/>
  <path class="fil1 str0" d="M23.37 54.41l0.61 0.44 0.28 -1.22c-0.05,0.06 -0.12,0.09 -0.14,0.19 -0.03,0.12 -0.24,0.29 -0.29,0.33 -0.77,0.64 0.49,-0.02 -0.46,0.26z"/>
  <path class="fil0 str0" d="M148.78 69.83c0.33,-0.36 0.38,0.52 0.23,-0.57 -1.63,-0.43 -0.55,-0.05 -0.94,0.17 1.25,-0.25 0.52,-0.26 0.71,0.4z"/>
  <path class="fil0 str0" d="M51.17 70.38c0.4,-0.52 -0.33,0.02 0.59,-0.62l-0.88 0.06c-0.06,1.14 -0.07,0.1 0.29,0.56z"/>
  <path class="fil1 str0" d="M20.55 59.27c0.49,-0.34 0.49,0.43 0.43,-0.42l-0.65 -0.28 0.21 0.69z"/>
  <polygon class="fil0 str0" points="180.37,43.43 180.14,42.71 179.74,43.42 "/>
  <circle class="fil2 str1" cx="179.9" cy="63.98" r="0.76"/>
  <circle class="fil2 str1" cx="182.7" cy="63.98" r="0.76"/>
  <circle class="fil2 str1" cx="185.56" cy="63.98" r="0.76"/>
  <circle class="fil2 str1" cx="187.88" cy="63.98" r="0.76"/>
  <circle class="fil2 str1" cx="179.9" cy="66.29" r="0.76"/>
  <circle class="fil2 str1" cx="182.7" cy="66.29" r="0.76"/>
  <circle class="fil2 str1" cx="185.56" cy="66.29" r="0.76"/>
  <circle class="fil2 str1" cx="187.88" cy="66.29" r="0.76"/>
  <polygon class="fil0 str1" points="126.27,27.67 128.1,27.82 128.09,28.79 126.29,28.79 "/>
  <rect class="fil3 str1" x="183.09" y="68.8" width="6.5" height="4.33" rx="0.74" ry="0.74"/>
  <rect class="fil0 str1" x="185.61" y="69.33" width="3.39" height="3.21" rx="0.17" ry="0.25"/>
  <path class="fil1 str0" d="M128.36 30.04c8.9,-0.75 16.92,3.95 20.87,11.3 0.47,0.87 0.27,1.06 0.55,0.93 -0.14,-1.78 -2.26,-4.63 -3.18,-5.85 -6.89,-9.19 -18.46,-7.78 -18.92,-7.91 -0.55,-0.01 -0.36,0.37 -0.34,0.43 0.07,0.17 0.4,0.26 1.01,1.1z"/>
 </g>
</svg>
