<?xml version="1.0" encoding="UTF-8"?>
<!DOCTYPE svg PUBLIC "-//W3C//DTD SVG 1.1//EN" "http://www.w3.org/Graphics/SVG/1.1/DTD/svg11.dtd">
<!-- Creator: CorelDRAW 2021 (64-Bit) -->
<svg xmlns="http://www.w3.org/2000/svg" xml:space="preserve" width="15.9772mm" height="14.257mm" version="1.1" style="shape-rendering:geometricPrecision; text-rendering:geometricPrecision; image-rendering:optimizeQuality; fill-rule:evenodd; clip-rule:evenodd"
viewBox="0 0 35.33 31.52"
 xmlns:xlink="http://www.w3.org/1999/xlink"
 xmlns:xodm="http://www.corel.com/coreldraw/odm/2003">
 <defs>
  <style type="text/css">
   <![CDATA[
    .fil1 {fill:#FFE600}
    .fil2 {fill:#333333;fill-rule:nonzero}
    .fil0 {fill:#FFE600;fill-rule:nonzero}
   ]]>
  </style>
 </defs>
 <g id="Layer_x0020_1">
  <metadata id="CorelCorpID_0Corel-Layer"/>
  <g id="_1947825284544">
   <g>
    <path class="fil0" d="M31.42 18.21l-0.96 0 -2.22 -2.78 0 2.78 -1.2 0 0 -4.9 0.94 0 2.22 2.77 0 -2.77 1.22 0 0 4.9zm-6.63 0l-0.43 -1.01 -2.17 0 -0.43 1.01 -1.29 0 2.29 -4.9 1.02 0 2.3 4.9 -1.27 0zm-5.24 -0.31c-0.26,0.12 -0.55,0.21 -0.88,0.28 -0.32,0.06 -0.65,0.1 -0.99,0.1 -0.53,0 -0.99,-0.1 -1.39,-0.3 -0.39,-0.2 -0.69,-0.49 -0.9,-0.87 -0.21,-0.38 -0.32,-0.83 -0.32,-1.34 0,-0.5 0.11,-0.95 0.32,-1.32 0.21,-0.38 0.51,-0.67 0.89,-0.87 0.39,-0.2 0.83,-0.31 1.35,-0.31 0.35,0 0.69,0.05 1,0.14 0.31,0.09 0.57,0.22 0.77,0.38l-0.41 0.91c-0.22,-0.15 -0.44,-0.25 -0.65,-0.32 -0.21,-0.07 -0.43,-0.1 -0.67,-0.1 -0.44,0 -0.76,0.12 -0.97,0.37 -0.21,0.25 -0.32,0.62 -0.32,1.12 0,0.52 0.11,0.91 0.33,1.16 0.22,0.25 0.56,0.38 1.03,0.38 0.22,0 0.43,-0.02 0.65,-0.07l0 -0.91 -0.85 0 0 -0.87 2.02 0 0 2.46zm-5.7 -3.6l-2.24 0 0 0.92 2.09 0 0 0.99 -2.09 0 0 1 2.24 0 0 0.99 -3.49 0 0 -4.9 3.49 0 0 0.99zm-6.69 3.91l-1.02 0 -2.23 -4.9 1.34 0 1.41 3.29 1.43 -3.29 1.3 0 -2.23 4.9zm26.84 -12.63c-1.64,-3.03 -4.67,-5.09 -8.02,-5.52 -3.53,-0.46 -6.24,1.65 -8.31,4.38 -2.07,-2.73 -4.78,-4.84 -8.31,-4.38 -3.35,0.43 -6.38,2.49 -8.02,5.52 -2.36,4.36 -1.34,10.03 1.21,14.07 2.64,4.17 7.23,7.13 11.32,9.59 1.26,0.76 2.54,1.52 3.8,2.28 1.26,-0.76 2.54,-1.52 3.8,-2.28 4.09,-2.47 8.68,-5.43 11.32,-9.59 2.56,-4.04 3.58,-9.71 1.21,-14.07z"/>
    <rect class="fil1" x="2.45" y="11.86" width="30.65" height="7.26"/>
   </g>
   <g>
    <path class="fil2" d="M20.23 10.59c-1.44,1.44 -3.08,0.98 -3.38,0.68 -0.3,-0.3 -0.72,-1.98 0.68,-3.38 1.4,-1.4 4.3,-1.59 4.3,-1.59 0,0 -0.15,2.85 -1.59,4.3z"/>
    <path class="fil2" d="M14.66 22.41c-0.1,0.1 -0.22,0.15 -0.35,0.15 -0.12,0 -0.25,-0.05 -0.34,-0.14 -1.28,-1.24 -2.1,-2.77 -2.33,-4.31 -0.26,-1.77 0.31,-3.57 1.49,-4.71 0.2,-0.19 0.51,-0.18 0.69,0.01 0.19,0.19 0.18,0.51 -0.01,0.69 -0.95,0.92 -1.41,2.4 -1.2,3.86 0.19,1.32 0.92,2.65 2.04,3.75 0.19,0.19 0.2,0.5 0.01,0.69zm9.78 -8.28c-0.53,-1.06 -1.37,-1.74 -2.25,-2.05 -1.38,-0.48 -3.13,-0.15 -4.52,0.91 -1.4,-1.05 -3.14,-1.38 -4.52,-0.91 -0.88,0.3 -1.72,0.98 -2.25,2.05 -0.92,1.83 -0.79,4.51 0.05,6.34 1.51,3.27 4.32,5.05 6.73,3.48 2.41,1.56 5.22,-0.21 6.73,-3.48 0.84,-1.83 0.97,-4.51 0.05,-6.34z"/>
   </g>
  </g>
 </g>
</svg>
