<?xml version="1.0" encoding="UTF-8"?>
<!DOCTYPE svg PUBLIC "-//W3C//DTD SVG 1.1//EN" "http://www.w3.org/Graphics/SVG/1.1/DTD/svg11.dtd">
<!-- Creator: CorelDRAW 2021 (64-Bit) -->
<svg xmlns="http://www.w3.org/2000/svg" xml:space="preserve" width="24.0859mm" height="13.619mm" version="1.1" style="shape-rendering:geometricPrecision; text-rendering:geometricPrecision; image-rendering:optimizeQuality; fill-rule:evenodd; clip-rule:evenodd"
viewBox="0 0 212.48 120.15"
 xmlns:xlink="http://www.w3.org/1999/xlink"
 xmlns:xodm="http://www.corel.com/coreldraw/odm/2003">
 <defs>
  <style type="text/css">
   <![CDATA[
    .str0 {stroke:black;stroke-width:1.76;stroke-linecap:round;stroke-linejoin:round;stroke-miterlimit:22.9256}
    .fil1 {fill:black}
    .fil3 {fill:#231B17}
    .fil4 {fill:#242222}
    .fil2 {fill:#251C18}
    .fil0 {fill:#FFE600}
   ]]>
  </style>
 </defs>
 <g id="Layer_x0020_1">
  <metadata id="CorelCorpID_0Corel-Layer"/>
  <path class="fil0" d="M75.31 70.98c-6.69,-21.93 -13.14,-13.03 -13.01,-22.19 0.05,-3.35 0.42,-6.77 1.39,-9.88 3.82,-12.28 12.94,-16.49 27.75,-18.49 12.5,-1.69 30.38,-1.29 41.78,2.77 12.1,4.31 18.2,13.7 16.64,29.87 -6.94,2.59 -10.34,10.73 -12.67,17.88 -11.9,-2.17 -11.76,-4.82 -31.24,-4.78 -21.11,0.05 -20.95,3.38 -30.63,4.8zm-25.39 -51.05l4.57 18.18c-1.96,0.14 -3.15,0.68 -4.88,0.71 -1.57,0.03 -3.52,-0.32 -5.48,-0.24 -2.49,0.1 -3.07,0.54 -5.37,0.58 -2.06,0.04 -3.37,-0.22 -5.61,-0.03l-7.07 13.79c-4.74,11.31 -7.27,24.14 -6.84,36.65 0.17,5.01 2.59,16.65 2.23,19.58l18.62 -3.84c0.68,-4.06 -1.58,-46.46 -2.05,-57.15 -0.43,-9.85 -1.2,-6.59 2.09,-7.37l2.7 64 18.14 -2.48c-2.47,-3.97 -3.74,-3.74 -4.63,-10.46 -0.59,-4.45 -1.13,-9.35 -1.26,-13.92 -0.08,-0.01 -0.95,-0.09 -1.39,-0.27 -1.08,-0.44 -0.89,-0.38 -1.48,-0.91 -2.16,-1.71 -3.1,-2 -4.57,-4.55 -4,-6.94 0.19,-16.12 8.67,-17.16 6.58,-0.8 10.01,2.33 12.1,6.64 1.8,3.7 4.37,9.24 5.68,12.95 2.36,-0.65 4.35,-1.99 7,-2.77 13.67,-4 36.93,-4.01 50.73,0.16 2.49,0.75 4.3,2.04 6.59,2.66 1.09,-3.54 4.16,-9.96 5.83,-13.38 7.95,-16.22 34.32,1.49 15.68,15.65 -0.39,0.25 -0.61,0.45 -1.57,0.83 -1.49,0.61 -0.47,0.3 -0.97,0.13 -0.12,4.6 -0.67,10.01 -1.34,14.41 -0.98,6.39 -2.39,6.4 -4.59,9.97l19.58 2.74c-1.96,-6.91 -5.66,-13.01 -3.92,-22 1.71,-8.81 7.54,-9.75 6.29,-19.61l11.57 0.54c-0.83,6.4 -1.18,5.3 1.57,11.01 6.91,14.36 0.79,20.88 -3.92,32.3l7.94 1.75c3.2,-21.81 4.7,-36.72 -5.31,-58.59 -15.18,-33.18 -48.54,-52.82 -86.52,-50.2 -10,0.69 -19.44,3.46 -27.25,6.83 -4.07,1.76 -7.55,3.64 -11.09,5.79l-10.5 7.08z"/>
  <path class="fil1 str0" d="M21.47 109.16c-4.3,0.82 -18.24,4.82 -20.59,6.91 7.13,-0.17 17.27,-2.23 24.7,-3 45.3,-4.68 89.52,-4.96 134.97,-2.24 8.65,0.52 17.25,1.35 25.77,2.19 7.89,0.78 17.75,2.82 25.28,3.06 -2.85,-2.55 -16.17,-6.05 -21.02,-7.06l-7.94 -1.75c4.71,-11.41 10.83,-17.93 3.92,-32.3 -2.75,-5.71 -2.4,-4.61 -1.57,-11.01l-11.57 -0.54c1.25,9.86 -4.58,10.8 -6.29,19.61 -1.75,8.99 1.96,15.09 3.92,22l-19.58 -2.74c2.21,-3.57 3.62,-3.58 4.59,-9.97 0.67,-4.39 1.22,-9.81 1.34,-14.41 -7.48,-0.55 -11.99,-10.55 -6.49,-15.37 2.84,-2.49 7.23,-2.28 8.91,0.71 1.31,2.32 1.23,6.29 -2.33,6.6 -1.25,0.11 -0.79,-0.01 -1.62,-0.19l-0.96 -0.49c0.15,-0.07 0.36,-0.14 0.48,-0.18l1.01 -0.3c3.82,-1.02 -2.81,1.02 1.07,-0.21 6.27,-1.99 -2.74,-11.16 -6.81,-3.81 -1.86,3.36 -0.76,12.85 9.28,12.28 18.63,-14.16 -7.74,-31.87 -15.68,-15.65 -1.67,3.41 -4.74,9.84 -5.83,13.38 -2.29,-0.61 -4.1,-1.9 -6.59,-2.66 -13.8,-4.16 -37.06,-4.16 -50.73,-0.16 -2.65,0.78 -4.64,2.12 -7,2.77 -1.31,-3.71 -3.88,-9.24 -5.68,-12.95 -2.09,-4.3 -5.52,-7.44 -12.1,-6.64 -8.48,1.04 -12.67,10.22 -8.67,17.16 1.47,2.55 2.41,2.84 4.57,4.55 6.61,0.95 11.46,-3.89 10.21,-10.39 -1.12,-5.79 -10.88,-6.49 -8.96,1.93l4.09 0.87c-0.8,0.49 -1.4,0.94 -3.11,0.58 -6.33,-1.33 -0.2,-13.67 7.14,-7.25 5.43,4.74 1.03,14.87 -6.5,15.43 0.13,4.58 0.67,9.47 1.26,13.92 0.89,6.72 2.16,6.49 4.63,10.46l-18.14 2.48 -2.7 -64c-3.29,0.79 -2.52,-2.48 -2.09,7.37 0.47,10.69 2.73,53.09 2.05,57.15l-18.62 3.84z"/>
  <path class="fil1 str0" d="M75.31 70.98c9.68,-1.42 9.52,-4.75 30.63,-4.8 19.48,-0.04 19.35,2.61 31.24,4.78 2.33,-7.15 5.74,-15.29 12.67,-17.88 1.56,-16.18 -4.54,-25.56 -16.64,-29.87 -11.4,-4.06 -29.28,-4.46 -41.78,-2.77 -14.82,2 -23.93,6.21 -27.75,18.49 -0.97,3.11 -1.34,6.53 -1.39,9.88 -0.13,9.16 6.32,0.26 13.01,22.19z"/>
  <path class="fil2" d="M33.15 39.14c2.24,-0.19 3.55,0.07 5.61,0.03 2.3,-0.04 2.88,-0.48 5.37,-0.58 1.96,-0.08 3.91,0.27 5.48,0.24 1.72,-0.03 2.91,-0.57 4.88,-0.71l-4.57 -18.18 -4.15 -14.79 -16.36 0.49c-1.16,4.1 -6.35,31.35 -6.1,33.88 1.86,0.04 3.46,0.39 5.13,0.29 1.32,-0.08 2.98,-0.54 4.7,-0.67z"/>
  <path class="fil3" d="M29.79 117.96c1.6,0.48 31.11,-2.18 36.54,-2.32 32.1,-0.85 46.91,-1 79.23,-0.02 5.32,0.16 35.74,2.77 37.12,2.34 -40.62,-9.32 -112.72,-12.05 -152.89,0z"/>
  <path class="fil4" d="M63.47 120.05l42.47 -1.35c14.6,0.02 28.35,1.07 42.63,1.44 -12.39,-5.46 -71.97,-4.64 -85.1,-0.09z"/>
  <path class="fil0" d="M52.23 76.76c0.59,0.52 0.4,0.46 1.48,0.91 0.43,0.18 1.31,0.26 1.39,0.27 7.53,-0.57 11.93,-10.69 6.5,-15.43 -7.35,-6.42 -13.47,5.92 -7.14,7.25 1.71,0.36 2.31,-0.09 3.11,-0.58l-4.09 -0.87c-1.91,-8.42 7.84,-7.72 8.96,-1.93 1.26,6.49 -3.59,11.33 -10.21,10.39z"/>
  <path class="fil0" d="M157.41 77.91c0.49,0.17 -0.53,0.48 0.97,-0.13 0.95,-0.39 1.18,-0.58 1.57,-0.83 -10.03,0.58 -11.14,-8.91 -9.28,-12.28 4.07,-7.35 13.08,1.82 6.81,3.81 -3.88,1.23 2.76,-0.81 -1.07,0.21l-1.01 0.3c-0.12,0.04 -0.32,0.1 -0.48,0.18l0.96 0.49c0.83,0.17 0.36,0.3 1.62,0.19 3.56,-0.31 3.64,-4.28 2.33,-6.6 -1.69,-2.99 -6.08,-3.2 -8.91,-0.71 -5.5,4.83 -0.99,14.83 6.49,15.37z"/>
 </g>
</svg>
