<?xml version="1.0" encoding="UTF-8"?>
<!DOCTYPE svg PUBLIC "-//W3C//DTD SVG 1.1//EN" "http://www.w3.org/Graphics/SVG/1.1/DTD/svg11.dtd">
<!-- Creator: CorelDRAW 2021 (64-Bit) -->
<svg xmlns="http://www.w3.org/2000/svg" xml:space="preserve" width="215px" height="215px" version="1.1" style="shape-rendering:geometricPrecision; text-rendering:geometricPrecision; image-rendering:optimizeQuality; fill-rule:evenodd; clip-rule:evenodd"
viewBox="0 0 1.52 1.52"
 xmlns:xlink="http://www.w3.org/1999/xlink"
 xmlns:xodm="http://www.corel.com/coreldraw/odm/2003">
 <defs>
  <style type="text/css">
   <![CDATA[
    .str2 {stroke:#FFE500;stroke-width:0.02;stroke-miterlimit:22.9256}
    .str1 {stroke:#FFE600;stroke-width:0.02;stroke-miterlimit:22.9256}
    .str0 {stroke:#333333;stroke-width:0.02;stroke-linecap:round;stroke-linejoin:round;stroke-miterlimit:22.9256}
    .fil0 {fill:#333333}
    .fil1 {fill:#FFE600}
   ]]>
  </style>
 </defs>
 <g id="Layer_x0020_1">
  <metadata id="CorelCorpID_0Corel-Layer"/>
  <path class="fil0 str0" d="M1.03 1.45c0,0 -0.01,0.01 -0.02,0.01 -0.01,0 -0.01,0 -0.02,0 -0.02,0 -0.04,0 -0.06,0 -0.03,-0.01 -0.06,-0.02 -0.08,-0.05 -0.02,-0.02 -0.03,-0.04 -0.04,-0.08 -0.02,-0.08 0.03,-0.18 0.12,-0.19 0.16,-0.04 0.27,0.15 0.16,0.27 0,0.01 -0.04,0.03 -0.06,0.04zm0.48 -1.42l0 0.03c-0.01,0.03 -0.02,0.06 -0.02,0.07 -0.03,0.06 -0.07,0.1 -0.13,0.13 -0.02,0.01 -0.03,0.02 -0.06,0.02 -0.03,0.01 -0.04,-0.01 -0.06,0.03 -0.02,0.03 -0.01,0.1 -0.01,0.16l0 0.5c0,0.09 -0.09,0.12 -0.14,0.07 -0.03,-0.03 -0.03,-0.07 -0.03,-0.11 0,-0.04 -0.04,-0.03 -0.07,-0.03l0 0.19c0.07,0 0.14,0.06 0.17,0.12 0.04,0.09 0.02,0.17 -0.04,0.24 -0.01,0 -0.01,0 -0.02,0.01l-0.03 0.02c-0.03,0.02 -0.07,0.03 -0.11,0.03 -0.1,0 -0.2,-0.1 -0.2,-0.19l-0.4 0c-0.03,0 -0.03,-0.04 -0.01,-0.04l0.22 0c0,-0.04 -0.01,-0.1 0.03,-0.13 0.02,-0.02 0.03,-0.02 0.06,-0.02l0 -0.09c-0.04,0 -0.06,-0.03 -0.09,-0.04 0,0.03 0,0.07 -0.01,0.09 -0.01,0.02 -0.03,0.04 -0.06,0.04l-0.21 0c0,0.03 -0.02,0.05 -0.05,0.05l0 0.09c0,0.02 0.05,-0.01 0.05,0.03 0,0.01 -0.01,0.02 -0.02,0.02l-0.12 0 0 0.17c0,0.02 -0.05,0.02 -0.05,0l0 -0.17c-0.05,0 -0.09,-0.05 -0.09,-0.09l0 -0.62c0,-0.04 0.04,-0.09 0.09,-0.09l0.79 0c0.06,0 0.1,0.04 0.1,0.1l0 0.23c0.05,0 0.09,0 0.11,0.06 0.01,0.02 0.01,0.04 0.01,0.06 0,0.05 0.04,0.06 0.06,0.03 0.01,0 0.01,0 0.01,-0.01l0 -0.5c0,-0.02 -0.02,-0.04 -0.03,-0.06 -0.03,-0.03 -0.02,-0.02 -0.03,-0.02 -0.01,-0.01 -0.01,-0.01 -0.02,-0.01 -0.09,0 -0.17,-0.07 -0.2,-0.15 -0.01,-0.02 -0.02,-0.04 -0.02,-0.07 -0.01,-0.02 -0.01,-0.05 0.02,-0.05 0.05,0 0.08,0 0.13,0.03l0.05 0.04c0.03,0.02 0.05,0.06 0.07,0.1 0.01,0.05 0,0.06 0.01,0.08 0.01,0.01 0.01,0.01 0.02,0.01 0,-0.04 0,-0.09 0.04,-0.12 0.02,-0.03 -0.01,-0.03 0.04,-0.13 0.01,-0.03 0.05,-0.06 0.07,-0.08 0.05,-0.04 0.09,-0.05 0.15,-0.05 0.02,0 0.02,0.01 0.03,0.02zm-1.46 1.19l0 -0.32c0.08,0 0.04,-0.01 0.07,0.02 0.01,0.01 0.02,0.02 0.03,0.02 0,0.02 0,0.19 0,0.21 0.01,0.02 0.02,0.03 0.05,0.03l0 0.1c-0.08,0 -0.15,0.01 -0.15,-0.06zm0.72 0l-0.01 0.06c-0.04,0 -0.07,0 -0.11,0 -0.02,0 -0.03,-0.01 -0.03,-0.03 -0.01,-0.01 -0.01,-0.04 0,-0.05 0,-0.03 0.05,-0.02 0.08,-0.02 0.03,0 0.07,0 0.1,0 -0.01,0 -0.03,0.04 -0.03,0.04zm-0.06 -0.13l0 -0.05 0.05 0c0,0.02 0,0.03 0,0.05l0 0.03c0,0.02 0,0.01 -0.01,0.01l-0.04 0 0 -0.04zm-0.47 -0.1l0 0.14 -0.05 0.01 0 -0.2 0.05 0 0 0.05zm0.59 0.14l-0.03 0 0 -0.09c0.03,0 0.05,0 0.08,-0.02 0.03,-0.03 0.02,-0.07 0.02,-0.12l0.05 0 0 0.19c-0.02,0 -0.05,0.01 -0.07,0.02 0,0 -0.01,0 -0.02,0.01 -0.01,0 -0.02,0.01 -0.03,0.01zm-0.33 -0.05c0,0.01 -0.01,0.01 -0.02,0.01 -0.06,0 -0.14,0 -0.19,0l0 -0.15c0.04,0 0.09,0 0.13,0 0.03,0 0.09,0 0.1,0.03l0 0.05c0,0.03 0.01,0.07 -0.02,0.06zm0.4 -0.37l0.05 0 0 0.14 -0.05 0 0 -0.14zm-0.85 0l0.05 0 0 0.14 -0.05 0 0 -0.14zm0 -0.09c0.01,-0.05 0.03,-0.05 0.08,-0.05l0.61 0c0.03,0 0.16,-0.01 0.18,0 0.01,0.01 0.02,0.02 0.02,0.04 0.01,0.01 0.01,0.04 0.01,0.05 -0.03,0.01 -0.06,0.01 -0.08,0.01 -0.03,0 -0.06,-0.01 -0.06,0.02 0,0.02 0.02,0.02 0.04,0.02 0.01,0.03 0.01,0.26 0,0.26 0,0.02 -0.01,0.02 -0.03,0.02 -0.03,0 -0.14,0.01 -0.16,0 -0.04,0 -0.09,-0.05 -0.13,-0.07 -0.05,-0.03 -0.13,-0.02 -0.19,-0.02 -0.04,0 -0.07,0 -0.11,0 -0.04,0 -0.08,0.01 -0.08,-0.02 -0.01,-0.01 0,-0.16 0,-0.17 0.18,0 0.37,0 0.55,0 0.03,0 0.05,0.01 0.06,-0.02 -0.01,-0.03 -0.04,-0.02 -0.08,-0.02l-0.63 0 0 -0.05zm1.05 -0.3c-0.03,-0.02 -0.05,-0.07 -0.08,-0.05 -0.01,0.02 0.01,0.04 0.02,0.05l0.03 0.03c-0.01,0 -0.04,-0.02 -0.05,-0.02 -0.05,-0.03 -0.1,-0.1 -0.1,-0.16 0.05,0 0.09,0.03 0.12,0.05 0.02,0.02 0.05,0.05 0.06,0.1zm0.18 -0.12c0.02,-0.07 0.09,-0.14 0.18,-0.15 0,0.09 -0.08,0.17 -0.15,0.19 0.01,-0.02 0.02,-0.03 0.04,-0.04 0,-0.01 0.03,-0.03 0.01,-0.04 -0.02,-0.02 -0.04,0 -0.05,0.01 -0.01,0.01 -0.02,0.02 -0.03,0.03z"/>
  <path class="fil0 str0" d="M0.15 0.88c0,0.03 0.04,0.02 0.08,0.02 0.04,0 0.07,0 0.11,0 0.06,0 0.14,-0.01 0.19,0.02 0.04,0.02 0.09,0.07 0.13,0.07 0.02,0.01 0.13,0 0.16,0 0.02,0 0.03,0 0.03,-0.02 -0.01,-0.02 0,-0.18 0,-0.21 -0.02,0 -0.12,-0.01 -0.13,0 0.05,0.01 0.09,0.05 0.08,0.1 0,0.11 -0.17,0.11 -0.18,0 0,-0.05 0.03,-0.09 0.08,-0.1 -0.01,-0.01 -0.15,0 -0.18,0 -0.02,0 -0.05,-0.01 -0.06,0 0.02,0.01 0.02,0.03 0,0.04 -0.01,0.01 -0.04,0 -0.06,0 -0.02,0 -0.07,0.01 -0.06,-0.02 0,-0.01 0,-0.01 0.01,-0.02 0,-0.01 -0.07,0 -0.07,0 -0.01,0 0,0 -0.01,0 0.02,0.01 0.04,0.04 -0.03,0.04 -0.01,0 -0.03,0.01 -0.04,-0.01 -0.01,-0.01 0,-0.02 0.01,-0.03 -0.01,-0.01 -0.05,0 -0.06,0 0,0.04 0,0.08 0,0.12z"/>
  <path class="fil1" d="M0.04 0.69l0.92 0c0,-0.05 -0.01,-0.09 -0.03,-0.11 -0.02,-0.02 -0.16,-0.01 -0.18,-0.01l-0.64 0c-0.04,0 -0.07,0.01 -0.07,0.12z"/>
  <path class="fil0 str0" d="M0.15 0.88c0,-0.04 0,-0.08 0,-0.12 0.01,0 0.05,-0.01 0.06,0l0.06 0c0.01,0 0,0 0.01,0 0,0 0.07,-0.01 0.07,0l0.11 0c0.01,-0.01 0.04,0 0.06,0 0.03,0 0.17,-0.01 0.18,0l0.02 0c0.01,-0.01 0.11,0 0.13,0 0,0.03 -0.01,0.19 0,0.21 0.01,0 0,-0.23 0,-0.26 -0.02,0 -0.04,0 -0.04,-0.02 -0.01,0 -0.04,0 -0.05,0 -0.01,0.03 -0.03,0.02 -0.06,0.02 -0.18,0 -0.37,0 -0.55,0 0,0.01 -0.01,0.16 0,0.17z"/>
  <path class="fil0" d="M0.95 1.23c0.05,-0.01 0.08,0.02 0.09,0.05 0.01,0.05 -0.02,0.08 -0.06,0.09 -0.09,0.02 -0.12,-0.12 -0.03,-0.14zm0 -0.05c-0.16,0.04 -0.1,0.26 0.04,0.23 0.06,-0.01 0.11,-0.07 0.09,-0.14 -0.01,-0.05 -0.07,-0.1 -0.13,-0.09z"/>
  <path class="fil1" d="M0.51 1.08c0.02,0 0.01,-0.09 0.01,-0.13 -0.05,0 -0.18,0 -0.23,0l0 0.13 0.22 0z"/>
  <path class="fil0" d="M0.68 0.81c0.05,-0.02 0.1,0.03 0.07,0.07 -0.01,0.01 -0.02,0.02 -0.04,0.02 -0.01,0 -0.03,-0.01 -0.03,-0.01 -0.03,-0.03 -0.01,-0.07 0,-0.08zm0.04 -0.05l-0.02 0c-0.05,0.01 -0.08,0.05 -0.08,0.1 0.01,0.11 0.18,0.11 0.18,0 0.01,-0.05 -0.03,-0.09 -0.08,-0.1z"/>
  <path class="fil1" d="M0.96 1.28c0.03,-0.02 0.04,0.03 0.02,0.04 -0.01,0 -0.03,0 -0.03,-0.01 -0.01,-0.02 0.01,-0.03 0.01,-0.03zm-0.01 -0.05c-0.09,0.02 -0.06,0.16 0.03,0.14 0.04,-0.01 0.07,-0.04 0.06,-0.09 -0.01,-0.03 -0.04,-0.06 -0.09,-0.05z"/>
  <path class="fil1" d="M1.07 0.35l-0.03 -0.03c-0.01,-0.01 -0.03,-0.03 -0.02,-0.05 0.03,-0.02 0.05,0.03 0.08,0.05 -0.01,-0.05 -0.04,-0.08 -0.06,-0.1 -0.03,-0.02 -0.07,-0.05 -0.12,-0.05 0,0.06 0.05,0.13 0.1,0.16 0.01,0 0.04,0.02 0.05,0.02z"/>
  <path class="fil1" d="M1.28 0.2c0.01,-0.01 0.02,-0.02 0.03,-0.03 0.01,-0.01 0.03,-0.03 0.05,-0.01 0.02,0.01 -0.01,0.03 -0.01,0.04 -0.02,0.01 -0.03,0.02 -0.04,0.04 0.07,-0.02 0.15,-0.1 0.15,-0.19 -0.09,0.01 -0.16,0.08 -0.18,0.15z"/>
  <path class="fil1 str1" d="M0.62 1.2l-0.01 0.03c0.03,0 0.14,0 0.16,-0.01 0,0 0.02,-0.04 0.03,-0.04 -0.03,0 -0.07,0 -0.1,0 -0.03,0 -0.08,-0.01 -0.08,0.02z"/>
  <path class="fil1 str1" d="M0.78 1.2c-0.03,0 -0.07,0 -0.1,0l-0.06 0c-0.01,0.01 -0.01,0.04 0,0.05 0,0.02 0.01,0.03 0.03,0.03 0.04,0 0.07,0 0.11,0l0.02 -0.08z"/>
  <polygon class="fil1 str2" points="0.19,1.14 0.24,1.13 0.24,0.99 0.19,0.99 "/>
  <path class="fil1 str1" d="M0.71 1.13l0.05 0c0,0 0,-0.03 0,-0.04 0,-0.02 0,-0.03 0,-0.05l-0.05 0 0 0.09z"/>
  <polygon class="fil1 str2" points="0.19,1.14 0.19,0.99 0.24,0.99 0.24,0.94 0.19,0.94 "/>
  <path class="fil1 str1" d="M0.96 1.28c0,0 -0.02,0.01 -0.01,0.03 0,0.01 0.02,0.01 0.03,0.01 0.02,-0.01 0.01,-0.06 -0.02,-0.04z"/>
  <rect class="fil1" x="0.19" y="0.77" width="0.1" height="0.03" rx="0.02" ry="0.02"/>
  <rect class="fil1" x="0.34" y="0.77" width="0.13" height="0.03" rx="0.03" ry="0.02"/>
 </g>
</svg>
