<?xml version="1.0" encoding="UTF-8"?>
<!DOCTYPE svg PUBLIC "-//W3C//DTD SVG 1.1//EN" "http://www.w3.org/Graphics/SVG/1.1/DTD/svg11.dtd">
<!-- Creator: CorelDRAW 2021 (64-Bit) -->
<svg xmlns="http://www.w3.org/2000/svg" xml:space="preserve" width="14.7836mm" height="19.8102mm" version="1.1" style="shape-rendering:geometricPrecision; text-rendering:geometricPrecision; image-rendering:optimizeQuality; fill-rule:evenodd; clip-rule:evenodd"
viewBox="0 0 11.01 14.76"
 xmlns:xlink="http://www.w3.org/1999/xlink"
 xmlns:xodm="http://www.corel.com/coreldraw/odm/2003">
 <defs>
  <style type="text/css">
   <![CDATA[
    .fil1 {fill:#333333;fill-rule:nonzero}
    .fil0 {fill:#FFE600;fill-rule:nonzero}
   ]]>
  </style>
 </defs>
 <g id="Layer_x0020_1">
  <metadata id="CorelCorpID_0Corel-Layer"/>
  <g id="_2141220645936">
   <path class="fil0" d="M6.59 14.63c-0,-0.05 0.01,0.04 0,0 0.55,-0.24 0.97,-0.63 1.1,-1.18 0.28,-1.19 1,-1.36 1.95,-2.51 0.25,-0.3 0.28,-0.75 0.21,-1.09 0,0.02 -0.03,0.49 -1.13,1.09 0.23,-0.18 0.47,-0.39 0.74,-0.67 0.35,-0.37 0.35,-0.64 0.19,-0.84 -0.18,-0.22 -0.49,-0.34 -0.77,-0.41 -0.1,-0.03 -0.2,-0.04 -0.3,-0.06l-0.01 -0.01c-0,0 -0.01,0 -0.01,0 -0.63,-0.1 -1.32,-0.07 -1.95,-0.02 -0.41,0.03 -0.82,0.09 -1.22,0.17 -0.01,-0.01 -0.01,-0.01 -0.01,-0.02l-0.04 0.03c-0.32,0.07 -0.65,0.15 -0.96,0.26 -0.72,0.24 -1.4,0.61 -1.93,1.11 -0.55,0.52 -0.76,1.03 -0.73,1.49 0.04,0.71 0.66,1.31 1.47,1.65 0.06,0.03 0.13,0.06 0.2,0.08 -0.96,-0.02 -1.45,-0.63 -1.58,-0.82 -0.01,-0.01 -0.03,-0 -0.02,0.01 0.15,0.7 0.56,1.43 1.8,1.84 0.02,0.01 0.04,0.02 0.06,0.02 -2.9,0.18 -4.68,-4.02 -2.97,-7.02 -0.12,0.2 0.03,1.18 0.12,1.37 0.26,0.55 0.75,0.72 1.2,0.5 1.41,-0.69 -0.74,-2.3 -0.13,-4.49 0.56,-1.99 1.94,-2.86 1.94,-2.86 0,0 -0.32,1 -0.32,1.96l-0 0c0,0 -0.29,2.46 2.49,2.83 0,0 -0.98,-0.33 -1.44,-1.13 0.23,0.06 0.45,0.04 0.68,-0.1 0.57,-0.35 0.67,-0.87 0.63,-1.47 -0.03,-0.48 -0.95,-2.1 0.22,-4.34 -0.07,0.15 -0.01,1.53 1.65,3.49 1.87,2.21 0.51,3.97 1.27,4.46 0.37,0.24 1,0.31 1.19,-1.85 2.93,7.76 -2.8,8.53 -3.59,8.53z"/>
   <path class="fil1" d="M5.74 9.95c0.01,0.1 0.11,0.16 0.22,0.18 0.29,0.05 0.51,0.17 0.76,0.22 0.01,0 0.01,-0 0.01,-0 0.08,-0.12 0.25,-0.38 0.35,-0.48 0.17,-0.17 0.34,-0.32 0.55,-0.47 0.13,-0.09 0.07,-0.27 -0.09,-0.27 -0.19,0 -0.38,0.01 -0.57,0.02 -0.39,0.02 -0.77,0.06 -1.16,0.12 -0.15,0.02 -0.23,0.16 -0.19,0.29 0.05,0.13 0.08,0.26 0.1,0.4z"/>
   <path class="fil1" d="M9.48 9.62c-0.06,-0.15 -0.27,-0.24 -0.42,-0.31l-0.02 -0.01c-0.21,-0.08 -0.55,-0.1 -0.77,-0.03 -0.47,0.16 -0.75,0.38 -1.01,0.63 -0.11,0.11 -0.27,0.28 -0.3,0.43 -0.02,0.12 0.03,0.23 0.14,0.28 0.35,0.18 0.62,0.24 0.91,0.27 0.21,0.03 0.42,-0.03 0.58,-0.16 0.21,-0.17 0.44,-0.36 0.67,-0.62 0.2,-0.21 0.27,-0.37 0.22,-0.5z"/>
   <path class="fil1" d="M5.36 11.81c-0.26,0.27 -0.72,0.4 -1.01,0.28 -0.29,-0.11 -0.32,-0.42 -0.05,-0.69 0.26,-0.27 0.72,-0.4 1.01,-0.28 0.29,0.11 0.32,0.42 0.05,0.69zm2.22 -0.81c-0.21,-0.07 -0.44,-0.11 -0.81,-0.35 -0,-0 -0.04,0.02 -0.04,0.02 -0.2,0.14 -0.24,0.99 -0.24,0.99 -0.06,-0.25 -0.03,-0.73 0.05,-1 0.03,-0.11 -0.23,-0.29 -0.34,-0.32 -0.71,-0.19 -1.23,0.07 -1.76,0.39 0.05,-0.05 0.51,-0.44 0.82,-0.51 0.11,-0.02 0.24,-0.04 0.25,-0.15 0.02,-0.12 -0,-0.23 -0.04,-0.32 -0.07,-0.18 -0.27,-0.28 -0.48,-0.29 -0.06,-0 -0.13,0.01 -0.19,0.02 -0.81,0.23 -1.59,0.6 -2.18,1.16 -0.52,0.49 -0.73,0.98 -0.64,1.47 0.05,0.25 0.19,0.48 0.39,0.69 -0,-0.06 0,-0.13 0.02,-0.19 0.04,-0.2 0.14,-0.37 0.24,-0.52 0.03,-0.05 0.13,-0.25 0.17,-0.3 0,-0 0,0 0,-0 -0,-0.01 0.11,-0.38 -0.3,-0.71 0.05,0.02 0.39,0.17 0.52,0.48 0,0.01 0.01,0.01 0.02,0 0.13,-0.14 0.56,-0.4 0.83,-0.39 -1.07,0.42 -1.55,1.75 -0.95,2.04 0.12,0.08 0.26,0.14 0.4,0.2 0.41,0.19 0.97,0.29 1.54,0.28 0.02,-0.02 0.02,-0.02 0.03,-0.05 -0.33,-0.61 -0.9,-1.22 -0.92,-1.24 0.43,0.28 0.75,0.67 1.07,1.02 0.14,0.15 0.37,0.22 0.58,0.17 0.56,-0.13 1.22,-0.42 1.43,-1.09 0.15,-0.47 0.36,-0.78 0.62,-1.03 0.15,-0.14 0.12,-0.42 -0.08,-0.49z"/>
   <path class="fil1" d="M3 11.56c0,0.01 0.01,0.01 0.02,0 0.01,-0.01 0.01,-0.01 0.02,-0.02 -0.06,-0.1 -0.14,-0.18 -0.22,-0.24 0.07,0.07 0.14,0.15 0.18,0.26z"/>
   <path class="fil1" d="M4.41 10.71c0,0 0,0.01 0.01,0.01 0.01,-0.01 0.04,-0.04 0.09,-0.08 -0.04,0.02 -0.07,0.05 -0.1,0.06z"/>
   <path class="fil1" d="M2.68 10.75c0.59,-0.56 1.37,-0.93 2.18,-1.16 0.11,-0.03 0.22,-0.06 0.33,-0.09 -0.07,-0.03 -0.14,-0.04 -0.22,-0.04 -0.06,-0 -0.12,0.01 -0.18,0.02 -0,0 -0.01,0 -0.01,0 -0.7,0.2 -1.37,0.5 -1.93,0.94 -0.09,0.07 -0.17,0.14 -0.25,0.22 -0.07,0.06 -0.13,0.13 -0.18,0.19 -0.34,0.38 -0.5,0.76 -0.47,1.14 0,0.05 0.01,0.09 0.02,0.14 0.01,0.03 0.01,0.06 0.02,0.08 0,0.01 0.01,0.02 0.01,0.03 0,0.01 0,0.01 0.01,0.02 0.04,0.12 0.11,0.24 0.19,0.36 -0.07,-0.12 -0.13,-0.25 -0.15,-0.38 -0.09,-0.48 0.12,-0.97 0.64,-1.47z"/>
   <path class="fil1" d="M5.5 9.99c-0,0.02 -0,0.03 -0.01,0.05 -0,0.02 -0.01,0.04 -0.01,0.06 0.01,-0.01 0.01,-0.02 0.01,-0.04 0,-0.03 0.01,-0.05 0.01,-0.07z"/>
   <path class="fil1" d="M7.7 9.23c-0.02,-0.05 -0.07,-0.1 -0.14,-0.11 -0.18,0 -0.36,0 -0.54,0.01 -0.02,0 -0.03,0 -0.05,0 -0.39,0.02 -0.77,0.06 -1.16,0.12 -0.09,0.02 -0.16,0.07 -0.19,0.15 0.47,-0.09 0.94,-0.14 1.41,-0.16 0.22,-0.01 0.44,-0.02 0.65,-0.02z"/>
   <path class="fil1" d="M5.74 9.95c0.01,0.07 0.06,0.12 0.13,0.15 -0.02,-0.03 -0.04,-0.06 -0.04,-0.1 -0.03,-0.2 -0.09,-0.4 -0.19,-0.58 -0.01,0.04 -0.01,0.09 0,0.13 0.05,0.13 0.08,0.26 0.1,0.4z"/>
   <path class="fil1" d="M6.18 10.34c-0.71,-0.19 -1.23,0.07 -1.76,0.39 0.02,0.02 0.05,0.06 0.08,0.05 0.53,-0.31 1.17,-0.47 1.87,-0.29 0.05,0.01 0.1,0.04 0.14,0.07 -0.07,-0.1 -0.23,-0.2 -0.32,-0.22z"/>
   <path class="fil1" d="M7.57 11c-0.21,-0.07 -0.44,-0.11 -0.81,-0.35 -0,-0 -0.04,0.02 -0.04,0.02 -0.18,0.13 -0.23,0.83 -0.24,0.96 0,0 0,0 0,0 0,0.02 0.06,0.07 0.08,0.07 0,0 -0.02,-0.79 0.19,-0.91 0.32,0.18 0.67,0.33 0.99,0.4 -0.02,-0.09 -0.07,-0.16 -0.17,-0.2z"/>
   <path class="fil1" d="M5.36 11.81c-0.26,0.27 -0.72,0.4 -1.01,0.28 -0.14,-0.05 -0.21,-0.15 -0.23,-0.26 -0.02,0.17 0.06,0.31 0.23,0.38 0.29,0.12 0.75,-0.01 1.01,-0.3 0.14,-0.15 0.2,-0.31 0.18,-0.44 -0.01,0.11 -0.07,0.22 -0.18,0.33z"/>
   <path class="fil1" d="M9.48 9.62c-0.06,-0.15 -0.27,-0.24 -0.42,-0.31 -0.01,-0 -0.01,-0.01 -0.02,-0.01 -0.09,-0.03 -0.2,-0.06 -0.31,-0.07 -0,-0 -0,-0 -0,-0 -0.01,-0 -0.02,-0 -0.03,-0 -0,-0 -0.01,-0 -0.01,-0 -0.03,-0 -0.05,-0 -0.08,-0 -0.01,-0 -0.01,-0 -0.02,0 -0.01,0 -0.01,0 -0.02,0 -0.01,0 -0.02,0 -0.03,0 -0,0 -0.01,0 -0.01,0 -0.01,0 -0.03,0 -0.04,0 -0,0 -0,0 -0,0 -0.01,0 -0.03,0 -0.04,0 -0,0 -0,0 -0.01,0 -0.06,0.01 -0.11,0.02 -0.16,0.04 -0.47,0.16 -0.75,0.38 -1.01,0.63 -0.11,0.11 -0.27,0.28 -0.3,0.43 -0.01,0.07 -0,0.14 0.03,0.19 0,-0 0,-0 0,-0 0.08,-0.15 0.25,-0.37 0.38,-0.5 0.29,-0.28 0.69,-0.59 1.24,-0.74 0.11,0.02 0.22,0.04 0.32,0.07 0.06,0.02 0.13,0.04 0.19,0.06 0.12,0.05 0.26,0.11 0.35,0.2 0,-0 0,-0 -0,-0z"/>
   <path class="fil1" d="M4.26 12.65c0.29,0.24 0.52,0.53 0.77,0.79 0.05,0.06 0.12,0.1 0.19,0.13 -0.25,-0.32 -0.58,-0.65 -0.95,-0.93z"/>
   <path class="fil1" d="M2.57 11.16c0.09,0.14 0.17,0.35 0.23,0.5 -0,-0.12 -0.04,-0.31 -0.23,-0.5z"/>
   <path class="fil1" d="M3.84 11.18c-0.1,0.04 -0.24,0.12 -0.38,0.2 -0.79,0.54 -1.09,1.59 -0.56,1.84 0.02,0.01 0.03,0.02 0.05,0.03 -0.38,-0.32 -0.04,-1.6 0.98,-2 -0.04,-0.02 -0.08,-0.07 -0.08,-0.07z"/>
   <path class="fil1" d="M4.59 11.85c-0.05,-0.01 -0.1,-0.02 -0.13,-0.05 -0.04,-0.03 -0.06,-0.07 -0.06,-0.12 0,-0.08 0.06,-0.18 0.16,-0.26 0.15,-0.13 0.36,-0.2 0.52,-0.17 0.05,0.01 0.1,0.02 0.13,0.05 0.04,0.03 0.06,0.07 0.06,0.12 -0,0.08 -0.06,0.18 -0.16,0.26 -0.15,0.13 -0.36,0.2 -0.52,0.17z"/>
  </g>
 </g>
</svg>
