<?xml version="1.0" encoding="UTF-8"?>
<!DOCTYPE svg PUBLIC "-//W3C//DTD SVG 1.1//EN" "http://www.w3.org/Graphics/SVG/1.1/DTD/svg11.dtd">
<!-- Creator: CorelDRAW 2021 (64-Bit) -->
<svg xmlns="http://www.w3.org/2000/svg" xml:space="preserve" width="21.1907mm" height="21.1906mm" version="1.1" style="shape-rendering:geometricPrecision; text-rendering:geometricPrecision; image-rendering:optimizeQuality; fill-rule:evenodd; clip-rule:evenodd"
viewBox="0 0 24.48 24.48"
 xmlns:xlink="http://www.w3.org/1999/xlink"
 xmlns:xodm="http://www.corel.com/coreldraw/odm/2003">
 <defs>
  <style type="text/css">
   <![CDATA[
    .str0 {stroke:#333333;stroke-width:0.09;stroke-miterlimit:10}
    .fil1 {fill:#333333;fill-rule:nonzero}
    .fil0 {fill:#FFE600;fill-rule:nonzero}
   ]]>
  </style>
 </defs>
 <g id="Layer_x0020_1">
  <metadata id="CorelCorpID_0Corel-Layer"/>
  <g id="_2141235648240">
   <path class="fil0" d="M12.24 24.22c-0.23,0 -0.46,-0.05 -0.62,-0.13l-1.46 -0.76c-0.44,-0.23 -1.18,-0.43 -1.67,-0.45l-1.64 -0.08c-0.37,-0.02 -0.87,-0.3 -1.07,-0.62l-0.89 -1.39c-0.27,-0.42 -0.8,-0.96 -1.22,-1.22l-1.39 -0.89c-0.31,-0.2 -0.6,-0.7 -0.62,-1.07l-0.08 -1.64c-0.02,-0.5 -0.22,-1.23 -0.45,-1.67l-0.76 -1.46c-0.17,-0.33 -0.17,-0.9 0,-1.23l0.76 -1.46c0.23,-0.44 0.43,-1.17 0.45,-1.67l0.08 -1.64c0.02,-0.37 0.3,-0.87 0.62,-1.07l1.39 -0.89c0.42,-0.27 0.96,-0.81 1.22,-1.22l0.89 -1.39c0.2,-0.31 0.7,-0.6 1.07,-0.62l1.64 -0.08c0.5,-0.02 1.23,-0.22 1.67,-0.45l1.46 -0.76c0.16,-0.08 0.38,-0.13 0.62,-0.13 0.23,0 0.46,0.05 0.62,0.13l1.46 0.76c0.44,0.23 1.18,0.43 1.67,0.45l1.64 0.08c0.37,0.02 0.87,0.31 1.07,0.62l0.89 1.39c0.27,0.42 0.8,0.96 1.22,1.22l1.39 0.89c0.31,0.2 0.6,0.7 0.62,1.07l0.07 1.64c0.02,0.5 0.22,1.23 0.45,1.67l0.76 1.46c0.17,0.33 0.17,0.9 0,1.23l-0.76 1.46c-0.23,0.44 -0.43,1.18 -0.45,1.67l-0.07 1.64c-0.02,0.37 -0.31,0.87 -0.62,1.07l-1.39 0.89c-0.42,0.27 -0.96,0.81 -1.22,1.22l-0.89 1.39c-0.2,0.31 -0.7,0.6 -1.07,0.62l-1.64 0.08c-0.5,0.02 -1.23,0.22 -1.67,0.45l-1.46 0.76c-0.16,0.08 -0.38,0.13 -0.62,0.13z"/>
   <path class="fil1" d="M12.24 0c-0.27,0 -0.53,0.05 -0.74,0.16l-1.46 0.76c-0.4,0.21 -1.11,0.4 -1.56,0.42l-1.64 0.08c-0.46,0.02 -1.03,0.35 -1.27,0.74l-0.89 1.39c-0.25,0.38 -0.76,0.9 -1.14,1.14l-1.39 0.89c-0.38,0.25 -0.72,0.82 -0.74,1.27l-0.08 1.64c-0.02,0.46 -0.21,1.16 -0.42,1.56l-0.76 1.46c-0.21,0.4 -0.21,1.07 0,1.47l0.76 1.46c0.21,0.4 0.4,1.11 0.42,1.56l0.08 1.64c0.02,0.46 0.35,1.03 0.74,1.27l1.39 0.89c0.38,0.25 0.9,0.76 1.14,1.14l0.89 1.39c0.25,0.38 0.82,0.72 1.27,0.74l1.64 0.08c0.46,0.02 1.16,0.21 1.56,0.42l1.46 0.76c0.2,0.1 0.47,0.16 0.74,0.16 0.27,0 0.53,-0.05 0.74,-0.16l1.46 -0.76c0.4,-0.21 1.11,-0.4 1.56,-0.42l1.64 -0.08c0.46,-0.02 1.03,-0.35 1.27,-0.74l0.89 -1.39c0.25,-0.38 0.76,-0.9 1.14,-1.14l1.39 -0.89c0.38,-0.25 0.71,-0.82 0.74,-1.27l0.08 -1.64c0.02,-0.46 0.21,-1.16 0.42,-1.56l0.76 -1.46c0.21,-0.4 0.21,-1.07 0,-1.47l-0.76 -1.46c-0.21,-0.4 -0.4,-1.11 -0.42,-1.56l-0.08 -1.64c-0.02,-0.46 -0.35,-1.03 -0.74,-1.27l-1.39 -0.89c-0.38,-0.25 -0.9,-0.76 -1.14,-1.14l-0.89 -1.39c-0.25,-0.38 -0.82,-0.72 -1.27,-0.74l-1.64 -0.08c-0.46,-0.02 -1.16,-0.21 -1.56,-0.42l-1.46 -0.76c-0.2,-0.1 -0.47,-0.16 -0.74,-0.16zm0 0.52c0.19,0 0.38,0.04 0.5,0.1l1.46 0.76c0.47,0.24 1.25,0.45 1.78,0.48l1.64 0.08c0.29,0.01 0.71,0.25 0.86,0.5l0.89 1.39c0.28,0.45 0.86,1.02 1.3,1.3l1.39 0.89c0.24,0.16 0.48,0.57 0.5,0.86l0.08 1.64c0.02,0.53 0.23,1.31 0.48,1.78l0.76 1.46c0.13,0.26 0.13,0.74 0,0.99l-0.76 1.46c-0.24,0.47 -0.45,1.25 -0.48,1.78l-0.08 1.64c-0.01,0.29 -0.25,0.71 -0.5,0.86l-1.39 0.89c-0.45,0.29 -1.02,0.86 -1.3,1.3l-0.89 1.39c-0.16,0.24 -0.57,0.48 -0.86,0.5l-1.64 0.08c-0.53,0.02 -1.31,0.23 -1.78,0.48l-1.46 0.76c-0.12,0.06 -0.31,0.1 -0.5,0.1 -0.19,0 -0.38,-0.04 -0.5,-0.1l-1.46 -0.76c-0.47,-0.24 -1.25,-0.45 -1.78,-0.48l-1.64 -0.08c-0.29,-0.01 -0.71,-0.25 -0.86,-0.5l-0.89 -1.39c-0.28,-0.45 -0.86,-1.02 -1.3,-1.3l-1.39 -0.89c-0.24,-0.16 -0.48,-0.57 -0.5,-0.86l-0.08 -1.64c-0.02,-0.53 -0.23,-1.31 -0.48,-1.78l-0.76 -1.46c-0.13,-0.26 -0.13,-0.74 -0,-0.99l0.76 -1.46c0.24,-0.47 0.45,-1.25 0.48,-1.78l0.08 -1.64c0.01,-0.29 0.25,-0.71 0.5,-0.86l1.39 -0.89c0.45,-0.29 1.02,-0.86 1.3,-1.3l0.89 -1.39c0.16,-0.24 0.57,-0.48 0.86,-0.5l1.64 -0.08c0.53,-0.02 1.31,-0.23 1.78,-0.48l1.46 -0.76c0.12,-0.06 0.31,-0.1 0.5,-0.1z"/>
   <g>
    <path class="fil1" d="M12.9 7.02l0 1.04c0,0.01 0,0.22 0.06,0.53 0.06,0.31 0.18,0.73 0.41,1.15 0.22,0.4 0.37,0.69 0.46,0.99 0.09,0.3 0.13,0.62 0.13,1.08 0,0.95 0,6.13 0,6.13l0.24 0 -0.23 -0.03 0.11 0.02 -0.11 -0.02 -0 0 0.11 0.02 -0.11 -0.02c0,0 -0.02,0.07 -0.06,0.12 -0.02,0.03 -0.04,0.05 -0.08,0.07 -0.04,0.02 -0.09,0.03 -0.16,0.03l-2.96 0c-0.08,-0 -0.13,-0.02 -0.17,-0.04 -0.03,-0.01 -0.05,-0.03 -0.07,-0.05 -0.03,-0.03 -0.04,-0.06 -0.05,-0.09 -0,-0.01 -0.01,-0.02 -0.01,-0.03l-0 -0.01 -0.09 0.02 0.09 -0.01 -0 -0 -0.09 0.02 0.09 -0.01 -0.23 0.03 0.24 0c0,0 0,-1.3 0,-2.71 0,-1.41 0,-2.95 0,-3.42 0,-0.46 0.04,-0.78 0.13,-1.08 0.09,-0.3 0.24,-0.6 0.46,-0.99 0.24,-0.43 0.36,-0.84 0.41,-1.15 0.06,-0.31 0.06,-0.52 0.06,-0.53l0 -1.04 -0.47 0 0 1.04c0,0.02 -0.01,0.74 -0.41,1.45 -0.22,0.4 -0.39,0.73 -0.5,1.09 -0.11,0.36 -0.15,0.73 -0.15,1.22 0,0.95 0,6.13 0,6.13l0 0.02 0 0.02c0,0.02 0.02,0.16 0.13,0.31 0.05,0.08 0.13,0.15 0.24,0.21 0.11,0.06 0.24,0.09 0.39,0.09l2.96 0c0.15,0 0.29,-0.03 0.39,-0.09 0.08,-0.04 0.15,-0.1 0.2,-0.16 0.07,-0.09 0.12,-0.17 0.14,-0.24 0.02,-0.07 0.03,-0.12 0.03,-0.13l0 -0.02 0 -0.02c0,0 0,-1.3 0,-2.71 0,-1.41 0,-2.95 0,-3.42 0,-0.49 -0.05,-0.86 -0.15,-1.22 -0.11,-0.36 -0.27,-0.68 -0.5,-1.09 -0.21,-0.37 -0.31,-0.74 -0.36,-1.01 -0.03,-0.14 -0.04,-0.25 -0.05,-0.33 -0,-0.04 -0,-0.07 -0.01,-0.09l-0 -0.02 -0 -0 0 -1.04 -0.47 0z"/>
    <path class="fil1" d="M13.55 7.16c0,0.09 -0.07,0.16 -0.17,0.16l-2.4 0c-0.09,0 -0.17,-0.07 -0.17,-0.16l0 -0.53c0,-0.09 0.07,-0.16 0.17,-0.16l2.4 0c0.09,0 0.17,0.07 0.17,0.16l0 0.53z"/>
    <path class="fil1 str0" d="M13.94 10.34l-2.76 0c0,0 -0.42,0.68 -0.42,1.63 0,0.95 0,6.39 0,6.39l3.09 -0.02 0.36 -0.39 0 -6.89 -0.26 -0.72z"/>
    <path class="fil1" d="M16.96 6.33l0 1.04c0,0.01 0,0.22 0.06,0.53 0.06,0.31 0.18,0.73 0.41,1.15 0.22,0.4 0.37,0.69 0.46,0.99 0.09,0.3 0.13,0.62 0.13,1.08 0,0.95 0,6.13 0,6.13l0.24 0 -0.23 -0.03 0.11 0.02 -0.11 -0.02 -0 0 0.11 0.02 -0.11 -0.02c0,0 -0.02,0.07 -0.06,0.12 -0.02,0.03 -0.04,0.05 -0.08,0.07 -0.04,0.02 -0.09,0.03 -0.16,0.03l-2.96 0c-0.08,-0 -0.13,-0.02 -0.17,-0.04 -0.03,-0.01 -0.05,-0.03 -0.06,-0.05 -0.03,-0.03 -0.04,-0.06 -0.05,-0.09 -0,-0.01 -0.01,-0.02 -0.01,-0.03l-0 -0.01 -0.09 0.02 0.09 -0.01 -0 -0 -0.09 0.02 0.09 -0.01 -0.23 0.03 0.24 0c0,0 0,-1.3 0,-2.71 0,-1.41 0,-2.95 0,-3.42 0,-0.46 0.04,-0.78 0.13,-1.08 0.09,-0.3 0.24,-0.6 0.46,-0.99 0.24,-0.43 0.36,-0.84 0.41,-1.15 0.06,-0.31 0.06,-0.52 0.06,-0.53l0 -1.04 -0.47 0 -0 1.04 0 0c0,0.02 -0.01,0.74 -0.41,1.45 -0.22,0.4 -0.39,0.73 -0.5,1.09 -0.11,0.36 -0.15,0.73 -0.15,1.22 0,0.95 0,6.13 0,6.13l0 0.02 0 0.02c0,0.02 0.02,0.16 0.13,0.31 0.05,0.08 0.13,0.16 0.24,0.21 0.11,0.06 0.24,0.09 0.39,0.09l2.96 0c0.15,0 0.29,-0.03 0.39,-0.09 0.08,-0.04 0.15,-0.1 0.2,-0.16 0.08,-0.09 0.12,-0.17 0.14,-0.24 0.02,-0.07 0.03,-0.12 0.03,-0.13l0 -0.02 0 -0.02c0,0 0,-1.3 0,-2.71 0,-1.41 0,-2.95 0,-3.42 0,-0.49 -0.05,-0.86 -0.15,-1.22 -0.11,-0.36 -0.27,-0.68 -0.5,-1.09 -0.21,-0.37 -0.31,-0.74 -0.36,-1.01 -0.03,-0.14 -0.04,-0.25 -0.05,-0.33 -0,-0.04 -0,-0.07 -0.01,-0.09l-0 -0.02 0 -1.04 -0.47 0z"/>
    <path class="fil1" d="M17.61 6.47c0,0.09 -0.07,0.16 -0.17,0.16l-2.4 0c-0.09,0 -0.17,-0.07 -0.17,-0.16l0 -0.53c0,-0.09 0.07,-0.16 0.17,-0.16l2.4 0c0.09,0 0.17,0.07 0.17,0.16l0 0.53z"/>
    <path class="fil1" d="M18 9.65l-2.76 0c0,0 -0.42,0.68 -0.42,1.63 0,0.95 0,6.39 0,6.39l3.09 -0.02 0.36 -0.39 0 -6.89 -0.26 -0.72z"/>
    <path class="fil1" d="M8.95 6.33l0 1.04c0,0.01 0,0.22 0.06,0.53 0.06,0.31 0.18,0.73 0.41,1.15 0.22,0.4 0.37,0.69 0.46,0.99 0.09,0.3 0.13,0.62 0.13,1.08 0,0.95 0,6.13 0,6.13l0.24 0 -0.23 -0.03 0.11 0.02 -0.11 -0.02 -0 0 0.11 0.02 -0.11 -0.02c0,0 -0.02,0.07 -0.06,0.12 -0.02,0.03 -0.04,0.05 -0.08,0.07 -0.04,0.02 -0.09,0.03 -0.16,0.03l-2.96 0c-0.08,-0 -0.13,-0.02 -0.17,-0.04 -0.03,-0.01 -0.05,-0.03 -0.07,-0.05 -0.03,-0.03 -0.04,-0.06 -0.05,-0.09 -0,-0.01 -0.01,-0.02 -0.01,-0.03l-0 -0.01 -0.09 0.02 0.09 -0.01 -0 -0 -0.09 0.02 0.09 -0.01 -0.23 0.03 0.24 0c0,0 0,-1.3 0,-2.71 0,-1.41 0,-2.95 0,-3.42 0,-0.46 0.04,-0.78 0.13,-1.08 0.09,-0.3 0.24,-0.6 0.46,-0.99 0.24,-0.43 0.36,-0.84 0.41,-1.15 0.06,-0.31 0.06,-0.52 0.06,-0.53l0 -1.04 -0.47 0 0 1.04c0,0.02 -0.01,0.74 -0.41,1.45 -0.22,0.4 -0.39,0.73 -0.5,1.09 -0.11,0.36 -0.15,0.73 -0.15,1.22 0,0.95 0,6.13 0,6.13l0 0.02 0 0.02c0,0.02 0.02,0.16 0.13,0.31 0.05,0.08 0.13,0.16 0.24,0.21 0.11,0.06 0.24,0.09 0.39,0.09l2.96 0c0.15,0 0.29,-0.03 0.39,-0.09 0.08,-0.04 0.15,-0.1 0.2,-0.16 0.07,-0.09 0.12,-0.17 0.14,-0.24 0.02,-0.07 0.03,-0.12 0.03,-0.13l0 -0.02 0 -0.02c0,0 0,-1.3 0,-2.71 0,-1.41 0,-2.95 0,-3.42 0,-0.49 -0.05,-0.86 -0.15,-1.22 -0.11,-0.36 -0.27,-0.68 -0.5,-1.09 -0.21,-0.37 -0.31,-0.74 -0.36,-1.01 -0.03,-0.14 -0.04,-0.25 -0.05,-0.33 -0,-0.04 -0,-0.07 -0.01,-0.09l-0 -0.02 -0 -0 0 -1.04 -0.47 0z"/>
    <path class="fil1" d="M9.6 6.47c0,0.09 -0.07,0.16 -0.17,0.16l-2.4 0c-0.09,0 -0.17,-0.07 -0.17,-0.16l0 -0.53c0,-0.09 0.07,-0.16 0.17,-0.16l2.4 0c0.09,0 0.17,0.07 0.17,0.16l0 0.53z"/>
    <path class="fil1" d="M9.99 9.65l-2.76 0c0,0 -0.42,0.68 -0.42,1.63 0,0.95 0,6.39 0,6.39l3.09 -0.02 0.36 -0.39 0 -6.89 -0.26 -0.72z"/>
    <path class="fil1" d="M21.29 13.45l-0.46 0 0 -0.46c0,-0.16 -0.13,-0.28 -0.28,-0.28 -0.16,0 -0.28,0.13 -0.28,0.28l0 0.46 -0.46 0c-0.16,0 -0.28,0.13 -0.28,0.28 0,0.16 0.13,0.28 0.28,0.28l0.46 0 0 0.46c0,0.16 0.13,0.28 0.28,0.28 0.16,0 0.28,-0.13 0.28,-0.28l0 -0.46 0.46 0c0.16,0 0.28,-0.13 0.28,-0.28 0,-0.16 -0.13,-0.28 -0.28,-0.28z"/>
    <path class="fil1" d="M4.69 13.45l-0.46 0 0 -0.46c0,-0.16 -0.13,-0.28 -0.28,-0.28 -0.16,0 -0.28,0.13 -0.28,0.28l0 0.46 -0.47 0c-0.16,0 -0.28,0.13 -0.28,0.28 0,0.16 0.13,0.28 0.28,0.28l0.47 0 0 0.46c0,0.16 0.13,0.28 0.28,0.28 0.16,0 0.28,-0.13 0.28,-0.28l0 -0.46 0.46 0c0.16,0 0.28,-0.13 0.28,-0.28 0,-0.16 -0.13,-0.28 -0.28,-0.28z"/>
   </g>
  </g>
 </g>
</svg>
