<?xml version="1.0" encoding="UTF-8"?>
<!DOCTYPE svg PUBLIC "-//W3C//DTD SVG 1.1//EN" "http://www.w3.org/Graphics/SVG/1.1/DTD/svg11.dtd">
<!-- Creator: CorelDRAW 2021 (64-Bit) -->
<svg xmlns="http://www.w3.org/2000/svg" xml:space="preserve" width="24.5688mm" height="25.3407mm" version="1.1" style="shape-rendering:geometricPrecision; text-rendering:geometricPrecision; image-rendering:optimizeQuality; fill-rule:evenodd; clip-rule:evenodd"
viewBox="0 0 50.23 51.81"
 xmlns:xlink="http://www.w3.org/1999/xlink"
 xmlns:xodm="http://www.corel.com/coreldraw/odm/2003">
 <defs>
  <style type="text/css">
   <![CDATA[
    .fil0 {fill:#333333}
    .fil1 {fill:#FFE600}
   ]]>
  </style>
 </defs>
 <g id="Layer_x0020_1">
  <metadata id="CorelCorpID_0Corel-Layer"/>
  <g id="_2151769454688">
   <path class="fil0" d="M24.67 49.27l-0.05 -23.4c0.82,0.56 3.33,6.1 4.25,6.53 1.14,0.53 5.71,-2.55 7.26,-3.45 2.27,-1.3 4.85,-3.02 7.12,-4.01l0 13.83c-3.06,1.1 -14.19,8.46 -18.58,10.5zm2.53 -25.11c2.06,-1.29 15.83,-9.36 17.12,-9.71 0.57,1.74 2.19,3.59 2.65,5.04l-17 9.71c-0.59,-0.71 -2.58,-4.12 -2.77,-5.04zm-23.88 -4.67c0.44,-1.5 2.08,-3.28 2.66,-5.05 1.32,0.38 7.04,3.87 8.77,4.89 2.89,1.69 5.54,3.05 8.35,4.83 -0.19,0.92 -2.15,4.27 -2.76,5.04 -1.36,-0.41 -3.31,-1.76 -4.53,-2.44 -1.49,-0.84 -2.73,-1.58 -4.18,-2.42 -1.44,-0.84 -2.76,-1.57 -4.19,-2.41 -1.35,-0.8 -2.8,-1.49 -4.12,-2.43zm41.77 -8.24c-1.58,-0.15 -11.59,6.06 -13.63,7.24 -8.03,4.65 -4.96,4.37 -13.13,-0.3 -15.95,-9.11 -12.03,-9.21 -17.5,-0.06 -1.4,2.34 -1.48,2.55 3.51,5.16 0.04,3.69 -0.46,13.95 0.19,16.81 0.78,0.93 8.5,5.15 10.07,6.02 13.35,7.4 7.54,7.7 20.94,0.09 0.98,-0.56 9.56,-5.09 10.16,-6.14 0.67,-1.36 0.25,-14.14 0.27,-16.81 1.23,-0.56 3.53,-1.75 4.25,-2.74 0.39,-1.03 -4.13,-8.63 -5.12,-9.28z"/>
   <path class="fil1" d="M24.67 49.27c4.39,-2.04 15.52,-9.4 18.58,-10.5l-0 -13.83c-2.27,0.99 -4.85,2.71 -7.12,4.01 -1.56,0.89 -6.12,3.98 -7.26,3.45 -0.92,-0.43 -3.43,-5.96 -4.25,-6.53l0.05 23.4z"/>
   <path class="fil1" d="M3.32 19.49c1.33,0.94 2.77,1.63 4.12,2.43 1.43,0.84 2.74,1.58 4.19,2.41 1.45,0.84 2.69,1.59 4.18,2.42 1.22,0.68 3.17,2.03 4.53,2.44 0.6,-0.77 2.57,-4.12 2.76,-5.04 -2.81,-1.79 -5.46,-3.15 -8.35,-4.83 -1.74,-1.01 -7.46,-4.51 -8.77,-4.89 -0.58,1.76 -2.22,3.55 -2.66,5.05z"/>
   <path class="fil1" d="M27.2 24.16c0.19,0.92 2.18,4.33 2.77,5.04l17 -9.71c-0.45,-1.45 -2.08,-3.3 -2.65,-5.04 -1.28,0.35 -15.06,8.42 -17.12,9.71z"/>
   <path class="fil0" d="M8.39 9.75c3.19,1.14 0.56,2.5 8.37,-2.09 1.1,-0.65 7.81,-4.66 8.51,-4.62 0.51,0.03 7.29,4.06 8.27,4.64 1.42,0.84 2.71,1.53 4.19,2.41 2.01,1.2 2.32,1.13 4.25,-0.5 -0.52,-0.62 -16,-9.55 -16.72,-9.59 -0.83,-0.05 -13.32,7.13 -15.88,8.78l-0.99 0.98z"/>
   <path class="fil0" d="M16.25 13.97c1.96,2.3 3.41,1.17 4.56,0.5 0.81,-0.48 3.79,-2.38 4.45,-2.33 0.56,0.04 3.61,1.98 4.42,2.43 0.67,0.37 1.53,1.08 2.32,0.89l1.59 -0.89c0.66,-0.54 0.13,0.11 0.63,-0.69 -1.95,-0.68 -7.69,-4.71 -8.96,-4.78 -0.91,-0.05 -8,4.17 -9.01,4.87z"/>
  </g>
 </g>
</svg>
