<?xml version="1.0" encoding="UTF-8"?>
<!DOCTYPE svg PUBLIC "-//W3C//DTD SVG 1.1//EN" "http://www.w3.org/Graphics/SVG/1.1/DTD/svg11.dtd">
<!-- Creator: CorelDRAW 2021 (64-Bit) -->
<svg xmlns="http://www.w3.org/2000/svg" xml:space="preserve" width="14.5442mm" height="13.5938mm" version="1.1" style="shape-rendering:geometricPrecision; text-rendering:geometricPrecision; image-rendering:optimizeQuality; fill-rule:evenodd; clip-rule:evenodd"
viewBox="0 0 68.96 64.45"
 xmlns:xlink="http://www.w3.org/1999/xlink"
 xmlns:xodm="http://www.corel.com/coreldraw/odm/2003">
 <defs>
  <style type="text/css">
   <![CDATA[
    .fil4 {fill:none;fill-rule:nonzero}
    .fil0 {fill:#FFE600}
    .fil6 {fill:#6D777F;fill-rule:nonzero}
    .fil2 {fill:black;fill-rule:nonzero}
    .fil1 {fill:#333333;fill-rule:nonzero}
    .fil5 {fill:#FFA600;fill-rule:nonzero}
    .fil3 {fill:#FFE600;fill-rule:nonzero}
   ]]>
  </style>
 </defs>
 <g id="Layer_x0020_1">
  <metadata id="CorelCorpID_0Corel-Layer"/>
  <g id="_1963033618704">
   <path class="fil0" d="M45.25 44.88l19.55 -33.6 -17.87 -10.32 0 0c-2.5,-1.49 -5.99,-1.3 -9.86,0.93 -7.62,4.4 -13.79,15.05 -13.79,23.78 0,4.18 1.41,7.16 3.72,8.66l0 0 0.02 0.01c0.18,0.12 0.37,0.23 0.56,0.32l17.66 10.2z"/>
   <path class="fil1" d="M24.52 18.45l20.59 11.89 1.06 -2.66 -20.64 -11.92c-0.38,0.89 -0.72,1.79 -1.01,2.69z"/>
   <path class="fil1" d="M68.96 20.2c0,8.74 -6.17,19.39 -13.79,23.78 -7.62,4.4 -13.79,0.88 -13.79,-7.86 0,-8.74 6.17,-19.39 13.79,-23.78 7.62,-4.4 13.79,-0.88 13.79,7.86z"/>
   <path class="fil2" d="M58.91 26c0,2.37 -1.68,5.26 -3.74,6.45 -2.07,1.19 -3.74,0.24 -3.74,-2.13 0,-2.37 1.68,-5.26 3.74,-6.45 2.07,-1.19 3.74,-0.24 3.74,2.13z"/>
   <path class="fil3" d="M57.95 26.55c0,1.76 -1.25,3.92 -2.78,4.8 -1.54,0.89 -2.79,0.18 -2.79,-1.59 0,-1.77 1.25,-3.92 2.79,-4.8 1.54,-0.89 2.78,-0.18 2.78,1.59z"/>
   <polygon class="fil1" points="11.08,53.38 11.05,43.84 -0,37.42 0.04,46.96 "/>
   <polygon class="fil1" points="25.33,45.15 11.08,53.38 11.05,43.84 25.3,35.62 "/>
   <polygon class="fil1" points="-0,37.42 11.05,43.84 25.3,35.62 14.25,29.19 "/>
   <polygon class="fil3" points="23,35.78 17.17,39.15 11.34,42.51 6.82,39.89 2.3,37.26 8.12,33.89 13.96,30.53 18.48,33.16 "/>
   <polygon class="fil3" points="23,35.78 17.17,39.15 12.65,36.52 18.48,33.16 "/>
   <polygon class="fil3" points="12.65,36.52 6.82,39.89 2.3,37.26 8.12,33.89 "/>
   <polygon class="fil3" points="17.32,36.19 12.06,39.22 7.97,36.85 13.24,33.81 "/>
   <path class="fil3" d="M0.92 44.44c0,0 2.75,1.68 5.49,3.19 0,0 -2.05,-1.48 -5.49,-3.19z"/>
   <path class="fil3" d="M14.98 48.39l8.34 -4.84c0,0 -3.35,2.42 -8.34,4.84z"/>
   <polygon class="fil3" points="8.93,49.78 11.05,51.01 14.37,49.09 11.05,50.76 "/>
   <polygon class="fil3" points="8.93,45.13 11.05,46.36 14.37,44.44 11.05,45.94 "/>
   <polygon class="fil3" points="25.33,38.09 22.16,40.1 25.33,38.36 "/>
   <line class="fil4" x1="21.76" y1="57.35" x2="21.76" y2= "57.35" />
   <path class="fil1" d="M43.54 57.63l-11.41 -6.63 0.06 0.15c0,0.12 -0.09,0.28 -0.2,0.34l-10.63 6.14 11.41 6.63 10.63 -6.14c0.11,-0.06 0.2,-0.22 0.2,-0.34l-0.06 -0.15z"/>
   <polygon class="fil3" points="32.78,64.45 21.36,57.82 21.36,57.62 32.78,64.25 "/>
   <path class="fil1" d="M32.25 50.79c-0.07,-0.04 -0.16,-0.03 -0.26,0.03l-10.26 5.93 -0.14 0.01 11.41 6.63 0.14 -0.01 10.26 -5.93c0.1,-0.06 0.19,-0.06 0.26,-0.03l-11.41 -6.63z"/>
   <path class="fil3" d="M43.2 56.91l0 0.2 -10.06 5.81c-0.11,0.06 -0.2,0.22 -0.2,0.34 0,0.12 0.09,0.17 0.2,0.11l10.26 -5.93c0.2,-0.12 0.37,-0.02 0.37,0.21 0,0.26 -0.16,0.54 -0.37,0.66l-10.63 6.14 0 -0.2 10.63 -6.14c0.11,-0.06 0.2,-0.22 0.2,-0.34 0,-0.15 -0.09,-0.2 -0.2,-0.14l-10.26 5.93c-0.2,0.12 -0.37,0.02 -0.37,-0.21 -0,-0.23 0.16,-0.52 0.37,-0.63l10.06 -5.81z"/>
   <path class="fil1" d="M31.79 50.28l-10.06 5.81c-0.2,0.12 -0.37,0.4 -0.37,0.63 0,0.12 0.04,0.2 0.11,0.23l11.41 6.63c-0.07,-0.04 -0.11,-0.12 -0.11,-0.24 -0,-0.23 0.16,-0.52 0.37,-0.63l10.06 -5.81 -11.41 -6.63z"/>
   <line class="fil4" x1="21.76" y1="55.36" x2="21.76" y2= "55.36" />
   <path class="fil1" d="M43.54 55.64l-11.41 -6.63 0.06 0.15c0,0.12 -0.09,0.28 -0.2,0.34l-10.63 6.14 11.41 6.63 10.63 -6.14c0.11,-0.06 0.2,-0.22 0.2,-0.34l-0.06 -0.15z"/>
   <polygon class="fil3" points="32.78,62.47 21.36,55.83 21.36,55.64 32.78,62.27 "/>
   <path class="fil1" d="M32.25 48.8c-0.07,-0.04 -0.16,-0.03 -0.26,0.03l-10.26 5.93 -0.14 0.01 11.41 6.63 0.14 -0.01 10.26 -5.93c0.1,-0.06 0.19,-0.06 0.26,-0.03l-11.41 -6.63z"/>
   <path class="fil3" d="M43.2 54.93l0 0.2 -10.06 5.81c-0.11,0.06 -0.2,0.21 -0.2,0.34 0,0.12 0.09,0.17 0.2,0.11l10.26 -5.93c0.2,-0.12 0.37,-0.02 0.37,0.21 0,0.26 -0.16,0.54 -0.37,0.66l-10.63 6.14 0 -0.2 10.63 -6.14c0.11,-0.06 0.2,-0.22 0.2,-0.34 0,-0.15 -0.09,-0.2 -0.2,-0.14l-10.26 5.93c-0.2,0.12 -0.37,0.02 -0.37,-0.21 -0,-0.23 0.16,-0.52 0.37,-0.63l10.06 -5.81z"/>
   <path class="fil1" d="M31.79 48.29l-10.06 5.81c-0.2,0.12 -0.37,0.4 -0.37,0.63 0,0.12 0.04,0.2 0.11,0.23l11.41 6.63c-0.07,-0.04 -0.11,-0.12 -0.11,-0.24 -0,-0.23 0.16,-0.52 0.37,-0.63l10.06 -5.81 -11.41 -6.63z"/>
   <line class="fil4" x1="21.76" y1="53.38" x2="21.76" y2= "53.38" />
   <path class="fil3" d="M43.54 53.66l-11.41 -6.63 0.06 0.15c0,0.13 -0.09,0.28 -0.2,0.34l-10.63 6.14 11.41 6.63 10.63 -6.14c0.11,-0.06 0.2,-0.22 0.2,-0.34l-0.06 -0.15z"/>
   <polygon class="fil3" points="32.78,60.48 21.36,53.85 21.36,53.65 32.78,60.29 "/>
   <path class="fil1" d="M32.25 46.82c-0.07,-0.04 -0.16,-0.03 -0.26,0.02l-10.26 5.93 -0.14 0.01 11.41 6.63 0.14 -0.01 10.26 -5.93c0.1,-0.06 0.19,-0.06 0.26,-0.03l-11.41 -6.63z"/>
   <path class="fil3" d="M43.2 52.94l0 0.2 -10.06 5.81c-0.11,0.06 -0.2,0.22 -0.2,0.34 0,0.12 0.09,0.17 0.2,0.11l10.26 -5.93c0.2,-0.12 0.37,-0.02 0.37,0.21 0,0.26 -0.16,0.54 -0.37,0.66l-10.63 6.14 0 -0.2 10.63 -6.14c0.11,-0.06 0.2,-0.22 0.2,-0.34 0,-0.15 -0.09,-0.2 -0.2,-0.14l-10.26 5.93c-0.2,0.12 -0.37,0.02 -0.37,-0.21 -0,-0.23 0.16,-0.52 0.37,-0.63l10.06 -5.81z"/>
   <path class="fil1" d="M31.79 46.31l-10.06 5.81c-0.2,0.12 -0.37,0.4 -0.37,0.63 0,0.12 0.04,0.2 0.11,0.24l11.41 6.63c-0.07,-0.04 -0.11,-0.12 -0.11,-0.23 -0,-0.23 0.16,-0.52 0.37,-0.63l10.06 -5.81 -11.41 -6.63z"/>
   <line class="fil4" x1="21.76" y1="51.39" x2="21.76" y2= "51.39" />
   <path class="fil1" d="M43.54 51.67l-11.41 -6.63 0.06 0.15c0,0.12 -0.09,0.28 -0.2,0.34l-10.63 6.14 11.41 6.63 10.63 -6.14c0.11,-0.06 0.2,-0.21 0.2,-0.34l-0.06 -0.15z"/>
   <polygon class="fil3" points="32.78,58.5 21.36,51.86 21.36,51.67 32.78,58.3 "/>
   <path class="fil1" d="M32.25 44.83c-0.07,-0.04 -0.16,-0.03 -0.26,0.03l-10.26 5.93 -0.14 0.01 11.41 6.63 0.14 -0.01 10.26 -5.93c0.1,-0.06 0.19,-0.06 0.26,-0.03l-11.41 -6.63z"/>
   <path class="fil3" d="M43.2 50.96l0 0.2 -10.06 5.81c-0.11,0.06 -0.2,0.22 -0.2,0.34 0,0.12 0.09,0.17 0.2,0.11l10.26 -5.93c0.2,-0.12 0.37,-0.02 0.37,0.21 0,0.26 -0.16,0.54 -0.37,0.66l-10.63 6.14 0 -0.2 10.63 -6.14c0.11,-0.06 0.2,-0.21 0.2,-0.34 0,-0.15 -0.09,-0.2 -0.2,-0.14l-10.26 5.93c-0.2,0.12 -0.37,0.02 -0.37,-0.21 -0,-0.23 0.16,-0.52 0.37,-0.63l10.06 -5.81z"/>
   <path class="fil1" d="M31.79 44.32l-10.06 5.81c-0.2,0.12 -0.37,0.4 -0.37,0.63 0,0.11 0.04,0.2 0.11,0.23l11.41 6.63c-0.07,-0.04 -0.11,-0.12 -0.11,-0.23 -0,-0.23 0.16,-0.52 0.37,-0.63l10.06 -5.81 -11.41 -6.63z"/>
   <line class="fil4" x1="21.76" y1="49.32" x2="21.76" y2= "49.32" />
   <path class="fil1" d="M43.54 49.6l-11.41 -6.63 0.06 0.15c0,0.13 -0.09,0.28 -0.2,0.34l-10.63 6.14 11.41 6.63 10.63 -6.14c0.11,-0.06 0.2,-0.21 0.2,-0.34l-0.06 -0.15z"/>
   <polygon class="fil3" points="32.78,56.42 21.36,49.79 21.36,49.59 32.78,56.23 "/>
   <path class="fil1" d="M32.25 42.76c-0.07,-0.04 -0.16,-0.03 -0.26,0.03l-10.05 5.8 -0.14 0.01 11.41 6.63 0.14 -0.01 10.05 -5.8c0.1,-0.06 0.19,-0.06 0.26,-0.03l-11.41 -6.63z"/>
   <path class="fil3" d="M43.2 48.88l0 0.2 -9.85 5.68c-0.11,0.06 -0.2,0.21 -0.2,0.34 0,0.12 0.09,0.17 0.2,0.11l10.05 -5.8c0.2,-0.12 0.37,-0.02 0.37,0.21 0,0.26 -0.16,0.54 -0.37,0.66l-10.63 6.14 0 -0.2 10.63 -6.14c0.11,-0.06 0.2,-0.21 0.2,-0.34 0,-0.15 -0.09,-0.2 -0.2,-0.14l-10.05 5.8c-0.2,0.12 -0.37,0.02 -0.37,-0.21 -0,-0.23 0.16,-0.52 0.37,-0.63l9.85 -5.68z"/>
   <path class="fil1" d="M31.79 42.25l-9.85 5.68c-0.2,0.12 -0.37,0.4 -0.37,0.63 0,0.11 0.04,0.2 0.11,0.23l11.41 6.63c-0.07,-0.04 -0.11,-0.12 -0.11,-0.23 -0,-0.23 0.16,-0.52 0.37,-0.63l9.85 -5.68 -11.41 -6.63z"/>
   <polygon class="fil5" points="35.93,45.34 30.67,48.38 26.58,46 31.84,42.96 "/>
   <polygon class="fil3" points="41.79,48.75 36.53,51.79 31.16,48.67 36.42,45.63 "/>
   <polygon class="fil3" points="35.38,52.35 34.41,52.91 24.6,47.21 25.58,46.65 "/>
   <polygon class="fil3" points="33.88,53.21 32.91,53.77 23.1,48.08 24.08,47.52 "/>
   <polygon class="fil6" points="39.16,61.16 39,61.16 39,51.44 27.03,44.51 27.11,44.37 39.16,51.35 "/>
   <polygon class="fil6" points="26.59,61.41 26.55,51.83 37.73,45.38 37.81,45.52 26.72,51.92 26.75,61.41 "/>
  </g>
 </g>
</svg>
