<?xml version="1.0" encoding="UTF-8"?>
<!DOCTYPE svg PUBLIC "-//W3C//DTD SVG 1.1//EN" "http://www.w3.org/Graphics/SVG/1.1/DTD/svg11.dtd">
<!-- Creator: CorelDRAW 2021 (64-Bit) -->
<svg xmlns="http://www.w3.org/2000/svg" xml:space="preserve" width="109px" height="195px" version="1.1" style="shape-rendering:geometricPrecision; text-rendering:geometricPrecision; image-rendering:optimizeQuality; fill-rule:evenodd; clip-rule:evenodd"
viewBox="0 0 0.4 0.72"
 xmlns:xlink="http://www.w3.org/1999/xlink"
 xmlns:xodm="http://www.corel.com/coreldraw/odm/2003">
 <defs>
  <style type="text/css">
   <![CDATA[
    .fil5 {fill:#FFD900}
    .fil10 {fill:#FFE600}
    .fil12 {fill:#2C2623;fill-rule:nonzero}
    .fil0 {fill:#333333;fill-rule:nonzero}
    .fil13 {fill:#38332F;fill-rule:nonzero}
    .fil11 {fill:#3A322E;fill-rule:nonzero}
    .fil14 {fill:#443E39;fill-rule:nonzero}
    .fil21 {fill:#5A642B;fill-rule:nonzero}
    .fil15 {fill:#6F8700;fill-rule:nonzero}
    .fil22 {fill:#70842E;fill-rule:nonzero}
    .fil16 {fill:#80A300;fill-rule:nonzero}
    .fil20 {fill:#829B39;fill-rule:nonzero}
    .fil17 {fill:#B62D2D;fill-rule:nonzero}
    .fil18 {fill:#C53939;fill-rule:nonzero}
    .fil19 {fill:#EEB124;fill-rule:nonzero}
    .fil1 {fill:#F2EFEB;fill-rule:nonzero}
    .fil4 {fill:#FFCE40;fill-rule:nonzero}
    .fil2 {fill:#FFD900;fill-rule:nonzero}
    .fil3 {fill:#FFE600;fill-rule:nonzero}
    .fil6 {fill:url(#id0)}
    .fil8 {fill:url(#id1)}
    .fil9 {fill:url(#id2)}
    .fil7 {fill:url(#id3)}
   ]]>
  </style>
  <linearGradient id="id0" gradientUnits="userSpaceOnUse" x1="0.31" y1="0.29" x2="0.35" y2="0.29">
   <stop offset="0" style="stop-opacity:1; stop-color:#A3A3A3"/>
   <stop offset="1" style="stop-opacity:1; stop-color:#CFCFCF"/>
  </linearGradient>
  <linearGradient id="id1" gradientUnits="userSpaceOnUse" x1="0.31" y1="0.35" x2="0.35" y2="0.35">
   <stop offset="0" style="stop-opacity:1; stop-color:#E4E4E4"/>
   <stop offset="0.639216" style="stop-opacity:1; stop-color:#D1D1D1"/>
   <stop offset="0.65098" style="stop-opacity:1; stop-color:gainsboro"/>
   <stop offset="0.815686" style="stop-opacity:1; stop-color:gainsboro"/>
   <stop offset="1" style="stop-opacity:1; stop-color:gainsboro"/>
  </linearGradient>
  <linearGradient id="id2" gradientUnits="userSpaceOnUse" xlink:href="#id0" x1="0.31" y1="0.37" x2="0.35" y2="0.37">
  </linearGradient>
  <linearGradient id="id3" gradientUnits="userSpaceOnUse" xlink:href="#id0" x1="0.31" y1="0.31" x2="0.35" y2="0.31">
  </linearGradient>
 </defs>
 <g id="Layer_x0020_1">
  <metadata id="CorelCorpID_0Corel-Layer"/>
  <g id="_2880855025920">
   <polygon class="fil0" points="0.25,0.72 0,0.57 0,0.57 0.25,0.71 "/>
   <polygon class="fil0" points="0.38,0.64 0.25,0.72 0.25,0.71 0.38,0.63 "/>
   <polygon class="fil0" points="0.25,0.71 0,0.57 0.14,0.49 0.38,0.63 "/>
   <polygon class="fil0" points="0.16,0.47 0.23,0.42 0.31,0.59 0.17,0.67 "/>
   <polygon class="fil0" points="0.16,0.41 0.23,0.37 0.23,0.42 0.16,0.47 "/>
   <polygon class="fil1" points="0.08,0.37 0.16,0.33 0.23,0.37 0.16,0.41 "/>
   <polygon class="fil0" points="0.16,0.41 0.16,0.47 0.17,0.67 0,0.57 0.08,0.44 0.08,0.37 "/>
   <polygon class="fil2" points="0.32,0.53 0.06,0.38 0.06,0.31 0.32,0.46 "/>
   <polygon class="fil3" points="0.4,0.49 0.32,0.53 0.32,0.46 0.4,0.42 "/>
   <polygon class="fil3" points="0.32,0.46 0.17,0.37 0.24,0.33 0.4,0.42 "/>
   <polygon class="fil2" points="0.2,0.39 0.06,0.32 0.06,0.14 0.2,0.22 "/>
   <polygon class="fil3" points="0.27,0.35 0.2,0.39 0.2,0.22 0.27,0.17 "/>
   <polygon class="fil4" points="0.2,0.22 0.06,0.14 0.13,0.09 0.27,0.17 "/>
   <path class="fil2" d="M0.35 0.39c0.01,0 0.01,-0.02 0,-0.02 -0.01,-0.01 -0.03,-0.01 -0.04,0 -0.01,0 -0.01,0.02 0,0.02 0.01,0.01 0.03,0.01 0.04,0z"/>
   <path class="fil5" d="M0.3 0.38l0 0.04c0,0 0.01,0.01 0.01,0.01 0.01,0.01 0.03,0.01 0.04,0 0.01,0 0.01,-0.01 0.01,-0.01l0 -0.04c0,0 0,0.01 -0.01,0.01 -0.01,0.01 -0.03,0.01 -0.04,0 0,0 -0.01,-0.01 -0.01,-0.01z"/>
   <path class="fil6" d="M0.35 0.3c0,0 0,-0.01 0,-0.01 -0.01,-0.01 -0.02,-0.01 -0.03,0 -0.01,0 -0.01,0.01 0,0.01 0.01,0.01 0.02,0.01 0.03,0z"/>
   <path class="fil7" d="M0.31 0.29l0 0.03c0,0 0,0.01 0.01,0.01 0.01,0 0.02,0 0.03,0 0,0 0,-0.01 0,-0.01l0 -0.03c0,0.01 0,0.01 0,0.01 -0.01,0.01 -0.02,0.01 -0.03,0 -0.01,0 -0.01,0 -0.01,-0.01z"/>
   <path class="fil8" d="M0.35 0.36c0,-0.01 0,-0.01 0,-0.02 -0.01,0 -0.02,0 -0.03,0 -0.01,0.01 -0.01,0.01 0,0.02 0.01,0 0.02,0 0.03,0z"/>
   <path class="fil9" d="M0.31 0.35l0 0.03c0,0 0,0 0.01,0.01 0.01,0 0.02,0 0.03,0 0,-0.01 0,-0.01 0,-0.01l0 -0.03c0,0 0,0.01 0,0.01 -0.01,0 -0.02,0 -0.03,0 -0.01,0 -0.01,-0.01 -0.01,-0.01z"/>
   <path class="fil4" d="M0.35 0.27c0.01,-0.01 0.01,-0.02 0,-0.02 -0.01,-0.01 -0.03,-0.01 -0.04,0 -0.01,0 -0.01,0.01 0,0.02 0.01,0.01 0.03,0.01 0.04,0z"/>
   <path class="fil5" d="M0.3 0.26l0 0.04c0,0 0.01,0.01 0.01,0.01 0.01,0 0.03,0 0.04,0 0.01,0 0.01,-0.01 0.01,-0.01l0 -0.04c0,0 0,0.01 -0.01,0.01 -0.01,0.01 -0.03,0.01 -0.04,0 0,0 -0.01,-0.01 -0.01,-0.01z"/>
   <path class="fil10" d="M0.32 0.29l0 -0.11c0,0 0,0 0,-0.01 0,0 0,0 0,0 0,0 0,0 0,0 0,0 0,0 0,0 0,0 0,0 0,0 0,0 0,0 0,0 0,0 0,0 0,0 0,0 0,0 0,0 0,0 0,0 0,0 0,0 0,0 0,0 0,0 0,0 0,0 0,0 0,0 0,0 0,0 0,0 0,0 0,0 0,0 0,0 0,0 0,0 0,0 0,0 0,0 0,0 0,0 0,0 0,0 0,0 0,0 0,0 0,0 0,0 0,0 0,0 0,0 0,0 0,0 0,0 0,0 0,0 0,0 0,0 0,0 0,0 0,0 0,0 0,0 0,0 0,0 0,0 0,0 0,0 0,0 0,0 0,0 0,0 0,0 0,0 0,0 0,0 0,0 0,0 0,0 0,0 0,0 0,0 0,0 0,0 0,0 0,0 0,0 0,0 0,0 0,0 0,0 0,0 0,0 0,0 0,0 0,0 0,0 0,0 0,0 0,0 0,0 0,0 0,0 0,0 0,0 0,0 0,0 0,0 0,0 0,0 0,0 0,0 0,0 0,0 0,0 0,0 0,0 0,0 0,0 0,0 0,0 0,0 0,0 0,0 0,0 0,0 0,0 0,0 0,0 0,0 0,0 0,0 0,0 0,0 0,0 0,0 0,0 0,0 0,0 0,0 0,0 0,0 0,0 0,0 0,0 0,0 0,0 0,0 0,0 0,0 0,0l0 0c0,0 0,0 0,0 0,0 0,0 0,0 0,0 0,0 0,0 0,0 0,0 0,0 0,0 0,0 0,0l0 0c0,0 0,0 0,0l0 0c0,0 0,0 0,0 0,-0.01 0,-0.01 0,-0.01 -0.01,0 -0.01,0 -0.01,0 0,0 0,0 0,0 0,0 0,0 0,0 0,0 0,0 0,0 0,0 0,0 0,0 0,0 0,0 0,0 0,0 0,0 0,0 0,0 0,0 0,0 0,0 0,0 0,0 0,0 0,0 0,0l-0.18 -0.11c0,0 0,0 0,0 0,0 0,0 0,0 0,0 0,0 0,0 0,0 0,0 0,0 0,0 0,0 0,0 -0.01,0 -0.01,-0.01 -0.02,-0.01 0,0 -0.01,0 -0.01,0 -0.01,0 -0.01,0 -0.02,0.01l0.07 -0.05c0.01,0 0.02,0 0.02,0 0.01,0 0.02,0 0.03,0.01l0.18 0.1c0.01,0 0.01,0.01 0.01,0.01 0,0 0,0 0,0 0,0.01 0.01,0.01 0.01,0.01l0 0.04 -0.06 0.03 0 0.08 -0.02 0.01z"/>
   <path class="fil2" d="M0.31 0.16l-0.18 -0.11c-0.04,-0.02 -0.07,0 -0.07,0.04l0 0.05 0.26 0.15 0 -0.11c0,-0.01 0,-0.02 -0.01,-0.02z"/>
   <path class="fil2" d="M0.32 0.16l0.07 -0.04c0,0 0,0 0,0l-0.07 0.05c0,-0.01 0,-0.01 0,-0.01z"/>
   <polygon class="fil2" points="0.14,0.36 0.05,0.3 0.05,0.2 0.14,0.26 "/>
   <polygon class="fil3" points="0.17,0.34 0.14,0.36 0.14,0.26 0.17,0.24 "/>
   <polygon class="fil3" points="0.14,0.26 0.05,0.2 0.08,0.18 0.17,0.24 "/>
   <polygon class="fil0" points="0.15,0.12 0.09,0.09 0.09,0.09 0.15,0.12 0.15,0.11 "/>
   <polygon class="fil3" points="0.15,0.12 0.09,0.09 0.09,0.08 0.15,0.11 "/>
   <polygon class="fil0" points="0.15,0.14 0.09,0.11 0.09,0.1 0.15,0.14 0.15,0.13 "/>
   <polygon class="fil3" points="0.15,0.14 0.09,0.1 0.09,0.1 0.15,0.13 "/>
   <polygon class="fil0" points="0.15,0.16 0.09,0.13 0.09,0.12 0.15,0.15 0.15,0.15 "/>
   <polygon class="fil3" points="0.15,0.15 0.09,0.12 0.09,0.11 0.15,0.15 "/>
   <polygon class="fil0" points="0.15,0.18 0.09,0.14 0.09,0.13 0.15,0.16 "/>
   <polygon class="fil3" points="0.15,0.17 0.09,0.14 0.09,0.13 0.15,0.16 "/>
   <path class="fil11" d="M0.29 0.25c0,0 -0.01,0 -0.01,0l0 -0.01c0,0 0.01,0 0.01,0l0.02 0.01c0,0 0,0 0,0l0 0.01c0,0 0,0 0,0l-0.02 -0.01z"/>
   <path class="fil2" d="M0.31 0.26l-0.02 -0.01c0,0 -0.01,0 -0.01,0l0 -0.01c0,0 0.01,0 0.01,0l0.02 0.01c0,0 0,0 0,0l0 0.01c0,0 0,0 0,0z"/>
   <polygon class="fil11" points="0.3,0.25 0.29,0.24 0.29,0.24 0.3,0.25 "/>
   <polygon class="fil11" points="0.3,0.26 0.29,0.25 0.29,0.25 0.3,0.25 "/>
   <polygon class="fil11" points="0.3,0.26 0.29,0.25 0.29,0.25 0.3,0.26 "/>
   <path class="fil11" d="M0.06 0.24c0,0 0,0 0,0 0,0 0,0 0,0l0.01 -0.01 0 0c0,0 0,0 0,0l0.01 0.02c0,0 0,0 0,0l0 0 -0.02 -0.01z"/>
   <polygon class="fil2" points="0.06,0.24 0.07,0.23 0.07,0.23 0.08,0.25 0.08,0.25 0.06,0.24 "/>
   <path class="fil11" d="M0.07 0.24c0,0 0,0 0,0 0,0 0,0.01 0,0.01 0,0 0,0 0,0 0,-0.01 0,-0.01 0,-0.01zm0 0l0 0 0 0c0,-0.01 0,-0.01 0,0l0 0 0 0 0 0z"/>
   <polygon class="fil11" points="0.06,0.29 0.06,0.25 0.08,0.27 0.08,0.3 "/>
   <polygon class="fil2" points="0.08,0.3 0.06,0.29 0.06,0.25 0.08,0.27 "/>
   <path class="fil11" d="M0.08 0.29l-0.02 0 0 0 0.02 0 0 0zm0 0l-0.02 -0.01 0 0 0.02 0.01 0 0zm0 0l-0.02 -0.01 0 0 0.02 0.01 0 0zm0 0l-0.02 -0.01 0 0 0.02 0.01 0 0zm0 -0.01l-0.02 0 0 0 0.02 0 0 0zm0 0l-0.02 -0.01 0 0 0.02 0.01 0 0zm0 0l-0.02 -0.01 0 0 0.02 0.01 0 0zm0 0l-0.02 -0.01 0 0 0.02 0.01 0 0zm0 -0.01l-0.02 0 0 0 0.02 0 0 0zm-0.01 0l-0.01 -0.01 0 0 0.01 0.01 0 0z"/>
   <polygon class="fil2" points="0.34,0.29 0.33,0.28 0.33,0.19 0.34,0.2 "/>
   <polygon class="fil0" points="0.4,0.25 0.34,0.29 0.34,0.2 0.4,0.16 "/>
   <polygon class="fil2" points="0.34,0.2 0.33,0.19 0.39,0.16 0.4,0.16 "/>
   <path class="fil12" d="M0.39 0.22c-0.01,0 -0.01,0.01 -0.01,0.01 0,0 0,0 0.01,0 0,0 0,0 0,0 0,-0.01 0,-0.01 0,-0.01z"/>
   <path class="fil13" d="M0.39 0.22c0,0 0,0 0,0l-0.01 0c0,0.01 0,0.01 0,0.01 0,0 0,0 0,0 0,0 0,0 0,0l0.01 0 0 -0.01 0 0z"/>
   <path class="fil14" d="M0.39 0.22c0,0.01 -0.01,0.01 -0.01,0.01 0,0 0.01,0 0.01,0 0,0 0,0 0,0 0,-0.01 0,-0.01 0,-0.01z"/>
   <path class="fil12" d="M0.39 0.24c-0.01,0 -0.01,0.01 -0.01,0.01 0,0 0,0 0.01,0 0,0 0,0 0,-0.01 0,0 0,0 0,0z"/>
   <path class="fil13" d="M0.39 0.24c0,0 0,0 0,0l-0.01 0c0,0 0,0 0,0.01 0,0 0,0 0,0 0,0 0,0 0,0l0.01 0 0 -0.01 0 0z"/>
   <path class="fil14" d="M0.39 0.24c0,0 -0.01,0.01 -0.01,0.01 0,0 0.01,0 0.01,0 0,0 0,0 0,0 0,-0.01 0,-0.01 0,-0.01z"/>
   <path class="fil12" d="M0.35 0.26c0,0 0,0 0,0.01 0,0 0,0 0,0 0.01,0 0.01,-0.01 0.01,-0.01 0,0 0,0 -0.01,0z"/>
   <path class="fil15" d="M0.36 0.26c0,0 0,0 -0.01,0l0 0c0,0 0,0 0,0 0,0 0,0.01 0,0.01 0,0 0,0 0,0l0 0c0,0 0,0 0,0 0,0 0,0 0,0 0,-0.01 0,-0.01 0.01,-0.01l0 0c0,0 0,0 0,0l0 0z"/>
   <path class="fil16" d="M0.36 0.26c-0.01,0 -0.01,0.01 -0.01,0.01 0,0 0,0 0.01,0 0,0 0,0 0,-0.01 0,0 0,0 0,0z"/>
   <path class="fil12" d="M0.37 0.25c0,0 -0.01,0.01 -0.01,0.01 0,0 0.01,0 0.01,0 0,0 0,0 0,-0.01 0,0 0,0 0,0z"/>
   <path class="fil17" d="M0.37 0.25c0,0 0,0 0,0l0 0c0,0 0,0.01 0,0.01 0,0 0,0 0,0 0,0 0,0 0,0l0 0c0,0 0,0 0,0 0,0 0,0 0,0 0,0 0,0 0,0l0 -0.01c0,0 0,0 0,0l0 0z"/>
   <path class="fil18" d="M0.37 0.25c0,0.01 0,0.01 0,0.01 0,0 0,0 0,0 0,0 0,0 0,0 0,-0.01 0,-0.01 0,-0.01z"/>
   <path class="fil12" d="M0.35 0.24c0,0 0,0 0,0.01 0,0 0,0 0,0 0.01,0 0.01,0 0.01,-0.01 0,0 0,0 -0.01,0z"/>
   <path class="fil19" d="M0.36 0.24c0,0 0,0 -0.01,0l0 0c0,0 0,0 0,0 0,0.01 0,0.01 0,0.01 0,0 0,0 0,0l0 0c0,0 0,0 0,0 0,0 0,0 0,0 0,0 0,-0.01 0.01,-0.01l0 0c0,0 0,0 0,0l0 0z"/>
   <path class="fil4" d="M0.36 0.24c-0.01,0 -0.01,0.01 -0.01,0.01 0,0 0,0 0.01,0 0,0 0,0 0,-0.01 0,0 0,0 0,0z"/>
   <path class="fil12" d="M0.37 0.23c0,0 -0.01,0.01 -0.01,0.01 0,0 0.01,0 0.01,0 0,0 0,0 0,0 0,-0.01 0,-0.01 0,-0.01z"/>
   <path class="fil19" d="M0.37 0.23c0,0 0,0 0,0l0 0.01c0,0 0,0 0,0 0,0 0,0 0,0 0,0 0,0 0,0l0 0c0,0 0,0 0,0 0,0 0,0 0,0 0,0 0,0 0,0l0 -0.01c0,0 0,0 0,0l0 0z"/>
   <path class="fil4" d="M0.37 0.23c0,0.01 0,0.01 0,0.01 0,0 0,0 0,0 0,0 0,0 0,0 0,-0.01 0,-0.01 0,-0.01z"/>
   <polygon class="fil20" points="0.39,0.21 0.39,0.18 0.35,0.2 0.35,0.24 "/>
   <path class="fil21" d="M0.35 0.24l0 0 0 0 0 0zm0.04 -0.06l0 0 0 0 0 0z"/>
   <polygon class="fil22" points="0.35,0.24 0.35,0.24 0.39,0.21 0.39,0.18 0.39,0.18 0.39,0.21 "/>
  </g>
 </g>
</svg>
