<?xml version="1.0" encoding="UTF-8"?>
<!DOCTYPE svg PUBLIC "-//W3C//DTD SVG 1.1//EN" "http://www.w3.org/Graphics/SVG/1.1/DTD/svg11.dtd">
<!-- Creator: CorelDRAW 2021 (64-Bit) -->
<svg xmlns="http://www.w3.org/2000/svg" xml:space="preserve" width="292px" height="182px" version="1.1" style="shape-rendering:geometricPrecision; text-rendering:geometricPrecision; image-rendering:optimizeQuality; fill-rule:evenodd; clip-rule:evenodd"
viewBox="0 0 10.76 6.7"
 xmlns:xlink="http://www.w3.org/1999/xlink"
 xmlns:xodm="http://www.corel.com/coreldraw/odm/2003">
 <defs>
  <style type="text/css">
   <![CDATA[
    .fil2 {fill:#1C1C1C}
    .fil0 {fill:#333333}
    .fil1 {fill:#FFE600}
   ]]>
  </style>
 </defs>
 <g id="Layer_x0020_1">
  <metadata id="CorelCorpID_0Corel-Layer"/>
  <path class="fil0" d="M7.54 6.19c0.21,-0.01 0.53,-0.05 0.57,0.05l-0.47 0.01c-0.11,-0.01 -0.08,-0.04 -0.1,-0.06zm-2.07 0l0.41 -0.01c0.13,0 0.11,-0.02 0.16,0.06 -0.08,0.03 -0.21,0.01 -0.3,0.01 -0.24,0 -0.23,0.02 -0.27,-0.06zm1.97 -0.16l0.58 -0.01 0.04 0.12 -0.58 0 -0.04 -0.11zm-2.07 0c0.49,-0.01 0.58,-0.06 0.62,0.11 -0.49,0.01 -0.58,0.06 -0.62,-0.11zm3.79 -0.24c-0.01,0.27 0.04,0.21 0.09,0.28 -0.16,0.08 -0.21,-0.16 -0.09,-0.28zm-1.75 0.1c0.03,-0.02 0,-0.01 0.06,-0.03l0.44 0c0.13,0.01 0.08,-0.02 0.1,0.08 -0.03,0.03 0.01,0.02 -0.05,0.03 -0.02,0.01 -0.07,0.01 -0.1,0.01l-0.34 0c-0.14,-0.01 -0.08,0.02 -0.11,-0.09zm-2.07 0c0.07,-0.05 0.19,-0.03 0.32,-0.03 0.35,0 0.26,-0.03 0.28,0.08 -0.07,0.06 -0.4,0.05 -0.5,0.04 -0.12,-0.01 -0.08,0.02 -0.1,-0.09zm3.36 -0.12l0.37 0.04 -0.05 0.19 -0.29 0 -0.03 -0.23zm-1.29 -0.07l0.6 -0.01 -0.01 0.12 -0.59 0 0 -0.11zm-2.07 0.01c0.12,-0.04 0.45,-0.02 0.6,-0.02l-0.01 0.11c-0.1,0.04 -0.46,0.02 -0.59,0.01l0 -0.1zm3.15 0.4c-0.29,0.15 -0.35,-0.41 -0.14,-0.54 -0.03,0.13 -0.08,0.32 0.05,0.45 0.05,0.05 0.07,0.03 0.09,0.09zm-0.48 -0.46l-0.58 0 0.04 -0.11 0.58 -0.01 -0.04 0.12zm-1.62 0.48c-0.3,0.26 -0.42,-0.49 -0.16,-0.6 -0.04,0.13 -0.07,0.22 -0.03,0.37 0.04,0.19 0.07,0.15 0.19,0.23zm-0.44 -0.49l-0.59 0.01c0.03,-0.16 0.09,-0.12 0.26,-0.12 0.12,0 0.24,0 0.36,0.01l-0.03 0.1zm1.61 -0.19c0.11,-0.01 0.46,-0.05 0.53,0.01 -0.04,0.04 -0.44,0.06 -0.53,-0.01zm-2.08 0c0.12,-0.01 0.46,-0.05 0.54,0.01 -0.06,0.04 -0.37,0.05 -0.45,0.03 -0.11,-0.02 -0.05,-0.01 -0.09,-0.04zm3.08 -0.11l-0.03 -0.13c0.13,0.02 0.2,0.04 0.31,0.07 0.15,0.04 0.2,-0.01 0.22,0.15 -0.03,-0.02 -0.01,-0.01 -0.04,-0.04 -0.04,-0.03 0.05,-0.02 -0.15,-0.06 -0.09,-0.02 -0.16,-0.04 -0.25,-0.05l-0.06 0.06zm-2.02 -0.15c0.02,-0.05 -0.04,-0.05 0.17,-0.05l0.62 0c0.12,0.01 0.04,-0.02 0.07,0.05 -0.09,0.04 -0.29,0.02 -0.42,0.02 -0.13,0 -0.34,0.03 -0.44,-0.02zm-0.77 -0.01c0.1,0 0.19,0.01 0.29,0.02 0.13,0 0.14,-0.03 0.19,0.07 -0.11,0 -0.39,-0.02 -0.48,-0.09zm0.04 -0.17c0.01,-0.19 0.03,-0.15 0.21,-0.17 0.11,-0.01 0.21,-0.03 0.32,-0.04l0.02 0.17c-0.14,0.05 -0.38,0.03 -0.55,0.04zm2.64 0.17c-0.01,0.12 0.02,0.14 -0.08,0.17 -0.02,-0.04 -0.03,0.01 -0.02,-0.07 0.01,-0.09 0.03,-0.05 0.04,-0.06l-0.01 -0.13 -0.57 -0.12c0.08,-0.19 0.21,-0.04 0.64,0.02l-0.36 -0.16c0.02,-0.02 0.06,-0.08 0.12,-0.09 0.05,-0.01 0.1,0.01 0.14,0.03 0.6,0.26 0.62,0.15 0.67,0.5l-0.56 -0.16 -0.01 0.07zm-1.9 -0.63l0.88 0.03 0.06 0.31 -0.9 0 -0.04 -0.34zm0.19 -1.28l0.67 0 0 1.13c-0.13,0.03 -0.71,0.02 -0.87,0.01l0.2 -1.14zm0.77 0l0.25 0.12 0.04 0.77c-0.07,0.1 -0.17,0.19 -0.26,0.24l-0.03 -1.13zm-1.28 -0.47c-0.13,-0.07 -0.14,-0.31 0,-0.37 0.07,0.07 0.04,0.08 0.01,0.19l0.06 0.03c-0.02,0.1 -0.02,0.09 -0.07,0.15zm-1.69 -1.14c-0.18,-0.06 -0.16,-0.49 0.01,-0.49 0.1,0.12 0.01,0.17 0,0.3l0.09 -0.06c0,0.13 -0.02,0.2 -0.1,0.25zm-1.38 -0.27c0.05,-0.08 0.11,-0.18 0.16,-0.25 -0.07,0.17 -0.19,0.36 -0.29,0.53l-0.88 1.58 -0.17 0 1.18 -1.86zm1.99 -0.16c-0.3,-0.08 -0.29,-0.13 -0.32,-0.31l0.32 0.31zm-1.86 0.57l-0.06 0.05c0.02,-0.05 0,-0.01 0.02,-0.05l0.03 -0.03c0.03,-0.11 0.31,-0.52 0.39,-0.66 0.13,-0.23 0.26,-0.43 0.39,-0.65l0.28 0 -1.05 1.34zm-2.41 2.06c0.13,-0.01 0.46,0.01 0.56,0.05l-0.38 0.02 -1.02 0.02c-0.1,0.36 0.03,1.08 0.1,1.47 0.02,0.12 0.01,0.12 0.13,0.13l2.4 -0.01c-0.03,-0.43 -0.16,-0.83 -0.16,-1.31 0.02,-0.64 0.42,-0.84 0.51,-0.98l-0.57 0c0.74,-0.15 0.57,-0.16 1.25,-0.64 0.46,-0.32 0.67,-0.44 0.98,-0.88 0.12,0.04 0.33,0.2 0.46,0.27 0.15,0.09 0.28,0.18 0.43,0.28 0.11,0.07 0.13,0.05 0.17,0.2l0.2 0.88c-0.08,-0.12 -0.12,-0.34 -0.17,-0.49 -0.03,-0.1 -0.06,-0.18 -0.08,-0.27 -0.04,-0.13 -0.02,-0.12 -0.13,-0.19 -0.13,-0.08 -0.73,-0.46 -0.82,-0.49l-0.22 0.22 0.87 0.76 0.21 0.9c0,0.38 -0.05,1.16 -0.07,1.56 -0.36,0.16 -0.4,0.47 -0.23,0.88 -0.11,0.04 -0.25,0.07 -0.38,0.11 -0.12,0.03 -0.23,0.07 -0.35,0.1 -0.19,0.06 -0.36,0.02 -0.67,0.19l-0.07 0.04c0.27,0.03 3.13,-0.01 3.49,-0.01 0.82,0 1.83,0.02 2.63,-0.01 0.14,0 0.28,0 0.42,0 0.08,0 0.15,0 0.22,0 0.18,0 0.15,-0.01 0.17,-0.03l-1.09 -0.25c-0.11,-0.05 -0.11,-0.1 -0.29,-0.14 0.08,-0.31 0.1,-0.5 -0.13,-0.68 -0.09,-0.07 -0.07,-0.15 -0.12,-0.32 -0.09,-0.36 -0.06,-0.19 -0.14,-0.32l0.03 -0.05c0,-0.06 0,-0.04 -0.03,-0.09l-0.09 0 -0.04 0.11 -0.12 -0.05 0.01 -0.31c0.07,-0.07 0.08,-0.04 0.07,-0.16l-0.22 -0.04c0,0.14 0.02,0.17 0.02,0.32l-0.05 -0.13 -0.14 -0.01 -0.01 0.16c-0.24,-0.06 -0.2,-0.13 -0.32,-0.55 -0.04,-0.16 -0.16,-0.75 -0.25,-0.82 -0.03,-0.02 -0.11,-0.07 -0.14,-0.09 -0.08,-0.06 -0.17,-0.14 -0.29,-0.14 -0.14,-0.01 -0.73,-0.02 -0.83,0.02 -0.08,0.11 -0.13,0.65 -0.16,0.82 -0.09,0.64 -0.05,0.34 -0.27,0.68 0.03,-0.1 0.1,-0.18 0.12,-0.28l0.17 -1.86c-0.01,-0.11 -0.2,-0.43 -0.26,-0.55 -0.16,-0.31 -0.06,-0.26 -0.4,-0.4 -0.31,-0.14 -0.3,-0.1 -0.5,-0.31 -0.21,-0.21 -0.52,-0.45 -0.57,-0.65 -0.02,-0.11 -0.05,-0.21 -0.07,-0.31 -0.25,-0.01 -0.5,-0.06 -0.74,-0.07 -0.26,0 -0.53,0.01 -0.79,0 -0.06,0.1 -0.16,0.26 -0.22,0.36 -0.05,0.12 -0.04,0.36 -0.05,0.51 -0.01,0.16 -0.31,0.6 -0.39,0.76l-0.83 1.46c-0.3,0.02 -0.8,-0.04 -1.06,0.01 -0.16,0.02 -0.45,0.37 -0.49,0.58l0.8 0.02z"/>
  <path class="fil1" d="M5.63 1.22c0.12,0.03 0.34,0.12 0.48,0.18 0.11,0.05 0.09,0.08 0.15,0.19 0.47,0.97 0.38,0.5 0.37,1.26 0.25,0 0.5,0 0.74,0 0.25,0 0.34,0.12 0.51,0.22 0.21,0.15 0.19,0.16 0.27,0.45 0.06,0.21 0.11,0.4 0.15,0.6l0.74 0.07 -0.01 0.39c0.06,0.04 0.13,0.05 0.22,0.07 0.07,1.24 0.37,0.45 0.38,1.47 0.11,0.05 0.09,0.09 0.25,0.08l0.66 -3.91c0.03,-0.19 0.03,-0.15 -0.06,-0.33 -0.1,-0.19 -0.73,-1.44 -0.78,-1.47l-3.68 -0.49 -0.39 1.22z"/>
  <path class="fil1" d="M4.95 6.13c0.03,-0.04 0.03,-0.04 0.05,-0.1 -0.01,-0.21 -0.03,-0.3 0.06,-0.5 0.3,-0.62 0.27,0.39 0.33,-1.61 0.01,-0.25 -0.05,-0.36 -0.1,-0.58 -0.08,-0.3 -0.05,-0.34 -0.21,-0.45 -0.04,0.05 -0.03,0.03 -0.05,0.1l-0.83 2.53c-0.08,0.23 -0.26,0.68 -0.29,0.88 0.09,-0.02 0.15,-0.05 0.25,-0.08 0.09,-0.03 0.2,-0.03 0.3,-0.05 0.15,-0.03 0.36,-0.14 0.49,-0.14z"/>
  <path class="fil0" d="M3.37 4.71c0.04,-0.08 0.01,-0.03 0.07,-0.11l0.08 -0.08c-0.03,0.09 -0.06,0.15 -0.14,0.19 -0.1,0.22 -0.5,0.71 -0.59,0.89l0.14 0.27c0.07,-0.06 0.09,-0.1 0.15,-0.17 0.03,-0.09 0.05,-0.08 0.11,-0.14 -0.01,0.08 -0.03,0.12 -0.1,0.16 -0.1,0.25 -0.19,0.25 -0.19,0.64 0.19,-0.09 0.24,-0.21 0.34,-0.4 0.09,-0.19 0.14,-0.29 0.2,-0.51 0.13,-0.52 0.22,-0.44 0.53,-0.9 -0.03,-0.11 -0.09,-0.27 -0.14,-0.38l-0.59 -0.93c-0.24,0.09 -0.54,0.5 -0.59,0.88 -0.04,0.36 0.02,1.03 0.12,1.35l0.6 -0.76z"/>
  <path class="fil0" d="M2.23 6.34l0.28 0.01 0.04 0.34c0.17,0.01 0.23,0.08 0.28,-0.46 0.03,-0.36 0.06,-0.29 -0.09,-0.58l-2.58 0.01 0 0.25 2.09 0.02 -2.04 0.08c-0.04,0.15 0.02,0.53 0.07,0.68l0.18 0c0.04,-0.11 0.03,-0.29 0.08,-0.39l0.26 0.02 0.05 0.37c0.23,0.03 0.18,0.02 0.24,-0.37l0.27 0c0.1,0.36 -0.07,0.38 0.25,0.37l0.05 -0.36 0.28 0 0.05 0.36 0.18 0 0.06 -0.35z"/>
  <polygon class="fil2" points="8.42,4.45 8.56,4.46 8.53,4.33 8.35,4.33 8.35,4.43 "/>
 </g>
</svg>
