<?xml version="1.0" encoding="UTF-8"?>
<!DOCTYPE svg PUBLIC "-//W3C//DTD SVG 1.1//EN" "http://www.w3.org/Graphics/SVG/1.1/DTD/svg11.dtd">
<!-- Creator: CorelDRAW 2021 (64-Bit) -->
<svg xmlns="http://www.w3.org/2000/svg" xml:space="preserve" width="27.595mm" height="22.7137mm" version="1.1" style="shape-rendering:geometricPrecision; text-rendering:geometricPrecision; image-rendering:optimizeQuality; fill-rule:evenodd; clip-rule:evenodd"
viewBox="0 0 73.06 60.14"
 xmlns:xlink="http://www.w3.org/1999/xlink"
 xmlns:xodm="http://www.corel.com/coreldraw/odm/2003">
 <defs>
  <style type="text/css">
   <![CDATA[
    .fil0 {fill:#FFE600}
    .fil1 {fill:#333333;fill-rule:nonzero}
   ]]>
  </style>
 </defs>
 <g id="Layer_x0020_1">
  <metadata id="CorelCorpID_0Corel-Layer"/>
  <path class="fil0" d="M5.65 48.5l3.24 -1.61 7.73 -3.84c1.47,-0.73 3.4,0.15 4.3,1.95l0 0c0.9,1.81 0.43,3.87 -1.04,4.6l-7.49 3.73c-1.47,0.73 -1.94,2.81 -1.04,4.6l0 0c0.9,1.81 2.83,2.68 4.3,1.95l55.93 -27.82c1.47,-0.73 1.94,-2.8 1.04,-4.6l0 0c-0.89,-1.8 -2.83,-2.68 -4.3,-1.95l-8.9 4.43c-1.47,0.73 -3.4,-0.14 -4.3,-1.95l0 0c-0.89,-1.8 -0.43,-3.87 1.04,-4.6l9.75 -4.85 0.89 -0.44 0.98 -0.49c1.47,-0.73 1.94,-2.8 1.04,-4.6l0 0c-0.89,-1.8 -2.83,-2.68 -4.3,-1.95l-7.26 3.61 -0.7 0.35c-1.47,0.73 -3.4,-0.14 -4.3,-1.95l0 0c-0.89,-1.8 -0.43,-3.87 1.04,-4.6l0.7 -0.35 1.74 -0.86c1.47,-0.73 1.94,-2.8 1.04,-4.6l0 0c-0.89,-1.8 -2.83,-2.68 -4.3,-1.95l-50.97 25.36c-1.47,0.73 -1.94,2.81 -1.04,4.6l0 0c0.9,1.81 2.83,2.68 4.3,1.95l2.67 -1.33 1.17 -0.58c1.47,-0.73 3.4,0.15 4.3,1.95l0 0c0.9,1.81 0.43,3.87 -1.04,4.6l-6.23 3.1 -3.24 1.61c-1.47,0.73 -1.94,2.81 -1.04,4.6l0 0c0.9,1.81 2.83,2.68 4.3,1.95l0 0z"/>
  <g id="_1935154539872">
   <g>
    <path class="fil1" d="M25.7 47.06c0,-0.91 -0.74,-1.64 -1.64,-1.64 -0.91,0 -1.64,0.74 -1.64,1.64 0,0.73 0.49,1.35 1.15,1.56l0 6.7c0,0.27 0.22,0.49 0.49,0.49 0.27,0 0.49,-0.22 0.49,-0.49l0 -6.7c0.67,-0.21 1.15,-0.82 1.15,-1.56z"/>
   </g>
   <g>
    <path class="fil1" d="M20.33 47.06c0,-0.91 -0.74,-1.64 -1.64,-1.64 -0.91,0 -1.64,0.74 -1.64,1.64 0,0.73 0.49,1.35 1.15,1.56l0 6.7c0,0.27 0.22,0.49 0.49,0.49 0.27,0 0.49,-0.22 0.49,-0.49l0 -6.7c0.67,-0.21 1.15,-0.82 1.15,-1.56z"/>
   </g>
   <g>
    <path class="fil1" d="M14.96 47.06c0,-0.91 -0.74,-1.64 -1.64,-1.64 -0.91,0 -1.64,0.74 -1.64,1.64 0,0.73 0.49,1.35 1.15,1.56l0 6.7c0,0.27 0.22,0.49 0.49,0.49 0.27,0 0.49,-0.22 0.49,-0.49l0 -6.7c0.67,-0.21 1.15,-0.82 1.15,-1.56z"/>
   </g>
   <g>
    <path class="fil1" d="M9.58 47.06c0,-0.91 -0.74,-1.64 -1.64,-1.64 -0.91,0 -1.64,0.74 -1.64,1.64 0,0.73 0.49,1.35 1.15,1.56l0 6.7c0,0.27 0.22,0.49 0.49,0.49 0.27,0 0.49,-0.22 0.49,-0.49l0 -6.7c0.67,-0.21 1.15,-0.82 1.15,-1.56z"/>
   </g>
   <g>
    <g>
     <path class="fil1" d="M42.88 26.15l2.03 11.2 -14.43 0 2.03 -11.2 10.37 0zm0.92 -1.11l0 0 -12.22 0 -2.43 13.41 17.08 0 -2.43 -13.41z"/>
    </g>
    <g>
     <path class="fil1" d="M45.52 40.72l1.28 7.04 -18.21 0 1.28 -7.04 15.65 0zm0.92 -1.11l0 0 -17.5 0 -1.68 9.25 20.85 0 -1.68 -9.25z"/>
    </g>
    <g>
     <path class="fil1" d="M47.41 51.13l0.51 2.8 -20.44 0 0.51 -2.8 19.43 0zm0.92 -1.11l0 0 -21.27 0 -0.91 5.01 23.09 0 -0.91 -5.01z"/>
    </g>
   </g>
   <g>
    <polygon class="fil1" points="27.06,50.03 26.15,55.04 37.7,55.04 37.7,50.03 "/>
   </g>
   <g>
    <polygon class="fil1" points="37.71,48.87 37.86,39.61 28.95,39.61 28.3,43.18 27.27,48.87 "/>
   </g>
   <g>
    <polygon class="fil1" points="37.87,38.46 37.87,25.05 31.59,25.05 29.16,38.46 "/>
   </g>
   <g>
    <polygon class="fil1" points="42.56,54.74 42.14,50.81 43.24,50.72 43.66,54.64 "/>
   </g>
   <g>
    <polygon class="fil1" points="41.93,48.49 41.27,40.27 42.37,40.18 43.03,48.4 "/>
   </g>
   <g>
    <polygon class="fil1" points="41.1,37.76 40.4,25.08 41.5,25.02 42.21,37.7 "/>
   </g>
   <g>
    <path class="fil1" d="M31.59 23.41l12.22 0c0,-3.09 -2.51,-5.6 -5.6,-5.6l-1.02 0c-3.09,0 -5.6,2.51 -5.6,5.6z"/>
   </g>
   <path class="fil1" d="M22.5 41.22l-5.41 -5.41 14.95 -14.95 5.41 5.41 -14.95 14.95zm-4.24 -5.41l0 0 4.24 4.24 13.77 -13.77 -4.24 -4.24 -13.77 13.77z"/>
   <polygon class="fil1" points="20.38,38.51 19.79,37.93 40.66,17.06 41.24,17.65 "/>
   <polygon class="fil1" points="23.8,39.33 18.98,34.5 19.56,33.92 24.39,38.74 "/>
   <polygon class="fil1" points="25.4,37.73 20.57,32.91 21.16,32.32 25.98,37.15 "/>
   <polygon class="fil1" points="26.99,36.14 22.17,31.31 22.76,30.73 27.58,35.55 "/>
   <polygon class="fil1" points="28.59,34.54 23.77,29.72 24.35,29.13 29.17,33.96 "/>
   <polygon class="fil1" points="30.18,32.95 25.36,28.12 25.95,27.54 30.77,32.36 "/>
   <polygon class="fil1" points="31.78,31.35 26.96,26.53 27.54,25.94 32.37,30.76 "/>
   <polygon class="fil1" points="33.38,29.75 28.55,24.93 29.14,24.35 33.96,29.17 "/>
   <polygon class="fil1" points="34.97,28.16 30.15,23.34 30.73,22.75 35.56,27.57 "/>
   <path class="fil1" d="M43.36 20.36l-5.41 -5.41 14.95 -14.95 5.41 5.41 -14.95 14.95zm-4.24 -5.41l0 0 4.24 4.24 13.77 -13.77 -4.24 -4.24 -13.77 13.77z"/>
   <polygon class="fil1" points="41.24,17.65 40.66,17.06 55.02,2.7 55.6,3.29 "/>
   <polygon class="fil1" points="44.66,18.47 39.84,13.64 40.43,13.06 45.25,17.88 "/>
   <polygon class="fil1" points="46.26,16.87 41.44,12.05 42.02,11.46 46.84,16.29 "/>
   <polygon class="fil1" points="47.85,15.28 43.03,10.45 43.62,9.87 48.44,14.69 "/>
   <polygon class="fil1" points="49.45,13.68 44.63,8.86 45.21,8.27 50.04,13.09 "/>
   <polygon class="fil1" points="51.05,12.08 46.22,7.26 46.81,6.68 51.63,11.5 "/>
   <polygon class="fil1" points="52.64,10.49 47.82,5.67 48.4,5.08 53.23,9.9 "/>
   <polygon class="fil1" points="54.24,8.89 49.41,4.07 50,3.48 54.82,8.31 "/>
   <polygon class="fil1" points="55.83,7.3 51.01,2.47 51.59,1.89 56.42,6.71 "/>
   <path class="fil1" d="M32.04 20.36l-14.95 -14.95 5.41 -5.41 14.95 14.95 -5.41 5.41zm-13.77 -14.95l0 0 13.77 13.77 4.24 -4.24 -13.77 -13.77 -4.24 4.24z"/>
   <polygon class="fil1" points="40.66,24.15 19.79,3.29 20.38,2.7 41.24,23.57 "/>
   <polygon class="fil1" points="19.56,7.3 18.98,6.71 23.8,1.89 24.39,2.47 "/>
   <polygon class="fil1" points="21.16,8.89 20.57,8.31 25.4,3.48 25.98,4.07 "/>
   <polygon class="fil1" points="22.76,10.49 22.17,9.9 26.99,5.08 27.58,5.67 "/>
   <polygon class="fil1" points="24.35,12.08 23.77,11.5 28.59,6.68 29.17,7.26 "/>
   <polygon class="fil1" points="25.95,13.68 25.36,13.09 30.18,8.27 30.77,8.86 "/>
   <polygon class="fil1" points="27.54,15.28 26.96,14.69 31.78,9.87 32.37,10.45 "/>
   <polygon class="fil1" points="29.14,16.87 28.55,16.29 33.38,11.46 33.96,12.05 "/>
   <polygon class="fil1" points="30.73,18.47 30.15,17.88 34.97,13.06 35.56,13.64 "/>
   <path class="fil1" d="M52.9 41.22l-14.95 -14.95 5.41 -5.41 14.95 14.95 -5.41 5.41zm-13.77 -14.95l0 0 13.77 13.77 4.24 -4.24 -13.77 -13.77 -4.24 4.24z"/>
   <polygon class="fil1" points="55.02,38.51 40.66,24.15 41.24,23.57 55.6,37.93 "/>
   <polygon class="fil1" points="40.43,28.16 39.84,27.57 44.66,22.75 45.25,23.34 "/>
   <polygon class="fil1" points="42.02,29.75 41.44,29.17 46.26,24.35 46.84,24.93 "/>
   <polygon class="fil1" points="43.62,31.35 43.03,30.76 47.85,25.94 48.44,26.53 "/>
   <polygon class="fil1" points="45.21,32.95 44.63,32.36 49.45,27.54 50.04,28.12 "/>
   <polygon class="fil1" points="46.81,34.54 46.22,33.96 51.05,29.13 51.63,29.72 "/>
   <polygon class="fil1" points="48.4,36.14 47.82,35.55 52.64,30.73 53.23,31.31 "/>
   <polygon class="fil1" points="50,37.73 49.41,37.15 54.24,32.32 54.82,32.91 "/>
   <polygon class="fil1" points="51.59,39.33 51.01,38.74 55.83,33.92 56.42,34.5 "/>
   <g>
    <path class="fil1" d="M39.2 20.61c0,0.83 -0.67,1.5 -1.5,1.5 -0.83,0 -1.5,-0.67 -1.5,-1.5 0,-0.83 0.67,-1.5 1.5,-1.5 0.83,0 1.5,0.67 1.5,1.5z"/>
   </g>
   <g>
    <path class="fil1" d="M50.52 55.04l-1.28 -6.77c0,0 4.1,-1.11 6.88,2.13 0,0 -1.62,1.16 -2.15,2.13 0,0 4.24,-3.59 8.37,0.3 0,0 -0.37,-1.29 -1.47,-2.07 0,0 4.7,-0.43 5.89,4.27l-16.24 0z"/>
   </g>
  </g>
 </g>
</svg>
